<?xml version="1.0" encoding="utf-8"?>
<!-- Generator: Adobe Illustrator 21.0.0, SVG Export Plug-In . SVG Version: 6.00 Build 0)  -->
<!DOCTYPE svg PUBLIC "-//W3C//DTD SVG 1.1//EN" "http://www.w3.org/Graphics/SVG/1.1/DTD/svg11.dtd">
<svg version="1.1" id="Layer_1" xmlns="http://www.w3.org/2000/svg" xmlns:xlink="http://www.w3.org/1999/xlink" x="0px" y="0px"
	 viewBox="0 0 272.3 271.4" style="enable-background:new 0 0 272.3 271.4;" xml:space="preserve">
<style type="text/css">
	.st0{fill:#FFFFFF;}
</style>
<g>
	<path class="st0" d="M135.4,0.2c2,0,3.1,0.1,4.3,0c5.6-0.7,11.1,0.6,16.6,1.2c6.5,0.7,12.8,2.8,19.4,3.9c3.5,2.5,7.8,2.9,11.6,4.5
		c6.3,2.7,12.3,5.7,18.2,9.1c4.1,2.3,7.8,5.1,11.9,7.4c2.7,1.6,5,4,7.5,6.2c2.1,1.8,3.7,4.1,6.3,5.3c1.7,0.8,1.8,3.3,3.8,3.8
		c0.7,2.8,3.2,4,5,5.9c4.3,4.5,7.5,9.8,10.9,15c3.7,5.7,7.1,11.7,9.8,17.9c2.2,5.1,4.3,10.2,5.6,15.7c0.9,3.9,2,7.8,3.2,11.7
		c0.8,2.6-0.3,5.5,1.6,7.8c-0.3,5.2,1.4,10.3,1.1,15.6c-0.4,5.3,0.5,10.8-0.2,16c-1.1,7.9-2.4,15.8-4.6,23.5
		c-2.1,7.4-4.7,14.4-7.6,21.4c-1.2,2.9-3,5.4-4.3,8.2c-1.3,2.9-3.3,5.3-4.8,8c-3.5,6.4-8.1,11.9-13.2,17c-2.2,2.2-3.8,4.8-6.1,6.9
		c-4.6,4.4-9.8,8.2-14.8,12.1c-6.7,5.3-14.1,9.4-21.6,13.2c-6.6,3.3-13.6,5.7-20.8,7.8c-6.6,2-13.5,2.3-20,4.8c-0.1,0.1-0.3,0-0.5,0
		c-7.9-0.3-15.7,2.1-23.6,0.9c-3.9-0.6-7.9-0.2-11.6-1c-4.9-1.1-9.9-1.5-14.8-2.9c-4.6-1.3-9.5-2.1-13.8-4.1
		c-6.3-2.9-13.1-4.7-18.9-8.8c-3.7-2.6-7.8-4.6-11.6-7c-3.3-2.1-6.4-4.6-9.6-6.9c-3.9-2.9-7.6-6.3-10.9-9.8
		c-5.5-5.9-11.1-11.9-15.5-18.6c-4.3-6.6-8.3-13.5-11.4-20.7c-3.3-7.7-6.5-15.4-8.1-23.7c-1.1-5.9-3.1-11.6-2.9-17.8
		c-1.7-3.7-0.8-7.7-1-11.6c-0.1-3.8-0.1-7.7,0-11.5c0.1-2,0.6-4.1,0.9-6.1c0.3-2-0.7-4.3,1-6.1c-0.7-4.6,1.7-8.7,2.2-13.2
		c0.4-3.3,1.8-6.5,3-9.7c2.3-6.2,4.5-12.5,7.8-18.2c2.2-3.9,4.7-7.7,6.9-11.6c6.2-10.9,15.2-19.4,24.1-28
		c5.1-4.8,10.8-8.9,16.8-12.5c5-3.1,10.1-6.2,15.4-8.6C83.1,10.5,87.9,8.5,93,7c3.6-1,7.1-2.2,10.7-3.2c1.2-0.3,2.5-0.4,3.7-0.7
		c1.2-0.3,2.4-0.7,3.6-1c3.2-0.6,6.5-0.5,9.5-1.2C125.8-0.3,131,0.7,135.4,0.2z M135.9,262.2c2.8,0,5.7,0.1,8.5,0
		c2.7-0.2,5.4-0.6,8.1-1c3-0.4,6.1-0.7,9.1-1c1.4-2.1,3.7-0.4,5.4-1.4c3.1-1.7,6.7-2.3,10-3.5c9.1-3.2,17.9-6.9,26-12.2
		c7.6-4.9,15.1-9.8,21.1-16.6c3.4-3.8,7-7.3,10.3-11.2c5.4-6.3,9.5-13.3,13.6-20.4c1.8-3.2,3.3-6.6,4.7-10c3.2-7.4,5.4-15.1,7.4-23
		c0.7-2.7,0.1-5.7,1.1-8c1-2.5,0.5-4.8,0.8-7.2c0.3-2.4,0.7-4.7,1-7.1c0.8-6.7-1.4-13.4-1-20.1c0-0.4-0.2-0.9-0.3-1.3
		c-0.6-2.4-1.1-4.9-1.6-7.3c-0.6-3.1-1-6.2-2-9.2c-1.7-5-2.8-10.2-5.1-14.9c-4.3-8.8-8.6-17.6-14.8-25.4c-3.4-4.2-6.5-8.7-10.1-12.7
		c-4.9-5.4-11-9.4-16.6-14c-3.7-3-8.1-5.1-11.6-8.4c-7.2-2.8-13.5-7.3-21.1-9.5c-6.1-1.7-12.1-3.8-18.4-5c-2-0.4-4.3-0.2-6.1-1
		c-3.4-1.5-7,0.1-10.1-1c-3.4-1.2-6.8-0.8-10.1-0.8c-3.5,0-7.1,0.6-10.6,0.9c-3.5,0.3-7.2,0.1-10.5,1.1c-5.6,1.8-11.4,2.9-17,4.7
		c-11.4,3.6-21.5,9.4-31.5,15.6c-5.4,3.3-10.2,7.7-15.1,11.9c-6.9,6-12.5,13.2-17.7,20.7C28,69.5,24.7,75,22,80.8
		c-1.5,3.2-3.1,6.4-4.6,9.6c-0.2,0.4-0.2,0.9-0.4,1.3c-2,6.5-4.7,12.9-5,19.9c-2.3,1.5,0.3,4.6-2,6.2c0,2.2,0.1,4.3,0,6.5
		c-0.2,2.2-1,4.4-0.9,6.6c0.2,5.4-0.6,10.7,0.8,16.1c0.8,3,0.3,6.3,0.9,9.6c1.1,5.9,2.6,11.6,4.2,17.3c2.6,9.1,7,17.5,11.1,25.9
		c1.7,3.4,4.1,6.3,6.3,9.4c2.4,3.2,4.7,6.5,7.4,9.4c6.8,7,13.6,14.2,21.7,19.9c4.6,3.2,9.5,6.1,14.4,8.8c3.5,1.9,7.2,3.5,10.8,5.4
		c3.7,1.9,8.1,2.1,11.6,4.5c1.1,0.7,2.7,1.1,4,1.1c4.3,0,8.2,2.8,12.7,2.1c2.3,2.1,5.3,0.6,7.9,1.4c2.7,0.8,5.8,0.5,8.8,0.6
		C133.2,262.3,134.6,262.2,135.9,262.2z"/>
	<path class="st0" d="M69.1,147.2c0.4,0.8,0.8,1.6,1.2,2.4c-0.2,0.2-0.3,0.4-0.5,0.5c-0.4-0.3-0.7-0.7-1.1-0.9c-0.4-0.2-1,0-1.5-0.1
		c-0.6-0.2-1.1-0.6-1.7-0.9c-0.4,0.4-0.8,0.8-1.5,1.5c0.8,0.6,1.5,1.1,2.6,1.9c-5.1,1.7-9.6-1.6-14.2-0.3c-0.6,1.6-1.1,3.2-1.6,4.8
		c-0.8,0-1.5,0-2.5,0c-0.1-1.8-0.2-3.7-0.3-5.4c-0.5-0.6-0.9-1.1-1.6-1.9c-0.6,2.2-1.2,4.1-1.7,6.1c-0.3,0.1-0.8,0.2-1.3,0.3
		c1.2,2.5,0.5,5.2,0.7,7.9c-0.5,0-1.1-0.2-1.5,0c-0.7,0.3-1.3,0.9-1.9,1.3c7.4,10.7,7.4,10.7,6.8,14c-2.9-2-5.3-4.2-6.7-7
		c-0.9,0.2-1.8,0.5-2.7,0.7c-0.3-1-0.7-2-1.1-3.3c-0.7,0.6-1.1,0.9-1.8,1.5c-0.5-3.3-1-6.4-1.7-10.2c-0.2-0.1-1-0.7-1.5-1
		c0.1-5.6-1.8-10.5-1-15.6c-1.9-5.1-1.3-10.5-0.8-15.6c0.6-5.4,0.3-11.1,2.7-16.3c-0.7-3.7,1.7-6.7,2.1-10.1
		c0.2-2.1,1.2-4.1,2.1-6.1c1.5-3.4,3.1-6.7,4.8-10c1.7-3.2,3.3-6.4,5.5-9.2c2.7-3.6,5.1-7.4,8.4-10.6c2-2,3.4-4.3,5.9-6.1
		c2.1-1.6,4-4,6.2-5.7c7.2-5.5,14.7-10.6,23.1-14.2c4.4-1.9,9-3.1,13.3-5.2c1.9-0.9,4.3-0.9,6.4-1.3c4.5-0.9,9.1-1.5,13.6-2.2
		c4.4-0.7,8.8-0.3,13.1-0.8c3.8-0.4,7.3,1.2,11.1,1.1c3.5-0.1,6.8,1.4,10.2,1.8c5.4,0.6,10.3,2.4,15.3,4.2c6.3,2.2,12.4,4.6,18,8.5
		c2.7,1.9,5.6,3.5,8.3,5.2c1.5,1,2.7,2.2,4.1,3.3c1.3,1,2.6,1.8,3.8,2.8c6.4,5.8,12,12.3,16.6,19.6c4,6.4,7.7,13,10.2,20.3
		c1.7,4.8,2.8,9.8,4.6,14.6c0.7,1.8,0.4,3.7,1,5.6c1,3.3,0.8,7,1.2,10.5c0.3,2.7,0.8,5.4,1,8.1c0.2,2.8,0.4,5.7-0.1,8.5
		c-0.5,2.6-1,5.3-0.9,8.7c-1.6-1.1-2.6-1.8-3.8-2.6c-0.3,0-1.1-0.2-1.7,0c-0.5,0.2-0.9,0.8-1.3,1.1c-0.6-0.3-1.1-0.4-1.1-0.6
		c-0.8-2.4-2.1-4.5-0.2-7.2c0.8-1.1,0.1-3.2,0.1-4.5c-0.6-1.1-1-2-1.4-2.8c-0.8,2.6-0.8,2.6-3,4.7c-1.2,0.3-2.1,0.6-3.1,0.8
		c-0.9-0.3-2.1-0.6-3.4-0.9c-0.8-1.2-1.7-2.5-2.6-3.8c-3.5,0.6-1.9,4.8-4.6,5.5c0.5,1.4,0.9,2.6,1.4,4c-4.4,2.2-6.1,6.3-8.4,10.6
		c3-0.2,2.7-4.6,6.1-3.9c-1.5,2.1-2.8,4-4.4,6.2c3.4,1,4.3,3.7,4.6,7c1.6-1.6,2.9-2.9,4.5-4.5c0.2,1.5,0.3,2.7,0.4,4
		c0.4,0.1,0.9,0.2,1.5,0.3c0.2-1,0.4-1.9,0.6-3c2.1-0.4,4.5-0.3,6.3-1.3c2.2-1.3,3.9-0.8,5.3,0.2c3.8-0.6,0.3-6.1,5.2-5.9
		c-0.3,0.9-0.5,1.7-0.9,2.9c2.2,3.4,0.7,7.4-0.7,10.9c-1.4,3.5-2.1,7.6-5.2,10.4c-0.2,3.1-3,4.9-4.2,7.6c0-1.6,0-3.1,0-5.3
		c-3.1,3.4-5.7,6.4-8.3,9.3c-1-0.6-1.9-1.1-3-1.7c0.5-0.8,0.8-1.4,1.3-2.2c-0.5-1-1.1-2.1-1.9-3.6c-0.7,1-1.2,1.7-1.6,2.3
		c-0.1-0.1-0.5-0.2-0.5-0.4c-0.3-2.7,1.5-4.4,3.3-6.4c-0.8-0.8-1.6-1.5-2.6-2.6c-0.5,1.1-0.8,1.8-1.2,2.7c-0.7-1-1.4-1.9-2.2-3
		c1.2-1.1,2.8-2.5,4.4-3.9c-1.7-1.7-3.9-2.7-6.7-1.9c0.4,0.8,0.8,1.4,1.6,2.7c-3.1-1-5.5-1.1-7.7-2.9c-1.9-1.6-4.3-1.8-6.6-0.2
		c-0.5-1.1-1-2.2-1.6-3.4c0.7-0.2,1.1-0.4,1.6-0.6c0.4,0.7,0.7,1.4,1.1,2.3c0.7-3.3,4-4.2,5.2-7.1c-0.4,0.3-0.8,0.5-1.4,1
		c-0.2-1-0.4-2-0.7-3.5c-2,1.2-3.7,2.2-6,3.6c1.6-3.5,1.9-7.2,5.8-8c1.6-2.6-0.5-4.5-0.5-6.7c0-2.2-0.7-4.3-1.2-6.8
		c-1,0.5-1.7,0.9-2.4,1.3c-0.4-0.4-0.9-0.9-1.3-1.3c0.9-1.1,1.1-2.8,2.9-3.1c-3.6-1.8-5.7,2.3-10,1.4c1.5,2,2.4,3,3.1,4
		c0.9-0.4,1.7-0.6,3.2-1.2c-2,5.4-2.8,10.2-5.1,14.6c-2.2,4.2-4.8,8.3-7.6,13.1c1.3-0.5,1.9-0.7,2.5-1c1.1-0.6,2.1-1.4,3.3-2.2
		c0.6,1.3,1.3,2.6,1.8,3.6c0.9-0.2,1.8-0.5,2.7-0.7c-0.8,1.3-1.6,2.5-2.3,3.9c-0.4,0.8-0.6,1.7-0.9,2.5c1.1,0.6,2.1,1.2,3.2,1.8
		c0,0.9,0,1.9,0.1,2.8c-0.8,0-1.4,0.1-2,0.1c0,1.4,0,2.6,0,4.8c0.9-2.3,1.5-3.5,2-5c1.2,0.4,2.5,0.8,4,1.2c0.8-0.7,1.6-1.4,2.6-2.4
		c0,1.1,0,1.9,0,2.8c-2,1.6-6.1,0.7-6.4,5.1c0.1,0,0.6,0.2,1.3,0.5c0.8,1.5,0.4,2.8-1.4,3.6c-0.2-0.2-0.5-0.5-0.8-0.8
		c-0.3,0.7-0.6,1.3-1.1,2.3c-1.2-0.9-2.3-1.8-3.4-2.6c0.8-0.7,1.5-1.2,2.3-1.8c-2.3-2.5-4,1.4-6.3-0.4c0-0.9,0-2.2,0-3.4
		c0.3-0.3,0.7-0.7,0.9-1c0,0,0.1,0.1,0.1,0.2c0.3-0.2,0.5-0.5,0.8-0.7c-0.1-0.1-0.2-0.2-0.3-0.3c-0.2,0.3-0.5,0.5-0.6,0.9
		c-0.3,0.4-0.6,0.7-0.9,1c-0.5,0-1,0-1.6,0c-0.6,1.2-1.1,2.5-1.9,4.2c-0.4-0.8-0.6-1.4-0.8-2c-0.5-0.1-0.9-0.2-1.4-0.4
		c-1.2-2.1,0.6-3.1,2.2-4.8c-1.2,0-1.9,0-2.5,0c0.4-0.7,0.7-1.4,1-2c-0.5-2.5-4.4-1.8-4.2-5c-5.6-0.4-8.9,2.5-11.3,7.1
		c-0.9-1.4-1-3.3-3.3-3.2c-1.7,0.1-2.4-1.3-2.4-3.2c-0.7,0.6-1,0.9-1.2,1c-2-0.3-3.9-0.5-5.7-0.8c-0.8-1.4-1.8-2.4-3.4-3.1
		c-1.4-0.7-3.4-1.9-2.3-4.6c1.2-0.1,2.8-0.2,4.5-0.4c1.9-3.1,4-6.1,7.9-7.7c0.9,1.1,2,2.4,3,3.7c1.6-1.9,3.9-0.2,5.9-0.9
		c0.5-0.8,0.9-1.6,1.4-2.3c0.5-0.8,1-1.6,1.6-2.6c0.4,0.1,1,0.3,2.3,0.6c0.9-0.4,2.5-1,4.9-1.9c-2.4-1.6-4.2-2.8-5.6-3.8
		c-3.7,0.5-6.1,2.5-8.8,4c-0.2-0.6-0.5-1.2-0.7-1.7c-1.7,1.3-3.4,2.6-5.2,3.9c-2.1-3.9-3.6-4.6-7.6-3.5c-2.3,0.6-4.6,0.8-7.1-0.2
		c-3.3-1.3-6.7-2.2-10.2-3.2c-0.4-0.1-1,0.5-1.8,0.9c-0.8-0.7-1.8-1.5-2.8-2.4c-0.6,0.5-1.1,0.8-1.8,1.4c0-1.3,0-2.4,0-3.6
		c-1.4-0.6-2.6-1.2-3.9-1.8c-0.5-1-1-2.1-1.6-3.5c-0.5,0-1.3,0-2.3,0c-0.9-1.1-1.8-2.3-2.6-3.2c-1.1,0-1.7,0-2.4,0
		c-0.9,2.6-1.9,5.2-2,9.2c0.2,0.5,0.6,0.3,0.5,0.2c-0.1-0.5-0.3-0.9-0.4-1.4c-0.2,0.6-0.3,1.2-0.1,1.2c0.9-1.5,1.3-1.7,1.6-2
		c0.2-0.4,0.3-0.8,0.5-1.4c1.1,0.5,2.1,1,3.3,1.5c0,1.2,0,2.7,0,4.2c-2.1,0.4-1.9,3.2-3.8,3.9c0.5,0.6,0.8,0.9,1.1,1.4
		c-0.2,0.4-0.4,0.9-0.7,1.2c-1.9,2.1-4.1,3.5-7.5,2.8c-0.7-1.7-1.4-3.5-2.1-5.4c-1.1-0.5-2.2-1-4.1-1.9c1.6,3.9,1,7.7,5.1,10.5
		c-2.8,0-4.8,0.2-6.7-0.1c-1.8-0.3-3.5-1.4-5.3-1.6c-3.9-0.4-6.9-2.6-10.2-4.2c-2.3-1.1-4.9-1.7-7.7-2.6c0.9-0.7,1.8-1.4,2.9-2.2
		c0.5,0.7,1.1,1.7,1.8,2.8c0.4-0.5,0.8-1,1.3-1.5c-1-1.3-1.1-3.6-3.5-3.8c-0.4,0-0.9-0.6-1-1C73.4,147.5,71.3,147.2,69.1,147.2
		c-0.3-0.3-0.7-0.7-1.3-0.8c0.7-1,1.4-1.8,2.2-2.8c0,0-0.2-0.2-0.7-0.7c-0.9,1-2.7,1.1-1.5,3.5C68.4,146.6,68.8,146.9,69.1,147.2z
		 M161.2,38.2c-3.7,0.9-7.7-2.3-12.1-0.6c0.7,0.8,1.3,1.5,2.4,2.8c-2.9,0-5.2,0-7.2,0c-0.3,0.8-0.4,1.3-0.6,1.7
		c-0.1,0.3-0.4,0.6-0.6,0.9c1.9,0.3,3.4,0.7,5,0.9c1.8,0.2,3.5,0.3,5.3,0.5c0.2,0,0.4,0.4,0.8,0.9c-0.6,0.8-1.3,1.6-2.1,2.5
		c-1.2-1.1-2.2-1.9-3.3-2.8c-0.7,0.9-1.1,1.5-1.6,2.1c0.2,0.4,0.5,1.1,1,2c-1.3,0.2-2.2,0.3-3.1,0.5c0.3,0.3,0.5,0.6,0.8,0.9
		c-1,0.4-2.1,0.9-3.1,1.3c0.1,0.2,0.3,0.5,0.4,0.7c2.5-0.4,5.1-0.7,7.5-1.1c0.2,0.8,0.3,1.3,0.4,1.8c1.6,0,3,0,4.6,0
		c0.6-1,1.1-1.9,1.6-2.8c1.5-0.1,3-0.2,4.6-0.4c-1-1.7-2.2-2-3.6-1.8c-0.4,0.1-0.9-0.1-1.5-0.2c0.1-1.4,0.2-2.6,0.3-4.1
		c1.7,0.5,3,0.9,4.4,1.3c-0.1-2.3,3.5-2.9,2.2-5.6C163.2,39.2,162.4,38.8,161.2,38.2z M102.4,146.4c-0.4-1-0.9-2.1-1.3-3.1
		c-1.5,0-2.6,0-3.7,0c-1.6,2.1-4.9,2.3-5,5c0.8,1.1,1.5,2.1,2.4,3.4C97.5,149.8,99.8,148.3,102.4,146.4z M169.6,42.4
		c-1.5,0-2.9,0-5.2,0c1.3,0.6,1.9,0.9,2.1,1c1,2.5,1.9,4.6,2.8,6.7c2.8,0.5,5-0.3,6.4-2.1C173.6,46,171.5,44.2,169.6,42.4z
		 M114.3,134.4c-1.9,0-3,0-4.6,0c0.6,1.6,1.1,2.8,1.5,3.7c1.6,0,2.7,0,4.2,0C115,136.7,114.6,135.5,114.3,134.4z M66.4,136.9
		c-0.2,3.3,0.4,4.3,2.2,4.3c0.5-0.7,1.1-1.5,1.7-2.4C69,138.2,67.9,137.6,66.4,136.9z M218.6,179.1c0.4-2.6,0.3-5.4,2.5-7.4
		c-0.1-0.1-0.2-0.2-0.4-0.4c-0.3,0-0.8,0-1.2,0C217.6,173.7,218.2,176.4,218.6,179.1z M122.2,37.6c0,0.2,0.1,0.3,0.1,0.5
		c1.9,0,3.7,0,6.1,0c-1-0.9-1.6-1.5-2.2-2.1C124.7,36.5,123.4,37.1,122.2,37.6z M126.9,147.2c0.8,1.2,1.3,2.6,3.2,1.6
		c-0.5-1.5-0.9-3.1-1.5-5.1c-0.3,1-0.4,1.5-0.6,2C127.7,146.4,127.2,146.8,126.9,147.2z M179.5,149.1c1.6,0,2.5,0,3.6,0
		c-0.1-0.7-0.2-1.3-0.3-2.3C181.7,147.6,180.9,148.1,179.5,149.1z M50.9,146.9c-0.5,0.2-1.2,0.5-1.6,0.6c0.6,1.1,1,1.9,1.6,3.2
		C50.9,148.9,50.9,147.6,50.9,146.9z M176.8,155.5c0.3,0.2,0.6,0.4,0.9,0.6c0.2-1,2.2-0.8,0.9-3.1C178,154,177.4,154.8,176.8,155.5z
		 M165.8,40.2c-0.1,0-0.2,0-0.3,0c0,0.3,0,0.7,0,1c0.1,0,0.2,0,0.3,0C165.8,40.9,165.8,40.6,165.8,40.2z"/>
	<path class="st0" d="M68.7,163.3c-2.1,0.4-4.1,0.8-6,1.1c-0.9-1.8-1.7-3.3-2.6-5.1c0-1,0-2.3,0-4c1.2-0.1,2.4-0.1,3.8-0.2
		c1.2,2.1,2.4,4.1,3.6,6.3c0.7-1.2,1.2-2.2,2.1-3.7c0.4,1.1,0.7,1.8,0.9,2.6c0.2-0.2,0.4-0.4,0.6-0.6c-0.5,1.5-1,2.9-1.5,4.4
		C69.3,163.9,68.9,163.6,68.7,163.3z"/>
	<path class="st0" d="M188.7,167.4c1.3-1.3,2.3-2.3,3.5-3.5c0.7,0.6,1.4,1.3,2.2,2c-0.5,0.7-0.9,1.4-1.4,2.1
		c0.3,0.6,0.6,1.2,0.9,1.8c-1.3,1.2-1.8-0.3-2.5-0.8C190.7,168.5,189.9,168.1,188.7,167.4z"/>
	<path class="st0" d="M141.1,241.5c-3.3,0.8-6.7,0.8-10,0C134.4,241.5,137.8,241.5,141.1,241.5z"/>
	<path class="st0" d="M150.1,176.2c0,0.5,0,1,0,1.5c0.6,0.3,1.3,0.6,2.2,1c-0.9,0.6-1.7,1.2-2.9,2c-0.1-1.8-0.2-3-0.3-4.1
		C149.5,176.5,149.8,176.3,150.1,176.2z"/>
	<path class="st0" d="M83.2,164c0-1,0-1.8,0-2.3c0.8,0.8,1.6,1.6,2.3,2.3C85.1,164,84.1,164,83.2,164z"/>
	<path class="st0" d="M65.2,214.1c0.3,0.2,0.5,0.5,0.8,0.7c-0.1,0.1-0.2,0.2-0.3,0.3c-0.2-0.3-0.5-0.5-0.7-0.8
		C65.1,214.2,65.1,214.2,65.2,214.1z"/>
	<path class="st0" d="M65.1,214.2c-0.3-0.3-0.7-0.7-1-1C64.4,213.6,64.8,213.9,65.1,214.2z"/>
	<path class="st0" d="M63.1,212.2c0.3,0.3,0.7,0.7,1,1C63.8,212.9,63.4,212.6,63.1,212.2z"/>
	<path class="st0" d="M211.2,211.3c-0.2,0.3-0.5,0.5-0.7,0.8c-0.1-0.1-0.2-0.2-0.3-0.3c0.3-0.2,0.5-0.5,0.8-0.7
		C211.1,211.2,211.1,211.2,211.2,211.3z"/>
	<path class="st0" d="M62.1,211.2c0.3,0.3,0.7,0.7,1,1C62.8,211.9,62.4,211.6,62.1,211.2z"/>
	<path class="st0" d="M212.1,210.2c-0.3,0.3-0.7,0.7-1,1C211.4,210.9,211.8,210.6,212.1,210.2z"/>
	<path class="st0" d="M61.1,210.2c0.3,0.3,0.7,0.7,1,1C61.8,210.9,61.4,210.6,61.1,210.2z"/>
	<path class="st0" d="M213.1,209.2c-0.3,0.3-0.7,0.7-1,1C212.4,209.9,212.8,209.6,213.1,209.2z"/>
	<path class="st0" d="M60.1,209.2c0.3,0.3,0.7,0.7,1,1C60.8,209.9,60.4,209.6,60.1,209.2z"/>
	<path class="st0" d="M213.1,209.2c0.3-0.3,0.7-0.7,1-1C213.8,208.6,213.4,208.9,213.1,209.2z"/>
	<path class="st0" d="M59.1,208.2c0.3,0.3,0.7,0.7,1,1C59.8,208.9,59.4,208.6,59.1,208.2z"/>
	<path class="st0" d="M214.1,208.2c0.3-0.3,0.7-0.7,1-1C214.8,207.6,214.4,207.9,214.1,208.2z"/>
	<path class="st0" d="M59.1,208.2c-0.3-0.3-0.7-0.7-1-1C58.4,207.6,58.8,207.9,59.1,208.2z"/>
	<path class="st0" d="M215,207.1c0.2-0.3,0.5-0.5,0.7-0.8c0.1,0.1,0.2,0.2,0.3,0.3c-0.3,0.2-0.5,0.5-0.8,0.7
		C215.1,207.3,215.1,207.2,215,207.1z"/>
	<path class="st0" d="M58,207.3c-0.3-0.2-0.5-0.5-0.8-0.7c0.1-0.1,0.2-0.2,0.3-0.3c0.2,0.3,0.5,0.5,0.7,0.8
		C58.1,207.2,58.1,207.3,58,207.3z"/>
	<path class="st0" d="M216.8,204.2c0,0.3,0,0.7,0,1c-0.1,0-0.2,0-0.3,0c0-0.3,0-0.7,0-1C216.5,204.2,216.6,204.2,216.8,204.2z"/>
	<path class="st0" d="M177.2,182.3c-0.2,0.3-0.5,0.5-0.7,0.8c-0.1-0.1-0.2-0.2-0.3-0.3c0.3-0.2,0.5-0.5,0.8-0.7
		C177.1,182.2,177.1,182.2,177.2,182.3z"/>
	<path class="st0" d="M38.1,172.2c-0.2,0.3-0.4,0.6-0.7,0.8c-0.1-0.3-0.2-0.6-0.3-0.8C37.4,172.2,37.8,172.2,38.1,172.2z"/>
	<path class="st0" d="M44.2,163.1c0.3,0.2,0.5,0.5,0.8,0.7c-0.1,0.1-0.2,0.2-0.3,0.3c-0.2-0.3-0.5-0.5-0.7-0.8
		C44.1,163.2,44.1,163.2,44.2,163.1z"/>
	<path class="st0" d="M37,172.3c-0.3-0.2-0.5-0.5-0.8-0.7c0.1-0.1,0.2-0.2,0.3-0.3c0.2,0.3,0.5,0.5,0.7,0.8
		C37.1,172.2,37.1,172.3,37,172.3z"/>
</g>
</svg>
