<?xml version="1.0" encoding="utf-8"?>
<!-- Generator: Adobe Illustrator 21.0.0, SVG Export Plug-In . SVG Version: 6.00 Build 0)  -->
<!DOCTYPE svg PUBLIC "-//W3C//DTD SVG 1.1//EN" "http://www.w3.org/Graphics/SVG/1.1/DTD/svg11.dtd">
<svg version="1.1" id="Layer_1" xmlns="http://www.w3.org/2000/svg" xmlns:xlink="http://www.w3.org/1999/xlink" x="0px" y="0px"
	 viewBox="0 0 504.4 505.5" style="enable-background:new 0 0 504.4 505.5;" xml:space="preserve">
<style type="text/css">
	.st0{fill:#FFFFFF;}
</style>
<g>
	<path class="st0" d="M0,172.9c37.8-21.8,75.4-43.4,113.3-65.3c0-9.4,0-18.8,0-28.5C159.3,52.8,205,26.5,250.9,0
		c45.9,26.4,91.7,52.8,137.6,79.3c0,9.1,0,17.9,0,27c38.7,22.3,77.3,44.5,115.9,66.8c0,52.9,0,105.3,0,158.4
		c-38.4,22.2-77,44.4-115.8,66.8c0,9.2,0,18.4,0,28.1c-45.8,26.4-91.6,52.8-137.6,79.3c-45.8-26.4-91.5-52.7-137.3-79.1
		c0-9.8,0-19.5,0-29.5C75.7,375,37.8,353.2,0,331.4C0,278.5,0,226,0,172.9z M377.5,85.4C335.1,61,293.1,36.8,250.9,12.5
		C208.7,36.8,166.7,61,124.3,85.4c0,9.5,0,19,0,28.5c-38,21.9-75.8,43.6-113.4,65.3c0,48.8,0,97.3,0,145.9
		c37.8,21.8,75.6,43.6,113.6,65.5c0,9.9,0,19.7,0,29.6c42.4,24.4,84.4,48.6,126.4,72.8c42.4-24.5,84.5-48.7,126.7-73
		c0-9.5,0-18.6,0-28.1c38.7-22.3,77.3-44.5,115.9-66.8c0-48.8,0-97.3,0-145.9c-38.6-22.3-77.3-44.5-115.9-66.8
		C377.5,103.3,377.5,94.5,377.5,85.4z"/>
	<path class="st0" d="M377.7,231c0-30.5,0-60.8,0-91.8c31.3,18,61.9,35.7,92.6,53.3c0,39.7,0,79.2,0,119.2
		c-30.5,17.6-61.3,35.3-92.6,53.4c0-30.7,0-60.6,0-90.8c-12.3-7.1-24.5-14.2-37.5-21.7C352.9,245.4,365.1,238.4,377.7,231z"/>
	<path class="st0" d="M34,192.6c30-17.3,59.8-34.4,90.2-51.9c0,30.7,0,60.4,0,90.5c12.3,7.1,24.5,14.2,37.4,21.6
		c-12.7,7.3-24.9,14.4-37.3,21.5c0,29.5,0,58.9,0,89.5c-30.7-17.7-60.5-34.9-90.4-52C34,272,34,232.5,34,192.6z"/>
	<path class="st0" d="M147.7,392c34.7-20,69.5-40.1,104.4-60.2c34.1,19.6,67.9,39.1,102,58.7c0,5.3,0,10.6,0,16.2
		c-34.3,19.7-68.7,39.6-103.2,59.5c-34.5-19.9-68.8-39.6-103.2-59.5C147.7,402,147.7,397.2,147.7,392z"/>
	<path class="st0" d="M250.9,39.2c34.5,19.8,68.8,39.6,103.2,59.4c0,5,0,10,0,15.2c-33.8,19.5-67.7,39-102,58.7
		c-34.8-20.1-69.7-40.1-104.5-60.2c0-4.6,0-8.9,0-13.7C182,78.9,216.4,59,250.9,39.2z"/>
	<path class="st0" d="M240.2,192.3c0,5.3,0,10.1,0,15.2c-18.4,10.6-36.8,21.2-55.4,31.9c-12.5-7.2-24.9-14.3-37.2-21.4
		c0-26.2,0-52.2,0-79C178.8,156.9,209.4,174.6,240.2,192.3z"/>
	<path class="st0" d="M147.7,365.4c0-26.5,0-52.2,0-77.9c12.4-7.2,24.8-14.3,37.2-21.4c18.6,10.7,37.1,21.4,55.4,31.9
		c0,4.7,0,9,0,14C209.9,329.5,179.1,347.3,147.7,365.4z"/>
	<path class="st0" d="M354.2,140.4c0,26.3,0,51.6,0,77.5c-12.1,7-24.6,14.2-37.2,21.4c-17.8-10.2-35.3-20.3-52.9-30.5
		c0-5.6,0-10.9,0-16.6C293.8,175.2,323.6,158.1,354.2,140.4z"/>
	<path class="st0" d="M354.3,287.5c0,25.5,0,50.4,0,76.4c-30.4-17.5-60.3-34.7-90.2-51.9c0-5.3,0-10.2,0-15.5
		c17.5-10.1,35.1-20.2,52.9-30.5C329.4,273.2,341.7,280.3,354.3,287.5z"/>
	<path class="st0" d="M240.2,234.2c0,12.7,0,24.5,0,37.1c-10.8-6.2-21.1-12.1-32.2-18.5C218.9,246.5,229.2,240.6,240.2,234.2z"/>
	<path class="st0" d="M293.8,252.7c-9.9,5.7-19.4,11.2-29.5,17c0-11.6,0-22.4,0-33.9C274.3,241.5,283.7,246.9,293.8,252.7z"/>
</g>
</svg>
