<?xml version="1.0" encoding="utf-8"?>
<!-- Generator: Adobe Illustrator 21.0.0, SVG Export Plug-In . SVG Version: 6.00 Build 0)  -->
<!DOCTYPE svg PUBLIC "-//W3C//DTD SVG 1.1//EN" "http://www.w3.org/Graphics/SVG/1.1/DTD/svg11.dtd">
<svg version="1.1" id="Layer_1" xmlns="http://www.w3.org/2000/svg" xmlns:xlink="http://www.w3.org/1999/xlink" x="0px" y="0px"
	 viewBox="0 0 700 700" style="enable-background:new 0 0 700 700;" xml:space="preserve">
<style type="text/css">
	.st0{fill:#FFFFFF;stroke:#FFFFFF;}
</style>
<g>
	<g>
		<path class="st0" d="M273.7,527.5c23.4,10.1,49.2,15.7,76.3,15.7c106.5,0,193.2-86.7,193.2-193.3c0-27-5.6-52.8-15.7-76.2V172.4
			H426.2c-23.4-10.1-49.2-15.7-76.2-15.7c-106.6,0-193.2,86.7-193.2,193.2c0,27.1,5.6,52.8,15.7,76.2v101.4L273.7,527.5L273.7,527.5
			z M350,169.5c99.5,0,180.4,80.9,180.4,180.4c0,99.5-80.9,180.5-180.4,180.5s-180.5-81-180.5-180.5
			C169.5,250.5,250.5,169.5,350,169.5z"/>
		<path class="st0" d="M538.5,219.2v21.5C557.3,273,568.8,310,568.8,350c0,120.6-98.2,218.8-218.9,218.8c-40,0-77-11.6-109.3-30.3
			h-21.5c37.1,25.9,82.1,41.3,130.8,41.3c126.7,0,229.8-103,229.8-229.8C579.8,301.4,564.3,256.4,538.5,219.2z"/>
		<path class="st0" d="M350,131.2c40,0,77,11.6,109.3,30.3h21.5c-37.1-25.9-82.2-41.3-130.8-41.3c-126.7,0-229.7,103.1-229.7,229.8
			c0,48.6,15.4,93.6,41.3,130.8v-21.5C142.7,427,131.1,390,131.1,350C131.1,229.3,229.4,131.1,350,131.2z"/>
	</g>
	<polygon class="st0" points="237.1,360.2 317.1,378.4 340.4,461.8 433.7,263.8 	"/>
</g>
</svg>
