<?xml version="1.0" encoding="utf-8"?>
<!-- Generator: Adobe Illustrator 21.0.0, SVG Export Plug-In . SVG Version: 6.00 Build 0)  -->
<!DOCTYPE svg PUBLIC "-//W3C//DTD SVG 1.1//EN" "http://www.w3.org/Graphics/SVG/1.1/DTD/svg11.dtd">
<svg version="1.1" id="Layer_1" xmlns="http://www.w3.org/2000/svg" xmlns:xlink="http://www.w3.org/1999/xlink" x="0px" y="0px"
	 viewBox="0 0 96 96" style="enable-background:new 0 0 96 96;" xml:space="preserve">
<style type="text/css">
	.st0{fill:#F36F26;}
</style>
<g>
	<path class="st0" d="M65.4,46.9c0.6-3.3,1.2-6.7,1.9-10.9c3.8,7.8,7.5,14.8,9.5,22.4c2.6,9.6-2.5,21.3-11.2,26.1
		c-2.2,1.2-4.5,2.2-7.6,3.7c0.8-1.6,1.1-2.4,1.5-3.1c2.2-4.1,2.3-8.3,0.4-12.5c-3.2-7-7.7-13.1-12.6-19.7c-1.4,1.8-2.5,3.2-3.5,4.7
		c-2.7,4.2-5.5,8.3-8,12.6C33,75,32.8,80,35.2,85c0.1,0.3,0.3,0.6,0.4,0.9c0,0.1-0.1,0.3-0.3,0.5c-10.8-4.2-16.1-12.4-16.8-23.6
		c-0.3-5,1-9.9,3-14.5c3-7.2,7.6-13.3,13-18.7c7.8-7.7,16.6-14.2,26.1-20C55.6,26.6,57.2,35.6,65.4,46.9z"/>
</g>
</svg>
