<?xml version="1.0" encoding="utf-8"?>
<!-- Generator: Adobe Illustrator 21.0.0, SVG Export Plug-In . SVG Version: 6.00 Build 0)  -->
<!DOCTYPE svg PUBLIC "-//W3C//DTD SVG 1.1//EN" "http://www.w3.org/Graphics/SVG/1.1/DTD/svg11.dtd">
<svg version="1.1" id="Layer_1" xmlns="http://www.w3.org/2000/svg" xmlns:xlink="http://www.w3.org/1999/xlink" x="0px" y="0px"
	 viewBox="0 0 700 700" style="enable-background:new 0 0 700 700;" xml:space="preserve">
<style type="text/css">
	.st0{fill:#FFFFFF;stroke:#FFFFFF;}
</style>
<g id="Layer_3">
	<g>
		<path class="st0" d="M596.5,106.8l-0.9-0.8c-36.7,0.3-80.2,42.3-80.2,42.3L237.9,425.7l-3.9-3.9l-2.3,2.3
			c-9.2-9.2-22.7-22.8-22.7-22.8c-3-2.9-0.8-10.2-0.9-14.1l0.6-0.6L196,373.9l-28.4,28.3l11.7,11.7c0.1,0.2,0.2,0.4,0.4,0.6
			c0.1,0,0.2,0,0.3,0.1l0.4,0.4l0.4-0.4c3.9,0.1,10.2-1.2,13.2,1.7c0,0.1,13.6,13.6,30.2,30.3c1.2,10.5-17.1,30-20.2,33.2
			c-1.7,1.7-1.8,3.4-1.7,4.8l-60.8,60.8l-9-9l-23.6,23.6c0.1,0.1,0.2,0.1,0.3,0.2c7.1,7.2,9.1,17.2,6.6,26.3l0.1,0.4l1.7,0.4
			c8.8-2.1,18.3-0.1,25.2,6.6l23.8-23.4l-9-9l60.8-60.8c1.4,0.1,3.2,0,4.8-1.6c3.1-3.1,22.6-21.5,33.1-20.3
			c16.7,16.7,30.2,30.2,30.3,30.3c2.9,3,1.7,9.3,1.8,13.2l-0.4,0.4l0.5,0.5c0,0.1,0,0.2,0,0.3c0.2,0.1,0.4,0.2,0.6,0.3l11.7,11.7
			l28.3-28.3l-12.8-12.8l-0.6,0.6c-3.9-0.1-11.1,2.1-14.1-0.9c0,0-13-13-22.8-22.8l2.3-2.3l-4.9-4.9l277.4-277.5
			C557,183.5,596.2,143.6,596.5,106.8z"/>
		<path class="st0" d="M591,560.1l-23.6-23.6l-9,9l-60.8-60.8c0.2-1.4,0-3.2-1.7-4.8c-3.1-3.1-21.5-22.7-20.3-33.2
			c16.7-16.7,30.2-30.2,30.3-30.3c2.9-2.9,9.3-1.7,13.2-1.7l0.4,0.4l0.5-0.4c0.1,0,0.2-0.1,0.3-0.1c0.1-0.2,0.2-0.4,0.3-0.6
			l11.7-11.7L504,373.9l-12.8,12.8l0.6,0.6c-0.1,3.9,2.1,11.1-0.8,14.1c0,0-13.6,13.6-22.8,22.7l-2.3-2.3l-3.9,3.9L184.6,148.3
			c0,0-43.5-42-80.2-42.3l-0.9,0.8c0.3,36.7,39.4,76.7,42.6,79.8l277.4,277.5l-4.9,4.9l2.3,2.3c-9.8,9.8-22.8,22.8-22.8,22.8
			c-2.9,3-10.2,0.8-14.1,0.9l-0.6-0.6l-12.8,12.8l28.4,28.3l11.7-11.7c0.2-0.1,0.4-0.2,0.6-0.3c0-0.1,0-0.2,0-0.3l0.5-0.5l-0.4-0.4
			c0.1-3.9-1.2-10.2,1.8-13.2c0,0,13.6-13.6,30.3-30.3c10.5-1.2,30,17.2,33.1,20.3c1.7,1.7,3.4,1.8,4.8,1.6l60.8,60.8l-9,9
			l23.8,23.4c6.9-6.8,16.4-8.7,25.2-6.6l1.6-0.4l0.1-0.4c-2.4-9.1-0.5-19.1,6.7-26.3C590.8,560.2,590.9,560.2,591,560.1z"/>
	</g>
</g>
</svg>
