<?xml version="1.0" encoding="utf-8"?>
<!-- Generator: Adobe Illustrator 21.0.0, SVG Export Plug-In . SVG Version: 6.00 Build 0)  -->
<!DOCTYPE svg PUBLIC "-//W3C//DTD SVG 1.1//EN" "http://www.w3.org/Graphics/SVG/1.1/DTD/svg11.dtd">
<svg version="1.1" id="Layer_1" xmlns="http://www.w3.org/2000/svg" xmlns:xlink="http://www.w3.org/1999/xlink" x="0px" y="0px"
	 viewBox="0 0 269.4 268.6" style="enable-background:new 0 0 269.4 268.6;" xml:space="preserve">
<style type="text/css">
	.st0{fill:#FFFFFF;}
</style>
<g>
	<path class="st0" d="M133.8,0c16.5,0.1,32.4,3,47.8,8.7c11.8,4.4,23.1,9.9,33,17.9c4.9,4,10.4,7.5,14.8,12
		c5.3,5.4,10.2,11.4,14.7,17.6c8.6,11.8,15.2,24.7,19.2,38.8c2.1,7.5,3.9,15.1,5.1,22.9c1.4,9.6,1.5,19.3,0.6,28.8
		c-1.9,19.3-7.3,37.7-17.5,54.6c-7.2,12-15.6,22.8-25.8,32.3c-7.8,7.2-16.6,13.2-26,18.4c-8.3,4.6-17,8.2-26.1,10.9
		c-8.3,2.5-16.7,4.5-25.4,4.8c-6.3,0.2-12.6,1.2-18.8,0.9c-15.1-0.8-29.8-3.6-43.9-9.2c-10.6-4.2-20.6-9.5-29.7-16.2
		c-8.6-6.3-17.1-12.9-23.4-21.9c-3.9-5.5-8.4-10.5-12-16.1C12,192,6.3,177.7,2.9,162.4C0.1,150-0.3,137.5,0.2,125
		c0.3-8.5,1.9-16.9,4.2-25.1C7.3,89.8,10.9,80.1,16,70.9c4-7.2,8.4-14.1,13.7-20.3c4.1-4.8,8.4-9.3,12.8-13.8
		c7.8-7.9,16.9-14.1,26.5-19.5c12.1-7,25.3-11.5,38.9-14.3C116.4,1.2,125.2,0.9,133.8,0z M134.7,260.8c24.3,0.2,46.6-6.6,67.1-19.1
		c18.9-11.5,33.5-27.6,44.1-46.8c9.8-17.8,14.9-37.4,15.1-57.8c0.2-34.2-11.3-64.2-35.1-89.1C201.7,22.8,171.8,9.6,137,8.9
		C104,8.1,74.6,19,50,41.4C23.2,65.6,9,96,8.2,132.1C7.3,168,20,199.2,45.5,224.4C70,248.6,100.1,260.6,134.7,260.8z"/>
	<path class="st0" d="M211.7,153.3c-3.2-0.2-6.1-0.5-9-0.6c-9.6-0.4-19.2-0.1-28.7-1.2c-6.3-0.7-12.6-0.5-18.8-0.8
		c-6.9-0.3-13.9-0.6-20.8-1c-5.6-0.3-11.2-0.6-16.8-1c-8.5-0.6-17.1-1.3-25.6-1.9c-0.3,0-0.7,0-1,0c-9.1-0.3-18.2-0.7-27.3-1
		c-8.6-0.3-17.2-0.6-25.8-1c-4.4-0.2-8.8-0.9-13.2-1.4c-1.2-13.8-1.8-26.1,6.1-46.8c6.7-3.2,13.7-5.5,21.4-5.7
		c2.8-0.1,5.7,0.1,8.5,0c9-0.5,17.7,1,26.3,3.1c12.5,2.9,25,5.8,37.4,9.2c12.2,3.3,24.4,7.1,36.5,10.8c17.1,5.3,34.2,10.7,51.2,16
		c0.5,0.1,0.9,0.5,1.2,0.7C214.7,136.1,214.1,145.4,211.7,153.3z"/>
	<path class="st0" d="M110.6,176.6c30.9,2.4,61.1,8,91.1,16.4c-5.4,14.9-14.3,27.3-26.1,37.4c-6.3,5.4-13.5,9.7-21.4,12.6
		c-3.2,1.1-6.7,1.5-10.1,1.6c-6.3,0.3-12.7,0.4-19,0c-10-0.7-19.7-2.8-29-6.4c-8-3.2-15.9-6.9-23.1-11.6c-3.3-2.1-6.5-4.5-9.4-7.1
		c-12-10.6-21.8-22.8-29.1-37.1c-0.3-0.6-0.3-1.3-0.4-1.9c0.3-0.3,0.6-0.7,0.8-0.7c0.8-0.1,1.6,0,2.6,0c7.4,7.1,16.6,10.4,26.7,12.1
		c5.5,0.9,10.9,1,16.3,0.7c7.3-0.3,14.6-1.7,21.2-5.1C106,185.2,109.2,181.9,110.6,176.6z"/>
	<path class="st0" d="M204.2,71.1c-10.9-0.9-20.7-1.6-30.6-2.4c-0.3,0-0.7,0-1,0c-9.3-0.3-18.5-0.7-27.8-1c-8.8-0.3-17.5-0.6-26.3-1
		c-5.9-0.3-11.9-0.2-17.8-1.1c-7-1.1-13.9-0.6-20.8-0.9c-6.4-0.3-12.9-0.5-19.3-1c-3.2-0.2-6.4-0.9-10-1.5c2.7-4,6-7.1,9.4-9.8
		c5.4-4.4,11.2-8.5,17.1-12.2C87.7,33.5,99,29,111.1,26.7c8.1-1.5,16.1-3.3,24.4-2.9c9.6,0.4,19.4,1.3,28.6,4.2
		c4.8,1.5,9.3,4.8,13.5,7.8c9,6.6,15.8,15.3,21.7,24.7C201.1,63.5,202.3,66.9,204.2,71.1z"/>
	<path class="st0" d="M36.7,82.1c1.5-2.5,2.7-4.6,4.1-6.9c5-2.1,10.2-3.7,15.7-4.7c9.8-1.7,19.5-0.9,29.3-0.8
		c6.6,0.1,13.3,1.7,19.9,2.7c5,0.7,10.1,1.3,15.1,2.2c8.4,1.4,16.8,2.8,25.1,4.4c9.1,1.7,18.2,3.7,27.3,5.5
		c8.4,1.7,16.9,3.5,25.3,5.6c-4.9,0-9.7,1.3-14.5-0.5c-0.4-0.2-1-0.1-1.5-0.1c-10.4-0.3-20.9-0.6-31.3-1c-7.3-0.3-14.6-0.1-21.8-1.2
		c-6-0.9-11.9-0.5-17.8-0.8c-7.3-0.3-14.5-0.6-21.8-1c-5.6-0.3-11.2-0.7-16.8-1c-7.1-0.4-14.2-0.6-21.3-1
		C46.8,83.3,42.1,82.7,36.7,82.1z"/>
	<path class="st0" d="M41.1,166.6c2.3-6.7,6.9-9.9,13.4-11c9.9-1.7,19.6-1.7,29.1,2.1c5.4,2.1,10.2,5.1,12.5,10.8
		c2,4.9,0.5,8.5-3.9,11.2c-3.4,2.1-7.2,3.5-11,3.8c-8.3,0.5-16.7,1.6-24.7-1.8c-5.1-2.1-10.5-4.1-13.3-9.4
		C42.3,170.6,41.8,168.7,41.1,166.6z"/>
</g>
</svg>
