<?xml version="1.0" encoding="utf-8"?>
<!-- Generator: Adobe Illustrator 21.0.0, SVG Export Plug-In . SVG Version: 6.00 Build 0)  -->
<!DOCTYPE svg PUBLIC "-//W3C//DTD SVG 1.1//EN" "http://www.w3.org/Graphics/SVG/1.1/DTD/svg11.dtd">
<svg version="1.1" id="Layer_1" xmlns="http://www.w3.org/2000/svg" xmlns:xlink="http://www.w3.org/1999/xlink" x="0px" y="0px"
	 viewBox="0 0 272.2 271.2" style="enable-background:new 0 0 272.2 271.2;" xml:space="preserve">
<style type="text/css">
	.st0{fill:#FFFFFF;}
</style>
<g>
	<path class="st0" d="M134.3,0.2c4.7,0,7.9-0.2,11.1,0.1c4.4,0.4,8.7,1.3,13.1,1.7c5.1,0.4,9.9,1.9,14.8,3.2
		c6.4,1.7,12.7,3.9,18.8,6.6c8.8,3.9,17.1,8.9,25,14.4c2.3,1.6,4.4,3.4,6.6,5.1c1.9,1.5,3.9,3,5.7,4.7c1.8,1.9,3.2,4.2,5.1,6
		c10.6,9.9,18.2,22,24.4,34.9c5.4,11.3,9.2,23.2,11.3,35.7c1.9,11,2.6,22.1,1.7,33.1c-1.1,13.5-4,26.7-9.2,39.3
		c-3.8,9.3-8.5,18-13.8,26.5c-2.1,3.4-5.2,6.3-7.6,9.5c-5.4,7.2-11.8,13.3-18.6,18.9c-6.2,5-12.9,9.4-19.8,13.4
		c-7.1,4.1-14.6,7.2-22.3,10c-7.8,2.9-15.9,4.6-24.1,5.8c-7.7,1.2-15.3,2.4-23.1,1.9c-7.3-0.5-14.7-0.8-21.9-2.7
		c-4.9-1.3-9.9-1.9-14.8-3.3c-4.4-1.2-8.6-2.9-12.8-4.6c-11.4-4.6-22-10.8-31.5-18.6c-5.5-4.5-11.4-8.9-16.1-14.2
		c-10.4-11.8-19.6-24.6-25.5-39.4c-3.3-8.3-6.3-16.7-7.8-25.6c-0.8-4.8-1.3-9.7-2.1-14.5c-1.2-7-0.7-13.9-0.7-20.8
		c0-4.5,1.1-9.1,1.9-13.6c0.9-5,1.7-10,3-14.8c2-7.9,5-15.5,8.6-22.8c3.7-7.5,8.2-14.4,13.1-21.2C32.1,47.4,38.5,41,45,34.7
		c6.1-6,13.2-10.9,20.5-15.2C75,13.8,85,8.9,95.7,5.9c5-1.4,10-2.7,15.1-3.7C119.1,0.6,127.4-0.4,134.3,0.2z M117.5,30.1
		c-10.5,2.1-19.6,4.9-28.3,9c-8.8,4.1-17.1,9.2-24.2,15.8c-7.2,6.6-14,13.4-19.3,21.8c-5.2,8.2-9.4,16.6-12.8,25.7
		c-3.4,9.1-5.1,18.7-5.7,28.2c-1.1,19.5,3,38.1,11.8,55.5c9.8,19.2,24.2,34.3,42.9,44.9c36.3,20.5,80.6,18.8,114.9-4.6
		c-0.8-0.1-1.5-0.2-2.1-0.2c-3.5-0.1-6.9,0.5-10.3,0.8c-4.2,0.4-8.5-0.8-12.8-0.7c-5.7,0.1-11.2-1.1-16.4-2.6
		c-8.2-2.3-16.4-5-24-9.2c-12.9-7-24.2-15.5-33.5-26.9c-6-7.3-11.1-15-15.2-23.4c-1.5-3.1-2.4-6.4-3.8-9.5
		c-3.3-8.1-4.7-16.6-5.7-25.1c-0.4-3.3,0.3-6.6-0.9-9.8c-0.5-1.3,0-2.9,0.2-4.4c0.1-1.3,0.6-2.6,0.6-3.9c-0.1-8.3,1.8-16.2,4.1-24.1
		c0.6-2,1.2-4.1,2-6c3.3-7.6,6.3-15.3,11.3-22.1c3.4-4.6,6.8-9.2,10.5-13.6c2.4-2.8,4.6-5.5,7.7-7.6C111.5,35.8,114,33.1,117.5,30.1
		z"/>
</g>
</svg>
