<?xml version="1.0" encoding="utf-8"?>
<!-- Generator: Adobe Illustrator 21.0.0, SVG Export Plug-In . SVG Version: 6.00 Build 0)  -->
<!DOCTYPE svg PUBLIC "-//W3C//DTD SVG 1.1//EN" "http://www.w3.org/Graphics/SVG/1.1/DTD/svg11.dtd">
<svg version="1.1" id="Layer_1" xmlns="http://www.w3.org/2000/svg" xmlns:xlink="http://www.w3.org/1999/xlink" x="0px" y="0px"
	 viewBox="0 0 286.1 196.7" style="enable-background:new 0 0 286.1 196.7;" xml:space="preserve">
<style type="text/css">
	.st0{fill:#FFFFFF;}
</style>
<g>
	<path class="st0" d="M0,101.1c9.9-9.9,19.5-19.5,29.2-29.2c15.3-15.3,30.6-30.7,46-45.9c1.5-1.5,3.3-2.6,4.6-3.6
		c27.6,27.6,54.9,54.9,82.5,82.5c-2.4,2.6-5.4,5.4-8.3,8.3c-2.9,3-5.9,5.9-8.8,8.8c-2.9,2.9-5.9,5.9-8.8,8.8s-5.9,5.9-8.8,8.8
		c-3.1,3.1-6.1,6.2-9.2,9.2c-2.9,2.8-6.3,5.3-8.8,8.5c-2.5,3.2-5.9,5.5-8.4,8.6c-2.5,3.2-5.8,5.6-8.6,8.6c-2.8,3.1-5.7,6-8.9,9.2
		c-1.5-1.4-2.7-2.4-3.9-3.6c-21.5-21.4-42.9-42.9-64.4-64.3c-1.6-1.6-3.5-2.9-5.1-4.5C7,108.3,3.7,104.8,0,101.1z"/>
	<path class="st0" d="M150.7,60c-10.3-10.3-20.6-20.6-30.7-30.7c9.8-9.8,19.7-19.7,29.3-29.3c10,10,20.3,20.3,31,31
		c-4.6,4.6-9.6,9.7-14.6,14.7C160.7,50.4,155.8,55.1,150.7,60z"/>
	<path class="st0" d="M163.7,196.7c-10.5-10.5-20.4-20.4-30.3-30.3c2-2.9,24.2-25.3,28.5-28.7c10,10,20,20,30.3,30.3
		c-1.3,1.6-2.7,4.2-4.9,5.8c-3.8,2.7-6,6.8-10,9.3c-2,1.3-3.3,3.8-5.1,5.5C169.5,191.4,166.5,194,163.7,196.7z"/>
	<path class="st0" d="M193.6,97.3c-7.7-7.7-15.9-15.9-23.7-23.7c7.7-7.7,15.6-15.6,23.1-23.1c7.7,7.7,15.9,15.9,23.8,23.7
		C209.1,81.9,201.1,89.8,193.6,97.3z"/>
	<path class="st0" d="M231.4,19.7c4.8,5,9.9,10.2,14.9,15.5c0.2,0.2,0,0.6,0,1c-3.6,5.1-11.2,12.2-15.1,14.1
		c-5.2-5.2-10.3-10.4-15.2-15.3C220.9,30.2,226,25.1,231.4,19.7z"/>
	<path class="st0" d="M237.8,98.1c4,3.9,8.3,8,12.4,11.9c-4,3.9-8,7.8-12.5,12.1c-1.9-0.9-3.6-3.7-5.9-5.7c-2.2-2-4.3-4.1-6.2-6
		C229.8,106.1,234,101.9,237.8,98.1z"/>
	<path class="st0" d="M190.2,127.2c4-4,7.9-7.8,11.5-11.4c4.1,4.1,8.3,8.3,12.7,12.8c-3.3,4.1-7.7,7.7-11.4,11.8
		c-4-3.8-7.8-7.5-11.7-11.2C190.7,128.7,190.5,127.8,190.2,127.2z"/>
	<path class="st0" d="M219.7,169.7c-3.9-3.7-8.2-7.7-12.4-11.6c4.4-4.4,8.5-8.5,12.5-12.5c4,4,8.1,8.1,12,12
		C227.7,161.6,223.6,165.8,219.7,169.7z"/>
	<path class="st0" d="M259.2,70.2c-2.4,2.4-4.7,4.7-6.7,6.8c-2.3-2.4-4.8-5-7.5-7.8c1.9-1.7,3.8-4.8,7.3-5.8
		C254.7,65.7,256.9,67.9,259.2,70.2z"/>
	<path class="st0" d="M286.1,96.7c-2.5,2.5-4.9,4.9-7.1,7.1c-2.2-2.2-4.6-4.6-6.7-6.8c2.1-2.1,4.6-4.6,7.1-7.2
		C281.3,91.9,283.8,94.3,286.1,96.7z"/>
	<path class="st0" d="M261,130.5c-2.3-2.4-4.4-4.6-6.8-7.1c1.6-2.8,4.5-4.5,6.3-6.9c2.5,2.5,4.9,5,7,7.1
		C265.6,125.7,263.4,127.9,261,130.5z"/>
</g>
</svg>
