<?xml version="1.0" encoding="utf-8"?>
<!-- Generator: Adobe Illustrator 21.0.0, SVG Export Plug-In . SVG Version: 6.00 Build 0)  -->
<!DOCTYPE svg PUBLIC "-//W3C//DTD SVG 1.1//EN" "http://www.w3.org/Graphics/SVG/1.1/DTD/svg11.dtd">
<svg version="1.1" id="Layer_1" xmlns="http://www.w3.org/2000/svg" xmlns:xlink="http://www.w3.org/1999/xlink" x="0px" y="0px"
	 viewBox="0 0 500 500" style="enable-background:new 0 0 500 500;" xml:space="preserve">
<style type="text/css">
	.st0{fill:#FFFFFF;stroke:#FFFFFF;}
</style>
<g>
	<g>
		<path class="st0" d="M452.8,297.3c23.4-25.4,31.6-73.3,31.6-73.3s-12.8,3.3-28.5,10.2c3.6-5.4,7-12.1,10.1-20.3
			c11.8-32.4,1.1-79.9,1.1-79.9s-10.6,8.1-22.5,20.4c1.3-6.3,1.9-13.9,1.5-22.7c-1.5-34.4-29.5-74.1-29.5-74.1s-18.6,31.8-22.5,62.6
			c-25.7-17.7-61.8-24.9-61.8-24.9s11,47.3,35.7,71.3c1.5,1.5,3,2.8,4.4,4.1c0.2,14.7,2,31.6,8,45.4c0.8,1.9,1.6,3.8,2.5,5.4
			c-5.4,13.6-10.3,30-10,45c0,2.1,0.2,3.9,0.4,5.9c-10.4,10.5-21.1,23.8-26.7,37.9c-0.8,1.9-1.4,3.8-2,5.6
			c-13.5,5.8-28.5,14-39,24.7c-1.5,1.5-2.9,3-4,4.4c-14.8,0.2-12.2,42.6-37.9,49.6c-3.8,1-8.4,2.7-13.5,4.7c-5.1-2-9.8-3.8-13.5-4.7
			c-25.7-7-23.2-49.5-37.9-49.6c-1.2-1.4-2.5-2.9-4-4.4c-10.5-10.7-25.5-18.9-39-24.7c-0.6-1.8-1.3-3.7-2-5.6
			c-5.6-14.1-16.4-27.4-26.8-37.9c0.2-2,0.4-3.8,0.4-5.9c0.2-15-4.6-31.4-10-45c0.9-1.8,1.7-3.5,2.5-5.4c6-13.8,7.9-30.7,8-45.4
			c1.5-1.3,2.9-2.6,4.5-4.1c24.7-24,35.7-71.3,35.7-71.3s-36.1,7.2-61.8,24.9c-3.8-30.9-22.5-62.6-22.5-62.6s-28.1,39.7-29.5,74.1
			c-0.4,8.8,0.3,16.3,1.5,22.7c-11.9-12.2-22.5-20.4-22.5-20.4s-10.7,47.4,1.1,79.9c3.1,8.2,6.5,14.9,10.1,20.3
			C28.4,227.4,15.4,224,15.4,224s8.3,47.9,31.6,73.3c5.9,6.4,11.6,11.3,17,14.9c-17-0.4-30.2,1.5-30.2,1.5s26.1,41.1,57.4,55.6
			c7.9,3.7,15.1,6,21.5,7.3c-15.9,6.2-27.3,13-27.3,13s39.8,27.9,74.1,29.4c8.8,0.4,16.3-0.3,22.6-1.6
			c12.7-17.8,33.7-18.7,55.4-12.5c-28.6,13.1-63.8,32.8-63.8,32.8l7.8,12.5c0,0,33.2-27.2,68.3-41c35.1,13.8,68.3,41,68.3,41
			l7.8-12.5c0,0-35.1-19.7-63.8-32.8c21.7-6.2,42.7-5.4,55.4,12.5c6.4,1.3,13.9,1.9,22.7,1.6c34.3-1.4,74.1-29.4,74.1-29.4
			s-11.4-6.7-27.3-13c6.4-1.2,13.5-3.6,21.4-7.3c31.3-14.5,57.4-55.6,57.4-55.6s-13.2-1.8-30.2-1.5
			C441.1,308.6,446.9,303.7,452.8,297.3z"/>
		<path class="st0" d="M216.9,232l-20.5,62.9l53.5-38.9l53.5,38.9L283.1,232l53.6-38.9h-66.2L250,130.3l-20.4,62.9h-66.2L216.9,232z
			"/>
	</g>
</g>
</svg>
