<?xml version="1.0" encoding="utf-8"?>
<!-- Generator: Adobe Illustrator 21.0.0, SVG Export Plug-In . SVG Version: 6.00 Build 0)  -->
<!DOCTYPE svg PUBLIC "-//W3C//DTD SVG 1.1//EN" "http://www.w3.org/Graphics/SVG/1.1/DTD/svg11.dtd">
<svg version="1.1" id="Layer_1" xmlns="http://www.w3.org/2000/svg" xmlns:xlink="http://www.w3.org/1999/xlink" x="0px" y="0px"
	 viewBox="0 0 140.2 182.6" style="enable-background:new 0 0 140.2 182.6;" xml:space="preserve">
<style type="text/css">
	.st0{fill:#FFFFFF;}
</style>
<g>
	<path class="st0" d="M6.2,29.8c1.4,1.4,2.2,2.2,3,3c-0.2,2.8,1.7,4.6,2.9,6.8c0.3,0.6,1,0.9,1.4,1.4c2.3,2.7,2.4,5.2,0.4,8.2
		c-1,1.4-1.9,2.8-2.8,4.1c0.8,3.8,3.4,5.8,5.8,8c0.6,0.6,1.7,0.9,2.6,1c5,0.4,10.1,1.4,15.1,0.9c5.7-0.6,11.7-0.4,16.9-3.8
		c3.7-2.4,6-5.2,7.2-9.7c0.9-3.5,0.1-5.9-1.1-8.8c-1.2-2.8-2.2-5.8-3.6-8.5c-0.7-1.3-0.6-2.6,0.1-4.1c1.6-3.2,3.4-6.3,5.3-9.3
		c3-4.7,5.5-9.6,7.1-15c0.1-0.3,0-0.7,0-0.2c1.1-1.5,1.9-2.6,2.7-3.6c1.5,0.5,2.6,0.9,3.8,1.3c2.2,4.8,4.4,9.8,6.8,14.6
		c2.4,4.8,5.9,9.1,7.8,14.5c-1.8,4.4-3.7,8.9-6,14.3c0.1,2.1-0.3,5,1.6,7.9c2.7,4.2,6.2,7,10.9,8.8c2,0.8,4,1,6.1,0.9
		c3.9-0.1,7.6,1.6,11.6,1c3.3-0.5,6.7-0.9,10.6-1.3c2.1-1.4,4.5-3.5,6.2-6.4c0-4.3,0-4.3-2.9-7.6c0-1.5,0-3.2,0-5.2
		c4.1-2.3,3.4-7.6,7-11.5c0,0,1-0.5,2.3-1.1c0.7,1,1.5,2,2.6,3.6c0.3,1.3,0.5,3.6,1.5,5.5c2.4,4.7,1.4,9.3,0.2,13.8
		c-1.4,5-3.4,9.7-3.8,15c-0.2,2.6-0.9,5.3-2,7.6c-0.7,1.4-0.3,3.1-1,4.1c-0.9,1.3-0.6,2.5-0.9,3.7c-1.3,4.3-2,8.8-4.9,12.8
		c0,0.7,0,1.7,0,2.7c-0.8,0.8-1.7,1.6-2.6,2.5c-34.7,0-69.5,0-104.3,0c-1.7,0-3.3-0.6-4.6-0.9c-0.6-2.1-0.7-4-1.6-5.4
		c-2.3-3.5-3-7.5-3.8-11.4c-0.9-4.4-2.5-8.7-3.5-13.1c-0.2-0.9-0.6-1.8-0.6-2.7c0-3.7-0.9-7.1-2.5-10.5c-2.1-4.6-3.3-9.4-2.5-14.4
		c0.6-3.8,1.9-7.5,3.1-11.2C3.7,30.9,5.1,30.5,6.2,29.8z"/>
	<path class="st0" d="M42.9,155.7c-1.8-0.7-3.4-0.9-4.4-1.8c-2.9-2.7-5.6-5.6-8.3-8.5c-0.6-0.7-1-2-1.7-2.1c-1.7-0.4-2.2-2-3.4-2.6
		c-1.2-0.5-0.3-2.6-2.4-2.7c-0.9,0-1.7-2.1-2.7-3.5c1.5-1.7,3-3.6,4.6-5.3c2.5-2.6,5.2-5.1,7.7-7.8c2.4-2.6,4.7-5.4,7.1-8.1
		c1,0,1.9,0,3.7,0c0.5,0.6,1.8,1.6,2.4,2.9c1.2,2.6,3.5,4.3,5.4,6.2c2.5,2.6,5.1,5.2,7.7,7.8c1.4,1.4,2.3,3,2.6,5.4
		c-0.6,0.6-1.5,1.4-2.2,2.2c-4.8,5.1-9.6,10.3-14.4,15.5C44,154.1,43.5,154.9,42.9,155.7z"/>
	<path class="st0" d="M71.4,182.6c-1.7-0.5-3.2-0.9-4.8-1.3c-0.3-0.7-0.5-1.5-1-2c-3.2-3.5-7.1-6.4-9.5-10.5
		c-0.4-0.6-1.2-1.1-1.9-1.5c-2.8-1.6-4.6-3.9-5.2-7.5c7-5.2,13-11.5,18.3-18.4c1.5,0,2.8,0,4,0c6.2,6.2,12.5,12.5,18.9,18.9
		c0,0.5,0,1.3,0,2.6c-0.6,0.6-1.4,1.4-2.2,2.2C82.6,170.7,77.2,176.5,71.4,182.6z"/>
	<path class="st0" d="M97.8,155.5c-3.6-3.6-7-7-10.4-10.4c-3.2-3.3-6.4-6.6-9.7-10.1c1.9-2.1,3.4-4,5-5.7c2.8-2.9,5.7-5.6,8.4-8.5
		c2-2.2,3.7-4.7,5.8-7.4c0.5,0,1.5,0,3.1,0c3,3.4,6.2,7.3,9.7,10.9c1.5,1.6,3,3.3,5.2,4.4c2.4,1.2,3.4,3.5,4.3,6.7
		C112.2,143.6,102.2,153.1,97.8,155.5z"/>
</g>
</svg>
