<?xml version="1.0" encoding="utf-8"?>
<!-- Generator: Adobe Illustrator 21.0.0, SVG Export Plug-In . SVG Version: 6.00 Build 0)  -->
<!DOCTYPE svg PUBLIC "-//W3C//DTD SVG 1.1//EN" "http://www.w3.org/Graphics/SVG/1.1/DTD/svg11.dtd">
<svg version="1.1" id="Layer_1" xmlns="http://www.w3.org/2000/svg" xmlns:xlink="http://www.w3.org/1999/xlink" x="0px" y="0px"
	 viewBox="0 0 500 500" style="enable-background:new 0 0 500 500;" xml:space="preserve">
<style type="text/css">
	.st0{fill:#FFFFFF;}
</style>
<g>
	<path class="st0" d="M18.5,76.2c9-4.2,18.1-8.3,28.1-12.9c0,10.4,0,20.4,0,30.9c-10-4.7-19-8.9-28.1-13.1
		C18.5,79.5,18.5,77.8,18.5,76.2z"/>
	<path class="st0" d="M483.5,81.1c-9.1,4.2-18.1,8.4-28.1,13.1c0-10.4,0-20.5,0-29.9c9.7,4.1,18.9,8,28.1,11.9
		C483.5,77.8,483.5,79.5,483.5,81.1z"/>
	<path class="st0" d="M251,371.4C204.7,406.9,159,441.9,110.7,479c0-13.4,0-23.6,0-35.9c-5.7,2.2-9.2,3.6-13.8,5.4
		c0-136.3,0-272.2,0-409.1c102.4,0,203.9,0,306,0c0,0,0.7,0.5,1.2,1.1c0.5,0.6,1.2,1.3,1.2,1.9c0.1,134.7,0,269.3,0,405.5
		c-3.8-1.2-7-2.2-11.8-3.7c-6,9.9,0.1,21.7-4.7,33.1C342.9,442,297.2,406.9,251,371.4z M169.3,239.7c55.3,0,108.4,0,163,0
		c7.2-20.4,12.9-41.1,16-62.3c1.1-7.8,1.9-17.1-6.2-24.1c-4.8,7.2-8.8,13.1-12.7,18.9c2.7,8.5,8.7,17-2.8,23.3
		c-42,5.8-50.7,3-60.9-20.8c2.8-6.7,5.8-14,9.2-22.4c-8.4-13.1-12.9-29.3-25.1-42.9c-8.4,16.1-15.7,30.2-22.6,43.3
		c3.6,8.8,6.6,16.1,9.2,22.4c-4,17.9-15.9,22.8-30.9,22.3c-12.3-0.4-25.9,4.3-37-7.8c0.9-5.1,1.8-10.3,2.8-16.1
		c-3.3-6.7-5.2-15.3-14.6-19.8c-2,8.4-3.6,15.4-5.2,22.3C157.4,197.2,163.4,218.6,169.3,239.7z M380.8,431.8
		c-43.1-33-86.8-66.5-130.1-99.6c-44.4,34.3-87,67.1-129.5,99.9c0,8.9,0,17.5,0,29.7c44.6-34.4,86.9-66.9,129.7-99.9
		c42.9,33,85.3,65.5,129.9,99.8C380.8,449.9,380.8,441.3,380.8,431.8z M332.3,246.5c-28.8,0-55.3-0.2-81.7,0.1
		c-27,0.3-54-1.4-82.1,1.3c0.8,5.1,1.4,8.6,1.8,11.1c55.1,0,108.5,0,162.7,0C332.8,254.7,332.6,251.7,332.3,246.5z"/>
	<path class="st0" d="M61.7,30.3c3.5-2.8,4.7-3.8,7.5-6c3.2,1.6,7.1,3.6,11.1,5.7c0,32.9,0,64.9,0,97.5c-3.7,2-7.2,3.9-12.8,6.9
		c-2.1-5.2-5.5-10-5.6-14.7C61.5,89.9,61.7,60.2,61.7,30.3z"/>
	<path class="st0" d="M421.7,29.9c3.7-1.9,7.2-3.8,12.8-6.7c2.1,5.1,5.5,9.8,5.6,14.6c0.5,29.7,0.3,59.4,0.3,89.9
		c-1.8,1.7-3.5,3.4-6.3,6.1c-4.4-2.2-8.3-4.2-12.3-6.3C421.7,94.6,421.7,62.6,421.7,29.9z"/>
</g>
</svg>
