<?xml version="1.0" encoding="utf-8"?>
<!-- Generator: Adobe Illustrator 21.0.0, SVG Export Plug-In . SVG Version: 6.00 Build 0)  -->
<!DOCTYPE svg PUBLIC "-//W3C//DTD SVG 1.1//EN" "http://www.w3.org/Graphics/SVG/1.1/DTD/svg11.dtd">
<svg version="1.1" id="Layer_1" xmlns="http://www.w3.org/2000/svg" xmlns:xlink="http://www.w3.org/1999/xlink" x="0px" y="0px"
	 viewBox="0 0 700 700" style="enable-background:new 0 0 700 700;" xml:space="preserve">
<style type="text/css">
	.st0{display:none;}
	.st1{display:inline;}
	.st2{fill:#F6894E;stroke:#F6894E;}
	.st3{fill:#FFFFFF;stroke:#FFFFFF;}
</style>
<g id="Layer_1_2_" class="st0">
	<g id="Layer_1_1_" class="st1">
		<g>
			<g>
				<path class="st2" d="M350,700C157,700,0,543,0,350C0,157,157,0,350,0c193,0,350,157,350,350C700,543,543,700,350,700z M350,17.1
					C166.4,17.1,17.1,166.4,17.1,350c0,183.6,149.4,332.9,332.9,332.9c183.5,0,332.9-149.4,332.9-332.9S533.5,17.1,350,17.1z"/>
			</g>
			<g>
				<path class="st3" d="M580.9,429.3c26.6-28.9,36-83.4,36-83.4s-14.6,3.8-32.5,11.6c4.1-6.1,8-13.8,11.5-23.1
					c13.4-36.9,1.2-90.9,1.2-90.9s-12.1,9.2-25.6,23.2c1.5-7.2,2.2-15.8,1.7-25.8c-1.7-39.2-33.6-84.4-33.6-84.4
					s-21.2,36.2-25.6,71.3c-29.2-20.1-70.3-28.4-70.3-28.4s12.5,53.9,40.6,81.2c1.7,1.7,3.4,3.2,5,4.7c0.2,16.7,2.3,36,9.1,51.7
					c0.9,2.2,1.8,4.3,2.8,6.2c-6.2,15.5-11.7,34.1-11.4,51.2c0,2.4,0.2,4.4,0.4,6.7c-11.8,11.9-24,27.1-30.4,43.1
					c-0.9,2.2-1.6,4.3-2.3,6.4c-15.4,6.6-32.4,15.9-44.4,28.1c-1.7,1.7-3.3,3.4-4.6,5c-16.8,0.2-13.9,48.5-43.2,56.5
					c-4.3,1.1-9.6,3.1-15.4,5.4c-5.8-2.3-11.1-4.3-15.4-5.4c-29.2-8-26.4-56.3-43.1-56.5c-1.4-1.6-2.9-3.3-4.6-5
					c-12-12.2-29-21.5-44.4-28.1c-0.7-2.1-1.5-4.2-2.3-6.4c-6.4-16-18.7-31.2-30.5-43.1c0.2-2.3,0.4-4.3,0.4-6.7
					c0.2-17.1-5.2-35.7-11.4-51.2c1-2,1.9-4,2.8-6.2c6.8-15.7,9-35,9.1-51.7c1.7-1.5,3.3-3,5.1-4.7c28.1-27.3,40.6-81.2,40.6-81.2
					s-41.1,8.2-70.3,28.4c-4.3-35.2-25.6-71.3-25.6-71.3s-32,45.2-33.6,84.4c-0.4,10,0.3,18.5,1.7,25.8
					c-13.5-13.9-25.6-23.2-25.6-23.2s-12.2,54,1.2,90.9c3.5,9.3,7.4,17,11.5,23.1c-17.8-7.8-32.5-11.6-32.5-11.6s9.4,54.5,36,83.4
					c6.7,7.3,13.2,12.9,19.4,17c-19.4-0.4-34.4,1.7-34.4,1.7s29.7,46.8,65.3,63.3c9,4.2,17.2,6.8,24.5,8.3
					c-18.1,7.1-31.1,14.8-31.1,14.8s45.3,31.8,84.4,33.5c10,0.4,18.5-0.3,25.7-1.8c14.5-20.3,38.4-21.3,63.1-14.2
					c-32.6,14.9-72.6,37.3-72.6,37.3l8.9,14.2c0,0,37.8-31,77.7-46.7c39.9,15.7,77.7,46.7,77.7,46.7l8.9-14.2
					c0,0-39.9-22.4-72.6-37.3c24.7-7.1,48.6-6.1,63.1,14.2c7.3,1.5,15.8,2.2,25.8,1.8c39.1-1.6,84.4-33.5,84.4-33.5
					s-13-7.6-31.1-14.8c7.3-1.4,15.4-4.1,24.4-8.3c35.6-16.5,65.3-63.3,65.3-63.3s-15-2-34.4-1.7
					C567.6,442.2,574.2,436.6,580.9,429.3z"/>
				<path class="st3" d="M312.3,355l-23.3,71.6l60.9-44.3l60.9,44.3L387.7,355l61-44.3h-75.4L350,239.2l-23.2,71.6h-75.4L312.3,355z
					"/>
			</g>
		</g>
	</g>
	<g id="Layer_2" class="st1">
		<g>
			<path class="st3" d="M350.5,700l-0.9-0.4l-0.5,0.2l-3.4-1.9L46.7,525.3V365.7h15.9v150.4l287.3,165.8L637.1,516l0.2-150.4l16,0
				l-0.2,159.6L350.5,700z M62.6,344.1H46.7v-169L349.7,0l303.6,175.1l-0.2,169l-16,0l0.2-159.8L349.7,18.4L62.6,184.3V344.1z"/>
			<path class="st3" d="M573.1,190.2l26.9,15.5v118.7c-2.5-24.8-8.7-49-18.4-72.1c-12.7-30-30.8-56.9-53.9-79.9
				c-9.8-9.8-20.3-18.6-31.4-26.6L573.1,190.2z M226.5,361.9h39.1c1.1,45.3,8.7,87.7,21.7,120.4c5.9,15,12.8,27.4,20.5,37
				C262.6,495.5,229.8,434.6,226.5,361.9z M278.9,515.6c-60.6-26.1-104.1-84.6-108.5-153.7h42.9c2,46.3,15.4,89.6,38.3,123
				C259.8,496.8,269,507.1,278.9,515.6z M278.8,361.9h64.6v167.5C308.6,521.3,281.1,450.3,278.8,361.9z M278.7,348.7
				c0.3-93.2,28.6-169.4,64.7-177.8v177.8H278.7z M287.3,218c-13.9,35.2-21.7,81.5-21.8,130.7h-39.2c0.4-77.2,34.2-142.8,81.4-167.8
				C300.1,190.6,293.2,203,287.3,218z M251.7,215.4c-24.6,35.8-38.3,83.1-38.6,133.3H170c0.5-73.6,45.3-136.6,108.9-164
				C269,193.2,259.8,203.5,251.7,215.4z M157.3,361.9c1.3,21.9,6.1,43.2,14.6,63.5c9.7,23,23.6,43.6,41.4,61.4
				c17.7,17.7,38.4,31.7,61.4,41.4c23.8,10.1,49.1,15.2,75.2,15.2c26.1,0,51.4-5.1,75.2-15.2c23-9.7,43.7-23.6,61.4-41.4
				c17.8-17.8,31.7-38.4,41.4-61.4c8.5-20.2,13.3-41.6,14.6-63.5H589c-1.3,28.1-7.4,55.5-18.4,81.4c-12.1,28.5-29.4,54.1-51.3,76.1
				c-22,22-47.6,39.2-76.1,51.3c-29.5,12.5-60.8,18.8-93.2,18.8c-32.3,0-63.6-6.3-93.2-18.8c-28.5-12.1-54.1-29.3-76.1-51.3
				c-22-22-39.2-47.6-51.3-76.1c-11-25.9-17.1-53.3-18.4-81.4L157.3,361.9L157.3,361.9z M448.4,484.9c22.9-33.4,36.3-76.7,38.2-123
				h43c-4.5,69.1-47.9,127.6-108.5,153.7C431,507.1,440.1,496.8,448.4,484.9z M392.2,519.3c7.7-9.7,14.5-22.1,20.5-37
				c12.9-32.7,20.5-75.1,21.7-120.4h39C470.2,434.6,437.3,495.5,392.2,519.3z M486.9,348.7c-0.3-50.2-14-97.5-38.5-133.3
				c-8.2-11.9-17.4-22.2-27.3-30.6c63.6,27.4,108.4,90.4,108.9,164H486.9z M473.7,348.7h-39.2c-0.1-49.2-7.9-95.6-21.8-130.7
				c-6-15-12.8-27.4-20.5-37.1C439.5,205.9,473.3,271.5,473.7,348.7z M421.3,348.7h-64.8V170.9C392.7,179.3,421.1,255.6,421.3,348.7
				z M421.2,361.9c-2.2,88.4-29.8,159.4-64.6,167.5V361.9H421.2z M543.2,348.8c-0.2-25.6-5.3-50.5-15.1-73.9
				c-9.8-23-23.7-43.7-41.4-61.4c-17.7-17.7-38.4-31.7-61.4-41.4c-23.8-10.1-49.1-15.2-75.2-15.2c-26.1,0-51.4,5.1-75.2,15.2
				c-23,9.7-43.7,23.7-61.4,41.4c-17.7,17.7-31.7,38.4-41.4,61.4c-9.9,23.4-15,48.3-15.2,73.9h-46.2c0.2-31.8,6.5-62.7,18.8-91.8
				c12.1-28.5,29.3-54.1,51.3-76.1c22-22,47.6-39.2,76.1-51.3c29.5-12.5,60.9-18.8,93.2-18.8c32.4,0,63.7,6.3,93.2,18.8
				c28.5,12.1,54.1,29.3,76.1,51.3c22,22,39.2,47.6,51.3,76.1c12.3,29.1,18.6,60,18.8,91.8L543.2,348.8L543.2,348.8z M349.8,61.2
				l103.8,59.9c-1.9-0.9-3.8-1.8-5.7-2.6c-31-13.1-63.9-19.8-97.9-19.8c-33.9,0-66.8,6.6-97.8,19.8c-2.5,1-4.9,2.2-7.4,3.3
				L349.8,61.2z M99.7,205.7L205,144.9c-11.6,8.2-22.6,17.4-32.7,27.5c-23,23-41.2,49.9-53.8,79.9c-10.1,23.9-16.4,48.9-18.7,74.7
				L99.7,205.7L99.7,205.7z M99.7,494.7V373.3c2.3,25.8,8.6,50.8,18.7,74.7c12.7,29.9,30.8,56.8,53.8,79.8
				c10.2,10.2,21.2,19.4,32.9,27.7L99.7,494.7z M349.8,639l-105.1-60.7c2.5,1.1,4.9,2.3,7.4,3.4c31,13.1,63.9,19.7,97.8,19.7
				c33.9,0,66.9-6.7,97.9-19.7c2-0.8,3.9-1.8,5.8-2.6L349.8,639z M600.3,404.9L600,405v89.6l-103.8,59.9c11.1-8,21.7-16.9,31.5-26.7
				c23-23,41.2-49.9,53.9-79.8c10-23.6,16.2-48.3,18.6-73.7l0.1,12.5L600.3,404.9L600.3,404.9z"/>
		</g>
	</g>
</g>
<g id="Layer_2_1_">
	<g>
		<g>
			<g>
				<path class="st3" d="M477,255v-19.2H223V255h24.2v185.3c-1.1,0.6-1.9,1.5-1.9,2.9c0,0.9,0.3,1.8,1,2.4c-0.3-0.1-0.6-0.2-0.8-0.3
					c3.5,2.4,13.4,15.8,13.4,18.3c0-2.4,13.6-19,13.6-20.3c0-1.4-0.9-2.3-2-2.9v-55.8H308v55.8c-1.1,0.6-2,1.5-2,2.9
					c0,0.9,0.4,1.7,1,2.3c-0.1,0-0.4-0.1-0.6-0.2c3.4,2.4,13.3,15.8,13.3,18.3c0-1.6,11.4-17.5,11.4-17.5c1.1-0.6,2-1.5,2-2.9
					c0-1.4-0.9-2.3-2-2.9v-55.8h37.5v55.8c-1.1,0.6-2,1.5-2,2.9c0,0.9,0.4,1.7,1,2.3c-0.1,0-0.4-0.1-0.5-0.2
					c3.5,2.4,13.4,15.8,13.4,18.3c0-1.6,13.4-19,13.4-20.3c0-1.4-0.9-2.3-2-2.9v-55.8h37.5v55.8c-1.1,0.6-1.9,1.5-1.9,2.9
					c0,0.9,0.3,1.7,0.9,2.3c-0.2,0-0.4-0.1-0.5-0.2c3.4,2.4,13.3,15.8,13.4,18.3c0-1.6,13.3-19,13.3-20.3c0-1.4-0.8-2.3-1.9-2.9V255
					H477z M308,361.2h-37.5v-37.5H308V361.2z M270.5,300.5V255H308v45.4H270.5z M368.8,361.2h-37.5v-37.5h37.5V361.2z M331.2,300.5
					V255h37.5v45.4H331.2z M429.6,361.2H392v-37.5h37.5V361.2z M429.6,300.5H392V255h37.5V300.5z"/>
			</g>
			<g>
				<path class="st3" d="M223,255c0,0,24.2,1.8,24.2,21.4c0,19.7,1.6-25.5,1.6-25.5h-10.9"/>
			</g>
			<g>
				<path class="st3" d="M477,255c0,0-24.2,1.8-24.2,21.4c0,19.7-1.6-25.5-1.6-25.5h10.9"/>
			</g>
		</g>
		<g>
			<g>
				<path class="st3" d="M132.5,402.2c7.1-0.8,12.2-7.2,11.3-14.3l-5.4-47.3c-0.8-7.1-7.3-12.2-14.3-11.3l0,0
					c-7,0.8-12.1,7.2-11.4,14.2l5.5,47.4C119,398,125.4,403.1,132.5,402.2L132.5,402.2z"/>
			</g>
			<g>
				<path class="st3" d="M327.1,111.7c6,0,11.3,4.1,12.6,10.1c1.5,6.9-2.8,13.8-9.8,15.4l-46.5,10.3c-1,0.2-1.9,0.3-2.9,0.3
					c-5.9,0-11.2-4.1-12.5-10.1c-1.5-7,2.8-13.9,9.8-15.4l46.5-10.3C325.2,111.8,326.2,111.7,327.1,111.7 M327.1,102.7
					c-1.6,0-3.2,0.2-4.7,0.5l-46.5,10.3c-11.8,2.7-19.2,14.4-16.6,26.2c2.2,9.9,11.2,17.1,21.3,17.1c1.6,0,3.3-0.2,4.9-0.6
					l46.5-10.3c11.8-2.6,19.2-14.4,16.6-26.2C346.3,109.9,337.3,102.7,327.1,102.7L327.1,102.7z"/>
			</g>
			<g>
				<path class="st3" d="M141.7,261.8c1.2,0,2.5,0.2,3.8,0.6c6.8,2,10.7,9.2,8.6,16.1l-13.7,45.6c-1.7,5.6-6.8,9.2-12.4,9.2
					c-1.2,0-2.5-0.2-3.7-0.5c-6.8-2.1-10.7-9.3-8.6-16.1l13.7-45.7C131.1,265.4,136.2,261.8,141.7,261.8 M141.7,252.8
					c-9.7,0-18.1,6.3-20.9,15.6l-13.7,45.7c-3.4,11.5,3.1,23.8,14.6,27.3c2.1,0.6,4.2,0.9,6.3,0.9c9.6,0,18.3-6.4,21-15.6l13.7-45.6
					c1.7-5.6,1.1-11.6-1.7-16.7c-2.8-5.2-7.4-8.9-13-10.6C146,253.1,143.9,252.8,141.7,252.8L141.7,252.8z"/>
			</g>
			<g>
				<g>
					<path class="st3" d="M306.3,554.7c0.5,0,1,0,1.5,0.1l47.4,5.6c7.1,0.9,12.1,7.3,11.3,14.4c-0.8,6.6-6.3,11.4-12.8,11.4
						c-0.5,0-1,0-1.5-0.1l-47.4-5.6c-7.1-0.9-12.1-7.3-11.3-14.3C294.3,559.5,299.9,554.7,306.3,554.7 M306.3,545.7
						c-11.1,0-20.4,8.3-21.7,19.3c-1.4,12,7.2,22.9,19.1,24.3l47.4,5.6c0.9,0.1,1.8,0.1,2.6,0.1c11.1,0,20.4-8.3,21.7-19.3
						c0.7-5.8-0.9-11.5-4.5-16.1c-3.6-4.6-8.8-7.5-14.6-8.2l-47.3-5.6C308,545.7,307.2,545.7,306.3,545.7L306.3,545.7z"/>
				</g>
				<g>
					<path class="st3" d="M306.3,570.4c1.8-6.9-2.4-13.9-9.3-15.7l-46.2-11.9c-6.9-1.8-13.9,2.3-15.7,9.3l0,0
						c-1.8,6.9,2.4,13.9,9.3,15.7l46.2,11.9C297.4,581.5,304.4,577.3,306.3,570.4L306.3,570.4z"/>
				</g>
				<g>
					<path class="st3" d="M192.5,515.8c6.1-3.7,8-11.6,4.3-17.7l-24.7-40.7c-3.7-6.1-11.6-8.1-17.7-4.4l0,0
						c-6.1,3.7-8.1,11.6-4.4,17.7l24.7,40.8C178.5,517.5,186.4,519.5,192.5,515.8L192.5,515.8z"/>
				</g>
				<g>
					<path class="st3" d="M194.5,501.2c3.1,0,6.3,1.2,8.8,3.5l34.9,32.4c5.2,4.9,5.5,13.1,0.6,18.2c-2.5,2.7-6,4.1-9.4,4.1
						c-3.1,0-6.3-1.1-8.8-3.5l-34.9-32.5c-5.2-4.9-5.5-13-0.7-18.2C187.6,502.6,191,501.2,194.5,501.2 M194.5,492.2
						c-6.1,0-11.9,2.6-16.1,7c-8.2,8.8-7.7,22.7,1.1,30.9l34.9,32.5c4.1,3.8,9.4,5.8,14.9,5.8c6.1,0,11.9-2.5,16-7
						c8.2-8.8,7.7-22.7-1.1-30.9l-35-32.5C205.3,494.3,200,492.2,194.5,492.2L194.5,492.2z"/>
				</g>
				<g>
					<path class="st3" d="M135,388.6c5.1,0,9.9,3,11.9,8l18.2,44c2.7,6.6-0.4,14.1-7,16.8c-1.6,0.7-3.3,1-4.9,1c-5,0-9.9-3-11.9-8
						L123,406.4c-2.7-6.6,0.4-14.1,7-16.9C131.6,389,133.3,388.6,135,388.6 M135,379.6c-2.9,0-5.7,0.6-8.3,1.6
						c-11.1,4.6-16.5,17.5-11.9,28.6l18.2,44.1c3.4,8.2,11.4,13.5,20.3,13.5c2.9,0,5.7-0.6,8.3-1.6c5.3-2.2,9.6-6.3,11.9-11.7
						c2.3-5.4,2.3-11.4,0.1-16.9l-18.3-44C151.9,385,143.9,379.6,135,379.6L135,379.6z"/>
				</g>
				<g>
					<path class="st3" d="M281.6,135.2c2.5,6.7-0.9,14.1-7.6,16.6l-44.7,16.4c-6.7,2.5-14.1-0.9-16.6-7.7l0,0
						c-2.4-6.6,1-14.1,7.6-16.5l44.8-16.5C271.8,125.1,279.2,128.5,281.6,135.2L281.6,135.2z"/>
				</g>
				<g>
					<path class="st3" d="M173.9,201c6.4,3.1,9.2,10.8,6.1,17.1l-20.5,43.1c-3.1,6.4-10.8,9.2-17.2,6.1l0,0
						c-6.4-3.1-9.1-10.7-6.1-17.2l20.6-43.1C159.8,200.6,167.5,197.9,173.9,201L173.9,201z"/>
				</g>
				<g>
					<path class="st3" d="M207.5,153.8c3,0,6.1,1.1,8.5,3.2c5.3,4.7,5.9,12.8,1.2,18.2l-31.5,35.7c-2.5,2.9-6.1,4.4-9.7,4.4
						c-3,0-6.1-1.1-8.6-3.2c-5.3-4.7-5.8-12.9-1.2-18.2l31.5-35.8C200.4,155.2,204,153.8,207.5,153.8 M207.5,144.8L207.5,144.8
						c-6.3,0-12.3,2.7-16.4,7.4L159.6,188c-7.9,9-7.1,22.9,2,30.9c4,3.5,9.2,5.5,14.5,5.5c6.3,0,12.3-2.7,16.5-7.5l31.5-35.7
						c8-9.1,7-23-2-30.9C218,146.7,212.9,144.8,207.5,144.8L207.5,144.8z"/>
				</g>
				<g>
					<path class="st3" d="M415.2,117.3c1.9,0,3.8,0.4,5.6,1.3l42.8,21c6.4,3.2,9,10.9,5.9,17.3c-2.2,4.6-6.8,7.2-11.6,7.2
						c-1.9,0-3.8-0.4-5.6-1.3l-42.8-21c-6.4-3.1-9.1-10.8-5.9-17.2C405.8,119.9,410.4,117.3,415.2,117.3 M415.2,108.3
						c-8.4,0-16,4.7-19.7,12.3c-2.6,5.2-3,11.2-1.1,16.7c1.9,5.5,5.9,10,11.1,12.6l42.7,21c3,1.5,6.3,2.2,9.6,2.2
						c8.3,0,16-4.8,19.7-12.3c5.3-10.8,0.9-23.9-10-29.3l-42.9-21C421.7,109,418.5,108.3,415.2,108.3L415.2,108.3z"/>
				</g>
				<g>
					<path class="st3" d="M356.8,578.5c-0.9-7.1,4.1-13.5,11.2-14.4l47.3-5.8c7.1-0.9,13.5,4.1,14.4,11.2l0,0
						c0.9,7-4.1,13.5-11.2,14.3l-47.3,5.9C364.1,590.6,357.7,585.6,356.8,578.5L356.8,578.5z"/>
				</g>
				<g>
					<path class="st3" d="M476.7,539c-5.6-4.5-6.5-12.6-2-18.1l29.7-37.2c4.5-5.6,12.6-6.5,18.2-2l0,0c5.5,4.5,6.4,12.5,2,18.1
						L494.8,537C490.3,542.6,482.2,543.5,476.7,539L476.7,539z"/>
				</g>
				<g>
					<path class="st3" d="M474.9,524.2c4.1,0,8,1.9,10.6,5.4c4.1,5.8,2.7,13.8-3.1,18l-38.8,27.7c-2.3,1.6-4.9,2.4-7.5,2.4
						c-4,0-8-1.9-10.5-5.4c-4.1-5.8-2.8-13.9,3-18l38.8-27.6C469.7,525,472.3,524.2,474.9,524.2 M474.9,515.2L474.9,515.2
						c-4.6,0-9,1.4-12.7,4.1l-38.8,27.6c-9.8,7.1-12.1,20.8-5.1,30.6c4.1,5.7,10.8,9.2,17.8,9.2c4.6,0,9-1.4,12.7-4.1l38.8-27.7
						c9.8-7,12.1-20.6,5.2-30.4C488.7,518.7,482,515.2,474.9,515.2L474.9,515.2z"/>
				</g>
				<g>
					<path class="st3" d="M554.8,436.8c-6.8-2.1-10.6-9.4-8.5-16.2l14.4-45.4c2.2-6.8,9.4-10.6,16.2-8.5l0,0
						c6.8,2.1,10.5,9.4,8.4,16.1l-14.4,45.5C568.8,435.2,561.6,438.9,554.8,436.8L554.8,436.8z"/>
				</g>
				<g>
					<path class="st3" d="M552.4,422.7c2.4,0,4.9,0.7,7.1,2.1c6,3.9,7.6,11.9,3.7,17.8L537,482.5c-2.5,3.8-6.6,5.9-10.8,5.9
						c-2.4,0-4.9-0.7-7.1-2.1c-6-3.9-7.6-11.9-3.7-17.9l26.3-39.8C544.2,424.8,548.3,422.7,552.4,422.7 M552.4,413.7L552.4,413.7
						c-7.4,0-14.2,3.7-18.2,9.9L508,463.4c-6.6,10.1-3.8,23.7,6.3,30.4c3.6,2.4,7.7,3.6,12,3.6c7.4,0,14.2-3.7,18.3-9.9l26.2-39.7
						c6.6-10.1,3.8-23.8-6.3-30.4C560.9,415,556.7,413.7,552.4,413.7L552.4,413.7z"/>
				</g>
				<g>
					<path class="st3" d="M455.6,150.3c-3.8,6-1.9,14,4.2,17.8l40.5,25.1c6,3.8,14,1.9,17.8-4.2l0,0c3.8-6,1.9-14-4.2-17.8
						l-40.5-25.1C467.4,142.3,459.4,144.3,455.6,150.3L455.6,150.3z"/>
				</g>
				<g>
					<path class="st3" d="M544.5,231.8c-6.8,2.2-10.5,9.5-8.3,16.3l14.8,45.3c2.3,6.8,9.5,10.5,16.3,8.3l0,0
						c6.8-2.3,10.4-9.5,8.3-16.3L560.8,240C558.6,233.2,551.3,229.5,544.5,231.8L544.5,231.8z"/>
				</g>
				<g>
					<path class="st3" d="M515.6,180.5c4.2,0,8.2,2,10.8,5.7l26.6,39.5c4,5.9,2.4,13.9-3.5,17.9c-2.2,1.5-4.7,2.2-7.2,2.2
						c-4.2,0-8.2-2-10.7-5.7l-26.6-39.5c-4-5.9-2.4-14,3.5-17.9C510.6,181.2,513.1,180.5,515.6,180.5 M515.6,171.5
						c-4.3,0-8.6,1.3-12.2,3.7c-4.8,3.2-8.1,8.1-9.3,13.9c-1.2,5.8,0,11.6,3.3,16.5l26.7,39.6c3.9,6.1,10.8,9.7,18.1,9.7
						c4.4,0,8.6-1.3,12.2-3.7c10-6.8,12.7-20.4,6-30.4l-26.6-39.6C529.7,175.1,522.9,171.5,515.6,171.5L515.6,171.5z"/>
				</g>
				<g>
					<path class="st3" d="M566.8,296.1c6.2,0,11.7,4.5,12.8,10.8l7.7,47.1c1.2,7-3.6,13.6-10.7,14.8c-0.7,0.1-1.4,0.2-2.1,0.2
						c-6.2,0-11.7-4.5-12.7-10.8l-7.7-47.1c-1.2-7,3.6-13.7,10.6-14.8C565.5,296.2,566.2,296.1,566.8,296.1 M566.8,287.1
						c-1.2,0-2.3,0.1-3.5,0.3c-11.9,1.9-20,13.2-18.1,25.1l7.7,47c1.7,10.6,10.8,18.4,21.6,18.4c1.2,0,2.3-0.1,3.5-0.3
						c5.8-0.9,10.9-4.1,14.3-8.8c3.4-4.7,4.8-10.5,3.8-16.3l-7.7-47C586.7,294.9,577.6,287.1,566.8,287.1L566.8,287.1z"/>
				</g>
			</g>
			<g>
				<path class="st3" d="M331.8,122.2c-0.4,7.5,5.2,13.9,12.7,14.3l49.9,3.1c7.5,0.4,13.9-5.3,14.3-12.7l0,0
					c0.4-7.5-5.1-13.9-12.6-14.3l-49.9-3.1C338.7,109.1,332.2,114.7,331.8,122.2L331.8,122.2z"/>
			</g>
		</g>
		<g>
			<g>
				<path class="st3" d="M548,498.5c-4.5,4.3-10.2,7.2-16.3,8.3l-6.3,7.8c9.8,8.1,20.7,17,23.5,19.6c59.7,53.1,102,86.1,102,86.1
					s-33-42.2-86.1-101.9C561.9,515,554.4,506,548,498.5z"/>
			</g>
			<g>
				<path class="st3" d="M517.2,161.6c3,0.1,5.9,0.8,8.6,1.8c14.8-16.2,31.5-34.6,39-43.1c53.1-59.7,86.1-101.9,86.1-101.9
					s-42.2,33-102,86.2c-11,9.7-32.3,29-50.5,45.5L517.2,161.6z"/>
			</g>
			<g>
				<path class="st3" d="M163.1,511.3l-8.7-14.2c-7.7,8.4-16.6,18.2-19.3,21.2C82.1,578,49.1,620.2,49.1,620.2s42.3-33,102-86.1
					c1.5-1.3,6.8-5.9,13.2-11.3C163.3,519.1,162.8,515.3,163.1,511.3z"/>
			</g>
			<g>
				<path class="st3" d="M171.7,159.2l12-13.6c2.1-2.3,4.5-4.2,7.1-5.8c-13.9-12.5-28.6-25.4-39.8-35.2
					C91.3,51.4,49.1,18.4,49.1,18.4s33,42.3,86.1,101.9C142.1,128.1,157.9,144.6,171.7,159.2z"/>
			</g>
		</g>
	</g>
</g>
</svg>
