<?xml version="1.0" encoding="utf-8"?>
<!-- Generator: Adobe Illustrator 21.0.0, SVG Export Plug-In . SVG Version: 6.00 Build 0)  -->
<!DOCTYPE svg PUBLIC "-//W3C//DTD SVG 1.1//EN" "http://www.w3.org/Graphics/SVG/1.1/DTD/svg11.dtd">
<svg version="1.1" id="Layer_1" xmlns="http://www.w3.org/2000/svg" xmlns:xlink="http://www.w3.org/1999/xlink" x="0px" y="0px"
	 viewBox="0 0 500 500" style="enable-background:new 0 0 500 500;" xml:space="preserve">
<style type="text/css">
	.st0{fill:#FFFFFF;}
</style>
<g>
	<path class="st0" d="M83.3,21.4c111.5,0,222.3,0,333.6,0c0.2,3.6,0.6,6.8,0.6,10c0,25.5-0.3,51-0.2,76.5c0.1,76,0.4,152,0.5,228
		c0,8.5-0.2,17.2-1.5,25.6c-1.5,9.5-6.2,18-12.5,25.3c-11.3,13-24.2,24-38.9,33c-14.5,8.9-28.8,18.1-43.6,26.4
		c-13.3,7.4-27.2,13.8-40.9,20.5c-8.1,3.9-16.3,7.5-24.5,11.3c-3.6,1.7-7.2,1.7-10.9,0c-25-11.5-49.8-23.2-73.7-36.8
		c-15.7-8.9-31.2-18-45.8-28.7c-11.4-8.3-21.9-17.7-30.7-28.7c-7.3-9.1-11.8-19.7-11.8-32c0.1-108.6,0-217.2,0-325.8
		C83.1,24.6,83.2,23.4,83.3,21.4z M404.8,32.9c-5.2,0-9.6,0-14,0c-32.6,0.1-65.2,0.2-97.7,0.2c-63.2,0.1-126.3,0.2-189.5,0.3
		c-2.4,0-4.9,0.2-7.9,0.4c-0.2,3.8-0.4,7-0.4,10.2c0,102.3,0,204.6-0.1,307c0,8.2,2,15.6,6.9,21.9c5.9,7.5,11.9,15.2,19.3,21.1
		c12.5,10,25.8,19.2,39.4,27.9c21.4,13.8,44.3,24.8,67.2,35.8c7.2,3.5,14.6,6.5,22,9.8c1.4-0.5,2.6-0.8,3.7-1.3
		c10.3-4.7,20.6-9.3,30.8-14.3c28.6-14.2,56.8-29.2,82.6-48.3c11.8-8.7,23-18.1,31.1-30.5c4.2-6.4,6.6-13.2,6.6-21.2
		c-0.2-45.5-0.1-90.9,0-136.4c0.1-56.8,0.1-113.7,0.2-170.5C404.8,41.3,404.8,37.8,404.8,32.9z"/>
	<path class="st0" d="M388.9,255.8C342.6,301.9,296.5,347.7,250,394c0,5.2,0,10.9,0,18.2c13-11.5,23.8-23.4,35.2-34.7
		c11.5-11.3,22.9-22.8,34.3-34.2c11.4-11.4,22.9-22.8,34.4-34.2c11.4-11.4,22.8-22.7,35.1-35c0,7,0,12.4,0,17.9
		c-46.4,46-92.7,91.9-139.3,138.1c0,5.8,0,11.8,0,18.9c-3.1-1.5-5.4-2.7-7.7-3.8c-13.1-6.1-26.6-11.8-39.4-18.6
		c-13.2-7-25.6-15.5-38.7-22.7c-12.6-7-23.9-15.5-34.8-24.8c-4.9-4.2-9.3-9.2-13.3-14.3c-3.2-4.2-5.4-9.1-5.4-14.7
		c0-32.3,0-64.7,0-97c0-1.2,0.2-2.4,0.3-4.1c46.2,0,92,0,138.6,0c0,5.3,0,10.8,0,16.5c5.1-2.1,12.4-8.9,18.6-16.9
		c-5.2-2.8-11,0-16.2-2c-2.7-8.1-1.2-16.5-1.3-24.7c-0.2-15.4,0.2-30.8,0.3-46.2c0.1-38.1,0.1-76.2,0.2-114.3c0-4.5,0-9,0-13.3
		c8.8-1.8,118.7-1.1,137.9,0.7C388.9,117.9,388.9,187,388.9,255.8z M186,333.4c3.5,4.1,6.9,8.3,9.9,11.9c5.2,0,9.7,0,16,0
		c-7.2-11.7-14.2-22.1-21.8-33.1c-2.8,4.1-5.1,7.4-7.3,10.5c0.2,2.4,0.3,4.4,0.4,6.4c-1.2-0.2-2.3-0.5-3.8-0.8
		c-3.6,5.3-8.8,9.8-9.8,17c7.3,0,14,0,21.6,0C189.3,341,187.7,337.2,186,333.4z M167.8,314c1-6.6-2.2-11.2-6.9-15.2
		c-5.7,4.7-28.3,39-30.7,46.4c5,0,9.9,0,14.9,0c2.5-2.9,5.1-5.8,7.8-8.8c-1.1,2.7-2.2,5.5-3.5,8.8c5.3,0,10,0,15.8,0
		c4.3-6.3,8.9-13.3,13.8-20.6c-3.1-4.3-5.7-8.1-8.3-11.6C169.3,313.5,168.6,313.8,167.8,314z M276.2,164.5c7.1,0.4,12.7,0.7,19.6,1
		c-6.6,10.2-12.8,19.6-19.4,29.8c8.1,0,14.9,0,21.7,0c7.3-10.6,14.5-21.2,22.3-32.4c7.9,11.4,15.1,21.9,22.5,32.6
		c6.8-0.2,13.7,0.9,21-0.9c-4.8-10.8-13.1-18.7-18.1-28.6c6.1-2.8,12.7,1.5,18.2-3.1c-6.4-9.7-12.5-19-19.5-29.5c7.2,0,13,0,18.8,0
		c0-1.4,0.2-2,0-2.3c-5.9-9.3-11.9-18.5-17.9-27.7c-2.4-3.7-6.1-4.9-10.4-4.8c-9.8,0.2-19.5,0.6-29.3,0.3c-4.7-0.2-7.6,1.5-10,5.2
		c-5.1,7.8-10.3,15.4-15.4,23.2c-1.2,1.8-1.9,3.8-3.4,6.6c6.7,0,12.5,0,19.7,0C289.6,144.1,283.5,153.4,276.2,164.5z M250.2,376.2
		c42.9-42.8,85.1-84.9,128.5-128.2c-7.5-1-13.1-1.6-18.9,0.5C323.4,284.8,287,321.1,249.8,358c0,3.6,0,8.1,0,12.6
		C249.9,372.1,250,373.6,250.2,376.2z M323.5,248.5c-24.7,24.6-49.4,49.2-73.4,73.2c0,6.3,0,11.5,0,18.4
		c10.9-10.9,20.9-20.8,30.8-30.8c10.2-10.2,20.4-20.3,30.5-30.5c9.8-9.9,19.9-19.5,30.7-30.7C334.7,246.9,329.1,246.7,323.5,248.5z
		 M250,304c18.8-19.1,36.4-37,54.4-55.3c-5.9-2.7-11.6-1.6-17.7,0c-11.9,12.3-23.9,24.7-36.7,37.9C250,290.9,250,296.7,250,304z
		 M231,345.3c-4.4-9.1-9.9-16.4-15.1-23.9c-5.2-7.5-9.5-15.7-15.6-22.8c-4.6,3.4-6.9,7.3-8.2,12.1c7.7,11.8,15.4,23.5,22.7,34.7
		C220.4,345.3,225.1,345.3,231,345.3z M188.9,308.5c-4.3-2.8-4.1-8.2-9.7-9.7c-2.3,3.4-4.7,6.8-7,10.2c2.3,4.6,4.4,9,8.6,12.9
		C183.5,317.4,185.9,313.5,188.9,308.5z"/>
	<path class="st0" d="M389,310.4c0,7.1,0,12.6,0,17.4c-13.7,13.8-26.8,27.2-40.1,40.5c-11.5,11.5-23.2,22.9-34.8,34.3
		c-6.2,6.1-12.7,12-18.7,18.4c-8.7,9.1-18.2,17.1-30.1,21.6c-3.6,1.4-7.2,3-11.3,3.9C297.9,400.6,343.1,356.2,389,310.4z"/>
	<path class="st0" d="M178.5,92c13.9,8,27.3,15.7,41.2,23.8c-1.3,1.2-2,2.1-2.9,2.7c-10.8,6.3-21.6,12.6-32.4,18.7
		c-2.3,1.3-5,1.9-7.4,2.8c-13.5-7.8-26.4-15.2-40.5-23.4C150.6,107.5,164.4,100.2,178.5,92z"/>
	<path class="st0" d="M176.8,194.4c-13.8-8.1-26.5-15.4-40.5-23.5c14.7-8.5,28.2-16.4,42-24.3c13.7,8,27.6,15.2,41.5,24.4
		c-6.4,3.9-11.8,7.3-17.4,10.5c-6.1,3.5-12.2,7-18.4,10.3C181.5,193.1,178.6,193.8,176.8,194.4z"/>
	<path class="st0" d="M173.6,143.7c-14.1,8.1-27,15.5-40.7,23.4c-2.3-5.3-1.1-10.4-1.3-15.2c-0.2-5,0-10.1,0-15.1c0-5,0-10,0-16.1
		c8.3,2.4,14.4,7.2,21,10.8C159.3,135.2,165.8,139.2,173.6,143.7z"/>
	<path class="st0" d="M223.8,120.1c0,16.3,0,31.1,0,47.2c-13.7-7.9-26.5-15.3-40.4-23.3C196.4,134.9,209.7,128.3,223.8,120.1z"/>
	<path class="st0" d="M325.6,410.8c3-3.3,5.8-6.8,9-10c16.9-16.9,33.8-33.8,50.7-50.6c0.9-0.9,1.9-1.6,3.3-2.7
		c2.5,9.2-1.9,15.9-6.9,21.9c-9.1,11.2-20.8,19.5-32.6,27.6c-6.6,4.5-13.5,8.6-20.3,12.8c-0.9,0.6-2.3,0.5-3.4,0.8L325.6,410.8z"/>
	<path class="st0" d="M325.4,410.6c0,0.2,0,0.4-0.1,0.7c0.1-0.2,0.2-0.3,0.3-0.5L325.4,410.6z"/>
	<path class="st0" d="M301.2,129.9c6.1-10.5,11.8-19.1,19.3-27.7c6.5,8.7,13.2,16.4,17.9,26.9C325.9,130.9,314.5,130.1,301.2,129.9z
		"/>
	<path class="st0" d="M301.4,160.5c5.9-10.1,11.8-19.1,19.1-27.8c6.9,9.2,13,17.8,18.5,27.8C326.4,160.5,314.6,160.5,301.4,160.5z"
		/>
	<path class="st0" d="M168.1,313.7c-3.2,6.8-7,13.2-12.4,18.5C158.7,325.2,162.1,318.6,168.1,313.7z"/>
	<path class="st0" d="M156,331.9c-1.1,1.6-2.2,3.2-3.3,4.9C153.8,335.1,154.9,333.5,156,331.9z"/>
	<path class="st0" d="M186.3,333.7c-3-0.4-3.3-2.5-3.3-4.8C184.9,329.9,186.7,331.1,186.3,333.7z"/>
</g>
</svg>
