<?xml version="1.0" encoding="utf-8"?>
<!-- Generator: Adobe Illustrator 21.0.0, SVG Export Plug-In . SVG Version: 6.00 Build 0)  -->
<!DOCTYPE svg PUBLIC "-//W3C//DTD SVG 1.1//EN" "http://www.w3.org/Graphics/SVG/1.1/DTD/svg11.dtd">
<svg version="1.1" id="Layer_1" xmlns="http://www.w3.org/2000/svg" xmlns:xlink="http://www.w3.org/1999/xlink" x="0px" y="0px"
	 viewBox="0 0 700 700" style="enable-background:new 0 0 700 700;" xml:space="preserve">
<style type="text/css">
	.st0{fill:#FFFFFF;stroke:#FFFFFF;}
</style>
<g>
	<path class="st0" d="M188,156v332.2c0,23.4,25.7,49.2,81,81.1c33.2,19.1,66.9,34.2,77,38.6l4,1.6l4.3-1.8
		c6.7-2.9,42.1-18.6,76.5-38.5c55.3-31.9,81-57.7,81-81.1V156H188z M503.2,488.2c0,19.4-25.8,44.1-76.6,73.5
		c-34.1,19.7-69,35.1-75.9,38.1l-0.7,0.3l-1.1-0.4c-9.4-4.1-42.8-19-75.6-37.9c-50.8-29.4-76.6-54.1-76.6-73.5V164.8h306.4V488.2z"
		/>
	<path class="st0" d="M282,550.1c32.6,18.8,65.7,33,66,33.1l2.1,0.9l2-0.9c0.3-0.1,33.3-14.3,66-33.1c45.8-26.4,68-48.2,68-66.7V476
		l-136-72.9L214,476v7.3C214,501.9,236.2,523.7,282,550.1z"/>
	<polygon class="st0" points="486,302.9 486,181.2 214,181.2 214,302.9 350,232.3 	"/>
	<polygon class="st0" points="486,365.3 486,351.1 350,278.2 214,351.1 214,365.3 350,294.8 	"/>
	<polygon class="st0" points="486,427.8 486,413.6 350,340.7 214,413.6 214,427.8 350,357.2 	"/>
</g>
</svg>
