<?xml version="1.0" encoding="utf-8"?>
<!-- Generator: Adobe Illustrator 21.0.0, SVG Export Plug-In . SVG Version: 6.00 Build 0)  -->
<!DOCTYPE svg PUBLIC "-//W3C//DTD SVG 1.1//EN" "http://www.w3.org/Graphics/SVG/1.1/DTD/svg11.dtd">
<svg version="1.1" id="Layer_1" xmlns="http://www.w3.org/2000/svg" xmlns:xlink="http://www.w3.org/1999/xlink" x="0px" y="0px"
	 viewBox="0 0 700 700" style="enable-background:new 0 0 700 700;" xml:space="preserve">
<style type="text/css">
	.st0{fill:#FFFFFF;stroke:#FFFFFF;}
</style>
<g id="Layer_6">
	<g>
		<path class="st0" d="M327.8,537.4l0,84.2c0,1.8,0.9,58.5,19.5,77.3c0,0,1.5,1,2.5,1.1c1.1,0,3.1-1.1,3.1-1.1
			C371.5,680,372,626,372,621.6v-84.4c-6.5-3.1-13.6-5.5-21.8-6.4C341.9,531.7,334.5,534.3,327.8,537.4z"/>
		<path class="st0" d="M301.3,135.9c0.4-0.4,0.7-0.9,1.1-1.3c0.7-0.9,2.2-2.8,2.9-3l18.8,0v2.3h3.7v34.5h0V195
			c7.1-1,14.6-1.7,22.5-1.7c7.6,0,14.8,0.7,21.8,1.7v-38v-23.2h4.9v-2.3h18.9c0.6,0.2,2.1,2.2,2.9,3.1c0.3,0.4,0.7,0.8,1,1.2v2.6
			h3.3l12.6,0.1l3.4,0v-34.5h-14.3c-0.3-0.1-0.6-0.1-1-0.1h-3.4v0.1h-0.6v2.4c-0.1,0.1-0.2,0.2-0.3,0.3c-0.8,0.9-2.8,3.2-3.6,3.2
			h-28.3c-2.8-3.7-4.3-15.1-4.3-22.7c0-1.7-0.5-3.2-1.5-4.6V40h8.7l0-3.4l-0.1-23.1v-3.3l-3.3-0.1c-5.2-0.1-9.9-2.8-12.8-7.5
			L353.9,2l-0.6-0.4l-1-0.7l-1.5-1l-1.7,0.7l-0.3,0.1l-1.1,0.4l-0.6,1c-2.7,4.9-7.8,7.9-13.1,7.9h-3.7V40h8.8v42.7
			c-1,1.3-1.5,2.8-1.5,4.5c0,7.6-1.5,19-4.4,22.8c-7.6,0-14.4,0-19.5,0c-2.7,0-4.9,0-6.4,0c-0.7,0-1.5,0-2.2,0.1v-0.1
			c-0.8,0-2.6-2.1-3.5-3c-0.2-0.2-0.4-0.5-0.6-0.7l-0.2-2.3H299l0-0.1l-1.8,0c-0.4,0-0.7,0-1,0.1h-14.4v34.5h19.6L301.3,135.9z"/>
		<path class="st0" d="M222.6,392.2C222.6,392.2,222.6,392.3,222.6,392.2L222.6,392.2z"/>
		<path class="st0" d="M207.8,401.8C207.8,401.8,207.8,401.8,207.8,401.8C207.8,401.8,207.8,401.8,207.8,401.8L207.8,401.8z"/>
		<path class="st0" d="M284.2,529.3c1-0.3,2-0.6,3-1.1C286.1,528.5,285,528.8,284.2,529.3z"/>
		<path class="st0" d="M259.9,435.6c-2.9,2-5.6,4.1-8.2,6.5c0,0.5,0.1,0.9,0.1,1.4c1.9-1.4,4.1-2.4,6.1-3.4c0.4-0.2,0.6,0.1,0.8,0.1
			c0.6,0.1,1.1,0.1,1.5-0.4c0-0.4,0.3-0.5,0.5-0.7c1.5-1.1,3-2.3,4.5-3.4c-2-17-8.9-17.8-8.9-17.8c-4.9,0-4.9,8.8-4.9,16
			c0,1.2,0.1,3.4,0.2,6.2c3.1-2.5,6.6-4.4,9.9-6.7c0.2-0.1,0.4-0.2,0.9-0.3C261.6,434.3,260.8,435,259.9,435.6z"/>
		<path class="st0" d="M295.5,542.2c1-0.1,1.9-0.1,2.9-0.1c12.4-8.3,28.8-20.6,52-22.7c24.6,2.2,41.6,16,54.2,24.2
			c12.6,8.3,22.6,2.2,30.2-4.9c7.7-7.1,11.6-33.6,11.9-47.4c0.3-13.8,2.5-50.2,2.5-57.3c0-7.2,0-16-4.9-16c0,0-10.1,1.1-9.5,30.3
			c0.6,29.2-0.1,44.9-3.6,48c-3.5,3.1-11.6,3.6-13.4-4.9c-1.9-9.2-16-24.3-28.4-28.7c-12.3-4.4-21.6-9.4-39-9.4
			c-17.4,0-26.7,5-39.1,9.4c-12.4,4.4-27.2,19.4-28.3,28.7c-1.3,10.1-10.8,7.5-13.4,4.9c-3.3-3.3-4.2-18.8-3.7-48
			c0.1-3.5,0-6.6-0.2-9.3c-0.1,0-0.1,0.1-0.2,0.1c-3.4,2.8-6.4,5.9-9.8,8.7c-1.2,1-2.4,2-3.5,3c0.7,13.7,1.6,31.7,1.8,40.6
			c0.2,7.9,1.5,19.9,4.1,30c0.3-0.2,0.7-0.4,1-0.7c0.2-0.1,0.5-0.2,0.7-0.3c0.4,0.3,0.8,0.4,1.2,0.3c1.4-0.7,3-0.8,4.4-1.5
			c1.4-0.7,3-0.8,4.3-2c0.2,0.8-0.2,1.1-0.5,1.2c-1.6,0.6-3,1.8-4.7,2.3c-0.3,0.1-0.7,0.2-0.8,0.5c-0.5,0.9-1.5,0.4-2.1,0.7
			c-0.7,0.4-0.7,1.5-1.5,1.9c-0.1,0.1-0.3,0.2-0.5,0.2c-0.3,0.1-0.5,0.1-0.8,0.2c0.3,1,0.6,2,0.9,3c0.7-0.2,1.4-0.4,2.2-0.5
			c2.5-0.4,4.7-1.5,7-2.4c1.7-0.6,2.1-0.4,2.5,1.2c1.8-1.4,3.8-2.7,6.1-2.5c2.8,0.2,5.3-0.5,7.6-1.7c4.4-2.4,9-4.6,13.2-7.5
			c0.4-0.3,0.9-0.4,1.4-0.6c1.9-0.6,3.7-1.4,5.2-2.9c0.5-0.5,1.2-0.9,1.9-1.1c3.4-0.9,6.4-2.7,9.5-4.3c1.4-0.7,2.9-1.6,4.6-0.9
			c0.1,0.2,0.2,0.4,0.3,0.7c0.9,1.7,0.8,2.2-0.8,3.3c-2.6,1.7-4.8,3.8-7.6,5.1c0,0,0,0-0.1,0c0,0,0.1-0.1,0.2-0.1
			c0.5-0.2,0.7,0.1,0.6,0.5c-1,0.2-1.7,0.9-2.5,1.4c-0.8,0.5-1.6,1-2.4,1.4c-1.7,1.1-3.5,2.2-5.2,3.3c-0.9,0.5-1.9,1-2.8,1.5
			c-1.7,0.6-3.1,2-4.9,2.5c-0.1,0.1-0.2,0.1-0.4,0.2c-0.2,0.3-0.5,0.4-0.9,0.6h0c-0.1,0.1-0.2,0.2-0.3,0.2c-2.3,1.4-4.7,2.7-7,3.7
			c1-0.2,2-0.3,3.1-0.4c0.9-0.1,1.7-0.1,2.3,0.8c0.5,0.9,0.3,1.7-0.1,2.5c-0.5,1.1-1.6,1.7-2.4,2.6c-1.7,0.3-3,1.3-4.5,2.2
			c-0.5,0.6-1.1,1.1-1.6,1.7c-0.9,0.7-0.5,3.3,0.3,3.9c0.3,0.2,0.6,0.1,0.9-0.1c0.5-0.3,0.8-0.8,1.2-1.2c1.3-1.7,3.3-1.8,4.7-0.3
			c0.7,0.7,1.4,1,2.3,0.9c0.8,0,1.6,0,2.4,0c0.2,0,0.3,0.1,0.5,0.2C296.4,541.7,295.5,541.5,295.5,542.2z M259.9,510.8
			c-0.2,0-0.4,0-0.4-0.3c0.1-0.3,0.3-0.4,0.6-0.5c0.2,0,0.4-0.1,0.4,0.2C260.5,510.6,260.2,510.8,259.9,510.8z M253,458.5
			c0.9-1.6,2.5-2.4,3.7-3.5c0.5,0.3-0.2,1,0.4,1.3l3.5-1.4l0.1,0.3C258.3,456.6,256,458.4,253,458.5z M264.6,455.5
			c0.1,0,0.1,0,0.1,0c0,0.1,0,0.1,0,0.2c0,0-0.1,0-0.1,0C264.6,455.6,264.6,455.5,264.6,455.5z M264.8,462.8L264.8,462.8
			c-0.9,0.1-1.5,0.7-2.4,0.9c-0.5,0.1-1.1,0.6-1.3,0c-0.3-0.7,0.5-0.7,0.9-0.8c0.5-0.1,1.1-0.3,1.5-0.7
			C264.4,461.5,264.5,462.3,264.8,462.8L264.8,462.8L264.8,462.8z M280.6,506.4c-0.1,0-0.3,0-0.3-0.1c-0.1-0.2,0-0.3,0.2-0.4
			c0.1,0,0.3,0,0.3,0.1C280.9,506.2,280.8,506.3,280.6,506.4z M289.9,498.2c-0.1,0.4-0.4,0.8-0.7,0.5c-0.5-0.3,0.1-0.6,0.1-0.9
			c0.3-0.1,0.5-0.2,0.8-0.3C290,497.7,289.9,497.9,289.9,498.2z M291.7,499.1c0,0.3-0.2,0.4-0.5,0.3c-0.2,0-0.3-0.2-0.3-0.4
			c0.1-0.3,0.2-0.4,0.5-0.3C291.7,498.8,291.8,498.9,291.7,499.1z M296.3,511.2c-0.1,0.1-0.2,0.1-0.3-0.1c0,0,0-0.1,0.1-0.1
			c0,0,0.1,0,0.2,0C296.3,511.1,296.3,511.1,296.3,511.2z M296.3,497.2c-0.2,0.1-0.4,0-0.5-0.2c-0.1-0.1-0.1-0.3,0-0.5
			c0.3,0,0.5,0,0.7,0.3C296.6,497,296.5,497.1,296.3,497.2z"/>
		<path class="st0" d="M302.6,415.7L302.6,415.7L302.6,415.7C302.6,415.7,302.6,415.7,302.6,415.7z"/>
		<polygon class="st0" points="302.6,415.7 302.6,415.7 302.6,415.7 		"/>
		<path class="st0" d="M485.9,292.2c-3.6-11-15.2-12.1-16.3-15.9c-1.1-3.9-36.7-71.7-119.3-71.7c-64,0-99.8,40.6-113.2,60.8
			c0.8-0.3,1.7-0.6,2.5-0.8c0.6-0.2,1.1-0.1,1.6-0.7c0.3-0.4,0.8-0.3,1.2,0.1c0.5,0.3,0.1,0.7-0.1,1c-0.7,1.1-1.3,2.3-3,1.8
			c-0.7-0.2-0.9,0.2-0.4,1.1c0.1,0.2,0.2,0.4,0.1,0.4c-0.7,0.3-0.6,1.4-1.4,1.6c-1.5,1.8-3.2,3.3-4.9,4.8c-0.3,0.2-0.7,0.3-1,0.4
			c-0.1,0.1-0.1,0.1-0.2,0.2c-0.3,0.5-0.4,0.9-0.5,1.1c-1,3.6-11.1,4.8-15.4,13.9c1.6-0.9,3-2.1,4.6-2.9c2.8-1.3,5.1-3.4,7.8-4.9
			c1.5-0.9,3-2,4.7-2.6c0.4-0.6,1-0.9,1.6-1c2.6-2.3,5.6-4.1,8.3-6.2c0.3-0.2,0.7-0.3,1-0.4c0.6-0.2,1.3-0.6,1.6,0.2
			c0.2,0.6,0.3,1.3-0.4,2c-0.9,0.9-1.8,1.8-2.9,2.5c-0.3,0.2-0.6,0.5-1,0.4c-0.3-0.1-0.6,0-0.8,0.3c-1.7,1.9-3.9,3-5.7,4.8
			c-0.3,0.2-0.6,0.3-1,0.5c-2,1.9-4.5,3.2-7.1,4.1c-3,1.1-5.7,2.6-8.5,4.1c-1.1,0.6-2.2,1.2-3.3,1.7c-3.4,11.3,0.3,44-3.5,59.3
			c-2.1,8.4-5.5,16.1-7.7,24.5c1-0.8,2-1.7,3.2-2.2c0.3-0.1,0.6-0.3,0.7,0.1c0.1,0.3-0.1,0.5-0.3,0.6c-1.2,0.6-2.1,1.6-3.2,2.4
			c-0.3,0.3-0.6,0.4-0.8,0.5c-0.4,1.6-0.7,3.2-1,4.8c0.1-0.2,0.2-0.4,0.3-0.7c0.1-0.5,0.5-0.6,1-0.6c0.7,0,1.3-0.2,1.6-0.9
			c0-0.2,0.1-0.3,0.2-0.4c0.5-0.9,1.5-1.4,2.7-1.4c0,0.6-0.6,1-0.8,1.6c0,0.1,0,0.1,0,0.2c-0.6,1.5-2.1,2.3-3,3.6
			c-0.6,0.8-1,1.7-1.6,2.4c-0.4,0.4-0.7,0.8,0.3,0.9c0.5,0.1,0.3,0.5,0.2,0.9c-0.1,0.5-0.6,0.7-1,1.1c-0.2,0.2-0.6,0.4-0.4,0.7
			c0.2,0.4,0.5,0.1,0.7-0.1c0.3-0.4,0.7-0.4,0.9,0.1c0.5,1.1,1.3,1.4,2.4,1.1c0.3-0.1,0.7,0.2,0.9,0.5c0.3-0.1,0.5-0.3,0.7-0.3
			c3.7,0,6.9-1.7,9.8-3.7c2.2-1.5,4.4-3.1,6.1-5.2c0.8-0.9,1.4-2.2,3-1.9l0,0c-0.1-0.4-0.3-0.8,0.2-0.9c0.3-0.2,0.7-0.2,1-0.4
			c0.3-0.1,0.3-0.7,0.8-0.6c0.3,1.4,0,1.9-2,3.1c-0.2,0.4-0.5,0.8-0.7,1.1c-0.7,0.7-1.5,1.3-1.4,2.4c0,0.5-0.4,0.7-0.8,0.9
			c-1,0.5-1.8,1.3-2.4,2.3c-0.5,0.9-1.6,1.3-2.5,1.8c-0.8,1.8-2.7,2-4,2.9c0.2,0.8,0.5,1.5,1.5,0.9c0.3-0.1,0.5,0,0.5,0.3
			c0.1,0.4-0.1,0.6-0.5,0.6c-0.4,0-0.8-0.2-1.3,0c-1,0.4-1.2-0.3-1.3-1.1c-1.3,0.5-2,1.8-3.4,2.3c-0.4,0.1-0.5,0.7-1.1,0.3
			c-0.4-0.2-0.6,0.2-0.8,0.5c-0.5,0.5-0.8,1.3-1.5,1.6c0,0.9-1,0.8-1.2,1.6c0,0.6,1.8,0.3,0.8,1.5c0.7,0.2,0.8-0.3,1-0.7
			c0.2-0.3,0.3-0.6,0.7-0.4c0.5,0.3,0.4,0.5,0.1,0.9c-0.1,0.1-0.1,0.4-0.1,0.6c0.1,0,0.1,0,0.1,0.1c0,0-0.1,0-0.1,0l0,0
			c-0.3,0.5-1.1,0-1.2,0.6c0,1.1,0.3,1.9,1.5,2.2c-0.3,0.7-0.8,0.6-1.1,0.8c0.1,0.4,0.2,0.8,0.3,1.2c0.3,1.4,0.1,1.7-1.5,1.7
			c0,0,0,0,0,0l0,0c0.1,0.8,0,0.9-0.7,0.8c0.3,0.4,0.5,0.9,0.8,1.3c0.3,0,0.6,0,0.7-0.3c0.2-0.5,0.9-0.8,1.1-1.1
			c0.5-1.3,1.4-0.4,1.6-0.2c0.6,0.5-0.2,1.1-0.2,1.6c0,0.2-0.1,0.3-0.3,0.1c-0.9-0.5-1.5-0.1-2,0.7c-0.1,0.1-0.1,0.1-0.2,0.2
			c7.7,11.7,21.8,17.9,21.8,17.9s3.8,0.5,3.8-4.4c0-5-11.5-17.2-11-26c0.1-2,0.7-4.5,1.7-6.8c0,0-0.1,0-0.2,0.1
			c-0.6,0.7-0.3,1.7-1,2.3c-0.6,0.5-0.8,0.5-1-0.2c-0.1-0.2,0.4-0.6-0.2-0.6c-0.2,0-0.6,0.1-0.6,0.4c-0.1,1.4-1.7,1.5-2.2,2.6
			c-0.2,0.4-1,0.4-1.5,0.7c-0.3-0.4-0.2-0.8-0.2-1.2c0.8-0.7,2.3-1.1,2.2-2.4c-0.1-1.5,0.6-2,1.9-2.2c0.1,0,0.2-0.1,0.3-0.2
			c0.7-0.6,1.3-0.9,1.5,0.5c0,0.3,0.5,0.1,0.8,0.1c0.1-0.5,0.2-1.1,0.2-1.6c0-0.3,0.1-0.6,0.3-0.6c0.5,0,0.8-0.2,1.1-0.4
			c2.5-4,6.4-7.2,12.2-7.3c1.2-1.2,2.6-2,4.2-2.7c-0.7,1.2-1.7,2-2.9,2.7c1.4,0.1,2.9,0.3,4.5,0.8c0.2-0.2,0.5-0.4,0.7-0.5
			c0.3-0.8,0.9-1.4,1.6-1.8c0.9-0.5,1.5-1.5,2.5-1.8c1-0.8,1.6-2,3.3-2.4c-0.9,1-1.7,1.9-2.4,2.6c-1.5,1.4-3.1,2.7-4.9,3.7
			c0,0.1,0,0.3,0,0.4c2.3,0.8,4.9,1.9,7.7,3.6c6.2,3.7,10.8,7.4,14.2,11c0.5-0.9,1.7-1.6,2.6-1.5c0.4,0,0.8,0.2,0.9,0.6
			c0.1,0.4-0.1,0.6-0.3,0.8c-0.4,0.4-0.7,0.7-1.1,1c-0.3,0.2-0.5,0.4-0.8,0.6c7,8,8.4,15.5,8.7,22.8c0.1,1.6,0.1,3.4,0.1,5.4
			c0.7-0.5,1.4-0.9,2.1-1.3c0.5-0.8,1.2-1.2,2-1.6c2.4-1.4,4.3-3.5,7.1-4.5c-0.3,1.3-4.3,5.1-6.7,6.5c-1.5,1.3-2.9,2.6-4.4,3.9
			c0,1.5,0,3-0.1,4.5c0.1,0,0.1,0,0.1,0c0,0,0.1,0.3,0,0.3c-0.1,0-0.1,0-0.2,0.1c-0.1,10.5,0.1,21.5,3.9,21.5c5.5,0,11,5,14.3-17.6
			c3.3-22.7,26.3-35.3,57-35.3c30.6,0,53.7,12.7,56.9,35.3c3.3,22.6,8.8,17.6,14.4,17.6s3.3-23.7,3.9-34.7
			c0.5-11,3.3-22.6,24.2-35.3c21-12.7,29.2,3.3,29.8,12.1c0.5,8.8-11,21-11,26c0,4.9,3.9,4.4,3.9,4.4s23.7-10.5,26.4-29.8
			c2.9-19.3-5.4-32.5-9.3-48C485.7,336.4,489.5,303.2,485.9,292.2z M209.7,372.7c-0.2,0-0.4,0-0.4-0.3c0-0.3,0.2-0.4,0.4-0.5
			c0.1,0,0.4-0.1,0.3,0.2C210,372.4,210,372.6,209.7,372.7z M222.4,407.7c0.1,0,0.2,0,0.3,0c-0.1,0.1-0.1,0.2-0.1,0.2
			c-0.1,0.1-0.2,0-0.3,0C222.3,407.8,222.3,407.7,222.4,407.7z M209,399c0.1-0.1,0.2,0,0.3,0c-0.1,0.1-0.1,0.3-0.1,0.3
			c-0.1,0.1-0.3,0.2-0.4,0C208.7,399.2,208.9,399.1,209,399z M209.1,404.2c-0.1,0.1-0.2,0-0.2-0.2c0-0.1,0.1-0.2,0.2-0.3
			c0.2,0,0.3,0,0.2,0.2C209.2,404,209.2,404.1,209.1,404.2z M207.9,401.8c0.9,0,1.5-0.4,1.9-1.2c0.2-0.5,0.4-0.1,0.5,0.2l0,0
			c-0.1,0.1-0.2,0.3-0.2,0.5C209.7,402.6,209,402.7,207.9,401.8z M210.8,405.4c0,0.2-0.2,0.5-0.5,0.5c-0.3-0.1-0.5-0.4-0.5-0.7
			c0.1-0.8,0.7-1.2,1.4-1.4C211.4,404.5,210.7,404.8,210.8,405.4z M210.2,400.8C210.2,400.8,210.3,400.8,210.2,400.8L210.2,400.8
			L210.2,400.8C210.2,400.8,210.2,400.8,210.2,400.8C210.2,400.8,210.2,400.8,210.2,400.8z M212.3,402.8c-0.3-0.3,0.2-0.4,0.4-0.5
			c0.1,0,0.2,0,0.3,0C213,402.7,212.4,402.9,212.3,402.8z M215.9,396.4L215.9,396.4L215.9,396.4
			C215.8,396.4,215.8,396.4,215.9,396.4c-0.4,0.4-0.8,0.8-1,1.3c-0.3,0.7-0.3,2-1.6,1.2c-0.5,0.6-1.4,0.8-1.7,1.7
			c-0.2,0.5-0.7,1.1-1.3,0.3c0.3-0.1,0.5-0.3,0.3-0.7c-0.2-0.4-0.4-0.7-0.5-1.2c-0.2-0.7,0.1-1.2,0.8-1c0.8,0.1,1.4,0.2,1.9-0.5
			c0.9,0.4,1.1-0.3,1.5-0.9C214.7,395.8,215.3,396.1,215.9,396.4C215.8,396.4,215.9,396.4,215.9,396.4L215.9,396.4L215.9,396.4z
			 M219.5,304c1.3-0.6,2.6-1.2,3.9-1.6c0.1,0.1,0.1,0.3,0.2,0.4c-1.3,0.7-2.5,1.5-3.7,2.2c-0.3,0.2-0.7,0.2-0.8-0.1
			C218.8,304.4,219.2,304.1,219.5,304z M231.2,356.5c-0.1,0.1-0.4,0.1-0.5,0.2c-0.6,1.4-2.1,2.1-3.1,3.1c-1.4,1.5-2.9,2.8-4.5,4
			c-3.3,2.4-6.8,4.5-10.3,6.6c-0.3,0.5-0.7,0.8-1.3,0.8c0-0.7,0.4-0.8,0.9-1c0.4-0.4,0.7-0.9,1.1-1.3c3.4-2.8,6.6-5.9,10.4-8.2
			c0.9-0.6,1.7-1.3,2.5-1.9c0.9-0.7,2-0.9,2.5-2c0.2-0.4,0.7-0.3,0.9-0.5c0.5-0.5,1.5-0.5,1.7-1.6c0.1-0.9,1.3-0.7,2-1.1
			C232.8,355.6,232.8,355.6,231.2,356.5z M264.6,247.1c0.2,0,0.6,0,0.6,0.1c0.2,0.5-0.3,0.4-0.5,0.5c-0.2,0.1-0.4,0.2-0.7,0
			C264.1,247.4,264.3,247.2,264.6,247.1z M250.9,267.9c0.2,0,0.3,0.1,0.3,0.3c0,0.2-0.1,0.4-0.3,0.3c-0.1,0-0.2-0.1-0.2-0.2
			C250.6,268.1,250.7,268,250.9,267.9z M248,269.5c0.7-0.3,1.3,0,1.6,0.8c0.3,0.6,0,0.9-0.5,1.1c-0.6,0.3-1.9-0.2-2-0.8
			C246.9,269.9,247.5,269.7,248,269.5z M241.2,379.1c0.5-2.3,1.3-3,3.4-3.4C244.3,376.7,242.4,378.6,241.2,379.1z M258.4,352.1
			c0-0.5-0.3-1,0.1-1.4c0.6-0.6,1.2-1,1.8-1.5c0.1,0,0.4,0,0.5,0.1c0.1,0.1,0.2,0.4,0.2,0.5c0,0.2-0.2,0.3-0.3,0.4
			c-0.4,0.3-1,0.6-0.5,1.2c0.3,0.5,0.9,0.3,1.4,0.1c0.8-0.3,1.5-0.6,2.2-0.9c0.3-0.1,0.6-0.1,0.9,0.2c0,0.2,0,0.3-0.1,0.5
			c-0.2,0.5-0.7,1-1.3,0.9c-0.9-0.1-1.5,0.3-2.1,1c-0.4,0.6-1,1-1.8,0.7C258.7,353.6,258.3,353,258.4,352.1z M256.9,348.9
			c0.5-1.1,2.3-2.5,4-2.6C259.7,347.2,258.6,348.4,256.9,348.9z M263.8,347.2c0.1-0.2,0.4-0.3,0.7-0.2c0.7,0.4,1.2,1,1.4,1.9
			c0.1,0.3-0.2,0.4-0.4,0.5c-0.7,0.2-1-0.3-1.4-0.7C263.6,348.3,263.6,347.7,263.8,347.2z M262.4,355.1c-0.1-0.1-0.3,0-0.5,0.2
			c-0.1,0.1-0.2,0.3-0.3,0.5c-0.3,0.5-0.7,0.9-1.3,0.7c-0.3-0.1-0.4-0.3-0.4-0.6c0-0.7,0.5-1,1-1.2c0.3-0.2,0.6-0.2,0.7-0.3
			c0.8-0.1,1.2-0.5,1.6-0.9c0.5-0.5,1.1-0.6,1.7-0.4c0.5,0.1,0.8,0.4,0.9,0.9c0.1,0.5-0.2,0.8-0.6,0.8
			C264.3,355,263.5,356.3,262.4,355.1z M275.3,390c-1,1.1-1.7,2.3-2.6,3.4c-0.5,0.6-1,1.1-1.1,1.9c-0.1,0.5-1.6,1.3-2.1,1.1
			c-0.5-0.2-0.6-0.6-0.4-1.1c0.2-0.4,0.6-0.6,1-0.8c1.1-0.9,1.3-1.7,0.6-2.9c0,0-0.1-0.1-0.1-0.1c-1.2-1.8-1-2.9,0.7-4.2
			c0.7-0.5,1.4-0.9,2.1-1.3c0.2-0.2,0.6-0.4,0.4-0.7c-0.2-0.4-0.6-0.3-1-0.2c-1.5,0.4-3,0.8-4.5,1.4c-1.8,0.8-2.4,0.8-5.1,0.6
			c1.3-0.9,2.7-1.1,3.9-1.2c1.4-0.1,2.6-0.4,3.8-0.9c0.7-0.3,1.5-0.6,2.3-0.7c0.6-0.1,1.3-0.1,1.6,0.6c0.3,0.7-0.3,1-0.7,1.4
			c-0.6,0.5-1.3,1-1.9,1.5c-0.5,0.5-1.1,0.8-1.2,2c1.1-0.7,2-1.2,3.1-1.2c0.4,0,0.9-0.1,1.2,0.4C275.7,389.2,275.6,389.6,275.3,390z
			 M274.8,362.9c0.3-0.1,0.5,0,0.6,0.3c0.3,0.5,0.5,1.1,0.8,1.7c0.5,1.1,0.6,2.3,1.2,3.3c0.1,0.2,0.2,0.5-0.1,0.7
			c-0.3,0.2-0.6,0-0.8-0.2c-0.1-0.1-0.2-0.3-0.3-0.5c-0.3-1.6-0.8-3.1-1.7-4.5C274.5,363.3,274.5,363,274.8,362.9z M271.7,360.7
			c1.3-1,2.1-2.6,3.8-3.3C274.8,359.1,273.2,360.5,271.7,360.7z M277.5,358.8c-0.3-0.6,0.1-1.1,0.2-1.6c0.2-0.9-1.4-0.3-0.8-1.2
			c0.3-0.5,0.5-0.9,0.5-1.5c0-1,0.5-1.3,1.4-1.1c0.5,0.1,1.1,0.3,1.3,0.9c0.2,0.7-0.4,1-0.9,1.3c-0.2,0.1-0.4,0.2-0.4,0.5
			c0.2,0.3,0.4,0.2,0.7,0.1c0.4-0.1,0.8-0.3,1,0.2c0.3,0.5,0,0.9-0.4,1.1C279.3,358.1,278.6,358.9,277.5,358.8z M277.7,348.1
			c0.6-1.5,1.6-2.4,3.1-2.6c0.2,0,0.5,0,0.6,0.3c0.1,0.3,0.1,0.5-0.2,0.7C280.2,347.1,279.3,348.1,277.7,348.1z M269.3,339.4
			c-0.5-1.6,0.3-2.3,1.3-2.7c1.8-0.8,3.4-1.9,5.5-2.2c1.5-0.2,2.8-0.8,4.2-1.4c0.5-0.3,1.1-0.5,2.1-0.3
			C278.1,335.6,273.8,337.5,269.3,339.4z M269.5,351.8c1.3,0.3,1.9,1.3,1.4,2.6c-0.2,0.5-0.1,1.1-0.8,1.5c-0.3-0.3-0.3-0.5-0.2-0.8
			c0.4-1,0.5-1.9-0.8-2.4c-0.2-0.1-0.3-0.3-0.2-0.6C269,351.8,269.3,351.8,269.5,351.8z M281.6,381.4c-0.1,0-0.2,0-0.3,0
			c-0.1-0.1-0.1-0.2,0.1-0.3c0.1,0,0.3-0.1,0.3,0C281.9,381.2,281.8,381.4,281.6,381.4z M279.3,378.3
			C279.3,378.3,279.3,378.3,279.3,378.3L279.3,378.3c-0.6,0.3-1.2,0.3-1.8,0c-0.5,0.5-1.1,0.5-1.7,0.6c0.9-1.5,1-1.6,2.3-0.9
			C278.5,378,278.9,378.2,279.3,378.3C279.2,378.3,279.2,378.3,279.3,378.3C279.3,378.3,279.3,378.3,279.3,378.3
			c0.8-0.3,1.7-0.8,2.6-0.8C281.1,378,280.3,378.5,279.3,378.3z M283.4,379.6c-0.5-0.8,0.1-1.3,0.3-1.8
			C284,378.5,283.8,378.9,283.4,379.6z M277.1,433.9c-0.4,0.3-0.7,0-0.8-0.4c-0.1-0.4,0.2-0.6,0.5-0.5c0.4,0.1,0.9-0.3,1.2,0.2
			C277.9,433.6,277.4,433.7,277.1,433.9z M279,438.9c0,0-0.1-0.1-0.1-0.1c0-0.1,0.1-0.1,0.1-0.2c0,0,0.1,0.1,0.1,0.1
			C279.1,438.7,279.1,438.8,279,438.9z M279.5,431.6c0.1,0,0.3,0,0.5,0c-0.1,0.1-0.1,0.2-0.2,0.3c-0.1,0.1-0.3,0.2-0.5,0
			C279.4,431.8,279.4,431.7,279.5,431.6z M279.5,449.1L279.5,449.1C279.5,449.1,279.5,449.1,279.5,449.1
			C279.5,449.1,279.5,449.1,279.5,449.1z M279.9,448.9c-0.1,0.1-0.3,0.1-0.4,0.2c0.1-0.1,0.2-0.3,0.3-0.4c0.1-0.1,0.3-0.3,0.4,0
			C280.2,448.7,280,448.8,279.9,448.9z M280.6,438.1c-0.1,0-0.2-0.1-0.2-0.1c0,0,0-0.1,0.1-0.1c0.1,0,0.2,0.1,0.2,0.1
			C280.6,438.1,280.6,438.1,280.6,438.1z M281.1,428.4c1.1-0.8,2.3-1.5,3.1-2.6c0.4-0.5,0.5-0.4,1.8,0
			C285.1,428.1,282.9,427.8,281.1,428.4z M284.9,431.8c0.5-1.2,0.5-1.2,1.5-1.3C286.1,431.2,285.4,431.2,284.9,431.8z M285.3,350.2
			c-0.4,0.3-0.9,0.5-1.4,0.3c-0.4-0.2-0.9-0.2-1.3-0.1c-0.5,0.1-1.1,0.7-1.3-0.2c-0.2-0.8,0.6-2.1,1.1-2.1c2.1,0.2,3.5-1,4.9-2.3
			c0,0,0,0,0,0c0-0.1,0.1-0.1,0.1-0.2c0.4-0.5,1.3-1-0.2-1.4c-0.3-0.1-0.2-0.4-0.1-0.7c0.2-0.4,0.4-0.7,0.6-1.1
			c1.7,2.1,1.7,2.1,0.3,3.1C288.1,347.6,287.1,349.1,285.3,350.2z M285.1,339.3c-0.1-0.9,0.5-1.2,1.7-1c0,0,0,0,0,0v0
			c0.1-0.1,0.3-0.2,0.4-0.3c0.5-0.4,1-0.7,1.3,0.1c0.3,0.7-0.1,1-0.8,1.2c-0.1,0-0.3,0-0.5,0.1c0,0,0,0,0,0
			c-0.2,1.3-1.4,1.3-2.3,2.1C284.7,340.6,285.2,340,285.1,339.3z M287.5,438.2c0,0-0.1-0.1-0.1-0.1c0.1-0.1,0.1-0.1,0.2,0
			L287.5,438.2z M289.9,438.3c-0.4,0.3-0.7,0.7-1.1,0.3c-0.4-0.3-0.6-0.8-0.4-1.2c0.6-1.4,0.1-2.8,0-4.2c-0.3,0-0.6,0.1-0.8-0.2
			c0,0,0-0.1,0.1-0.1c0.3-0.2,0.5,0.1,0.7,0.3c0.5-0.6,1.2-0.9,1.9-1.2h0c-0.5,1.2-0.3,2.2,0.3,3.4
			C291.5,437.2,291.4,437.2,289.9,438.3z M302.6,415.7L302.6,415.7c-1.8,1.4-3.7,2.7-5.5,4.1c-1.7,1.3-2.1,1.1-4-0.6
			c0.1-0.7,0.8-0.8,1.1-1.1c0.5-0.6,1.5-0.7,1.4-1.8c0-0.2,0.3-0.4,0.5-0.6c1.9-1.3,3.9-2.6,5.4-4.5c0.6,0.7,0.1,1.1-0.1,1.6
			c-0.4,0.9-0.1,1.3,0.8,1.4c0.8,0.1,1.6,0,2.6,0C303.9,414.8,303.3,415.3,302.6,415.7z M294.4,341c0.6-0.1,1.6-0.6,2.2,0.1
			c0.5,0.6-0.5,1.4-0.8,2.1c-0.2,0.5-0.6,0.8-1.2,0.7c-0.7-0.1-0.5-0.7-0.8-1.1C293.4,342.1,292.9,341.4,294.4,341z M318.5,294.2
			c-0.6,20.4-6.5,24.9-12.6,28.3c-3.6,2-15.9,4.7-28.6,6.7c-0.2,0.1-0.4,0.2-0.6,0.2c-2.7,1.4-5.2,3.2-8.1,4
			c-0.7,0.2-1.1,0.9-1.8,1.2c-2.7,1.2-5.3,2.7-8,4c-3,1.4-5.5,3.4-8.3,5c-0.2,0.1-0.5,0.1-0.7,0.2c-0.3,0.7-0.4,1.6-1.5,1.4
			c-0.5,0.3-0.7,0.9-1.4,0.6c-1-0.3-1.3,0.4-1.6,1c-0.1,0.2,0.1,0.6-0.2,0.8c-1.6,1-3.1,2.5-5,2.8c-0.9,0.6-1.9,1.1-2.5,2
			c-0.4,0.6-0.7,0-1.1,0c-0.3,0.9-1.2,0.8-1.8,1.1c-0.4,0.2-0.5-0.2-0.7-0.5c-0.3-0.5,0.2-0.6,0.4-0.8c0.5-0.4,1,0.7,1.5,0
			c0.6-0.7,0.8-1.7,1.9-1.9c0.4,0.3-0.3,0.7,0,0.9c0.3,0.2,0.6-0.1,0.6-0.4c0.1-0.5,0.3-0.8,0.6-1.1c0.3-0.3,0.5-0.7,0.7-1
			c0.3,0.3-0.6,1,0.4,1c0.9-1.1,1.7-2.2,2.3-3.5c0.3-0.6,0.8-1.5,1.6-1.3c1.2,0.3,0.7-0.7,1-1.1c-0.1-0.6,0.3-1,0.7-1.4
			c0.9-0.8,1.2-0.2,1.4,0.6c0.2,0.1,0.4,0.2,0.6,0.3c1.1-1.2,2.5-2.1,4.2-2.4c0.6-0.2,0.9-1,1.5-1.1c2.2-0.4,3.4-2.9,5.7-2.8
			c0.1,0,0.3-0.1,0.3-0.2c1.9-2,4.7-2.3,6.9-3.7c1.8-1.1,3.6-2.2,5.4-3.2c-9.9,1.5-19.1,2.4-23.8,2.2c-11.5-0.6-11.5-16.5-11.5-16.5
			c-3.3-17.7,7.7-27,18.2-33.6c10.4-6.6,47.4-14.4,57.4-14.4C322.1,267.8,319.1,273.9,318.5,294.2z M247.1,339.8
			c0.2-0.8,1.4-0.7,1.4-1.6c0-0.2,0.6-0.4,1-0.1c0.4,0.2,0.7,0,1-0.3c0.1-0.3,0.3-0.7,0.6-0.8c0.4-0.2,0.9-0.1,1.1,0.3
			c0.3,0.4-0.2,0.6-0.5,0.8c-0.4,0.3-0.8,0.5-1.3,0.6c-0.5,0.2-0.8,0.5-1.2,0.8C248.4,340,248.4,340,247.1,339.8z M354.4,359.1
			c0,0-2.6-4-8.1,0c-18.7,13.5-22.4-6.1-22-19.9c0.4-15.1,13.1-48.7,26.1-48.7c12.9,0,25.7,33.6,26.1,48.7
			C376.9,353,371.6,374.6,354.4,359.1z M464.4,315.8c0,0,0,15.9-11.6,16.5c-11.5,0.5-50.9-6-57.9-9.8c-6.2-3.4-12-7.9-12.7-28.3
			c-0.5-20.4-3.6-26.4,6.4-26.4c10.1,0,47.1,7.7,57.5,14.4C456.7,288.8,467.7,298.1,464.4,315.8z"/>
		<path class="st0" d="M261.8,568l-35.8-28.5c-4.2-3.4-9.6-5.1-15-4.6c-0.4,0-0.8,0.3-1.2,0.3L187,503.4c-0.1-0.1-0.2-0.2-0.3-0.3
			c0.5-1,1.3-1.8,1.6-2.9c1.8-5.5,1.4-11.3-1.2-16.4L166.4,443c-2.7-5.3-7.4-9-12.9-10.7l-7.4-38.3c0-0.3-0.2-0.4-0.3-0.6
			c4.9-3,8.6-7.7,9.9-13.5l9.8-44.7c1.5-7-0.9-13.6-5.2-18.6c0-0.1,0.1-0.2,0.2-0.3l14-36.4c5.8-0.7,11.2-3.5,14.7-8.3l27.6-36.5
			c2.9-3.9,3.9-8.5,3.9-13.1l36.7-16.8c3.5,1.8,7.3,2.9,11.5,2.6c1.6-0.1,3.2-0.4,4.8-0.9l31.6-9.6l0-9.5L271,198.4
			c-0.9,0.3-1.8,0.5-2.8,0.5c-0.4,0.1-0.7-0.1-1.1-0.1c2.4-3.5,3.1-8,1.3-12.1c-2.1-4.5-6.4-7-11-7.1c1.5-2.2,3.6-4,6.3-4.8
			l41.6-12.6v-1v-8.5c-0.1,0-0.2,0-0.3,0.1L261.1,166c-8,2.5-13.4,9.3-14.7,17.1l-36.1,16.5c-1.4,0.6-2.5,1.5-3.5,2.6
			c-2.8-1-5.7-1.5-8.7-1.3c-6.1,0.5-11.8,3.6-15.5,8.4l-27.6,36.6c-4.9,6.4-5.2,14.7-2.1,21.6l-15.5,39.9c-0.4,1.1-0.4,2.2-0.5,3.3
			c-6.6,2.6-11.6,8.1-13.2,15.3l-9.8,44.8c-1.2,5.6-0.2,11.3,2.9,16.1c1.5,2.3,3.4,4.2,5.5,5.8c-0.6,1.9-0.9,3.9-0.5,6l8.1,42.1
			c-4.2,6.2-5.3,14.4-1.7,21.6l20.6,40.9c3.3,6.4,9.6,10.5,16.6,11.4c0.4,1.1,0.7,2.2,1.4,3.2l25,34.8c-1.2,7.4,1.2,15.3,7.4,20.3
			l35.9,28.6c4.2,3.4,9.6,5,15,4.6c3.7-0.3,7-1.8,10.1-3.8c1.3,0.8,2.7,1.4,4.2,1.6l41.1,7.3v-25.2l-36.5-6.5
			C267.7,575.2,265.6,571.1,261.8,568z M162.2,251.4l27.5-36.6c2.3-3,5.5-4.6,9-4.9c1.5-0.1,3,0,4.4,0.5c-0.1,1.9,0.1,3.8,1,5.6
			c1.5,3.4,4.4,5.6,7.7,6.6c-0.1,2.5-0.7,4.9-2.2,7L182,266.3c-1.2,1.6-2.6,2.7-4.3,3.6c0.3-5.2-2.6-10.3-7.7-12.3
			c-3.4-1.3-7-1-10,0.6C160.1,255.7,160.6,253.4,162.2,251.4z M131.5,384.2c-1.3,0.3-2.5,0.9-3.6,1.5c-4.1-2.7-6.4-7.8-5.3-12.9
			l9.8-44.7c0.9-4,3.5-7,6.9-8.6c1.3,1.7,2.9,3.2,5.1,4c3.3,1.3,6.8,1,9.7-0.4c2.2,2.8,3.3,6.4,2.5,10.2l-9.8,44.7
			c-0.7,3.6-3.1,6.4-6.1,8C138.1,384.3,134.9,383.5,131.5,384.2z M179.1,498.5c-3.2-0.6-6.6,0-9.5,2.1c-1.9,1.3-3.1,3.2-3.9,5.2
			c-3.7-0.7-7-2.9-8.9-6.5l-20.7-40.9c-1.1-2.3-1.3-4.7-1-7.1c2.7,2,6.2,3.1,9.7,2.3c5.4-1,9.1-5.4,9.8-10.6
			c1.4,1.1,2.7,2.4,3.6,4.1L179,488C180.7,491.4,180.6,495.2,179.1,498.5z M254.3,589.6c-0.4,2-0.1,3.9,0.4,5.6
			c-1.6,1-3.5,1.7-5.4,1.9c-3,0.2-6.1-0.6-8.7-2.7l-35.8-28.5c-2-1.6-3.1-3.7-3.9-6c3.3,0.7,6.9,0.2,9.8-2c4.4-3.2,6-8.8,4.5-13.7
			c1.8,0.4,3.5,1.1,5,2.3l35.8,28.5c2.1,1.7,3.3,3.9,3.9,6.3C257.1,583.1,254.9,586,254.3,589.6z"/>
		<path class="st0" d="M586.1,372l-10.8-44.6c-1.8-7.2-7-12.5-13.5-14.9c-0.1-1.1-0.2-2.3-0.7-3.4l-16.4-39.6
			c2.9-7,2.4-15.2-2.6-21.5l-28.4-36c-4.5-5.6-11.4-8.6-18.5-8.1c-0.5,0-1,0.3-1.6,0.4c0,0,0,0-0.1-0.1l-34.2-17.7
			c-1-7.4-5.5-14.3-12.9-17.3l-42.6-17c-3-1.2-6.1-1.6-9.3-1.5l-0.1,9.2c0.2,0,0.3-0.1,0.5-0.2c1.8-0.1,3.7,0.1,5.5,0.8l42.6,17
			c2.2,0.9,3.8,2.4,5.1,4.2c-4.8-0.4-9.6,2.1-11.9,6.7c-2.2,4.2-1.6,9,0.9,12.6c-1.1-0.1-2.2,0-3.3-0.5l-39.4-15.8v9.7l36,14.4
			c3.1,1.2,6.3,1.7,9.6,1.5c2.7-0.2,5.2-1.1,7.5-2.2l28,14.5c-0.7,5.5,0.8,11.1,4.4,15.8l28.5,36c3.6,4.6,9,7.4,14.8,7.9l14.9,36
			c0,0.1,0.2,0.2,0.2,0.3c-0.7,0.8-1.6,1.4-2.2,2.4c-3,4.9-3.9,10.7-2.6,16.3l10.8,44.5c1.3,5.6,4.9,10.1,9.5,13
			c-0.1,0.5-0.5,0.8-0.6,1.3l-8.9,37.9c-5.6,1.5-10.5,5.1-13.4,10.3l-22.2,40c-3.4,6.1-3.1,13-0.5,18.9c-0.3,0.4-0.7,0.6-1,1
			l-21.9,32.2c-1.3-0.2-2.7-0.3-4.1-0.2c-4.5,0.3-8.7,2-12.1,5l-35.1,29.3c-3.7,3.1-5.8,7.4-6.8,11.8l-32.8,6.6v25.3l37.8-7.6
			c1.5-0.3,2.8-0.9,3.9-1.7c3.9,2.5,8.5,3.8,13.2,3.5c4.5-0.3,8.6-2,12.1-4.9l35.2-29.4c6.2-5.2,8.4-13.1,7-20.5l24.2-35.4
			c0.5-0.7,0.6-1.4,0.9-2.1c0.2,0,0.3,0,0.5,0c7.2-0.5,13.6-4.7,17.1-11l22.2-40c3.9-7.1,3.1-15.2-0.9-21.6l9.8-41.7
			c0.6-2.5,0.1-4.9-0.7-7.1c2.7-1.7,5-3.8,6.7-6.6C586.6,383.3,587.4,377.5,586.1,372z M527.4,260c-5,2.1-7.9,7.2-7.5,12.4
			c-1.6-0.8-3.1-1.9-4.3-3.4L487.1,233c-1.4-1.8-2-3.9-2.3-6c5.5,1.4,11.5-0.8,14.2-6.1c1.2-2.3,1.4-4.9,1.1-7.3
			c2.5,0.7,4.9,1.8,6.7,4l28.4,36c1.6,2,2.2,4.3,2.4,6.7C534.4,258.9,530.8,258.6,527.4,260z M491,567.3l-35.2,29.4
			c-2.1,1.7-4.5,2.6-7,2.8c-2.4,0.2-4.8-0.6-7-1.9c0.5-1.8,0.6-3.6,0.3-5.5c-0.7-3.6-3-6.5-6-8.2c0.6-2.4,1.7-4.7,3.8-6.4l35.2-29.3
			c1.5-1.2,3.2-1.9,5-2.4c-1.4,5,0.3,10.5,4.8,13.6c3,2.1,6.6,2.5,9.9,1.7C494,563.5,492.9,565.6,491,567.3z M560.8,460.8
			l-22.2,40.1c-2,3.7-5.6,5.8-9.4,6.2c-0.9-2.4-2.2-4.5-4.4-6c-2.6-1.7-5.6-2.3-8.4-1.9c-1.2-3.3-1.2-7,0.6-10.3l22.3-40.1
			c0.9-1.7,2.3-3,3.7-4c0.5,5.2,4.1,9.7,9.4,10.9c3.5,0.8,7,0,9.8-2C562.3,456.2,562,458.6,560.8,460.8z M570.5,387.9
			c-0.8-0.3-1.4-0.8-2.1-1c-2.9-0.6-5.7-0.1-8.2,1.1c-3.3-1.5-6-4.3-6.9-8.2l-10.8-44.5c-0.9-3.7,0.1-7.4,2.2-10.3
			c3,1.3,6.5,1.5,9.7,0.2c2.1-0.9,3.6-2.4,4.9-4c3.5,1.5,6.3,4.4,7.2,8.3l10.8,44.5C578.7,379.9,575.7,385.5,570.5,387.9z"/>
	</g>
</g>
</svg>
