<?xml version="1.0" encoding="utf-8"?>
<!-- Generator: Adobe Illustrator 21.0.0, SVG Export Plug-In . SVG Version: 6.00 Build 0)  -->
<!DOCTYPE svg PUBLIC "-//W3C//DTD SVG 1.1//EN" "http://www.w3.org/Graphics/SVG/1.1/DTD/svg11.dtd">
<svg version="1.1" id="Layer_1" xmlns="http://www.w3.org/2000/svg" xmlns:xlink="http://www.w3.org/1999/xlink" x="0px" y="0px"
	 viewBox="0 0 500 500" style="enable-background:new 0 0 500 500;" xml:space="preserve">
<style type="text/css">
	.st0{fill:#FFCE1F;}
</style>
<g>
	<path class="st0" d="M412.9,322.8c-5-1.3-6.6-4.1-5.2-8.9c1.3-4.5,4.2-8.2,6.4-12.2c2-3.7,4-7.4,5.8-11.2
		c3.9-8.2,1.6-15.7-3.2-22.7c-3-4.3-7.1-7-12.4-7.6c-5.2-0.6-10.2,0.5-14.9,2.7c-5.4,2.5-10.3,5.7-15.1,9.2
		c-5.6,4.1-10.7,8.8-14.8,14.5c-3.8,5.4-6.2,11.4-7.3,17.9c-0.9,5.1-0.7,10.2-0.8,15.4c-0.1,7,0.2,13.9-0.1,20.9
		c-0.1,4.3-0.8,8.6-1.4,12.9c-0.2,1.2-0.8,2.5-1.5,3.5c-0.5,0.8-1.5,1.5-2.4,1.7c-2,0.5-4,0.6-6.1,0.8c-3.8,0.5-6.5-1.2-8.5-4.2
		c-2.1-3.1-3.1-6.7-3.9-10.3c-0.9-4-1.6-8-2.3-12c-1.9-10.3-6.9-18.9-14.7-25.8c-8.6-7.6-18.6-12.1-29.5-14.9
		c-6.7-1.7-13.5-3-20.4-3.2c-4-0.1-7.9-0.6-11.9-0.5c-15.1,0.4-29.8,2.7-43.5,9.4c-10.7,5.3-19.5,12.7-24.9,23.7
		c-2.3,4.8-3.5,9.9-4.2,15c-0.8,5.1-1.8,10.1-3.7,14.8c-0.5,1.2-1,2.3-1.7,3.4c-2.2,3.8-5.6,5.1-9.8,4.5c-1.4-0.2-2.8-0.5-4.2-0.6
		c-1.7-0.1-3-1-3.5-2.5c-0.7-1.9-1.5-3.9-1.7-5.8c-0.5-3.9-0.8-7.9-0.8-11.9c-0.1-9.4,0.1-18.8-0.2-28.2
		c-0.3-11.2-4.3-20.9-12.1-29.1c-7.4-7.8-16.1-13.9-25.7-18.7c-4.7-2.3-9.7-3.2-14.9-2.7c-4.4,0.4-8.1,2.6-11,5.7
		c-3.7,3.9-5.6,8.9-6.5,14.1c-0.5,2.9-0.1,5.9,1.1,8.7c1.4,3.2,2.8,6.3,4.5,9.3c1.8,3.4,4,6.6,5.8,10c1,1.9,1.9,3.9,2.6,6
		c1.6,4.7-0.1,7.5-5.3,8.8c-5-2.2-9.7-5.3-14.3-8.6c-6.1-4.4-11.5-9.5-15.5-15.9c-3.3-5.2-5.9-10.8-6.2-17.1
		c-0.1-1.8-0.5-3.5-0.6-5.3c-0.6-11,1.5-21.6,5-32c2.6-7.9,5.2-15.7,7.6-23.7c1.3-4.4,1.8-9,2.1-13.6c1.2-18.1,0.4-36.3,0.8-54.4
		c0.1-4.5,0.6-8.9,2-13.2c2.1-6.7,6.8-11.3,12.8-14.8c0.2-0.1,0.4-0.3,0.7-0.4c5.1-2.3,8.4-6.1,11-11.2c3.4-6.6,7.7-12.7,12.1-18.7
		c6-8.1,12.6-15.6,20-22.4c12.1-11.2,25.2-21,39.8-28.7c13.1-6.9,26.7-12.2,41.1-15.7c6.7-1.6,13.5-2.8,20.3-3.6
		c9.5-1.1,18.9-1.6,28.4-1.4c10.8,0.3,21.4,1.5,32,3.6c11.4,2.3,22.5,5.7,33.3,10.1c12.9,5.3,24.8,12.2,36,20.4
		c9.1,6.6,17.5,13.9,25.1,22.1c10.8,11.7,20.8,24.1,27.7,38.6c0.9,2,2.5,3.1,4.3,4.2c3.3,2,6.6,4,9.7,6.3c5.7,4.2,8.4,10.1,9.3,17
		c1.5,11.5,0.6,23.1,0.9,34.7c0.1,5-0.3,10.1,0.1,15.1c0.6,7.9,0.1,15.9,2.1,23.7c1.5,5.7,3.4,11.2,5.1,16.8
		c2,6.7,4.3,13.4,6.1,20.1c2,7.5,2.4,15.2,1.8,22.9c-0.9,13.8-7.7,24.5-18.1,33.1C424.6,316.7,418.8,320.1,412.9,322.8z
		 M207.4,109.2c-1.4-0.5-2.6-0.9-3.8-1.4c-3-1.1-6.1-0.4-9.1,0c-4.7,0.6-9.4,0.9-14.1,1.8c-12.5,2.5-24.9,5.2-37.2,8.9
		c-9.6,2.9-18.8,6.5-26.8,12.8c-5.1,4-9.8,8.4-13.1,14c-3.5,5.9-4.8,12.4-4.5,19.1c0.2,3.9,0.7,7.9,1.5,11.8c0.6,3,1.7,5.9,3.2,8.6
		c2.4,4.5,6.4,6.9,11.6,6.7c6.2-0.3,12.3-0.5,18.4-1c4.2-0.3,8.4-1,12.5-1.7c6.7-1.1,13.3-2.4,20-3.6c7.5-1.4,15.1-2.8,22.3-5.4
		c7.5-2.7,12.8-7.8,15.6-15.4c2.3-6.5,3.1-13.1,3.6-19.9c0.3-3.8-0.2-7.8,0.3-11.6c0.8-6.4,0.6-12.8,0.5-19.2
		C208.4,112.2,207.8,110.7,207.4,109.2z M295.2,109.1c-1.3,1.6-1.7,3.2-1.7,4.9c0,1.8-0.1,3.6,0,5.4c0.3,7.6,0.6,15.1,0.9,22.7
		c0.2,6.2,0.9,12.2,2.4,18.2c2.6,10.4,8.9,17.4,19.3,20.3c6.9,1.9,13.8,3.5,20.9,4.8c9.4,1.7,18.8,3.5,28.3,4.5
		c3.2,0.3,6.3,1.1,9.5,1.3c4.9,0.3,9.8,0.2,14.7,0.2c0.6,0,1.2-0.3,1.8-0.5c4.8-1.4,7.2-5.2,8.8-9.5c1-2.7,1.6-5.7,2-8.5
		c0.6-5.2,1.6-10.3,0.7-15.6c-1.1-6.7-3.7-12.5-8.1-17.5c-7.8-8.8-17.4-15-28.6-18.8c-10-3.4-20.2-6.1-30.6-8.4
		c-7.4-1.6-14.7-3.3-22.2-4c-3.2-0.3-6.3-1-9.5-1.3C300.6,107,297.6,107.4,295.2,109.1z M271,234.6c1.1-0.4,2.3-0.7,3.5-1.2
		c3.7-1.6,5.6-4.8,7-8.3c4-9.6,4.4-19.8,3.2-29.9c-1-8.5-3.7-16.7-6.8-24.7c-2.9-7.3-6.1-14.4-10.6-20.8c-2.8-4-5.8-7.9-10.1-10.4
		c-2.7-1.6-5.5-2.3-8.8-1.4c-2.9,0.8-5.1,2.3-7.2,4.2c-4.3,3.9-7.5,8.7-10.3,13.8c-4.4,8-7.7,16.4-10.3,25.1
		c-2.4,8-4.1,16.1-3.7,24.5c0.1,1.4,0,2.8,0.1,4.2c0.3,5.5,1.6,10.9,3.8,15.9c2.1,4.7,5.2,8.2,10.6,8.7c5.4-0.8,9.7-3.4,13.4-7.1
		c3.6-3.6,8.8-3.5,12.4,0C261,231.1,265.5,233.8,271,234.6z"/>
	<path class="st0" d="M127.6,305.9c3.8,2.6,6.3,6.2,7.9,10.6c2.1,6,3.3,12.1,3.4,18.4c0.2,16.2-0.1,32.5,0.2,48.7
		c0.1,7,0.6,14.1,2.2,21c0.8,3.7,2.8,6,6.5,7.2c4.4,1.4,9.6-0.9,11.3-4.8c0.4-1.1,0.9-2.1,1.2-3.2c1.5-6.3,4.9-11.5,8.9-16.4
		c6.3-7.8,13.7-14.3,22.4-19.2c3.1-1.7,6.5-3.1,9.8-4.3c8.6-3.2,17.1-6.8,26.1-8.8c4.6-1,9.2-2,14-2.2c3.8-0.1,7.7-0.6,11.5-0.6
		c12.1,0.3,23.9,2.5,35.2,6.9c4.5,1.7,9,3.7,13.6,5.2c6.7,2.1,12.6,5.8,18,10.1c6.5,5.1,12.2,11,16.7,18c2.2,3.3,4,6.8,5,10.7
		c0.3,1.2,0.8,2.4,1.3,3.6c2.8,6.2,10,7.2,15.5,2.9c0.8-0.6,1.4-1.9,1.7-3c0.9-3.5,1.8-6.9,2.2-10.5c0.5-5.1,0.8-10.2,0.9-15.4
		c0.1-15.2,0-30.4,0.1-45.6c0.1-6.4,1.3-12.7,3.4-18.8c1.6-4.4,4.1-7.9,7.9-10.5c4.8-0.4,6.8,1,7.8,5.5c0.5,2.4,0.9,4.8,0.9,7.2
		c0.1,7.7,0,15.5-0.1,23.2c-0.1,5.4-0.5,10.8-0.8,16.2c-0.3,5.1-0.5,10.3-0.8,15.4c-0.3,5.9-0.5,11.8-0.8,17.7
		c-0.3,5.8-0.3,11.6-0.8,17.3c-0.5,6.1-1.4,12.2-2.1,18.3c-0.7,6.7-2.1,13.4-4,19.9c-1.3,4.4-2.8,8.8-4.7,13
		c-3.5,7.8-10.1,12.4-17.3,16.3c-3.9,2.1-8,3.3-12.5,3.2c-5-0.1-9.7-1.4-13.8-4c-7.5-4.7-14.8-9.7-22.2-14.5
		c-10-6.3-20.5-11.6-31.8-15c-7.9-2.3-15.8-4.5-24.1-3.6c-7.1,0.7-14.1,2.5-20.8,4.9c-12.4,4.4-23.7,10.8-34.6,18.1
		c-5.1,3.4-10.2,7-15.5,10.1c-8,4.7-16.4,5.4-25,1.4c-5.5-2.6-10.3-6.2-14.5-10.6c-3.1-3.2-4.8-7.3-6.3-11.4
		c-2.6-7.3-4.6-14.9-5.7-22.6c-1-7.2-2-14.4-2.9-21.6c-0.3-2.8-0.1-5.7-0.2-8.5c-0.3-8-0.5-15.9-0.9-23.9c-0.2-4.7-0.4-9.5-0.7-14.2
		c-0.4-6.9-1.1-13.8-1.3-20.7c-0.3-7.9-0.2-15.7-0.2-23.6c0-2.5,0.4-5.1,0.9-7.6c0.3-1.3,0.9-2.7,1.7-3.8
		C122.9,305.6,125.1,305.3,127.6,305.9z"/>
</g>
</svg>
