<?xml version="1.0" encoding="utf-8"?>
<!-- Generator: Adobe Illustrator 21.0.0, SVG Export Plug-In . SVG Version: 6.00 Build 0)  -->
<!DOCTYPE svg PUBLIC "-//W3C//DTD SVG 1.1//EN" "http://www.w3.org/Graphics/SVG/1.1/DTD/svg11.dtd">
<svg version="1.1" id="Layer_1" xmlns="http://www.w3.org/2000/svg" xmlns:xlink="http://www.w3.org/1999/xlink" x="0px" y="0px"
	 viewBox="0 0 700 700" style="enable-background:new 0 0 700 700;" xml:space="preserve">
<style type="text/css">
	.st0{fill:#FFFFFF;stroke:#E7E3DF;stroke-width:0.1874;stroke-miterlimit:10;}
</style>
<g id="Layer_3">
	<g>
		<g>
			<path class="st0" d="M582.4,326.4c-0.1,5.2-3.9,8.8-9.1,8.7c-4.9-0.1-8.6-3.8-8.7-8.8c0-5,4-9.1,9-9.1
				C578.5,317.3,582.4,321.3,582.4,326.4z"/>
			<g>
				<path class="st0" d="M214.2,187.3c95.7,35.2,191.3,70.3,287.8,105.8c-4.3,3.4-8,6.6-11.9,9.2c-1.1,0.7-3.4,0.1-4.9-0.5
					c-40.9-15-81.9-30-122.8-45.1c-44.6-16.4-89.3-32.9-134-49.2c-3.4-1.2-5.8-3-7.4-6.3c-2.3-4.5-5.8-10.2-8.3-14.7
					C212.8,186.8,213.9,187.3,214.2,187.3z"/>
				<path class="st0" d="M235.8,227.3c80.1,29.4,159,58.4,238.8,87.7c-4.4,3.5-8.2,6.7-12.3,9.5c-1,0.6-3.1,0.1-4.5-0.4
					c-54.8-20.2-109.6-40.4-164.4-60.6c-14.3-5.3-28.6-10.3-42.9-15.6c-2.1-0.8-4.2-2.7-5.5-4.6
					C241.8,238.4,239.2,233.3,235.8,227.3z"/>
				<path class="st0" d="M256.9,266.9c64,23.5,126.7,46.6,190,69.9c-4.1,3.3-7.5,6.3-11.3,8.8c-1.1,0.8-3.4,0.5-4.9,0
					c-33.7-12.3-67.4-24.6-101.2-37c-19.3-7-38.6-14-57.8-21.2c-2.2-0.9-4.5-2.8-5.8-4.9C262.8,277.9,260.3,272.9,256.9,266.9z"/>
				<path class="st0" d="M638.3,356.9c-98.2,40.5-196.4,81.1-294.7,121.6c-54.4,22.4-108.8,44.7-163.2,67.2
					c-6.8,2.8-13.4,5.8-20.2,8.7c-0.6,0.2-1.5,0.6-2.1,0.8c-1.7,0.8-21,9.3-22.8,9.2c0.9-0.8,22-16.6,23-17.3
					c80.9-63.9,161.8-127.7,242.6-191.6c2.3-1.8,4.2-2.4,6.8-1.1c3.4,1.5,7.1,2.7,11.5,4.4c-63.9,50.5-127.1,100.7-190.5,150.8
					c0.1,0.2,0.2,0.4,0.3,0.6c129.8-53.4,259.5-106.8,389.6-160.4c-4.2-9.1-9.5-17.2-15.9-24.5c-11.6-13.1-25.9-22-42.3-28
					c-96.1-35.2-192.1-70.6-288.1-105.9c-22.9-8.4-45.8-16.7-68.6-25.3c-2.1-0.8-4.2-2.7-5.4-4.6c-3.1-4.6-5.6-9.6-8.8-15.4
					c6.4,2.3,11.5,4.2,16.8,6.1c115.6,42.5,231.2,84.9,346.8,127.4c7.9,2.9,15.9,5.6,23.7,8.6c16,6.2,28.4,17.1,39.4,30
					c9.8,11.3,15.9,24.6,22.2,37.9C638.3,356.4,638.3,356.6,638.3,356.9z"/>
			</g>
		</g>
	</g>
</g>
</svg>
