<?xml version="1.0" encoding="utf-8"?>
<!-- Generator: Adobe Illustrator 21.0.0, SVG Export Plug-In . SVG Version: 6.00 Build 0)  -->
<!DOCTYPE svg PUBLIC "-//W3C//DTD SVG 1.1//EN" "http://www.w3.org/Graphics/SVG/1.1/DTD/svg11.dtd">
<svg version="1.1" id="Layer_1" xmlns="http://www.w3.org/2000/svg" xmlns:xlink="http://www.w3.org/1999/xlink" x="0px" y="0px"
	 viewBox="0 0 385.2 271.2" style="enable-background:new 0 0 385.2 271.2;" xml:space="preserve">
<style type="text/css">
	.st0{fill:#FFFFFF;}
</style>
<g>
	<path class="st0" d="M87,151.7c-6-40.1,9.2-82.4,49.5-107c39.8-24.3,88.5-19.5,122.9,8.1c4.6-1.9,9.7-3.9,14.7-6.1
		c25.9-11.2,52.3-21.2,80.2-26.2c7.4-1.3,15.2-2.8,22.9,0.4c6.9,2.8,10,7.9,6.7,14.8c-3.5,7.3-7.6,14.6-12.8,20.7
		c-19,22.1-41.6,40.3-65.4,56.9c-24.3,16.9-48.7,33.7-73.8,49.3c-19.4,12.1-40,22.4-60.1,33.4c-27.6,15-56.2,27.9-85.7,38.6
		c-16.4,5.9-33.2,10.9-50.1,15c-8.4,2-17.4,1.9-26.1,1.5C4,250.7-2,244.3,0.7,237.2c3.5-9.4,8.9-17.4,15.6-24.7
		c20.2-21.8,43.1-40.5,67.2-57.7C84.7,153.9,85.9,152.7,87,151.7z M114.3,208.4C103,196,95.7,182.6,90.1,167.3
		c-6.8,6.9-13.3,12.7-18.8,19.4c-4.4,5.4-7.8,11.6-10.9,17.8c-2.1,4.3,0.3,9.5,4.7,10.3c5.6,1,11.6,2,17.1,1.1
		C92.8,214.1,103.1,211.1,114.3,208.4z M295.8,103c10.6-11.9,25.4-21.3,29.3-38.8c-2.7-6.5-2.7-6.6-8.8-8.1
		c-9.6-2.4-18.8,0.7-28.1,2.7c-5.6,1.2-11,3.1-15.2,4.4C280.7,76.6,288.1,89.6,295.8,103z"/>
	<path class="st0" d="M294,168c-23.1,70.4-106.4,94.3-161.3,55.3C189.4,212.9,241.9,192.3,294,168z"/>
	<path class="st0" d="M67.5,154.4c-2.2,1.7-4.8,3.8-8.9,7.1c-0.9-10-2.7-18.9-2.4-27.7c1.4-39.2,15.8-73.1,45.3-99.2
		c54.8-48.6,132.8-42.8,179.2-1.4c-3.2,1.5-6.2,2.9-8.8,4.1c-51-34.6-102.7-38.4-153.4-2.3C78.3,63.4,62.5,104.3,67.5,154.4z"/>
	<path class="st0" d="M104.9,238.4c3.1-1.5,5.7-2.8,8.2-4.1c46.4,33,95.6,38.3,144.7,8.9c46.8-28,65.4-71.8,59.6-126.5
		c2.3-1.7,5-3.7,8.4-6.1c3.7,13.5,3.3,26.9,1.9,39.7c-3.8,34.4-18.9,63.8-45.1,86.5C220.2,290.9,142.7,273.1,104.9,238.4z"/>
</g>
</svg>
