<?xml version="1.0" encoding="utf-8"?>
<!-- Generator: Adobe Illustrator 21.0.0, SVG Export Plug-In . SVG Version: 6.00 Build 0)  -->
<!DOCTYPE svg PUBLIC "-//W3C//DTD SVG 1.1//EN" "http://www.w3.org/Graphics/SVG/1.1/DTD/svg11.dtd">
<svg version="1.1" id="Layer_1" xmlns="http://www.w3.org/2000/svg" xmlns:xlink="http://www.w3.org/1999/xlink" x="0px" y="0px"
	 viewBox="0 0 500 500" style="enable-background:new 0 0 500 500;" xml:space="preserve">
<style type="text/css">
	.st0{fill:#FFFFFF;}
</style>
<g>
	<path class="st0" d="M167.9,467.5c-0.4-3.1-0.8-6-1.1-8.9c-0.7-9.1-1.3-18.1-2.1-27.2c-1.1-12.3-2.3-24.5-3.4-36.8
		c-0.8-9.1-1.4-18.1-2.1-27.2c-0.8-9.1-1.7-18.1-2.5-27.1c-0.4-3.8-0.7-7.7-1-11.5c-1-12.9-2-25.8-3.1-38.7
		c-0.3-4.3-0.8-8.5-1.1-12.6c3.4-1.8,67-19.5,107.3-30.2c35.7-9.5,71.2-19.4,106.8-29.1c35.7-9.8,71.5-19.6,108-29.6
		c-18.3-8.1-35.8-15.9-53.6-23.7c-90.9,20.3-181.9,40.7-273,61.1c-1.5-9.2-3-18.1-4.5-27.1c0.1-0.1,0.1-0.2,0.2-0.3
		c0.1-0.1,0.2-0.3,0.3-0.3c0.7-0.2,1.5-0.5,2.2-0.6c113.1-23.3,226.2-46.5,339.3-69.8c0.1,0,0.3,0.1,0.9,0.4c0,7.5,0,15.3,0,23.6
		c-18.7,3.9-37.4,7.3-56.8,11.3c18.3,7.7,36,15.1,53.7,22.6c-10.9,53-21.8,105.7-32.8,158.9C356,385.5,262.1,426.4,167.9,467.5z
		 M328.3,275.2c-3.7,15.7-7.6,31.2-11.4,47.2c14.2-5.3,27.9-10.1,41.5-15.4c-2-6.6-4-12.8-5.8-19c-1.8-6.3-4.3-12.4-5.5-18.7
		c1.6-1.6,3-2.9,4.3-4.2c3.1-3.3,5.4-7.1,6.7-11.5c1.1-3.9,1.3-8,0-11.8c-2.4-6.9-10-10.7-17.7-8.9c-4.4,1-8.5,2.8-12,5.7
		c-7.4,6.2-12.4,13.7-11.6,23.9c0.4,5.2,3.1,8.9,7.8,11.2C325.5,274.2,326.7,274.6,328.3,275.2z"/>
	<path class="st0" d="M483,106.2c-116.5,24-232.3,47.8-348.2,71.6c-1.9-2.9-3.8-5.7-5.7-8.4c-4.2-6-9.8-10.6-15.5-15.2
		c-7.4-5.9-12.1-13.6-14.4-22.6c-1.9-7.3-3-14.8-4.7-22.1c-2.1-9.2-5.1-18-10-26.2c-3.2-5.3-7-10.1-12-14.4
		c3.8-1.8,7.8-1.6,11.5-2.2c8.3-1.4,16.7-2.5,25.1-3.5c8.5-1.1,17.1-2,25.7-3.1c9-1.1,18-2.3,27-3.4c6.1-0.7,12.2-1.4,18.4-2.1
		c8-0.9,15.9-1.8,23.9-2.6c7.2-0.8,14.4-1.4,21.6-2.1c10.4-1.1,20.8-2.3,31.2-3.4c7.5-0.8,15-1.4,22.5-2.1
		c8.1-0.8,16.2-1.7,24.3-2.5c3.8-0.4,7.7-0.7,11.5-1.1c11.5-1,23-2,34.5-3.1c10.9-1,21.7-2.6,32.6-3.2c9.7-0.6,19.4-1.2,29,1.5
		c10.3,2.9,18.5,8.5,23,18.4c4.1,9.2,10.7,16.1,19.1,21.4c2.9,1.8,5.7,3.7,8.5,5.5C471.3,87.4,477.7,95.9,483,106.2z"/>
	<path class="st0" d="M125,227.1c-20.7-2.1-41-4.2-62.2-6.4c11.4,9.2,22.5,17.6,33.4,26.1c11.1,8.6,22.1,17.3,33.2,25.9
		c0.4,3.9,0.9,7.7,1.2,11.6c1.1,12.9,2,25.8,3.1,38.7c0.9,10.7,1.8,21.5,2.8,32.2c1.2,14.6,2.5,29.2,3.7,43.7
		c0.9,10.7,1.8,21.5,2.8,32.2c0.8,8.6,1.6,17.2,2.4,25.7c0.1,0.7,0,1.4,0,2.9c-29.1-27-57.8-53.5-86.9-80.5
		c-0.5-2.6-1.2-5.7-1.9-8.9c-4.2-21.1-8.4-42.2-12.6-63.3c-3.2-16.3-6.4-32.6-9.6-48.9c-2.9-14.9-5.9-29.9-8.6-44.8
		c-2-11-3.6-22.2-5.4-33.2c-1.5-9.4-2.8-18.9-2.9-28.5c0-3.5-0.1-7.2,0.5-10.6c1.6-8.3,5.9-15.1,13.6-20.2c0.5-3.2,1.1-6.9,1.7-10.5
		c1.2-7.6,2.7-15.1,5.5-22.4c0.9-2.4,2-4.8,3.1-7.3c7.9-1.1,14,1.7,19.1,7.2c5.9,6.2,9.1,13.9,11.1,22c1.8,7.3,3,14.8,4.7,22.1
		c3.1,13.4,8.5,25.7,18.9,35.3c2.4,2.2,4.8,4.4,7.3,6.4c8.6,6.5,13.7,15.3,16.8,25.4c2.6,8.4,3.9,17.1,5.1,25.8
		C125,225.4,125,226,125,227.1z"/>
</g>
</svg>
