<?xml version="1.0" encoding="utf-8"?>
<!-- Generator: Adobe Illustrator 21.0.0, SVG Export Plug-In . SVG Version: 6.00 Build 0)  -->
<!DOCTYPE svg PUBLIC "-//W3C//DTD SVG 1.1//EN" "http://www.w3.org/Graphics/SVG/1.1/DTD/svg11.dtd">
<svg version="1.1" id="Layer_1" xmlns="http://www.w3.org/2000/svg" xmlns:xlink="http://www.w3.org/1999/xlink" x="0px" y="0px"
	 viewBox="0 0 272.3 262" style="enable-background:new 0 0 272.3 262;" xml:space="preserve">
<style type="text/css">
	.st0{fill:#FFFFFF;}
</style>
<g>
	<path class="st0" d="M183.4,262c-0.2-3-0.4-5.9-0.5-9c-3.2-0.4-6.3-0.7-9.7-1.1c0-7.6,0-15.1,0-22.7c-5.5-2.8-10.8-5.6-16.9-8.7
		c0,7.2,0,13.5,0,20.6c-3.6-0.2-6.6-0.4-9.9-0.6c0-19.9,0-39.3,0-59.1c-6.5,0-12.5,0-19.1,0c0,7.4,0,14.7,0,22.5
		c-3.8,0-7.1,0-10.9,0c0,8.7,0,17.1,0,25.8c-1.9,0-3.3,0-5.2,0c0-3.3,0-6.6,0-11c-6.6,3.2-12.3,6-18,8.8c0,8.8,0,17.3,0,26.1
		c-3.3,0.2-6.3,0.4-9.5,0.7c-0.3,2-0.5,3.6-0.8,5.2C33.7,240.4-4.7,187.1,0.5,125C6.8,50.1,66,4.1,126.4,0.3
		C204-4.6,257.3,49.7,269.2,106C285.3,182.6,236.7,244.2,183.4,262z"/>
</g>
</svg>
