<?xml version="1.0" encoding="utf-8"?>
<!-- Generator: Adobe Illustrator 21.0.0, SVG Export Plug-In . SVG Version: 6.00 Build 0)  -->
<!DOCTYPE svg PUBLIC "-//W3C//DTD SVG 1.1//EN" "http://www.w3.org/Graphics/SVG/1.1/DTD/svg11.dtd">
<svg version="1.1" id="Layer_1" xmlns="http://www.w3.org/2000/svg" xmlns:xlink="http://www.w3.org/1999/xlink" x="0px" y="0px"
	 viewBox="0 0 500 500" style="enable-background:new 0 0 500 500;" xml:space="preserve">
<style type="text/css">
	.st0{fill:#FFFFFF;}
</style>
<g>
	<path class="st0" d="M369.2,358c-21.8-19.8-44.4-40.3-66.9-60.9c-0.9-2.1,0.1-3.6,1.6-4.9c10.7-8.9,21.4-17.9,32-26.9
		c4.1-3.4,8.2-6.8,12.3-10.3c2.2-1.9,4.8-2.5,7.6-2.8c1-0.1,2.1,0,3.1,0c36.6,0,73.2,0.1,109.7-0.1c4.9,0,8.3,1.5,10.8,5.4
		c3.4,5.3,7,10.6,10.7,16.4c-1.3,1.3-2.4,2.8-3.9,3.8c-18.3,12.9-36.6,25.7-54.8,38.6c-18.7,13.2-37.2,26.6-55.9,39.8
		C374.1,357.4,372.6,359.2,369.2,358z"/>
	<path class="st0" d="M197.9,293.9c0,1.4,0,2.2,0,3.3c-22.5,20.4-45,40.9-67.3,61.2c-3.1,0.3-5-1.3-7-2.7
		c-11.8-8.4-23.5-16.8-35.3-25.1c-17.4-12.4-34.8-24.7-52.2-37c-7.4-5.3-14.9-10.5-22.4-15.7c-0.8-0.6-1.7-1.2-2.3-1.7
		c-0.9-2.1-0.5-3.7,0.7-5.5c3.1-4.3,6.1-8.7,8.9-13.3c2.1-3.4,4.8-5.1,8.9-5.1c37.6,0.1,75.3,0,112.9,0c3.8,0,7,1.1,9.9,3.6
		c13.2,11.3,26.6,22.5,39.9,33.7C194.2,291.1,196,292.4,197.9,293.9z"/>
	<path class="st0" d="M371.6,140c40.1,28.5,79.6,56.2,118.8,84.1c-5.6,10.5-12.2,19.8-16.1,22.6c-0.9,0-2.1,0-3.3,0
		c-37.8,0-75.6,0-113.3,0c-4.2,0-7.4-1.2-10.7-4c-11.9-10.4-24.1-20.5-36.3-30.7c-2.9-2.4-5.8-4.8-8.4-7c-0.9-2.7,0.6-3.9,2-5.2
		c6.8-6.1,13.5-12.2,20.3-18.3c10-9,19.9-18,29.9-27c4.3-3.9,8.6-7.9,13-11.8C368.7,141.6,370.2,140.9,371.6,140z"/>
	<path class="st0" d="M10.5,223.6c39.2-27.7,78.2-55.3,117.4-83.1c1.6-0.5,2.9,0.4,4.3,1.6c6.2,5.7,12.5,11.3,18.8,17
		c10.9,9.8,21.7,19.7,32.6,29.5c4.1,3.7,8.2,7.4,12.2,11.1c1.4,1.3,2.9,2.6,1.9,5.5c-2.3,2-5,4.3-7.8,6.6
		c-12.7,10.6-25.4,21.2-38,31.9c-2.4,2-4.9,2.9-8,2.9c-39.2,0-78.4,0-117.9,0c-1-0.8-2.5-1.5-3.3-2.7c-4-5.6-7.8-11.3-11.6-17
		C10.7,226.3,10.8,225.3,10.5,223.6z"/>
	<path class="st0" d="M294.7,301.9c1.2,0.1,2.3,0.1,3.1,0.1c20.7,22.7,41.2,45.2,62,68.1c-0.6,1.3-1,2.8-1.9,4
		c-9.9,14-20,28-29.9,42c-14.3,20.2-28.7,40.3-43,60.5c-3,4.2-5.9,8.4-9,12.6c-1.6-0.3-2.9-0.3-3.8-0.9c-5.8-3.7-11.5-7.6-17.1-11.4
		c-0.6-0.4-1-1-1.7-1.8c0-41.1,0-82.4,0-124.2C266.9,334.9,280.7,318.6,294.7,301.9z"/>
	<path class="st0" d="M359.9,129.1c-1.1,1.4-1.9,2.7-2.9,3.8c-12.4,13.6-24.9,27.2-37.3,40.9c-6.8,7.5-13.6,15.1-20.3,22.8
		c-1.1,1.3-2.4,1.9-4.8,1.3c-13.5-16-27.4-32.4-41.3-48.9c0-41.4,0-82.6,0-124.3c6.5-5.2,13.8-9.7,21-14.2c4.3,2.3,6.2,6.4,8.6,9.8
		c8.6,12,17,24.2,25.5,36.3c5.3,7.6,10.7,15.2,16.1,22.7c11.2,15.7,22.4,31.3,33.7,47C358.8,127,359.1,127.8,359.9,129.1z"/>
	<path class="st0" d="M141.5,368.9c20.2-22.2,40.3-44.3,60.8-66.7c0.7,0,2-0.1,3.3-0.2c6.4,7.6,12.7,15.2,19,22.6
		c6.6,7.8,13.1,15.5,19.8,23.2c1.8,2.1,2.7,4.4,2.6,7.1c0,2.8-0.1,5.5-0.1,8.3c0,35.9,0.1,71.8,0.1,107.7c0,1.4-0.2,2.7-0.3,4.4
		c-5.5,5.7-13.2,8.5-18.8,13.6c-3.2,1-4.8-0.6-6.3-2.7c-10.1-14.3-20.2-28.6-30.3-42.9c-12.7-18-25.5-35.9-38.2-53.8
		c-3.4-4.8-6.7-9.5-10.2-14.2C141.5,373.2,141.1,371.3,141.5,368.9z"/>
	<path class="st0" d="M225.4,10c7.5,5,14.3,9.5,21.2,14.1c0.2,2.3,0.4,4.1,0.4,6c0,37.8,0,75.5,0.1,113.3c0,3.9-1.1,6.9-3.6,9.8
		c-8.8,10.3-17.5,20.8-26.2,31.2c-3.7,4.3-7.4,8.6-11.5,13.4c-0.8,0.1-2.1,0.2-3.2,0.3c-20.4-22.4-40.5-44.6-60.9-67
		c-0.6-1.9-0.3-4,1.1-6c6.5-8.9,12.9-17.8,19.3-26.7c13.6-19.2,27.2-38.4,40.8-57.6c6.1-8.7,12.2-17.4,18.4-26.1
		C222.3,13.2,223.7,11.9,225.4,10z"/>
	<path class="st0" d="M197.2,249.2c-0.7-14.3,5.3-26.2,14.5-36.3c7-7.6,15.9-13,26.5-14.7c3.5-0.6,7.1-1.6,10.6-1.8
		c3.4-0.1,6.8,0.6,10.2,1c7.3,0.9,13.9,3.7,20,7.6c8.3,5.3,14.3,12.5,18.8,21.3c2.9,5.8,4,12,5.5,18.1c0.9,3.7,0.3,7.9-0.5,11.7
		c-1.1,5.3-2.2,10.7-4.7,15.7c-3.6,7.4-8.4,13.7-14.7,18.9c-6.1,5-13.1,8.5-20.5,10.3c-6,1.5-12.4,1.7-18.9,1.1
		c-5.6-0.6-10.9-2.1-15.7-4.3c-8.4-3.9-15.9-9.5-21.4-17.4c-4.3-6.2-6.9-13-8.9-20.1C196.9,256.9,197.4,253,197.2,249.2z
		 M267.6,202.7c-2.6-0.6-4.5-1.1-6.3-1.4c-3-0.5-6.1-1.2-9.1-1.3c-8-0.2-15.6,1.3-22.9,4.7c-9.7,4.6-16.8,11.4-22.2,20.6
		c-1.8,3-2.8,6.2-4.1,9.4c-2.9,7.1-3.3,14.3-2.1,21.7c1,6.1,3.2,11.7,6.1,17.2c5.1,9.5,12.8,16.2,22.1,20.8
		c6.5,3.2,13.7,5.6,21.4,4.6c3.9-0.5,8-0.3,11.7-1.3c8.8-2.3,16.4-6.8,22.9-13.3c5.8-6,9.9-12.9,12.6-20.9
		c3.3-9.9,2.9-19.7-0.4-29.4c-3.4-10-9.5-18.3-18.1-24.5C275.3,206.9,271,204.7,267.6,202.7z"/>
	<path class="st0" d="M253.3,279.3c0-4.9-0.3-8.9,0.1-12.8c0.2-1.9,1.3-3.9,2.6-5.4c2.9-3.4,6.1-6.5,9.5-10c0-0.8,0.1-1.9,0.2-2.6
		c-4.4-4.7-8.5-9.1-12.2-13.2c0-5.3,0-9.9,0-14.7c2.5-1.5,3.9,0.3,5.3,1.7c5.6,5.6,11.2,11.2,16.8,16.8c1.1,1.1,2.2,2.2,3.3,3.3
		c4.5,4.7,4.5,9.8-0.2,14.5c-6,5.9-12,11.9-18,17.8c-1.1,1.1-2.1,2.3-3.3,3.2C256.4,278.6,255.2,278.7,253.3,279.3z"/>
	<path class="st0" d="M247.6,221.1c0,3.6,0.1,7.2,0,10.8c-0.1,2.7-1.5,4.9-3.3,6.8c-2.9,3-5.8,5.9-8.8,9.1c0,1.1,0,2.5,0,4.2
		c2.9,2.7,5.8,5.6,8.8,8.5c2.6,2.6,3.9,5.6,3.2,9.3c-0.2,1.1,0.1,2.3,0.1,3.5c0,1.7,0,3.3,0,4.7c-2.3,1.7-3.7,0.5-4.9-0.7
		c-7-6.9-13.9-13.9-20.9-20.7c-4.8-4.7-4.4-9.5,0-13.9c7.1-7,14.2-14.1,21.2-21.1C244.1,220.3,245.4,219.6,247.6,221.1z"/>
	<path class="st0" d="M251,242.7c2,2,4.1,4,6,5.9c-0.8,3.7-3.6,5.3-5.9,7.5c-3.7-0.9-5.7-3.4-7.3-6.7
		C245.2,246.2,247.5,244.1,251,242.7z"/>
</g>
</svg>
