<?xml version="1.0" encoding="utf-8"?>
<!-- Generator: Adobe Illustrator 21.0.0, SVG Export Plug-In . SVG Version: 6.00 Build 0)  -->
<!DOCTYPE svg PUBLIC "-//W3C//DTD SVG 1.1//EN" "http://www.w3.org/Graphics/SVG/1.1/DTD/svg11.dtd">
<svg version="1.1" id="Layer_1" xmlns="http://www.w3.org/2000/svg" xmlns:xlink="http://www.w3.org/1999/xlink" x="0px" y="0px"
	 viewBox="0 0 272.1 271.4" style="enable-background:new 0 0 272.1 271.4;" xml:space="preserve">
<style type="text/css">
	.st0{fill:#FFFFFF;}
</style>
<g>
	<path class="st0" d="M271.9,135.7c0,2.3,0.1,4.7,0,7c-0.2,4.2-0.1,8.5-1.1,12.5c-1.4,5.1-0.9,10.7-3.7,15.4
		c-0.2,5.2-2.7,9.9-4.3,14.7c-1.8,5.4-5.1,10.2-7.7,15.3c-2.9,5.7-6.3,11.2-10.2,16.3c-4.4,5.7-9.1,11.1-14.1,16.1
		c-3.2,3.2-7.1,5.6-10.4,8.6c-3.2,3-6.8,5.3-10.4,7.6c-7,4.6-14.3,8.7-22.2,11.6c-6.6,2.5-13.3,5-20.4,6.4
		c-6.9,1.4-13.7,3.2-20.8,2.9c-4.9,1.9-10.1,0.8-15.1,0.9c-2.2,0.1-4.4-0.7-6.6-0.9c-2.3-0.2-4.8,0.5-7-0.2c-3.2-1-6.5-1-9.7-1.8
		c-3-0.8-6.2-1.2-9.1-2.1c-3.2-1-6.7-1.8-9.7-3.2c-4.9-2.4-10.1-3.7-14.8-6.5c-6.3-3.7-12.8-7.2-18.7-11.7c-3.6-2.7-7-5.6-10.5-8.5
		c-2.8-2.3-5.6-4.5-7.9-7.2c-5-5.7-10.1-11.3-14.4-17.6c-2.2-3.2-4.3-6.5-6.1-9.9c-1.8-3.4-3.4-6.9-5-10.4c-3.3-7.2-6.3-15.4-8-23.7
		c-1.3-6.2-2.2-12.5-3.2-18.7c-1.3-7.8-0.4-15.4-0.7-23.1c-0.1-1.8,0.6-3.7,0.9-5.6c0.3-1.9-0.7-4,1-5.6c-0.7-4.4,1.7-8.4,2.1-12.7
		c0.3-3.5,2-6.8,3.1-10.2c1.8-5.7,4.1-11.3,6.9-16.6c3.8-7.2,8.2-14.1,13-20.7c5.6-7.6,12.1-14.2,18.9-20.6
		c5.1-4.8,10.9-8.7,16.8-12.6c3.6-2.4,7.4-4.7,11.3-6.5c7-3.2,14.1-6.3,21.5-8.6c5.7-1.8,11.4-3.1,17.3-4.1c2.4-0.4,4.8-0.3,7.1-0.9
		c7.2-1.8,14.4-0.5,21.6-0.9c2.7-0.1,5.6-0.7,7.9,0.2c2.5,1,5,0,7.1,0.9c2.4,1.1,5.1,0.1,7.2,1.9c6.1-0.3,11.4,3.3,17.3,4.1
		c1.9,0.2,3.7,1.5,5.6,2.2c5.2,2,10.3,4.2,15.1,7c6.5,3.8,13.1,7.5,18.8,12.6c3.1,2.8,6.4,5.4,9.8,7.8c1.8,1.3,2,4,4.5,4.6
		c0.7,2.6,3,3.8,4.6,5.6c4.6,4.7,7.9,10.3,11.5,15.8c2.6,3.9,5,7.9,7,12.1c3.2,6.7,5.9,13.6,8.1,20.7c0.5,1.6,1.2,3.2,1.7,4.8
		c0.9,3.6,2.2,7.2,2.4,11c0.1,2,0.7,4,0.9,6.1c0.2,1.9,0.5,3.8,0.8,5.6C272.4,127.3,271.9,131.5,271.9,135.7z M136.5,263.3
		c4.1-0.6,8.9,0.2,13.8-0.7c4.5-0.8,9.1-1.3,13.6-2.3c1.2-0.3,2.4-0.7,3.6-1c1.2-0.3,2.4-0.1,3.7-0.7c4.1-1.8,8.5-2.9,12.7-4.3
		c2.5-0.9,4.9-1.8,7.2-3c2.3-1.2,4.7-2.4,6.9-3.8c4.5-2.9,9.8-4.7,13.3-9.1c6.3-2.7,10.1-8.5,15.3-12.5c3.3-2.5,6-6,8.5-9.4
		c1.5-2,3.3-3.6,4.6-5.6c4-5.8,7.6-11.8,10.8-18c2.5-5,4.7-10.4,6.4-15.8c0.9-3,2.6-5.8,2.8-8.8c0.3-4.5,2.9-8.6,2.2-13.2
		c1.8-2,0.6-4.4,1-6.6c0.4-2.4,1.1-4.6,1-7.1c-0.2-2.8,0-5.7,0-8.5c0-2.7-0.1-5.4-0.9-8.1c-0.7-2.5-0.5-5.4-1-8.1
		c-0.6-3.9-1.3-7.8-2.1-11.7c-1.6-7.3-4.2-14.3-7.2-21c-2.7-6.1-5.7-12.1-9.9-17.4c-1-1.3-2.4-2.4-2.9-3.8c-1.1-3.9-4.1-6.6-6.6-9.2
		c-6.4-6.7-12.9-13.4-20.5-19c-9.1-6.7-18.9-12.1-29.1-16.8c-2.8-1.3-5.8-2.4-8.6-3.3c-3.7-1.2-7.5-2.1-11.2-3.1
		c-3.8-0.9-7.8-1.9-11.6-2c-4.4-0.1-8.7-1.4-13.1-1.2c-4.4,0.2-8.8-0.8-13.1,1c-7.1-0.3-13.9,1.6-20.8,2.9c-8.6,1.7-16.6,5-24.5,8.5
		c-3.5,1.6-6.8,3.6-10.2,5.6c-7.2,4.1-14,8.8-19.9,14.6c-5.3,5.2-10.6,10.3-15.4,16c-4.9,6-8.8,12.7-12.6,19.3
		c-3.6,6.3-6.2,13.1-8.6,19.9c-1.9,5.5-3.3,11-4.3,16.7c-0.4,2.2-0.9,4.4-1.1,6.6c-0.2,2.4-0.6,4.8-0.9,7.1
		c-0.5,6.1-0.5,12.3,0,18.5c0.2,2,1,4.1,0.8,6.1c-0.3,2.2,1,4.1,1,6.1c0,4.2,1.9,7.9,2.5,12c0.5,4,2.6,7.6,3.7,11.5
		c1.2,4.1,2.7,8.3,5,11.9c2.1,3.1,3.9,6.5,5.7,9.7c4.3,7.7,10,14.4,15.6,21c4.6,5.3,10.2,9.5,15.7,13.9c6.4,5.2,13.6,9,20.6,13.2
		c4.4,2.6,9.3,4.1,14,5.9c7.5,3,15.6,4.5,23.5,6c4.6,0.9,9.4,0.8,14.1,1.1C132.1,263.4,133.9,263.3,136.5,263.3z"/>
	<path class="st0" d="M60.9,55.3c2.1-3.7,5.8-5.5,8.9-8c6.8-5.6,15-8.8,22.6-12.9c2.9-1.6,6.4-2.1,9.7-3.1c2.8-0.8,5.6-1.9,8.5-2.4
		c2.3-0.3,4.5-1.6,6.8-1.5c4.3,0,8.3-1.6,12.6-1.2c4.1,0.4,8.4-0.2,12.5,0.1c9,0.8,17.9,2,26.4,5.1c9.8,3.5,19.1,7.9,27.7,14
		c8.1,5.8,15.6,12.2,22.5,19.8c-1.1,1.7-4.9,1.6-2.9,5c-1.7-0.4-2.9-2.3-3.8,0.3c-1.3-1.7-3.2-2.7-4-5.1c2.8,0,5.4,0,7.6,0
		c-0.8-0.8-1.7-1.7-2.5-2.5c-1.5-0.8-3.7-0.6-5.9-1.6c-1.9-0.9-4.4,0.5-6.6-1c-0.9-0.6-2.8,0.1-4.2,0.4c-2.8,0.5-5.6,1.1-9.1,1.9
		c-0.9,0.4-1.4,2.7-3.6,2.7c-0.5,1.4-1.1,2.8-1.8,4.8c-2.7,1.1-6,2.3-9.4,3.6c0.6,1.1,1.3,2.3,2.1,3.5c2.2,0,4.3,0,6.1,0
		c1.1,1.6,2,2.8,3,4.4c-0.8,0.3-1.3,0.5-1.8,0.7c-0.6-1.1-1.2-2.1-1.9-3.3c-0.6,0.6-1.2,0.9-1.3,1.4c-0.3,1.4-0.3,2.9-0.5,4.2
		c-2.1,1.2-4.3,2.5-6.5,3.8c-0.4,1.1-0.9,2.4-1.1,3c-1.9,0.4-3.1,0.7-4.3,0.9c0.7,1.3,1.2,2.3,1.8,3.5c0,1.3,0,2.8,0,4.6
		c-1.4-0.4-2.6-0.6-3.8-1c-1.5,0.3-3.2,0.7-4.9,1.1c0,2.4,0,4.9,0,7.5c1,0.6,2.1,1.3,3.1,1.9c1.4-0.3,2.7-0.6,4.8-1.1
		c3.5-1.6,2.4-7.1,5.8-9.8c0.7,0.4,1.4,0.8,2.2,1.3c1.2-0.6,2.4-1.3,3.4-1.8c1.9,1.4,3.8,2.9,5.8,4.4c1.4,1,2.2,2.3,2.5,4.6
		c0.3-0.7,0.5-1.5,0.8-2.2c0.2,0.2-0.1-0.1-0.5-0.5c0.6-0.2,1.2-0.4,1.7-0.6c-2.2-2-4.5-4.1-7.1-6.6c1.2-0.1,1.8-0.2,2.6-0.3
		c2.1,1.6,4.6,3,6.2,5.1c1.5,2,2.1,4.7,3.2,7.4c0.9-0.7,1.6-1.1,2.1-1.5c-0.3-1.6-0.6-3-0.8-4.5c2.5-0.2,2.5-0.2,4.2,1
		c0,1,0,2.1,0,3.3c1.3,0.8,2.5,1.5,3.7,2.2c1.1-0.4,1.9-0.9,3.3-0.1c0.8,0.4,2.3-0.5,3.5-0.9c1.9,3.1-1.4,5.8-0.4,8.8
		c-1.2,0.1-2,0.2-2.8,0.3c0,0.2-0.1,0.5,0,0.7c0.6,0.9,1,2,1.8,2.8c4.2,4.6,5.7,10.5,7.7,16.2c-2.2-1.6-2.5-4.4-4.5-6.2
		c-1.6-1.6-1.9-4.5-3-6.7c-1.3-2.4-2.9-4.5-4.3-6.7c-1.9,0-3.5,0-4.9,0c-1.4-0.8-2.7-1.5-3.9-2.1c-3.9,2-7.8,0.9-11.8-0.2
		c-1.1-2.2-2.3-4.5-3.5-6.7c-7.5-0.2-9.3,0.2-12.4,2.8c-1.2,0-2.7,0-3.6,0c-2.1,1.6-3.8,2.9-5.8,4.4c-0.1,0.7-0.2,1.8-0.3,3.3
		c-2,0.8-1.5,4.4-4.5,4.6c-1.1,2.1-2.1,4.2-3.2,6.3c-0.7,1.6,0.3,3.4-1.1,5.1c-0.5,0.7,0.5,2.6,0.8,4c-0.3,0.3-0.6,0.7-1,1.1
		c0.5,1.5,0.8,3,1.6,4.4c1.3,2.5,2.6,5,4.3,7.2c2,2.7,4.8,4.3,8.4,3.8c0.8-0.1,1.7-0.1,2.5,0c4.3,0.2,8.7,0.5,13.4,0.7
		c-0.3,3.1,0.6,5.9-1.1,8.5c2.2,3.1,4.3,6.4,4.9,11.1c-0.1,0.2-0.6,1.2-0.8,2.3c-0.3,1.7,0.2,3.4-0.9,5.2c-0.6,1-0.1,2.9,0.4,4.2
		c1.5,3.9,2.4,8.1,3.3,12.1c0.7,3.6,2.8,6.2,4.3,10.5c0,0.3,0,1.8,0,3.4c2.1,0,4.4,0.6,6-0.2c1.9-1,3.8-0.5,5-0.8
		c3-3.2,3.8-7.3,7.6-9.3c0.7-0.4,1-1.9,1.3-2.9c0.4-1.3,0.8-2.7,1-4.1c0.2-1.6,0-3.3,0-5.3c2.7-2.2,5-5.1,5.6-9.2
		c-1.3-4.2-2-8.9-1.7-12.4c2.7-6.5,8.1-9.3,11-14.2c0.5-0.9,0.9-1.6,1.1-2.6c0.4-1.9,1.3-3.7,2.3-6.3c-1.7,0.5-2.8,1-3.9,1.2
		c-1.3,0.2-2.7,0-4.1,0c0.2-2.1-2.9-2.7-2.3-5c1.9,1.2,3.6,1.6,5.7,0.1c1.9-1.3,4.2-1.9,6.2-3.1c1.9-1.1,4-2.2,5.3-3.9
		c1.1-1.5,1.9-3.5,2.8-5.3c0.2-0.4,0-0.9-0.1-1.6c-0.8,0-1.6,0-2.4,0c-0.4-0.8-0.7-1.5-1.1-2.4c-1.3,0.7-2.6,1.3-4.1,2.1
		c-0.1-0.4-0.3-0.9-0.6-1.6c-0.7-0.1-1.6-0.3-2.6-0.4c-0.1-1.1-0.1-2.3-0.2-3.4c-0.6-0.6-1.2-1.2-1.8-1.8c0-0.8,0-1.6,0-2.5
		c0.6,0,1.3-0.2,1.4,0c1.1,1.5,2,3.1,3,4.7c0.3-0.1,0.9-0.6,1.2-0.4c3.4,1.2,6.6,2.9,10.4,2.7c0.8,0,1.6,0.8,2.7,1.4
		c1.1,26-4.9,50.1-20.9,72.2c0.1-1.9-0.2-3.3,0.3-4.4c1.6-3.2,1.4-7.2,4.5-9.6c-0.4-0.8-0.8-1.6-1.2-2.5c-0.9,0.4-1.8,0.9-2.6,1.3
		c-0.1,0.6-0.3,1-0.4,1.5c-0.8,0-1.4,0-2,0c-0.7,0.9-1.4,1.7-2.6,3.1c0,2.9,0,6.5,0,10.4c0.6,0.6,1.3,1.4,2,2.3
		c-2.5,4.7-6.6,7.8-9.9,11.6c-6.1,6.8-13.6,11.7-21.1,16.6c-6.1,4.1-13,6.4-19.7,9.1c-3.9,1.6-8,2.3-11.9,3.8
		c-2.5,0.9-5.4,0.6-8,1.1c-8.7,1.9-17.4,0.7-26.1,0.9c-5.4,0.1-10.7-0.8-15.8-2.8c-0.9-0.3-2,0-2.3,0c-1.5-1.1-2.5-1.9-3.8-2.9
		c1.7-1.8,3.2-3.3,4.6-4.7c-1.4-3.5-1.4-3.7,0.6-6.5c0.4-0.6,1-1.2,1.3-2c0.2-0.4,0-1,0-1.6c0.6-0.2,1.2-0.4,1.8-0.7
		c0.1-0.7,0.2-1.5,0.3-2.4c2.1-0.8,4.3-1.6,6.7-2.6c0-0.9,0-2,0-3c3-1.7,3.6-2.6,4.3-6.3c1.5-0.8,3.1-1.6,4.7-2.4c0-1.9,0-3.7,0-5.8
		c2.9-1.9,5.7-3.8,9.2-6.2c1.7-3.3,3.2-7.5,2.9-12.2c1.4-1.8,2.7-3.6,4-5.2c0-1.9,0-3.5,0-5.2c-2.9-4.6-5.8-5.6-10.8-3.5
		c0-0.9,0-1.6,0-2.2c-1.4-0.9-2.6-1.7-4.2-2.8c-0.5,0-1.6,0-2.8,0c0-1.8,0-3.4,0-5.1c-1.3-1.3-1.1-3.8-3.7-4c-1,0-1.9-0.4-2.8-0.8
		c-1-0.5-1.8-1.4-2.8-1.7c-1.4-0.3-1.7-1.6-2.5-2.3c-0.8-0.7-1.9-1.2-3-1.8c-2.5,1.1-3.1,1-6.7-2.1c-1.5,0-3.1,0-5.8,0
		c-0.3,0.4-1.1,1.4-1.9,2.5c-0.6,0.8-1.1,1.7-2,3c-0.7-1.2-1.1-1.9-1.5-2.6c-1.2,0.4-2.4,0.8-3.7,1.3c-2.6-2.9-3.5-6.3-3.9-9.9
		c-1.5,0.3-2.9,0.5-4.4,0.8c-1.2-3-0.2-5.6,0.5-8.2c0,0,0.1,0.1,0.1,0.1c0.3-0.2,0.5-0.5,0.8-0.7c-0.1-0.1-0.2-0.2-0.3-0.3
		c-0.2,0.3-0.5,0.5-0.6,0.9c-1.3,0.5-2.6,0.9-3.8,1.3c-0.1,1-0.2,1.8-0.3,2.7c-0.7,0-1.4,0.1-2.4,0.2c-1.8-2-3.7-4.1-5.4-6
		c0.1-5-1.3-10.1,4.7-11.9c1.7,0.4,3.2,0.7,4.9,1.1c0.3-0.8,0.5-1.4,0.8-2.3c2,0.4,4.1,0.8,6.8,1.4c0.7,1.7,1.6,3.8,2.9,6.9
		c0.6-1.6,1.1-2.3,1-2.8c-0.2-1.2-0.8-2.4-0.9-3.6c-0.2-1.3,0-2.7,0-4.6c0.9-0.8,2.2-1.8,3.3-3c1.4-1.3,2.7-2.5,3-4.8
		c0.2-1.4,1.7-2.6,2.7-3.8c1.1-1.4,2.8-2.2,3.2-4.2c0.2-1,2.3-1.9,5.5-3.1c0.2,0.6,0.4,1.2,0.7,2c0.9-0.5,1.7-1,2.5-1.5
		c-1.2-1.6-2.4-3-3.5-4.5c-1.8,0.9-3.8,1.9-6,3c0.1-3.1,2.5-4.4,4-6.2c1.4-0.2,3.1,0.5,3.9-0.7c1.4,0.3,2.6,0.6,4.2,0.9
		c0.5-0.8,0.9-1.7,1.3-2.3c1.6,0,2.8,0,4,0c0.1-0.6,0.2-1.1,0.2-1.5c-0.2-2.1-1.6-2.6-3.2-2.5c-1.8-2.3-3.6-4.5-5.4-6.8
		c-1.4,0.3-3.1,0.7-4.8,1.1c-0.9-2.7-2.8-4-5.7-5.1c-1.7,0-4.2,0-6.6,0c0.6,3.2,1.3,6.3,1.9,9.5c-1.3,0.8-2.2,1.3-3.3,2
		c0.4,1.2,0.8,2.5,1.3,4.2c-1.2,0.1-2.1,0.2-2.7,0.3c-0.9-2.1-1.6-3.9-2.3-5.6c-3.5-0.6-6.2-2.3-9.2-3c-1.9-0.4-3.4-2.3-5-3.4
		c0-2.1,0-3.9,0-5.9c4.1,0.2,6.7-3.7,11.4-4.5c-0.6,1.6-0.9,2.4-1.3,3.2c1.6,0,3.1,0,5,0c-1.3-0.9-2.3-1.7-4-2.9
		c1.2-0.5,1.7-0.6,2.1-0.9c0.5-0.3,1-0.8,1.6-1.3c0-1.1,0-2.2,0-3.7c-0.5,0.3-0.8,0.4-1.1,0.6c-1-0.3-2.2-0.5-3.7-0.9
		c0,1.6,0,2.8,0,4.1c-2.7,0.6-2.7-1.5-3.5-2.7c-0.5,0.3-1,0.7-1.8,1.2c-1.1-1.3-2.2-2.6-3.6-4.2c-0.5,0-1.7,0-3,0c0,0.8,0,1.6,0,2.5
		c-1.1,0.2-2,0.4-3,0.6c0,0.7,0,1.5,0,2.2c-0.4,0.3-0.7,0.5-1,0.5c-3.2,0-6.6,0.6-9.2-2.6c0.5-0.2,1.1-0.5,1.8-0.9
		c0.6,0.1,1.7,0.4,2.7,0.7c0.3-0.4,0.4-0.5,0.5-0.6C62,59.4,62.8,56.7,60.9,55.3z M165.5,78.2c-0.8,0.8-1.3,1.4-1.9,2
		c1.3,1.6,2.5,2.9,3.6,4.2c-1,0.8-1.7,1.4-2.6,2.1c4,2,5.5,2.3,6.4,1.3c0-1,0-2,0-2.3c-1.4-2.3-2.5-4.2-3.6-6
		c-0.3,0.2-0.6,0.5-1,0.8c-0.2-0.3-0.3-0.6-0.4-0.9C165.8,79.1,165.7,78.8,165.5,78.2z M144.1,69.2c2.8,0.2,5.8,0.1,9.2,0.1
		c-0.9-0.9-1.3-1.4-2-2.1c-1.6,0.2-3.3,0.4-5.2,0.6c-0.1-0.2-0.3-0.8-0.6-1.4c-0.4,0-0.9,0-1.5,0C144.1,67.2,144.1,68,144.1,69.2z
		 M163.1,85.9c-0.2-1.4-0.4-2.5-0.6-4c-1.4,1.2-2.5,2.1-3.4,2.9c0,0.8,0,1.6,0,2.7C160.5,87,161.6,86.5,163.1,85.9z M97.4,134.5
		c-2-3.4-3.1-4-6.3-3.8C92.1,133.1,94.7,133.1,97.4,134.5z M99.9,135.5c0,0.2,0,0.3,0,0.5c1.3,0,2.7,0,4,0c0-0.2,0-0.3,0-0.5
		C102.6,135.5,101.3,135.5,99.9,135.5z M179.2,105.3c0.2,0,0.3,0,0.5,0c0-0.7,0-1.3,0-2c-0.2,0-0.3,0-0.5,0
		C179.2,104,179.2,104.6,179.2,105.3z M92.9,136.5c0,0.2,0,0.3,0,0.5c0.7,0,1.3,0,2,0c0-0.2,0-0.3,0-0.5
		C94.3,136.5,93.6,136.5,92.9,136.5z M185.3,109.3c0.1,0,0.2,0,0.3,0c0-0.3,0-0.7,0-1c-0.1,0-0.2,0-0.3,0
		C185.3,108.6,185.3,109,185.3,109.3z M179.6,101.3c-0.1,0-0.2,0-0.3,0c0,0.3,0,0.7,0,1c0.1,0,0.2,0,0.3,0
		C179.6,102,179.6,101.6,179.6,101.3z"/>
	<path class="st0" d="M53.6,122.7c1.3,0.7,2.3,1,2.9,1.6c3.2,3.8,4.3,6.4,4.6,10.6c2.9,2.6,6.7,2.9,10.2,4.2
		c1.3,0.5,2.6,0.7,3.9,1.6c1.9,1.3,4.1,2,6.6,3.1c0.9,2.8,4.2,4.8,5.2,8.1c1.1,0.3,2,0.5,2.9,0.7c0.3,0.1,0.5,0.4,0.7,0.6
		c0.6-0.6,1.2-1.2,1.9-1.9c2.3,2.5,1.4,5.6,1.6,8.4c-4.2,2.2-4.9,4.3-3,8.5c-0.5,1.2-1.7,2.4-0.6,3.9c0.5,0.8,0.9,1.6,1.4,2.4
		c1.5,2.4,3.1,4.6,3.3,7.7c0.1,1.6,1.4,3.1,2.2,4.7c0.9,0.4,2,1,3.6,1.7c0.3,0.8,1,2.1,1.1,3.5c0.2,3.3,0,6.7,0.1,10
		c0,2.1-1.5,3.9-1.1,6.1c0.3,1.9,0,3.8-0.9,5.6c-1.9,3.3-2.3,6.9-2.1,10.7c0.1,1.8-0.6,3.8-1.1,5.5c-0.8,2.7-0.7,5.4-0.9,8.4
		c-2.9-0.7-5.4-1.8-7.9-3c-5.4-2.7-10.9-5.4-15.7-9c-1.6-1.2-3.6-2-5.1-3.3c-5.2-4.7-10.7-9.3-15.4-14.6c-2.8-3.2-5.7-6.4-8-10.1
		c-4.1-6.8-8.1-13.6-11.2-20.9c-1.9-4.7-3.4-9.6-4.9-14.5c-1.4-4.5-1.3-9.3-2.8-13.8c-0.3-0.7,0-1.7,0-2.5c0-4.2,0-8.3,0-12.5
		c0-3.5-0.5-7.1,0.1-10.5c0.6-3.2,1.1-6.5,1.7-9.7c1.1-6.4,4.7-16.9,7.2-22.5c0.3-0.7,0.8-1.4,1.3-2.2c2.2,1.7,2.8,3.8,2.7,6.2
		c0,2.7,0.3,5.4,0.7,8.1c0.4,2.3,1.9,3.6,2.6,5.5c0.7,1.8,1.6,3.6,4,4.4c1.1,0.4,2,2.4,2.5,3.8c1.2,3,2.5,6,4.2,8.7
		c0.5,0.8,1,1.6,1.7,2.7c0.5-0.8,1.1-1.3,1.1-1.8C54.7,125.7,54.2,124.5,53.6,122.7z"/>
	<path class="st0" d="M218.4,102.8c-0.7,0.3-1.5,0.6-2.3,0.9c-1.8,0.9-3.9,0.4-5.5-1.2c-2.5,1.8-5.4,0.4-8.3,1
		c-0.9-3.7,0.7-6.4,3.2-9.3c1.1,1.4,2.1,2.7,3.2,4C212.4,96.4,213.5,96.9,218.4,102.8z"/>
	<path class="st0" d="M224,97.7c1.8-1.8,3.5-3.8,6.8-3.4c0,0.8,0.1,1.7,0.1,2.6c-0.8,0.3-1.4,0.5-2.2,0.8c0.4,1.4,0.8,2.7,1.2,4
		c1,0.6,2,1.3,3.3,2.1c-0.9,0.3-1.5,0.5-1.8,0.6c0.2,1.9,0.4,3.7,0.6,5.7c-1.1,0-1.9,0-2.9,0c-0.6-0.6-1.4-1.5-2.4-2.4
		C227.6,104,226,100.8,224,97.7z"/>
	<path class="st0" d="M54,123.9c-2-2.1-3.3-4-3.9-6.3C52.3,118.9,53.8,120.6,54,123.9z"/>
	<path class="st0" d="M217.2,141.3c-0.1-0.6-0.1-1.3-0.2-1.9c0.2,0,0.4-0.1,0.6-0.1c0.1,0.7,0.3,1.3,0.4,2
		C217.7,141.3,217.5,141.3,217.2,141.3z"/>
	<path class="st0" d="M218.9,143.3c-1.5-0.1-0.8-1.2-1-2C219.4,141.4,218.8,142.5,218.9,143.3z"/>
	<path class="st0" d="M61,55.4c-0.2,0.3-0.5,0.5-0.7,0.8c-0.1-0.1-0.2-0.2-0.3-0.3c0.3-0.2,0.5-0.5,0.8-0.7
		C60.9,55.3,61,55.3,61,55.4z"/>
</g>
</svg>
