<?xml version="1.0" encoding="utf-8"?>
<!-- Generator: Adobe Illustrator 21.0.0, SVG Export Plug-In . SVG Version: 6.00 Build 0)  -->
<!DOCTYPE svg PUBLIC "-//W3C//DTD SVG 1.1//EN" "http://www.w3.org/Graphics/SVG/1.1/DTD/svg11.dtd">
<svg version="1.1" id="Layer_1" xmlns="http://www.w3.org/2000/svg" xmlns:xlink="http://www.w3.org/1999/xlink" x="0px" y="0px"
	 viewBox="0 0 500 500" style="enable-background:new 0 0 500 500;" xml:space="preserve">
<style type="text/css">
	.st0{fill:#FFFFFF;}
</style>
<g>
	<path class="st0" d="M23.3,334.2c0.4,4.2,0.8,8.3,1.3,12.5c0.2,0,0.6,0,0.6-0.1c2.7-9.2,4.7-18.6,3.1-28.3
		c-0.4-2.1-2.3-4.2-4.1-5.9c-2.9-2.5-3.4-5.1-1.5-8.3c4.9-8.2,10.1-16.1,17.9-21.9c0.6-0.4,1.1-1,1.8-1.1c5.6-1.2,11.1-3,16.6-3.2
		c14-0.5,28,0.4,41.9-0.4c6.8-0.4,13.9-1.7,19-7.5c1.8-2.1,2.1-3.8-0.4-5.5c-3.2-2.2-6.2-4.4-9.3-6.7c-0.6-0.4-1.2-0.8-1.6-1.3
		c-3.5-4.6-6.9-9.2-10.5-13.7c-2-2.5-4.2-4.9-6.4-7.3c-1-1.1-2.3-2-3.5-3.2c0.9-1.2,1.6-2.3,2.5-3.2c2-2.3,2.5-4,0.4-7
		c-1.9-2.7-2.4-6.5-3-9.9c-0.4-2.7-1.6-3.6-4.1-3.7c-1.4-0.1-2.9-0.6-5.4-1.3c3.7-3.4,6.7-6.1,9.7-8.9c-0.1-0.4-0.3-0.6-0.4-1
		c-1.5,0.4-2.9,1.1-4.4,1.1c-1.7,0-3.7-0.2-4.9-1.2c-1.6-1.3-1.1-2.9,1.1-3.6c6.6-2.3,13.3-3.7,20.3-3.2c4.2,0.3,7.1,1.8,8.7,5.9
		c0.5,1.2,1.1,2.3,1.8,3.4c3,4.2,5.9,8.4,9,12.4c1.3,1.6,3.2,2.7,5,4c2.2,1.6,4.8,3,6.6,4.9c2.7,3,5.8,5.4,9.9,6.3
		c1.4,0.3,2.9,1.1,3.9,2.1c3.8,4.1,8.4,6.3,14,6.2c3.3-0.1,6.6,0.3,9.9-0.1c3.8-0.4,7.5-1.2,11.3-1.9c1.4-0.2,2.7-0.8,4.2-0.8
		c8.1-0.2,14.1-4.1,20.2-9.2c4-3.4,5.2-6.7,4.9-11.3c-0.1-0.7,0.1-1.5,0.4-2c2-3.7,3.1-7.3,0.9-11.3c-0.3-0.4-0.2-1.3,0-1.7
		c2.7-4.3,0.4-8-1.3-11.8c-3.3-7.8-6.2-15.7-9.7-23.3c-1.2-2.6-3.5-5.4-6-6.6c-6.6-3.3-13.5-5.8-20.3-8.5c-0.5-0.2-1.1-0.2-1.8-0.2
		c-4.2,0-8.3,0.1-12.5-0.1c-6.8-0.2-13,2-18.5,5.7c-5.5,3.7-11.1,6.5-18,5.6c-6.1-0.8-10.2,1.5-12.1,7.5c-0.6,1.8-1.6,3.5-2.6,4.9
		c-1.9,2.7-4.4,3.9-8,3.1c-3.2-0.7-6.6-0.9-10-1.2c-1.6-0.1-3.3,0.1-4.9-0.2c-2.3-0.5-3.7-2.2-2.4-4.4c2.2-3.7,2.5-7.7,2.6-11.8
		c0-1.5,0.6-3,1.3-4.3c2.3-4.7,4.7-9.2,7-13.8c0.3-0.5,0.4-1.3,0.8-1.5c7.5-3.5,2.5-9.4,2.5-14.2c0.1-2.5-1-5.1-1.5-7.8
		c0.3-0.1,0.6-0.4,0.8-0.5c1.2,1.2,2.3,2.5,3.7,3.5c0.8,0.6,2.2,0.5,3.3,0.7c-0.2-1.1-0.1-2.4-0.6-3.2c-1.1-1.3-2.4-2.6-3.9-3.5
		c-2.3-1.4-3.6-3.1-4-5.9c-0.2-1.3-1.2-2.5-2.1-3.5c-2.2-2.5-4.7-4.7-6.6-7.3c-0.8-1-0.3-3-0.4-4.4c1.2,0.3,2.6,0.4,3.6,1
		c7,4.3,13.9,8.7,20.8,13.1c2,1.3,3.9,1.2,5.6-1.6c-1.1-0.6-2-1.1-3.1-1.5c-1.7-0.6-3.9-1.1-2.7-3.5c1-2.3,3.2-3.3,5.6-2.3
		c1.4,0.6,2.6,2,3.8,3c2.7,2.5,3.6,2.3,6.6-0.6c2.4-2.4,1.3-4.1-0.7-5.9c-1.6-1.3-3-2.7-4.5-4.1c0.1-0.4,0.4-0.8,0.5-1.2
		c1.6,0.3,3.2,0.4,4.7,1c4.1,2,8,4.4,12.1,6.4c2.4,1.2,4.9,1.8,7.2-0.4c0.6-0.6,2-0.6,2.9-0.4c3.1,0.9,6.1,2.3,9.3,3.2
		c1.5,0.4,3.3,0.5,4.7,0c3.9-1.6,8.5-2,11.1-6.1c0.4-0.6,2-0.7,2.7-0.4c0.4,0.1,0.7,1.7,0.6,2.5c-0.5,2.6-1.6,5.1-1.9,7.8
		c-0.5,5.6,2,7.2,7.3,5.2c1.6-0.6,3.2-1.3,4.7-2c0.3,0.2,0.6,0.4,0.8,0.6c-0.6,1.6-1.3,3.2-1.8,4.9c-0.2,0.9,0.1,1.9,0.1,2.9
		c0.9-0.2,2.2-0.1,2.7-0.7c1.9-2.1,3.8-1.8,5.9-0.5c0.7,0.4,1.5,0.7,2.3,0.8c4,0.7,6.8,2.5,6.8,7.1c0,0.5,0.5,1,0.9,1.8
		c1.1-1,2.1-1.8,3-2.7c1.8-1.8,3.8-2.6,6.3-1.6c1.1,0.4,2.3,0.6,3.5,0.4c6.1-1.3,12.3-2.8,18.4-4.2c5.8-1.3,11.8-1.8,17.3-3.9
		c6.2-2.4,13.6-1.1,18.8-6.6c0.8-0.9,3.5-1.1,4.8-0.4c3.5,1.8,6.6,2,9.9-0.2c0.5-0.3,1.1-0.6,1.7-0.5c7.9,0.5,15.3-2.7,23.1-3.4
		c1.7-0.1,3.4-0.8,5.1-1.2c2-0.5,4-1.1,6.1-1.6c1.8-0.5,3.6-0.9,5.4-1.4c0.8-0.2,1.5-0.7,2.3-0.8c6.3-1.2,12.5-2.3,18.8-3.5
		c0.7-0.1,1.5-0.1,2-0.4c5.3-3.1,11.1-2.3,16.8-2.5c2.6-0.1,5.2-1,7.9-1.1c1.3-0.1,2.6,0.6,3.8,1.3c1.4,0.7,2.6,2.4,3.9,2.5
		c6.3,0.6,12.3,1.1,18.6,2.5c7.5,1.7,15.7-0.1,23.5,0.1c6.2,0.2,12.4,1.3,18.6,2.2c1.1,0.1,2,0.7,3,0.9c6.4,1.6,12.8,3.2,19.2,4.9
		c0.6,0.1,1.1,0.5,1.7,0.5c6.6-0.2,9,4.3,11.8,9.3c3.3,5.9,4.8,11.9,3.8,18.5c-0.2,1.6-1.3,3.7-2.5,4.5c-2.3,1.4-3,3.1-3,5.5
		c0.1,4.9,0,9.9,0,14.8c-0.1,33.8-0.1,67.7-0.1,101.5c0,2.9,1.5,5.8,2.2,8.7c0.2,1,0.7,2.5,0.3,2.8c-0.7,0.6-2.2,0.9-3.1,0.6
		c-2.7-1.1-4.1-0.1-5.6,2.3c-1.2,2-3.3,4-5.5,5c-3.7,1.7-5.4,4.1-5.1,8.2c0.2,4-0.4,8,4.3,10.3c2.2,1.1,1.6,3.2-0.4,4.1
		c-3.5,1.4-3.8,4.1-3.7,7.1c0,2.8,0.2,5.6-0.1,8.5c-0.1,1.4-1.3,2.7-1.9,4c-0.7-1.3-2-2.6-2-3.9c-0.2-7.5,0.1-15-0.3-22.6
		c-0.1-3.4-1.5-6.8-2.5-10.1c-0.3-0.9-1.1-2-2-2.3c-3.2-1.3-3.7-3.9-3.7-6.9c0-20.1,0-40.2,0-60.3c0-1.6,0-3.5,0.7-4.8
		c2.3-4.2,2-8.6,2-13c0-14.2-0.1-28.4,0.1-42.7c0.1-4.2-1.8-6.3-5.3-8.5c-7-4.2-14.5-5.6-22.6-5.3c-3,0.1-6-1.3-9.1-1.8
		c-4.4-0.6-8.8-0.9-13.3-1.3c-0.6-0.1-1.2,0.1-1.8,0c-4.5-1.5-9-2.6-13.4,0.4c-0.5,0.3-1.4,0.1-2-0.1c-4.5-1.5-9-3.3-13.6-4.5
		c-2.7-0.8-5.8-0.6-8.7-1c-3.2-0.5-6.3-1.3-9.5-1.9c-1.6-0.4-3.2-0.8-4.8-0.8c-5.6-0.1-11.3-0.1-16.9-0.1c-4.6,0-9,0-13.4,2
		c-2.8,1.3-6.5,0.6-9.7,0.9c-2.4,0.3-5,0.4-7.2,1.3c-6.9,2.8-13.8,1.5-20.7,0.3c-2.8-0.5-5.7-1.3-8.5-1.5c-4.2-0.3-8.5,0.1-12.7-0.1
		c-12.3-0.6-21.4,5.9-29.8,13.7c-1.9,1.8-2.2,3.9,0.8,4.8c2.7,0.8,3.2,2.9,3.2,5.2c0.1,5.9,2.7,10.6,6.7,14.6
		c3.6,3.7,7.8,6.8,8,12.7c0,1,1.2,2,1.9,2.8c2.1,2.7,4.2,5.3,6.3,7.9c1.9,2.3,4.3,3.5,7.4,3.1c1.5-0.2,3.2-0.6,4.4-0.1
		c3.4,1.3,4.8-0.4,6.3-3c5.5-9.8,11.9-18.8,22.1-24.4c0.9-0.5,1.8-1.3,2.8-1.3c4.9-0.1,7.7-3.9,11.4-6.3c3.3-2.1,7.5-3,11.4-3.8
		c1-0.2,2.5,1.6,3.6,2.8c0.6,0.6,0.5,1.8,0.6,2.7c0.4,3.2,0.2,6.4,1.1,9.4c0.8,2.8,2.5,5.4,4.1,8.5c-1,0.4-2,1.2-3,1.2
		c-3.5,0-5,2-6.1,4.9c-1.5,3.8-3.9,5.9-8,7.5c-3.6,1.5-6.9,4.9-9.2,8.2c-3.5,5.4-6.1,11.4-9,17.1c-0.6,1.1-0.7,2.5-0.8,3.7
		c-0.1,2.3,0.2,4.7-0.1,7c-1.9,12,3.9,21.8,9.4,31.3c2.3,4,7,6.6,10.7,9.8c3.9,3.4,8.7,5.3,13.5,7.1c2.8,1.1,5.4,1.4,8-0.4
		c2.8-1.8,5.7-1.6,8.7-0.2c4.7,2.2,9.5,2.1,14.2-0.1c2.7-1.3,5.6-2.3,8.2-3.8c9.4-5.3,16.1-13.4,20.4-22.9
		c4.1-9.2,5.4-18.8,2.3-29.3c-2.4-8.4-6-15.6-10.7-22.6c-1.1-1.6-1.6-3.9-1.6-6c-0.1-9.2-0.1-18.3-0.1-27.4c0-1.4,0.5-2.9,0.9-4.9
		c1.6,1.1,2.7,1.7,3.7,2.4c4.4,3.2,9,6.2,13.3,9.5c2.3,1.8,4.1,4,6,6.1c1.3,1.5,2.5,3.1,3.7,4.6c5.9,6.8,10.9,14,13.3,22.9
		c1.2,4.5,3.4,8.7,4.3,13.3c1.6,8.2,2.3,16.5-0.6,24.6c-0.4,1.1-0.7,2.3-1,3.4c-1,3.9-1.6,8-2.9,11.8c-7,19.2-19.2,34.1-37.4,43.9
		c-3.7,2-7.1,4.7-11.1,7.3c0.2,0.5,0.6,1.6,1.3,2.4c8.1,9,15.9,18.1,24.4,26.7c17.6,18,35.5,35.7,53.3,53.4
		c7,6.9,14.2,13.5,21.2,20.4c9.2,9.2,18,18.8,27.4,27.8c10.7,10.3,21.8,20.2,32.9,30.2c3.8,3.5,8,6.6,11.8,10c2,1.8,3.8,3.9,5.2,6.1
		c0.6,1,0,2.7,0,4.2c-1.4-0.1-2.9-0.1-4.2-0.6c-0.9-0.3-1.6-1.3-2.5-2c-13.1-11.8-26.2-23.8-39.5-35.5c-5.4-4.7-11.2-8.9-16.7-13.4
		c-1-0.8-1.6-2-2.3-3c-3.7-4.9-7.3-9.4-14.1-10.6c-3.2-0.6-6.4-2.9-8.9-5.2c-6.6-6.2-12.8-12.8-19.1-19.2
		c-8.1-8.2-16.3-16.2-24.4-24.4c-3-3-5.6-6.3-8.6-9.3c-4.6-4.7-9.2-9.2-13.9-13.7c-2.2-2.1-4.3-4.3-6.6-6.3c-2-1.8-3.9-3.7-6-5.3
		c-3.9-2.7-8.3-4.2-13.3-3.5c-3,0.5-5.4-0.8-7.5-3c-5.7-5.9-11.7-11.6-17.4-17.5c-2.2-2.3-4.4-2.4-7.3-1.7c-2,0.5-4.2,0-6.4,0.1
		c-3.3,0.1-6.8-0.1-9.8,0.9c-3.2,1-5.9,1.7-9-0.3c-1.1-0.7-2.9-0.2-4.4-0.3c0.6,1.3,0.8,2.9,1.7,3.8c12.3,12.5,24.7,24.8,37.1,37.2
		c1,1,2,2,2.9,3.1c1.3,1.9,1.5,3.9-0.9,4.9c-3.3,1.4-3.9,4-3.8,7.2c0.1,1.6,0.1,3.1-0.1,4.6c-0.1,0.8-0.9,1.4-1.4,2.1
		c-0.8-0.6-2-1.1-2.2-1.8c-0.4-1.8-0.6-3.7-0.6-5.6c0.1-3.4-0.8-6-4-8c-2-1.3-3.6-3.6-5.1-5.6c-2.4-3.4-4.4-3.8-8-1.8
		c-0.9,0.5-2.3,0.1-3.5,0.2c0.4-1.1,0.6-2.4,1.3-3.2c2-1.9,2.1-3.5,0.1-5.3c-8.2-7.3-16.4-14.7-24.7-22.1c-0.4-0.4-0.9-0.7-1.6-1.1
		c-1.9,2.2-1.7,4.1,0,6.2c1.8,2.1,3.2,4.5,4.7,6.8c1.8,2.8,3.5,5.4,7.3,5.9c1.3,0.1,2.7,1.6,3.4,2.7c1.3,2.3,1.8,4.9,3,7.1
		c0.8,1.5,1.8,3.2,3.2,3.9c3.1,1.8,4.9,4.3,6.6,7.5c1.2,2.3,3.5,4.1,5.5,6c2.3,2.3,5.4,4.1,7,6.8c3.2,5.2,8.4,8.1,12.5,12.1
		c1.7,1.6,3.1,3.5,4.8,5.1c1.2,1.2,2.5,2.7,4,3.2c5.4,1.4,7.1,4.9,7.2,10.2c0.1,6.2,4.6,8.7,10.1,5.9c1.1-0.6,2.3-1.2,3.5-1.5
		c2-0.4,3.1,0.5,2.3,2.5c-2,5-4.3,10-6.6,15.2c-0.5-0.3-1.3-0.5-1.8-1c-3.7-4.9-7.9-9.6-11-14.9c-2.7-4.6-5.6-8.2-11-9.5
		c-1.6-0.4-3-2.1-3.9-3.7c-2-3.5-4.2-6.7-7.8-9.2c-4.2-3-7.5-7.3-11.3-11.1c-1.9-1.8-3.7-4.2-6-5.3c-6.2-2.9-10.6-7.2-13.1-13.5
		c-1.6-4-4.3-5.6-8.5-4.9c-0.8,0.1-1.6-0.1-2.5-0.1c-2.7,0-4.2-1.3-4.3-3.9c-0.2-4.9-3.9-7.1-7.3-9.7c-1.6-1.2-3-2.7-4.4-4.3
		c-2.7-3.1-5.4-6.3-8.2-9.4c-0.4,0.2-0.9,0.4-1.3,0.6c0.1,1.6,0.3,3.2,0.4,4.7c0.1,2,0.4,4.1,0.2,6.1c-0.2,4.7-0.5,9.3-0.9,14
		c-0.1,1.8,0.8,4.4-2.2,4.7c-1.8,0.2-4.4-3.7-4.1-5.9c0.3-1.6,1-3.1,1.3-4.7c1.8-9.3,1.3-18.5-3-27.1c-1.2-2.4-2.8-4-5.8-4.4
		c-2.6-0.4-5.1-1.6-7.8-2.5c-0.4,0.8-0.8,1.6-0.9,2.3c-1.5,12.1-3.8,24.1-2.8,36.4c0.1,1.3,0.1,2.7,0.6,3.8c3.2,6.1,2.4,12.7,2,19
		c-0.2,3.7-2.4,7.2-4,10.6c-0.3,0.6-2.1,1.1-3,0.8s-2.2-1.5-2.1-2.3c0.1-3.1,0.6-6.2,1.1-9.2c0.3-1.8,1.3-3.6,1.3-5.4
		c0.1-17.4,0.1-34.8,0.1-52.2c0-1.3-0.2-2.5-0.4-5.1c-2.3,1.3-4.4,1.9-5.6,3.3c-2.9,3.5-4.7,4.4-7.3-0.1c-0.2-0.4-0.7-0.6-1.6-1.2
		c-0.3,1.7-0.6,3-0.7,4.3c-0.2,8.6-0.1,17.1-0.7,25.7c-0.3,4.2-1.7,8.2-2.7,12.3c-0.1,0.6-1.1,1.4-1.6,1.4c-0.6-0.1-1.2-0.9-1.6-1.5
		c-0.3-0.4-0.4-0.9-0.3-1.3c0.5-10.5-1.8-21.1,2.2-31.4c1.8-4.6-2.7-10.4-7.5-10.4c-3,0-5.9,0.1-8.8-0.1c-3.2-0.3-4.2,1.3-4.2,4.1
		c-0.1,6.1,0,12.2-0.1,18.3c0,1.4-0.2,2.8-0.6,4.2c-0.1,0.6-1,1.3-1.3,1.3c-0.6-0.1-1.6-0.7-1.7-1.3c-0.4-1.2-0.6-2.5-0.6-3.8
		c-0.1-5.8,0-11.5-0.1-17.3c0-1.7-0.4-3.5-0.6-5.4c-4.4,0-8.6,0.5-12.5-0.1c-5.9-1-11.8-2.7-17.6-4.2c-1-0.3-1.9-1-3-1.1
		c-6.1-1-6.6-2.3-7.8,4.6c-0.1,0.6-0.1,1.2-0.5,1.7c-4.7,7-4.6,14.7-4.6,22.7c0,15.4-0.4,30.7-0.5,46.2c0,10.7,0.4,21.4,0.5,32.1
		c0,1.6,0.1,3.3-0.3,4.9c-0.2,1-1.2,2.6-1.6,2.6c-1.1-0.1-2.5-0.9-3-1.8c-0.6-1-0.6-2.5-0.4-3.7c1.3-10.3,1.8-20.4-0.9-30.7
		c-0.9-3.5,0.2-7.3,0.4-11.1c0.1-2.7,0.9-5.6,0.4-8.2c-1.7-7.6-2-14.9,0.4-22.5c1.3-4.2,0.8-9,0.8-13.6c0-5.9,1.1-12-2.2-17.6
		c-0.4-0.6-0.4-1.6-0.4-2.4c-0.6-5.9-0.5-5.9-6.6-5.9c-13.5,0-27.1-0.5-40.5,0.2c-7,0.4-14,2.7-20.9,4.4c-2.5,0.6-4.9,1.8-7.3,2.6
		c-7,2.5-9.9,8.9-13.8,14.5c-1.4,2-2.7,4.2-4.4,5.9c-3.6,3.7-4.8,8.5-6.8,12.9c-4.4,9.4-2.3,19.4-2.7,29.1c-0.1,2-0.4,4-0.6,5.9
		c-0.8,0.1-1.1,0.2-1.3,0.1c-7-5.2-12.7-11.4-15.7-19.7c-2-5.6-4.2-11.1-3.7-17.3c0.1-1.4-1.3-3-1.9-4.4c-1-2.2-0.6-3.7,2-4
		c2.1-0.2,4.2-0.3,6.3-0.4C23.5,334.2,23.3,334.2,23.3,334.2z M244.6,266.5c2.8,6.4,4.7,8.3,8.6,8.3c6.6,0.1,13.2,0.1,19.7,0
		c1.1,0,2.8-0.6,3-1.2c0.3-1-0.3-2.4-0.9-3.5c-1.1-1.9-2.7-3.5-3.7-5.6c-2.8-6.3-5.6-12.5-6-19.7c-0.1-1.1-0.8-2.2-1.1-3.3
		c-0.6-2.3-1.3-4.4-1.6-6.8c-0.3-3.5,0-7-0.1-10.6c-0.2-7.3,2.7-13.9,5.1-20.6c0.4-1.1,0.1-2.3,0.1-3.5c-2.1,0-4.2,0.1-6.3,0.1
		c0.1,1.1-0.2,2.5,0.2,3.5c2,4.2,1.7,4.9-2.1,7.8c-1.7,1.3-3,3.4-4,5.4c-1,1.8-1.2,4-2.1,5.9c-1.9,4.2-1.1,9.7,1.8,12.3
		c0.9,0.8,1.5,2.1,2.2,3.2c-1.4,0.2-2.8,0.6-4.2,0.5c-2-0.2-3.1,0.2-4,2.3c-0.8,2-2.1,4.1-3.8,5.2c-3,1.9-6.4,3.3-9.8,4.6
		c-2.5,1-2.7,2.3-1.3,4.2c1.1,1.6,3.5,3.1,3.3,4.4c-0.1,1.4-2.7,2.5-4.1,3.8c-0.1,0.1-0.1,0.4-0.1,0.6
		C236.5,267.8,238.5,268.2,244.6,266.5z M270.1,112.2c-3-3-5.6-2-8-1.4c-9.5,2.5-19,5.1-28.6,7.7c-0.8,0.2-1.7,0.3-2.3,0.7
		c-0.6,0.4-1.1,1.3-1.1,1.9c0.1,0.6,1,1.5,1.5,1.5c3.1,0,6.3-0.1,9.4-0.5c3.5-0.5,7-1.7,10.5-2.1C258.5,119.1,263.7,115,270.1,112.2
		z M214.1,123.9c0.1,0.4,0.1,0.9,0.2,1.3c1.1-0.1,2.4,0.1,3.1-0.5c0.6-0.6,0.6-2,0.9-3c-0.3-0.1-0.6-0.4-0.9-0.5
		C216.3,122.1,215.2,122.9,214.1,123.9z"/>
	<path class="st0" d="M71.9,419.5c-1.6,0-3.2,0.5-4.5-0.1c-11.8-4.9-21.5-12.2-27.8-23.5c-1-1.8-2.7-3.2-4.1-4.8
		c-1.3-1.5-2-3.5-0.1-4.5c1.3-0.8,3.7-1,5-0.2c1.6,0.9,2.5,3,3.6,4.6c3.5,4.9,7,9.9,10.6,14.7c2.1,2.7,5,4.3,8.5,5.1
		c4.2,1,6.8,4.2,9.2,7.5C72.1,418.6,72,419,71.9,419.5z"/>
	<path class="st0" d="M26.8,83c-2.6-2.5-5.3-4.9-7.5-7.5c-3-3.4-5.6-7-8.4-10.6c-0.7-0.8-1.6-1.6-1.8-2.6c-0.2-0.8,0.1-1.9,0.6-2.5
		c0.3-0.4,1.6-0.4,2.1-0.1c3.2,1.8,6.4,3.7,9.6,5.8c0.8,0.6,2,1.6,2,2.3c0.1,4.7,2.1,8.2,6,10.8c0.6,0.4,0.6,2,0.4,2.7
		C29.5,81.9,28.3,82.1,26.8,83z"/>
	<path class="st0" d="M67.3,91.3c1.6,0.8,3.5,1.3,4.9,2.3c4.9,3.2,9.8,6.6,14.7,9.9c1.8,1.2,5,2.1,3.7,4.9c-1.3,2.9-4.1,1-6.2,0.3
		c-6.6-2.3-11-7.8-16.1-12c-1.1-0.9-1.3-2.9-2-4.4C66.6,92,67,91.6,67.3,91.3z"/>
	<path class="st0" d="M55.1,91.8c-4.9,1.8-14.9-1.4-17.2-5.5c-0.4-0.6,0.6-2.6,1.3-2.9c2.5-0.8,14.6,5.1,15.9,7.4
		C55.2,91,55.1,91.3,55.1,91.8z"/>
	<path class="st0" d="M30.8,383.6c-0.4,0.6-0.7,1.6-1.2,1.6c-1,0.1-2.3,0.2-3-0.3c-4.7-3.2-7-8-8.6-13.3c-0.1-0.6,0.3-1.8,0.8-2
		c0.5-0.3,1.6-0.1,2.2,0.3c0.7,0.4,1.2,1.1,1.7,1.8c2.3,3.1,4.5,6.3,6.7,9.4C30,381.9,30.4,382.7,30.8,383.6z"/>
	<path class="st0" d="M66.5,81.6c-0.1,0.2-0.4,1.3-1.1,1.6s-2,0.1-2.4-0.4c-2.2-3-4.3-6.1-6.2-9.2c-0.2-0.3,1.5-2.5,2.1-2.3
		C61.9,71.7,66.6,78,66.5,81.6z"/>
	<path class="st0" d="M175.8,230.4c-3.1-0.1-4.4-2.2-2.8-4.4c1.1-1.7,2.8-3.2,4.5-4.3c0.8-0.6,2.9-0.5,3.5,0.1
		c0.8,0.8,1.3,2.7,0.8,3.7C180.6,228.6,178.3,230.3,175.8,230.4z"/>
	<path class="st0" d="M192.7,207.7c0.2-0.8,0.1-1.8,0.6-2.4c3.4-3.5,6.8-7,10.3-10.4c0.6-0.6,1.8-0.4,2.8-0.5
		c0.1,0.8,0.5,2.1,0.1,2.5c-4.2,3.9-8.4,7.8-12.6,11.7C193.6,208.3,193.2,208,192.7,207.7z"/>
	<path class="st0" d="M24.3,333.4c-2.3-3.3-3.8-5.4-5-7.5c-0.6-1-0.4-2.3-0.5-3.5c1.3,0,2.7-0.4,3.8,0.1c2.5,0.8,4.4,2.7,4.2,5.4
		C26.7,329.4,25.5,331,24.3,333.4z"/>
	<path class="st0" d="M342.3,169.7c2.9-1.8,5.2-3.4,7.8-4.7c0.8-0.4,2.1,0.4,3.2,0.6c-0.3,1.1-0.2,2.6-0.9,3.4
		C349.7,172.2,346.4,172.5,342.3,169.7z"/>
	<path class="st0" d="M401.1,483c1.3,1.1,2.3,1.5,2.8,2.3c1,1.4,1.9,3,2.5,4.6c0.4,0.8,0.1,2,0.1,3c-1.2-0.1-3,0.2-3.5-0.4
		c-1.6-2-2.7-4.3-3.7-6.6C399.2,485.3,400.4,484.2,401.1,483z"/>
	<path class="st0" d="M36.2,99c1.1-1.6,1.9-3.2,3.2-4.1c0.8-0.6,2.7-0.3,3.6,0.4c0.5,0.4,0,2.3-0.3,3.5c-0.1,0.6-0.6,1.3-1,1.8
		c-1,1.1-2,2-3.1,3C37.9,102.2,37.2,100.9,36.2,99z"/>
	<path class="st0" d="M156.9,211.9c-0.2,0.3-1,1.1-1.7,1.9c-1.6-1.5-3.3-3-4.9-4.5c1-0.7,2-1.8,3-2
		C155.6,207.1,157,208.4,156.9,211.9z"/>
	<path class="st0" d="M28.9,108.3c-1.4-2-2.7-3.2-3-4.7c-0.2-0.8,1.1-2,1.7-3.1c1.5,1.5,3,3,4.4,4.6
		C32.1,105.2,30.5,106.6,28.9,108.3z"/>
	<path class="st0" d="M489.5,102.5c0.2,3.3-0.9,4.6-3,4.2c-1.1-0.2-2-1.3-3.1-2.1c1.5-1.3,3-2.7,4.5-4
		C488.6,101.4,489.3,102.3,489.5,102.5z"/>
	<path class="st0" d="M61.8,102.4c-1.6-1.3-2.7-2.3-3.9-3.2c1.1-0.6,2.3-2,3.3-1.8c1.4,0.2,2.7,1.5,4,2.3
		C64.3,100.4,63.3,101.2,61.8,102.4z"/>
	<path class="st0" d="M187,175.8c-1.3-1.6-2.2-2.5-3-3.5c1.1-0.8,2.1-2.5,3.1-2.3c1.2,0.1,2.2,1.6,3.3,2.5
		C189.5,173.4,188.6,174.3,187,175.8z"/>
	<path class="st0" d="M402.5,467.5c3,0.1,5.1,0.9,5.2,3.9c0,0.7-1.3,2.2-1.6,2.1C403.3,472.6,402.7,470.4,402.5,467.5z"/>
	<path class="st0" d="M85.7,125c-1.4-1.3-2.3-2-3.2-2.9c1.1-0.8,2.1-2,3.2-2.1c0.9-0.1,2,1.3,2.9,2C87.8,122.8,86.9,123.6,85.7,125z
		"/>
	<path class="st0" d="M367.7,173c-1.3-1.4-2.2-2.3-3-3.2c1-0.7,2-2,3-2c1,0,2,1.3,3,2C369.8,170.7,369.1,171.6,367.7,173z"/>
	<path class="st0" d="M325.6,189.7c-1.1-1.2-1.7-1.9-2.4-2.7c1.1-0.8,2-2,3.2-2.2c0.6-0.1,1.6,1.3,2.5,2.1
		C328,187.7,327,188.6,325.6,189.7z"/>
	<path class="st0" d="M256.5,409.9c-1.3,1.4-2.2,2.3-3,3.2c-0.7-1-2-2-2-2.9c0-1,1.3-2,2-3C254.3,408,255.1,408.7,256.5,409.9z"/>
	<path class="st0" d="M249.6,102.6c-1,0.5-2,1.6-2.9,1.4c-1.1-0.1-2-1.3-3-2c0.9-0.6,1.8-1.8,2.8-1.8c1-0.1,2,0.8,3,1.3
		C249.6,101.9,249.6,102.2,249.6,102.6z"/>
	<path class="st0" d="M70.3,123.2c-1.1,1.3-2,2.1-2.8,3c-0.8-0.8-2.3-1.9-2-2.4c0.4-1.2,1.6-2.2,2.4-3.2
		C68.5,121.3,69.2,122,70.3,123.2z"/>
	<path class="st0" d="M275.7,413.7c1.6-1.2,2.4-1.8,3.3-2.5c0.6,1.1,1.6,2.2,1.7,3.4c0.1,0.7-1.3,1.5-2,2.3
		C277.9,415.9,277.1,415,275.7,413.7z"/>
	<path class="st0" d="M77.1,88.3c-1.2-1.3-1.9-2-2.6-2.7c0.8-0.8,1.7-2.1,2.6-2.2c0.9-0.1,1.9,1.1,2.9,1.8
		C79.1,86.1,78.3,86.9,77.1,88.3z"/>
	<path class="st0" d="M233.8,353.2c-1-1.3-2-2.3-2-2.5c1-1.3,2.3-2.5,3.5-3.6c0.1-0.1,1.7,1.3,1.6,1.5
		C236.2,350,235.2,351.3,233.8,353.2z"/>
	<path class="st0" d="M134.4,80.6c1.5,1.1,3,2.3,4.3,3.5c0.3,0.3,0.2,1.4-0.1,1.8c-0.3,0.4-1.4,0.4-1.7,0.1
		c-1.3-1.3-2.5-2.7-3.8-4.1C133.5,81.5,134,81.1,134.4,80.6z"/>
	<path class="st0" d="M202.9,189.5c-1.6,1.1-2.5,2.1-3.3,2c-0.8-0.1-1.6-1.2-2.5-1.8c0.8-0.7,1.5-1.9,2.3-2
		C200.2,187.5,201.2,188.5,202.9,189.5z"/>
	<path class="st0" d="M77.9,112c-1,0.9-1.6,1.6-2.3,2.1c-0.6-1-1.6-1.8-1.8-2.9c-0.1-0.5,1.1-1.3,1.8-2
		C76.3,110.1,76.9,110.9,77.9,112z"/>
	<path class="st0" d="M234.1,330.5c0.6-1.1,1.3-2.3,1.8-3.4c0.7,0.8,2,1.8,1.9,2.3c-0.2,0.9-1.5,1.6-2.3,2.3
		C235,331.3,234.6,330.9,234.1,330.5z"/>
	<path class="st0" d="M372.2,406.3c-1.5,1-2.3,2-3,1.9c-0.8-0.1-1.5-1-2.2-1.6c0.6-0.6,1.2-1.7,2-1.8
		C369.8,404.7,370.6,405.4,372.2,406.3z"/>
	<path class="st0" d="M23.3,334.2h0.1C23.4,334.2,23.3,334.2,23.3,334.2C23.3,334.2,23.3,334.2,23.3,334.2z"/>
</g>
</svg>
