<?xml version="1.0" encoding="utf-8"?>
<!-- Generator: Adobe Illustrator 21.0.0, SVG Export Plug-In . SVG Version: 6.00 Build 0)  -->
<!DOCTYPE svg PUBLIC "-//W3C//DTD SVG 1.1//EN" "http://www.w3.org/Graphics/SVG/1.1/DTD/svg11.dtd">
<svg version="1.1" id="Layer_1" xmlns="http://www.w3.org/2000/svg" xmlns:xlink="http://www.w3.org/1999/xlink" x="0px" y="0px"
	 viewBox="0 0 500 500" style="enable-background:new 0 0 500 500;" xml:space="preserve">
<style type="text/css">
	.st0{fill:#FFFFFF;}
</style>
<g>
	<path class="st0" d="M260,355.6c0-93.3,0-186,0-280c11,1.5,21.7,2.4,32.2,4.5c47.2,9.5,89,29.4,121.7,65.7
		c20.8,23.2,34.9,50.2,41.4,80.4c4.3,19.9,5.5,40.4,7.6,60.7c0.3,2.8-1.5,6.8-3.6,8.9c-14,12.8-28.3,25.2-42.6,37.7
		c-7.1,6.2-19.3,4.7-26.1-3.3c-4.9-5.6-3.7-17.2,2.4-22.7c5.9-5.5,11.9-11.1,18-16.6c4.9-4.5,4.5-9.3,1.6-14.5
		c-0.1-0.1-0.3-0.3-0.4-0.6c-6.5-13.2-17.1-16.3-31.8-16.6c-19-0.3-35.2,3.7-50,15.1c-5.6,4.3-11.9,7.9-18.3,11.1
		c-5.2,2.8-7.3,6.2-6.7,12.3c0.6,7.6-1.3,15.6,5.3,21.4c2.2,1.9,5.2,3.4,8,4c3.6,0.7,7.4,0.7,11.1,0c10.2-1.8,16.9,2.1,21.8,11.3
		c4.2,7.7,9.6,14.8,14.7,22.1c2.7,3.7,3,7.1,1,11.6c-5.8,12.2-10.4,24.9-16.8,36.8c-6.1,11.1-15.4,18.8-29.1,19.1
		c-9.2,0.1-18.3-0.3-27.5,0.1c-6.1,0.3-7.6-2.1-7.4-7.7c0.3-13.1,0.1-26.3,0.1-39.3c0-11.1-9.9-21.1-21.2-21.2
		C263.7,355.9,262.2,355.7,260,355.6z"/>
	<path class="st0" d="M240.2,354.3c-5.6,1.8-10.4,2.7-14.7,4.6c-9.5,4.6-13.2,12.2-12.3,23.3c1.2,13.5,0.3,27.2,0.3,41.6
		c-14.1,0-28.3,2.1-41.4-0.7c-9.2-1.9-18.6-8.5-22.7-19.3c-4.9-12.6-11-24.6-16-37.1c-1-2.7-0.7-6.8,0.7-9.2
		c6.2-10.1,12.8-19.9,19.7-29.4c1.8-2.5,5.8-4,9.1-4.6c4.6-0.7,9.3-0.1,14.1-0.1c12.6,0,18.1-6.2,19-18.7
		c0.9-10.7-2.5-17.2-12.3-22.1c-11-5.5-20.9-13.1-31.6-19.1c-3.7-2.1-8.2-3.3-12.5-3.4c-11.1-0.4-22.3-0.6-33.4,0
		c-3.1,0.1-6.7,2.4-8.9,4.6c-3.6,3.6-6.4,8.2-9.5,12.3c-3.3,4.6-3.3,9.1,1,13.2c5,4.7,9.8,9.8,15.3,14c5.8,4.6,8.5,9.8,8.5,17.5
		c0.1,7.9-4.6,12.5-9.8,14.1c-5.5,1.6-13.8,1.5-18-1.6c-15.4-12.2-29.8-25.7-44.4-39c-1.8-1.8-3.3-5-3.3-7.6
		c1-50.6,12.6-97.9,46-137.9c21.4-25.7,48.4-43.8,79.4-56.1c22.9-9.2,46.6-15.3,71.4-16.9c6.1-0.4,6.5,1.5,6.5,6.2
		c-0.1,19,0,38.1,0,57.1c0,69,0,138,0,206.9C240.2,349.5,240.2,352.5,240.2,354.3z"/>
</g>
</svg>
