<?xml version="1.0" encoding="utf-8"?>
<!-- Generator: Adobe Illustrator 21.0.0, SVG Export Plug-In . SVG Version: 6.00 Build 0)  -->
<!DOCTYPE svg PUBLIC "-//W3C//DTD SVG 1.1//EN" "http://www.w3.org/Graphics/SVG/1.1/DTD/svg11.dtd">
<svg version="1.1" id="Layer_1" xmlns="http://www.w3.org/2000/svg" xmlns:xlink="http://www.w3.org/1999/xlink" x="0px" y="0px"
	 viewBox="0 0 500 500" style="enable-background:new 0 0 500 500;" xml:space="preserve">
<style type="text/css">
	.st0{fill:#FFFFFF;}
</style>
<g>
	<path class="st0" d="M249.8,306.9c-57,0-114-0.1-171,0c-15.9,0-29.7-5.5-41.1-16.4c-9.8-9.5-15.5-21.2-17.3-35
		c-3.6-29.1,15.7-56.9,45-63.6c3.9-0.9,8-1.3,12.1-1.3c115.8-0.1,231.6-0.1,347.5,0.1c13,0,24.5,5.4,34.5,14
		c9.7,8.4,16.1,18.8,18.8,31.2c4,18.6-0.1,35.4-12.1,50.1c-8.8,10.8-20.3,17.3-33.9,20c-3.9,0.8-7.9,0.9-11.9,0.9
		C363.6,306.9,306.7,306.9,249.8,306.9L249.8,306.9z M379.1,288.6c-7.3-8-12-17-14.5-27.1c-76.4,0-152.7,0-228.7,0
		c-2,4.9-3.5,9.7-5.9,14.1c-2.3,4.5-5.5,8.6-8.4,13C207.3,288.6,292.9,288.6,379.1,288.6z M121.1,209c6.9,7.5,11.4,15.8,13.7,25.1
		c0.6,2.3,1.9,2.1,3.5,2.1c74.5,0,149,0,223.4,0.1c2.2,0,3.1-0.7,3.6-2.7c1.6-6.7,4.6-12.8,8.5-18.4c1.5-2.1,3-4,4.7-6.2
		C292.7,209,207.2,209,121.1,209z M78.3,283.8c18.7,0.5,35.5-14.9,35.5-35.2c0-19.8-15.6-34.7-34.4-35.2
		c-20.2-0.5-36.3,15.5-36.3,35.4C43,268.6,59.5,284.3,78.3,283.8z M421.5,283.8c18.9,0.5,35.4-15.1,35.4-35
		c0.1-19.9-15.8-35-34.2-35.5c-20.2-0.6-36.3,15-36.5,35.1C385.9,268.4,402.4,284.3,421.5,283.8z"/>
	<path class="st0" d="M294.4,114c5.9,6.1,11.6,12.1,17.4,18c0.6,0.6,1.8,0.9,2.8,0.9c21.6,0.1,43.2,0.3,64.8-0.1
		c10.6-0.2,19.8-4.6,28.1-11.1c2.7-2.1,5.3-4.4,8.4-6.3c-1.6,4.5-3,9.2-4.9,13.6c-3.4,7.5-7.7,14.6-14.9,19.2
		c-3.2,2.1-6.5,3.1-10.4,3.1c-78.1-0.1-156.2-0.1-234.3-0.1c-12.2,0-24.4-0.1-36.6,0.1c-7.4,0.1-12.7-3.5-17.3-8.6
		c-6.8-7.6-10.3-16.9-13.1-26.5c-0.1-0.3,0-0.7,0.1-0.8c4.8,3.5,9.5,7.3,14.5,10.5c7.4,4.7,15.6,6.9,24.4,6.9
		c20.3,0,40.6,0,60.9,0.1c2.1,0,3.6-0.5,5.1-2.1c5.2-5.6,10.6-11,16-16.4c1.3-1.3,1.5-2.1,0.3-3.7c-5.8-8.2-9.2-17.2-10.2-27.3
		c-2.8-28.8,17-54.1,43.8-59.9c30.5-6.5,60.1,12.5,66.7,43.2C309.7,84.2,305.4,100,294.4,114z M286,78.4
		c0.3-19.2-15.7-34.2-33.1-34.9c-20.8-0.9-36.8,15.7-36.8,34.7c0,19.6,15.4,35,34.7,35.1C270.7,113.4,286,97.6,286,78.4z
		 M214.2,120.5c-4.6,4.1-9.1,8-14,12.3c12.4,0,24.2,0,35.9,0C227.6,129.9,219.9,125.6,214.2,120.5z M266,132.7c11.2,0,22.1,0,33.1,0
		c0.1-0.2,0.3-0.4,0.4-0.6c-4-3.6-8-7.2-12.1-10.8c-2.8,1.8-6.2,4.4-9.8,6.3C273.9,129.6,270,131,266,132.7z"/>
	<path class="st0" d="M205.5,386c-5.9-6.1-11.6-12.1-17.4-18c-0.6-0.6-1.6-0.9-2.5-0.9c-21.8-0.1-43.6-0.3-65.4,0.1
		c-10.4,0.2-19.6,4.7-27.8,11c-2.7,2.1-5.3,4.4-8.5,6.3c1.8-4.7,3.4-9.6,5.4-14.2c2.9-6.5,6.6-12.6,12.5-17.1
		c4-3.1,8.4-4.6,13.6-4.6c76.1,0.1,152.1,0.1,228.2,0.1c13.5,0,27,0.2,40.5-0.1c7.5-0.2,13.1,2.9,17.8,8c7.3,7.9,11.1,17.7,14,28.4
		c-3.7-2.9-6.9-5.6-10.2-8.1c-9-6.6-19-9.9-30.2-9.9c-19.9,0.1-39.8,0.1-59.8,0c-2.1,0-3.6,0.5-5.1,2.1
		c-5.1,5.5-10.4,10.9-15.8,16.2c-1.5,1.5-1.5,2.4-0.2,4.1c5.7,8.2,9.1,17.1,9.9,27.1c1.5,17.3-3.9,32.1-15.9,44.4
		c-9,9.3-20.1,14.6-33.1,16.1c-17.8,2.1-33.1-3.3-45.9-15.5c-9.6-9.2-15-20.6-16.5-33.9C191.5,412.1,196,398.4,205.5,386z
		 M248.8,456.5c18.8,0.4,34.7-15.1,35-34.1c0.3-20.2-15.5-35.7-35-35.6c-19.6,0.1-34.1,15.3-34.8,33.9
		C213.1,440.6,230.1,457.1,248.8,456.5z M285.7,379.5c4.6-4.2,9.1-8.2,13.5-12.3c-12,0-23.7,0-35.4,0
		C272.4,370.1,280,374.4,285.7,379.5z M201,367.1c-0.2,0.2-0.4,0.5-0.6,0.7c4.1,3.6,8.2,7.2,11.8,10.4c6.8-3.6,14.1-7.5,21-11.2
		C222.9,367.1,211.9,367.1,201,367.1z"/>
	<path class="st0" d="M97.3,75.8c10.3,2.2,19.9,5,29.1,9.5c5.7,2.8,10.9,6.1,15,11.1c3.4,4,4.9,8.6,4.4,13.8c-0.4,4-4.9,7.9-9.5,8.2
		c-6.8,0.4-12.3-3.6-14.9-9.9c-2.5-6.2-6.9-11.7-11-17.2C106.5,86.1,101.9,81.2,97.3,75.8z"/>
	<path class="st0" d="M402.8,424.3c-15.4-3.8-30.1-7.5-41.8-18.1c-4.2-3.7-6.8-8.5-6.9-14.6c-0.1-5,3.6-9.4,9.4-10.1
		c7.3-0.7,11.8,3.1,14.9,9.7c2.9,6.1,7,11.8,11.1,17.4C393.4,414,398,418.7,402.8,424.3z"/>
	<path class="st0" d="M402.7,75.8c-3.9,4.5-7.5,8.4-10.8,12.5c-5.6,6.9-11.3,13.7-14.4,22.4c-3,8.4-15.6,10.6-21.2,3.9
		c-3.6-4.2-2.6-9.1-0.6-13.6c3.1-6.9,9.1-11,15.5-14.5c8.9-4.8,18.4-7.7,28.2-10.1C400.2,76.3,401.1,76.2,402.7,75.8z"/>
	<path class="st0" d="M97,424.3c3-3.4,5.6-6,7.9-8.8c4.9-6.1,9.7-12.4,14.2-18.8c1.5-2.1,2.2-4.6,3.2-7c3.4-8.5,15.4-11.1,21.3-4.4
		c3.7,4.1,2.7,9,0.8,13.6c-2.2,5.3-6.5,8.9-11.2,12C122.3,417.8,110.1,421.2,97,424.3z"/>
</g>
</svg>
