<?xml version="1.0" encoding="utf-8"?>
<!-- Generator: Adobe Illustrator 21.0.0, SVG Export Plug-In . SVG Version: 6.00 Build 0)  -->
<!DOCTYPE svg PUBLIC "-//W3C//DTD SVG 1.1//EN" "http://www.w3.org/Graphics/SVG/1.1/DTD/svg11.dtd">
<svg version="1.1" id="Layer_1" xmlns="http://www.w3.org/2000/svg" xmlns:xlink="http://www.w3.org/1999/xlink" x="0px" y="0px"
	 viewBox="0 0 500 500" style="enable-background:new 0 0 500 500;" xml:space="preserve">
<style type="text/css">
	.st0{fill:#FFFFFF;}
</style>
<g>
	<path class="st0" d="M179.4,240.2c11.8-13.1,27.7-19.4,43.4-27.4c-0.1,3.4-0.2,6.5-0.3,9.5c0,0.4-0.1,0.7-0.1,1.1
		c0.1,5.2,0.3,10.3,0.2,15.5c-0.1,4.9-0.5,9.7-0.7,14.6c0,0.2,0,0.4,0,0.5c0.1,6.2,0.4,12.3,0.4,18.5c0,7.2,0,14.4-0.2,21.6
		c-0.1,5.8-0.4,11.7-0.5,17.5c-0.1,5,0.2,9.9,0.1,14.9c-0.1,6.4-0.3,12.8-0.4,19.2c-0.2,7.8-0.7,15.6-0.5,23.4
		c0.1,2.9,1.4,6,2.8,8.8c3,6,5.2,12,5.1,18.8c-0.2,7.7-0.1,15.5-0.1,23.2c-0.1,7.3-0.1,14.6-0.2,21.8c-0.1,7-0.2,14-0.3,21.1
		c-0.1,6.9-0.1,13.9-0.2,20.8c0,1.5-0.3,3-0.5,5.2c-2.5-2.7-4.5-4.9-6.8-7.5c0.2-5.1,0.4-10.6,0.7-16.1c0-0.4,0.1-0.7,0.1-1.1
		c-0.1-5.9-0.5-11.8-0.4-17.7c0-4.4,0.7-8.8,0.8-13.2c0.1-6.4-0.8-12.5-5.5-17.7c-6-6.6-11.6-13.4-17.3-20.2
		c-1.4-1.6-2.8-3.2-4.1-4.9c-3.4-4.6-3.2-9.8-2.8-15.1c0.1-1.1-0.7-2.2-0.7-3.3c0.1-4.6,0.6-9.2,0.7-13.8c0.1-5-0.3-10-0.1-15
		c0.2-6.2-0.9-12.5,1.3-18.6c0.2-0.5,0.3-1.2,0-1.6c-2.7-4.7-0.6-9.8-1-14.7c-0.6-7.1,0-14.4,0.1-21.6c0-3.6,0.1-7.3,0.1-10.9
		c0-4.4,0-8.7-0.2-13.1c-0.4-8.4-4.1-15.1-10.6-20.4c-0.6-0.5-1.2-1.1-1.8-1.6C179.7,240.7,179.6,240.5,179.4,240.2z"/>
	<path class="st0" d="M329.3,243.6c-2.4,2.5-4.6,4.9-6.9,7.2c-3.8,3.9-5.7,8.5-5.8,13.9c-0.2,5.9-0.4,11.8-0.5,17.7
		c-0.1,4.9,0.1,9.8,0.1,14.7c0,4.2,0.1,8.4,0.1,12.5c0,4.5-0.2,9.1-0.2,14.2c-0.2,0.3-0.7,1.1-1.4,2.1c0.6,2.9,1.6,5.9,1.7,8.9
		c0.4,10.2,0.5,20.3,0.5,30.5c0,5.5-0.2,10.9-0.6,16.4c-0.5,7.3-3.4,13.2-9.3,17.9c-4,3.2-7.2,7.4-10.5,11.3
		c-2.8,3.3-5.6,6.7-7.9,10.3c-1.2,1.8-1.9,4.2-2,6.4c-0.2,5.5,0.1,11.1,0.2,16.6c0.1,7.9,0.1,15.8,0,23.7c0,4.6-0.2,9.3-0.2,13.9
		c-1.8,2.2-3.6,4.6-5.5,7c-0.3,0-0.5-0.1-0.8-0.1c0-4.7-0.1-9.3-0.1-14c0-0.3,0.2-0.7,0.2-1.1c-0.1-5.3-0.2-10.5-0.3-15.8
		c-0.1-6-0.3-12-0.5-17.9c-0.1-3.9,0-7.8,0-11.7c0-8.6,0-17.2-0.1-25.8c0-3.7-0.4-7.5,0.2-11.2c0.5-3.1,2-6.2,3.5-9.1
		c3.9-7.1,4.6-14.4,4-22.4c-0.7-9.1-0.3-18.3-0.4-27.5c0-3.8,0.1-7.6,0.1-11.5c0-5.1-0.2-10.2-0.2-15.2c0-7.9,0-15.8,0-23.8
		c0-9-0.1-17.9-0.2-26.9c0-4.7-0.1-9.5-0.2-14.2c0-4.5-0.2-8.9-0.1-13.4c0-3.8,0.3-7.6,0.4-12.4c2.1,1,4,1.8,5.9,2.8
		c4.1,2.2,8.2,4.3,12.1,6.6c3.4,2,6.7,4.2,9.8,6.5c2.9,2.1,5.7,4.5,8.4,6.9C325,239.7,327,241.6,329.3,243.6z"/>
	<path class="st0" d="M227.8,131.2c0.5,5.9,1.1,11.6,1.4,17.2c0.3,6.1-2.7,11.4-4.8,16.9c-0.8,2.1-1.1,4.4-1.2,6.7
		c-0.3,6.3-0.3,12.6-0.4,19c0,0.3,0,0.5,0,0.8c0.1,5,0.1,10,0.2,15.6c-9,4.7-18.1,9.5-27.3,14.2c-0.4-0.3-0.8-0.5-1.1-0.8
		c0-3.7-0.1-7.4-0.1-11c0-0.4,0.3-0.9,0.3-1.3c-0.1-5.1-0.3-10.2-0.2-15.2c0.1-4.7,0.5-9.3,0.8-14c0.2-3,0.2-6,0.3-9
		c0.1-3.3,0.2-6.6,0.1-9.9c-0.1-1.6-0.7-3.3-1-4.9c-0.1-0.4-0.3-0.9-0.3-1.3c-0.2-2.2-0.2-4.4-0.7-6.6c-0.8-3.5-1.8-6.9-2.7-10.3
		c-4.2-4.8-8.3-9.4-12.6-14.2c3.9-7.4,7.7-14.6,11.3-21.6c3.6-0.6,5.7,0.2,7.9,2.8c3.2,3.7,7.4,6.6,11.1,9.9
		C215.1,119.8,221.4,125.5,227.8,131.2z"/>
	<path class="st0" d="M244.8,13.9c3-3.8,6.5-0.6,9.9-1.6c0.1,3.3,0.3,6.3,0.3,9.3c0,5.2-0.2,10.3-0.3,15.5
		c-0.1,7.6-0.2,15.2-0.3,22.7c0,4.6,0.1,9.3,0,13.9c0,7.6-0.1,15.2-0.2,22.7c0,4.7,0,9.3,0,14c0,12-0.1,24.1-0.2,36.1
		c0,5,0.1,10,0.1,15c0,7.3-0.2,14.6-0.3,21.9c0,4.8,0.1,9.6,0.1,14.4c0,7.6-0.2,15.1-0.2,22.7c0,4.8,0.1,9.6,0.1,14.4
		c0,7.7-0.1,15.3-0.2,23c0,4.7,0.1,9.5,0,14.2c0,7.3-0.1,14.6-0.1,22c0,4.9,0,9.8,0,14.8c0,8.5,0,17.1,0,25.6
		c-0.3,0.1-0.6,0.2-0.8,0.3c-1.4-2.5-2.8-4.9-4.1-7.4c-2-3.9-4-7.7-5.7-11.8c-0.7-1.6-0.4-3.6-0.4-5.5c0-5.5,0.8-11.1,0-16.5
		c-1-6.6-0.3-13,0.5-19.6c0.3-2.9-0.5-5.9-0.4-8.8c0-4.3,0.3-8.6,0.6-12.9c0-0.4,0.1-0.9,0.1-1.3c-0.2-6-0.4-12-0.5-17.9
		c-0.1-7.9,0-15.8,0.1-23.7c0-7.3,0.1-14.6,0.1-21.9c0-7.8,0.1-15.7,0.1-23.5c0.1-7,0.2-14.1,0.2-21.1c0-8.1,0-16.2,0.1-24.3
		c0-7,0.2-14,0.3-21c0.1-7.8,0-15.7,0.1-23.5c0-7.5,0.1-14.9,0.2-22.4c0.1-6.8,0.2-13.5,0.4-20.3C244.4,25.6,244.6,19.8,244.8,13.9z
		"/>
	<path class="st0" d="M313.7,224.5c-11-4.3-17.7-9.6-27.6-16.1c-0.1-1.7-0.1-3.2,0.2-4c-0.1-4.8-0.4-10-0.4-15.2
		c0-5.9,0.6-11.9,0.3-17.8c-0.2-3.2-1.7-6.5-3.1-9.5c-1.8-3.8-3.1-7.5-1.9-11.8c0.3-0.9,0-2,0-2.9c0-3.9-0.7-8,0.3-11.7
		c0.9-2.9,3.6-5.5,6-7.7c5.1-4.4,10.5-8.4,15.8-12.6c3.9-3.1,7.8-6.4,11.8-9.5c0.9-0.7,2.2-0.9,4-1.5c1.6,2.7,3.3,5.1,4.6,7.7
		c2,4.1,3.7,8.4,5.8,12.5c1.3,2.5,1.1,4.4-0.8,6.3c-2.5,2.5-5.2,5-7.4,7.7c-3.7,4.6-5.9,9.8-6.1,15.9c-0.1,4.1-1,8.1-1.5,12.2
		c-0.1,0.7-0.2,2-0.2,2.7c0.1,9.3,0.2,18.6,0.3,27.9c0,1.6,0.4,3.2,0.4,4.9c0,7-0.1,14-0.2,21C314.1,223.5,313.9,223.9,313.7,224.5z
		"/>
	<path class="st0" d="M257,12.5c2.7,0.1,4.9,0.2,7.5,0.2c2.5,3,1.9,6.8,1.7,10.5c0,0.6-0.4,1.2-0.4,1.8c0.1,6.2,0.4,12.3,0.5,18.5
		c0.1,8.5,0,16.9,0,25.4c0,7.4-0.2,14.8-0.1,22.2c0,8.9,0.1,17.8,0.1,26.7c0,7.7-0.1,15.3-0.1,23c0,8.4,0.1,16.7,0.1,25.1
		c0,7.8,0,15.7,0,23.5c0,8.4,0,16.7,0,25.1c0,7.7-0.1,15.5-0.1,23.2c0,7.9,0,15.8,0,23.7c0,4,0,8,0,12c-0.1,7.2-0.2,14.4-0.2,21.6
		c0,4.7,0.2,9.4,0,14.2c-0.2,5.8-2.8,10.9-4.9,16.1c-1.2,3-2.7,6-4.1,8.9c-0.2,0.4-0.6,0.6-1.4,1.4c-0.1-4.7-0.2-8.7-0.1-12.8
		c0-5,0.2-10,0.2-15c0.1-7.7,0.2-15.5,0.2-23.2c0-5-0.2-10-0.1-15c0.1-7.1,0.2-14.2,0.3-21.3c0-4.6-0.1-9.3,0-13.9
		c0-7.7,0.2-15.5,0.2-23.2c0-5.1-0.2-10.2-0.1-15.3c0.1-7,0.3-14,0.3-21.1c0-4.7-0.1-9.4-0.1-14.2c0-7.6,0.2-15.1,0.2-22.7
		c0-4.6-0.1-9.3,0-13.9c0.1-7.5,0.2-14.9,0.2-22.4c0-4.6-0.1-9.3,0-13.9c0-7.7,0.2-15.5,0.2-23.2c0-4.8-0.1-9.6-0.1-14.4
		c0.1-7.3,0.2-14.6,0.3-21.9C257.2,23,257.1,17.7,257,12.5z"/>
	<path class="st0" d="M114.6,207c4-4.5,7.8-9,12-13.3c4.3-4.4,8.8-8.5,13.3-12.6c2.6-2.4,5.3-4.7,7.9-7.2c0.9-0.9,1.7-2.2,1.9-3.4
		c0.4-2.2,0.5-4.4,0.6-6.6c0.1-4.8-0.2-9.7,0-14.5c0.2-8.3,0.6-16.7,0.9-26.2c2.8,1.5,5.1,2.4,6.8,4c1,0.9,0.8,3,1.1,4.5
		c0.1,0.4-0.2,0.9-0.2,1.3c0,4.5,0.1,9.1,0,13.6c-0.1,6.8,0,13.5-0.4,20.3c-0.4,5.9-1.7,11.8-2.3,17.8c-0.4,4.2,0.6,8.2,3.7,11.3
		c3.2,3.2,6.6,6.3,9.9,9.4c4.8,4.4,9.7,8.7,14.5,13.2c2,1.9,3.7,4,5.8,6.2c-5.1,4-9.2,9.4-15.5,11.6c-7.2-6-14-11.6-20.6-17.5
		c-4.3-3.8-8.3-8.1-12.4-12.2c-2.7-2.7-10.3-3.6-14.2-2.2c-4,1.4-8.3,2.2-12.4,3.2C114.8,207.5,114.7,207.3,114.6,207z"/>
	<path class="st0" d="M357.6,129.4c-0.1,4.3-0.2,8.5-0.2,12.7c0,0.4,0,0.7,0,1.1c0.4,9.2,0.9,18.4,1.3,27.7c0.1,1.7-0.1,3.3-0.2,5.4
		c11.3,12.8,23.1,25.9,34.9,39.3c-0.7,0.1-1.6,0.2-2.6,0.4c0.1-0.3,0.1-0.6,0.2-0.9c-4.6-1.4-9.3-2.6-13.8-4.1
		c-7-2.3-10.7,2.8-15.1,6.5c-5.9,4.9-11.8,9.8-17.7,14.7c-3,2.5-5.9,5.1-8.8,7.7c-1,0.1-1.9,0.2-3.3,0.3c-4.1-3.7-8.4-7.7-13.1-11.9
		c2.6-2.5,4.7-4.7,7-6.7c2.8-2.5,5.8-4.7,8.6-7.2c4.8-4.3,9.5-8.6,14.1-13c2.4-2.3,4.3-5,3.8-8.6c-0.6-3.8-1.6-7.6-1.9-11.5
		c-0.4-6.5-0.2-13-0.3-19.5c0-1.7,0.2-3.4,0.1-5.1c-0.2-6.7-0.5-13.5-0.6-20.2C349.7,133.9,354.4,129.4,357.6,129.4z"/>
	<path class="st0" d="M373.7,42.1c2.2-0.6,4.7-1.3,7.5-2.1c0.2,2.5,0.5,4.3,0.5,6.1c0.1,3.6-0.4,7.2,0.1,10.7
		c0.9,7-3.3,11.5-7.7,15.6c-3.9,3.6-8.1,6.9-12.2,10.3c-4.1,3.4-8.2,6.8-12.1,10.3c-1.6,1.4-2.9,3.2-4.3,4.8
		c-0.3,5.8-0.7,11.6-1.1,18c-1,1-2.6,2.5-4.4,4.3c-0.5,0-1.3,0.1-2.6,0.2c-3.4-7.6-6.9-15.3-10.7-23.5c6.3-5,12.2-9.9,18.2-14.5
		c5.8-4.5,11.7-8.7,17.4-13.2c3.2-2.5,6.9-4.7,8.5-8.9c0.6-1.6,1.4-3.3,1.6-4.9C372.9,51.1,373.2,46.9,373.7,42.1z"/>
	<path class="st0" d="M181.8,91.7c0.6,4.2-9.3,23-12.4,23.3c-0.2-0.1-0.3-0.2-0.5-0.3c-5.3-3.4-4.2-8.8-4.5-13.8
		c-0.2-3.7-0.6-7.4-0.9-10.9c-11.7-11-23.2-21.9-34.6-32.7c-0.3-8.7-0.6-16.8-1-25.1c1.4-0.2,2.4-0.3,3.2-0.4
		c2.9,1.4,4.3,3.3,4.5,6.5c0.3,4.2,0.9,8.5,2.1,12.6c0.8,2.8,2.4,5.2,5.3,6.9c3.5,2.1,6.1,5.4,9.2,8.1c1.2,1,2.7,1.7,3.9,2.7
		c6.2,5.2,12.5,10.4,18.6,15.7C177.2,86.6,179.3,89.2,181.8,91.7z"/>
</g>
</svg>
