<?xml version="1.0" encoding="utf-8"?>
<!-- Generator: Adobe Illustrator 21.0.0, SVG Export Plug-In . SVG Version: 6.00 Build 0)  -->
<!DOCTYPE svg PUBLIC "-//W3C//DTD SVG 1.1//EN" "http://www.w3.org/Graphics/SVG/1.1/DTD/svg11.dtd">
<svg version="1.1" id="Layer_1" xmlns="http://www.w3.org/2000/svg" xmlns:xlink="http://www.w3.org/1999/xlink" x="0px" y="0px"
	 viewBox="0 0 500 500" style="enable-background:new 0 0 500 500;" xml:space="preserve">
<style type="text/css">
	.st0{fill:#FFFFFF;}
</style>
<g>
	<path class="st0" d="M255.5,362.9c0-32.5-0.3-61.3,0.3-90.1c0-4.8,3.4-10.4,6.7-14c21.3-22.1,42.8-43.9,63-64.4
		c-20.2-21-40.9-42.5-61.3-64.7c-3.9-4.2-8.1-9.8-8.4-14.8c-0.6-29.7-0.3-59.6-0.3-93.8C314,80.5,369.7,137.3,426.5,195
		C370.5,250.1,314.2,305.3,255.5,362.9z"/>
	<path class="st0" d="M255.5,478.8c0-29.4-0.3-57.7,0.3-86.2c0-4.2,2-9.2,4.8-12c53.5-53.7,107.2-107.5,161-161
		c1.4-1.4,3.6-2.2,4.5-3.1c0,29.1,0.3,57.7-0.3,86.2c0,5-1.7,11.2-5,14.6c-53.5,53.7-107.2,106.9-161,160.4
		C259.4,478.5,258.3,478.3,255.5,478.8z"/>
	<path class="st0" d="M247.1,27.9c0,26.3,0.3,56-0.3,85.7c0,3.6-2.2,8.1-4.8,10.6c-21.3,21.6-42.5,43.1-64.4,64.4
		c-2.8,2.8-7.8,5-12,5c-29.4,0.6-58.8,0.3-84,0.3C135.9,139.6,191.9,83.3,247.1,27.9z"/>
	<path class="st0" d="M73.5,395.1c0-31.9,0-61.3,0-90.7c0-2.8,1.1-6.7,3.1-8.7c31.1-31.1,62.1-62.1,97.1-92.4c0,7.8,0.3,16,0,23.8
		c-0.6,21.3-1.1,42.8-2.5,64.1c-0.3,4.5-2.5,10.1-5.6,13.2c-28.3,28.8-57.1,57.4-85.7,85.9C78.8,391.5,77.2,392.3,73.5,395.1z"/>
</g>
</svg>
