<?xml version="1.0" encoding="utf-8"?>
<!-- Generator: Adobe Illustrator 21.0.0, SVG Export Plug-In . SVG Version: 6.00 Build 0)  -->
<!DOCTYPE svg PUBLIC "-//W3C//DTD SVG 1.1//EN" "http://www.w3.org/Graphics/SVG/1.1/DTD/svg11.dtd">
<svg version="1.1" id="Layer_1" xmlns="http://www.w3.org/2000/svg" xmlns:xlink="http://www.w3.org/1999/xlink" x="0px" y="0px"
	 viewBox="0 0 500 500" style="enable-background:new 0 0 500 500;" xml:space="preserve">
<style type="text/css">
	.st0{fill:#FFFFFF;}
</style>
<g>
	<path class="st0" d="M399.4,101.1c-2.7,5-10.7,13.9-14.8,16.8c-10.3,0.4-20.4,0.8-30.2,1.2c-2.6,2.7-4.9,5.1-7.1,7.5
		c-5.7,6.3-11.2,12.7-16.9,18.8c-4.3,4.6-8.9,8.8-13.3,13.4c-5.3,5.6-10.4,11.3-15.6,16.9c-5.7,6.2-11,12.8-17.1,18.5
		c-4.5,4.3-6.1,9.2-6.1,15.1c0,8.3,0,16.7,0,25c-2.9,3.5-5.7,7-8.6,10.3c-1.1,1.3-2.8,2.2-4,3.5c-4.1,4.3-8.1,8.8-12.2,13.2
		c-1.3,1.4-2.7,2.5-5.6,1.5c-8.3-8.9-17.1-18.4-26-28c0-5.9,0-11.8,0-17.6c0-2.8,0-5.7,0-8.5c-0.1-5.5-1.7-10-5.8-14.2
		c-8.3-8.4-16.1-17.5-24.1-26.2c-3.5-3.8-7.3-7.4-10.9-11.2c-4.3-4.6-8.4-9.3-12.6-13.9c-0.4-0.5-0.9-1-1.4-1.4
		c-6.1-6.4-12.1-12.8-18.2-19.2c-0.9-1-1.7-2-2.8-3.4c-9.9-0.4-20-0.9-30.9-1.3c-5.1-4.2-9.8-9.7-14.5-15.8c0.4-0.8,0.7-2,1.4-2.8
		c6.1-6.3,12.6-12.3,19.4-17.8c10.9-8.9,23-16,35-23.3c5.2-3.1,11-5.1,16.6-7.5c6.5-2.8,13.3-4.7,20.1-6.4
		c6.2-1.5,12.6-2.4,18.8-3.5c15.7-2.8,31.7-3.3,47.6-2.6c6.7,0.3,13.5,0.6,20.3,1.4c12.5,1.4,24.7,3.9,36.6,7.4
		c7.2,2.1,14.2,5.1,21,8.3c8.1,3.9,15.6,8.6,23,13.4c6,3.8,11.5,8.2,17.3,12.3c7,4.9,13,10.9,18.9,16.9
		C397.8,99,398.6,100.1,399.4,101.1z"/>
	<path class="st0" d="M61.3,154.9c1.8-3,4.4-7.4,7.2-12.1c0.7,0.1,1.6-0.1,1.9,0.3c6.2,6.9,12.3,13.9,18.4,20.8
		c2.9,3.2,5.7,6.4,8.6,9.7c4.7,5.3,9.4,10.7,14.2,15.9c3.5,3.7,7.5,6.9,10.3,11.4c0.9,1.4,2.9,2.1,4.1,3.5c4,4.4,7.7,9,11.6,13.5
		c2.4,2.7,5,5.3,7.4,8c4,4.4,7.9,8.9,11.8,13.3c1,1.1,2.1,2.1,3.1,3.2c7.7,8.4,15.4,16.8,23.2,25.1c1.7,1.8,3.6,3.4,5.2,5.2
		c4.2,4.5,8.3,9,12.5,13.6c5.7,6.3,11.3,12.6,16.9,18.9c1.4,1.6,3,3.1,4.5,4.6c18.4,0,36.5,0,55.3,0c1.7-1.9,3.6-4.1,5.5-6.3
		c0.3-0.4,0.6-0.8,0.9-1.2c3.9-4.3,7.8-8.6,11.8-12.8c5-5.4,10-10.7,15-16c2.9-3.1,5.7-6.4,8.5-9.5c4.7-5.1,9.4-10.2,14.2-15.2
		c5.8-6.2,11.7-12.2,17.4-18.5c6.7-7.4,13.2-15.1,19.9-22.6c1.9-2.1,4.1-3.9,6.1-5.8c0.4-0.3,0.9-0.5,1.2-0.9
		c5.1-8,13-13.5,18.6-21.2c3.1-4.3,7.1-7.9,10.6-11.8c5.2-5.8,10.3-11.6,15.5-17.4c2.2-2.5,4.5-4.9,6.7-7.3c0.3-0.3,0.9-0.1,1.8-0.2
		c2.7,4.5,5.5,9.1,8.2,13.7c6.1,14,12.3,28,16.3,42.9c-3.6,6-8.7,10.9-13.4,16.1c-6.3,6.9-12.3,14.1-18.5,21.1c-1.4,1.6-3,3-4.4,4.5
		c-4,4.4-8.1,8.8-12.1,13.2c-2.9,3.3-5.7,6.7-9,10.5c-11.1,2.2-22.9,1.2-35.4,2.8c-1.9,2.2-4.3,5.1-6.9,7.9
		c-6.4,6.9-13,13.7-19.4,20.6c-2.4,2.5-4.3,5.4-6.6,8c-2.4,2.7-4.9,5.2-7.4,7.9c-9.3,9.9-18.6,19.9-27.8,29.8
		c-4.5,4.8-9.1,9.5-13.4,14.5c-1.2,1.4-2.2,3.5-2.2,5.3c-0.1,4.1,0.4,8.1,0.6,12.2c0.1,0.8,0.2,1.7,0.2,2.5c0,6.3,0,12.7,0,19.1
		c-4.8,5.3-9.7,10.4-13.3,15.3c-5.4,5.9-10.2,11.1-14.9,16.1c-2.2,0.8-3.8,0.3-5.2-1.3c-2.7-3.1-5.4-6.2-8.3-9.3
		c-1.5-1.6-3.2-2.9-4.6-4.3c-3.8-6.1-9-11-14.3-17c0.3-7,0.6-14.6,0.9-22.3c0.1-3.4,0.2-6.9,0.4-10.3c0.1-2.7-0.9-4.7-2.7-6.7
		c-9.9-10.5-19.7-20.9-29.5-31.5c-4.7-5.1-9.1-10.5-13.8-15.6c-2.3-2.6-4.9-4.8-7.2-7.4c-8.5-9.1-16.9-18.2-25.3-27.3
		c-2-2.2-3.8-4.6-5.7-6.9c-1.9,0-3.5,0.1-5.2,0c-7.9-0.3-15.9-0.6-23.8-1.1c-2.1-0.1-4.2-0.9-5.9-1.2c-5.3-5.7-10.6-10.9-15.3-16.7
		c-5.5-6.7-12.3-12.3-17.1-19.7c-1-1.5-2.4-2.6-3.7-3.9c-4.1-4.5-8.3-8.9-12.4-13.4c-3.4-3.8-6.6-7.8-9.5-11.3
		C48,184.4,54.3,170.4,61.3,154.9z"/>
	<path class="st0" d="M38.1,274.5c2.9,2.4,5.5,4.1,7.5,6.4c7.9,8.9,15.5,18,23.3,27c2.9,3.4,6,6.7,8.9,10c6.6,7.6,13.9,14.6,20,22.7
		c3.5,4.6,7.9,8.7,11.7,13.1c6.5,7.4,13,15,19.5,22.5c4.3,5,8.2,10.5,13.1,14.8c8.3,7.2,14.6,16,21.9,24.1c2.1,2.3,4.5,4.4,6.6,6.7
		c3.4,3.8,6.6,7.9,10,11.7c3.5,4,7.1,7.9,10.6,11.8c3.8,4.3,7.5,8.7,11.3,13.1c0.7,0.8,1.2,1.8,1.9,2.9c-2.7,1.4-4.9-0.1-6.9-0.7
		c-14.6-4.4-28.8-9.6-42.3-16.9c-11.8-6.4-22.8-13.9-33.3-22.3c-6-4.8-12.1-9.7-17.4-15.3c-8.5-8.8-16.6-17.9-24-27.6
		c-8.4-11-15.2-22.8-22-34.7c-3.3-5.8-5.3-12.3-8-18.5c-3.5-8.2-5.9-16.7-8.1-25.3c-1.7-6.7-3.5-13.4-3.7-20.4
		C38.8,278.2,38.4,276.8,38.1,274.5z"/>
	<path class="st0" d="M295.6,461.7c0.8-1.3,1.3-2.3,2-3.1c6.7-7.7,13.5-15.4,20.2-23.1c4.8-5.5,9.6-11,14.4-16.4
		c5.1-5.8,10.2-11.6,15.4-17.3c7.4-8.2,15-16.2,22.3-24.4c6-6.8,11.7-13.9,17.8-20.6c2.7-3,5.4-6.1,8.5-8.9c2.2-2,4.1-4.7,6-7.1
		c3.8-4.8,7.8-9.4,12.1-13.8c4-4.2,7.5-8.8,11.3-13.2c5.4-6.2,11-12.3,16.4-18.5c4-4.6,7.9-9.3,12.1-13.8c2.2-2.3,4.8-4.3,7.6-6.8
		c-0.2,3.1-0.3,5.6-0.6,8.1c-0.5,3.1-1.1,6.1-1.8,9.1c-1.3,5.6-2.5,11.2-4.1,16.7c-2.7,9.4-5.9,18.7-10.3,27.6
		c-2.5,5.2-5.2,10.3-7.8,15.4c-5.5,10.4-12.2,20-19.3,29.4c-5.7,7.5-12.1,14.4-18.5,21.3c-10.4,11.1-22.4,20.3-34.6,29.2
		c-11.3,8.3-23.7,14.7-36.3,20.3c-9.7,4.4-20.3,6.9-30.5,10.2C297.4,462.2,296.8,461.8,295.6,461.7z"/>
</g>
</svg>
