<?xml version="1.0" encoding="utf-8"?>
<!-- Generator: Adobe Illustrator 21.0.0, SVG Export Plug-In . SVG Version: 6.00 Build 0)  -->
<!DOCTYPE svg PUBLIC "-//W3C//DTD SVG 1.1//EN" "http://www.w3.org/Graphics/SVG/1.1/DTD/svg11.dtd">
<svg version="1.1" id="Layer_1" xmlns="http://www.w3.org/2000/svg" xmlns:xlink="http://www.w3.org/1999/xlink" x="0px" y="0px"
	 viewBox="0 0 500 500" style="enable-background:new 0 0 500 500;" xml:space="preserve">
<style type="text/css">
	.st0{fill:#FFFFFF;}
</style>
<g>
	<path class="st0" d="M65.3,107.2c2.9,0.7,5.9,1.1,8.7,2.1c5.6,2.1,10.5,5.4,14.8,9.5c3.4,3.2,7.4,5.2,12.2,5.9
		c2.1,0.3,4.2,1.2,6.1,2.1c6.3,3,12.6,6,18.8,9.3c3.3,1.8,6.1,4.2,9.2,6.3c1.7,1.1,3.3,2.2,5.1,3.2c6.7,3.5,13.6,6.8,20.2,10.4
		c6.1,3.3,12.7,5.2,19.5,6.5c8,1.6,14.6,5.8,19.6,12.4c7.1,9.2,14.6,18.3,21.8,27.4c6,7.6,6.1,15.9,3.1,24.8
		c-1.2,3.6-1.8,7.4-1.9,11.2c-0.3,10.4,0,20.8-0.2,31.2c-0.1,6.7,1,13.3,3.2,19.6c1.7,4.9,2.1,9.7,1.8,14.8
		c-0.8,12.4,2.8,23.5,9.6,33.6c5.9,8.7,8.7,18.2,8.7,28.7c0,39.2,0,78.5-0.1,117.8c0,1.7-0.4,3.3-0.6,4.9c-0.3,0-0.6,0-0.9-0.1
		c-1.1-4.7-2-9.4-3.2-14.2c-7.1-29.9-19-57.7-37.6-82.5c-9.4-12.7-20.2-24-31.8-34.8c-9.9-9.3-19.8-18.7-26.7-30.7
		c-2.9-5-4-10.2-4.6-15.9c-1-9.5-2.3-19-4-28.4c-4.6-25.1-11.5-49.6-20.4-73.6c-13.1-35-29.4-68.3-50.1-99.4c-0.3-0.5-0.6-1-0.9-1.5
		C65.1,107.7,65.2,107.4,65.3,107.2z M186.2,193.6c-5.8-6.6-12.1-12.1-20.5-15.2c-5-1.9-9.7-4.6-14.3-7.5
		c-5.6-3.5-10.8-7.6-16.3-11.1c-3.8-2.4-7.9-3.5-12.7-2.5c-5.1,1.1-6.1,3.1-3,7.2c1.5,1.9,3.3,3.6,4.6,5.6
		c6.1,8.9,12.3,17.8,18.2,26.9c19.3,29.9,36.9,60.7,51,93.5c1,2.2,1.9,4.4,3.1,7.3c0.5-3,0.8-5.2,1.1-7.4c1-7.3,2.1-14.5,2.8-21.8
		c0.7-5.9,1.6-12-0.7-17.8c-2.2-5.7-3.2-11.5-2.8-17.6c0.2-2.2-0.2-4.5-0.5-6.7c-0.4-3.3-1.2-4.1-4.5-4.3c-4.1-0.3-7.3-2-9.9-5
		c-4.7-5.4-9.3-10.8-14.3-15.8c-4.2-4.3-8.9-8.1-13.3-12.2C165.2,186.9,175.4,192.3,186.2,193.6z"/>
	<path class="st0" d="M435,107.5c-3.9,6.2-7.8,12.1-11.4,18c-25.5,43-44.8,88.5-56.1,137.2c-3.2,13.5-5,27.3-7.2,41
		c-0.8,4.6-0.4,9.5-1.9,13.8c-1.8,5.3-4.5,10.4-7.6,15.1c-6.1,9.2-14.2,16.9-22.4,24.3c-35,31.5-58.4,69.8-69.2,115.7
		c-1.3,5.3-2.4,10.7-3.8,16.6c-0.6-1.2-1.1-1.9-1.2-2.7c-0.2-1.3-0.2-2.5-0.2-3.8c0-38.6,0.1-77.2-0.1-115.8
		c0-11.3,2.8-21.5,9.4-30.7c5.1-7.1,7.7-15.4,8.7-24.1c0.4-2.8,0.4-5.7,0.1-8.4c-0.7-6.8,1.5-13,3-19.3c1.1-4.7,1.7-9.5,1.9-14.3
		c0.3-10.6,0.3-21.1,0-31.7c-0.1-3.9-0.7-8-2-11.7c-3.4-9.6-2.2-18.2,4.3-26.2c7.8-9.5,15.4-19.3,23.4-28.8c5-6,12.1-8.4,19.6-10
		c4.8-1.1,9.6-2.5,14.1-4.6c7.8-3.6,15.5-7.7,23.1-11.9c2.3-1.3,4.3-3.2,6.4-4.6c2.2-1.5,4.4-3,6.8-4.2c6.6-3.4,13.2-6.6,19.9-9.7
		c2.2-1,4.7-1.4,7.1-2.1c4.1-1.2,8-2.9,11.1-5.9c5.6-5.4,12-9.2,19.6-10.9C432,107.6,433.4,107.7,435,107.5z M303.3,297.2
		c0.2,0,0.3,0,0.5,0c1.5-3.4,2.9-6.9,4.4-10.3c14.1-32,31.3-62.2,50.3-91.3c6.8-10.5,14.4-20.5,21.6-30.7c0.7-1,1.3-2,1.7-3
		c0.8-1.8,0.2-3.4-1.6-3.8c-3.1-0.6-6.3-1.2-9.3-0.7c-5.5,0.9-10,4.3-14.5,7.6c-6.9,5.1-13.5,10.7-21.9,13.4
		c-5.4,1.7-10.2,4.5-14.4,8.4c-2.3,2.2-4.6,4.4-6.8,6.6c11.1-1.1,21.3-6.4,33-4.1c-1.5,1-2.7,1.8-3.8,2.6
		c-8.3,6.2-14.9,14.2-21.6,22c-3.9,4.5-7.8,8.7-14.5,8.5c-0.8-0.1-2.3,1.4-2.4,2.3c-0.6,4.1-0.7,8.3-1.1,12.5
		c-0.4,3.2-0.9,6.4-1.5,9.5c-0.8,4.5-2.3,8.9-2.4,13.4c-0.2,5.3,0.8,10.7,1.4,15.9C301.3,283,302.4,290.1,303.3,297.2z"/>
	<path class="st0" d="M232.5,165c-0.1,5.4-6.5,12.5-11.6,12.2c-2.1-0.2-4.6-1.9-5.8-3.7c-2.5-3.5-4.5-7.4-6.1-11.4
		c-3-7.4-6.3-14.6-10.8-21.3c-0.3-0.4-0.5-0.7-0.6-1.1c-0.3-0.9-0.4-1.7-0.6-2.6c0.9,0.1,2-0.2,2.8,0.3
		c10.6,5.1,20.3,11.4,28.7,19.7C230.8,159.4,232.3,162,232.5,165z"/>
	<path class="st0" d="M279.4,177.5c-5.3-1.1-8.8-3.9-11.1-8.2c-2.2-4.2-0.9-8.1,2.1-11.2c8.6-9,18.9-15.7,30.2-20.9
		c0.6-0.3,1.4-0.1,2.1-0.1c-0.2,0.9-0.2,1.8-0.6,2.6c-3,5.6-6.3,11.2-9.1,16.9c-2,4-3.4,8.3-5.3,12.3c-1.1,2.3-2.8,4.4-4.5,6.2
		C282.2,176.3,280.4,176.9,279.4,177.5z"/>
	<path class="st0" d="M240.1,23.9c0,7.4-5.9,13.4-13.3,13.4c-7.4,0-13.4-5.9-13.4-13.3c0-7.4,5.9-13.3,13.3-13.3
		C234.3,10.6,240.1,16.4,240.1,23.9z"/>
	<path class="st0" d="M273.1,10.6c7.4,0,13.3,5.9,13.3,13.3c0,7.4-6,13.3-13.4,13.3s-13.3-5.9-13.2-13.4
		C259.7,16.4,265.5,10.6,273.1,10.6z"/>
	<path class="st0" d="M240.1,63.7c0,7.5-5.8,13.3-13.3,13.3c-7.5,0-13.4-5.8-13.4-13.3s5.9-13.4,13.3-13.4
		C234.2,50.3,240.1,56.2,240.1,63.7z"/>
	<path class="st0" d="M273,77c-7.5,0-13.3-5.8-13.3-13.3s5.9-13.3,13.3-13.3c7.4,0,13.3,5.9,13.3,13.4C286.3,71.1,280.4,77,273,77z"
		/>
	<path class="st0" d="M226.8,116.7c-7.5,0-13.3-5.8-13.3-13.3c0-7.3,6.1-13.4,13.4-13.4c7.4,0,13.3,6,13.2,13.4
		C240.1,110.9,234.3,116.7,226.8,116.7z"/>
	<path class="st0" d="M273,116.7c-7.5,0-13.2-5.8-13.2-13.3c0-7.4,5.9-13.4,13.3-13.3c7.3,0,13.3,6.1,13.3,13.5
		C286.3,110.9,280.4,116.7,273,116.7z"/>
</g>
</svg>
