<?xml version="1.0" encoding="utf-8"?>
<!-- Generator: Adobe Illustrator 21.0.0, SVG Export Plug-In . SVG Version: 6.00 Build 0)  -->
<!DOCTYPE svg PUBLIC "-//W3C//DTD SVG 1.1//EN" "http://www.w3.org/Graphics/SVG/1.1/DTD/svg11.dtd">
<svg version="1.1" id="Layer_1" xmlns="http://www.w3.org/2000/svg" xmlns:xlink="http://www.w3.org/1999/xlink" x="0px" y="0px"
	 viewBox="0 0 500 500" style="enable-background:new 0 0 500 500;" xml:space="preserve">
<style type="text/css">
	.st0{fill:#FFFFFF;}
</style>
<g>
	<path class="st0" d="M225.1,140.6c-6.5,8.1-12.5,15.8-18.8,23.2c-2,2.4-2.8,4.7-2.6,7.7c0.2,2.9-0.2,5.7,0.1,8.6
		c0.2,2.4-0.7,4.2-2.2,5.7c-4,4.3-8,8.6-12,12.8c-4.5,4.9-9,9.9-13.5,14.8c-0.5,0.5-1,0.9-1.7,1.2c2.6-4.4,5.3-8.9,8-13.3
		c4.3-7.3,8.7-14.5,13-21.7c1.6-2.8,0.6-5.9,0.7-8.8c0-0.2-1-0.7-1.5-0.7c-2-0.1-4,0-6.5,0c2.1-2.8,4.1-5.3,6-7.8
		c7.6-9.7,15.2-19.4,22.9-29.1c2.2-2.9,4.4-5.7,6.8-8.4c1-1.2,1.5-2.4,1.5-3.9c0-35.2,0-70.5,0-105.7c0-0.8,0-1.7,0-2.7
		c7.1,0,14.1,0,21.4,0c0,0.8,0,1.7,0,2.6c0,55.7,0,111.5,0,167.2c1.9,11.2-2.4,20.6-8.9,29.2c-5.3,7-10.4,14.2-16.5,20.5
		c-22.3,23-44.9,45.6-67.4,68.4c-1.2,1.2-1.9,2.3-1.6,4c0.3,1.7-0.4,2.9-1.6,4c-3.3,3.2-6.5,6.5-10.1,10.1c0-1.9,0-3.2,0-4.7
		c-16,16-31.9,31.9-47.8,47.8c-0.3-0.1-0.5-0.3-0.8-0.4c0.2-0.8,0.3-1.7,0.6-2.5c0.3-0.6,0.8-1.1,1.3-1.6c4.6-4.7,9.1-9.4,13.7-14.1
		c9.1-9.5,18.2-19.1,27.3-28.6c5.1-5.4,10.2-10.7,15.3-16.1c11.5-12.1,23.1-24.3,34.7-36.4c5.7-6,11.2-12,17.1-17.8
		c2.8-2.8,4.4-5.8,3.9-9.6c-0.7-5.1,0.9-9,5-12.1c2.1-1.6,3.6-3.8,5.5-5.4c4.7-3.8,6.6-9.1,7.9-14.7c0.6-2.7,0.8-5.6,0.9-8.4
		c0.1-16.8,0-33.6,0-50.3C225.1,142.7,225.1,141.9,225.1,140.6z"/>
	<path class="st0" d="M253.2,12.5c7.2,0,14.2,0,21.4,0c0,0.9,0,1.7,0,2.5c0,34.7,0,69.3,0,104c0,2.8,0.7,5,2.5,7.2
		c10.2,12.8,20.3,25.6,30.5,38.4c1.3,1.7,2.6,3.5,4.2,5.5c-2.3,0-4.3,0.1-6.3,0c-1.4-0.1-1.7,0.5-1.9,1.8c-0.7,4.9,1.3,8.8,3.8,12.8
		c6.1,9.9,12,20,18,30c0,0,0,0.1-0.2,0.3c-2.8-2.9-5.6-5.8-8.3-8.8c-2.2-2.4-4.3-4.9-6.5-7.3c-4.4-4.9-8.9-9.7-13.4-14.7
		c-0.5-0.6-0.8-1.6-0.9-2.4c-0.1-3.3-0.3-6.6,0-9.9c0.5-3.9-1.3-6.7-3.6-9.4c-4.7-5.6-9.3-11.4-13.9-17c-1.2-1.5-2.4-2.9-3.8-4.5
		c0,0.8-0.1,1.3-0.1,1.9c0,17.9-0.3,35.8,0.1,53.7c0.2,7.3,2.2,14.4,8.1,19.8c3.4,3.1,6.4,6.4,9.7,9.6c1,1,1.5,2,1.5,3.4
		c0,2.8,0.2,5.6,0.2,8.3c0,2.3,1.3,3.7,2.7,5.2c3.4,3.6,6.9,7.2,10.3,10.7c7.6,7.8,15.1,15.7,22.7,23.5c8.3,8.7,16.6,17.4,24.8,26.1
		c5.6,5.9,11.2,11.7,16.7,17.6c8.7,9.1,17.4,18.2,26,27.3c2.8,2.9,5.6,5.8,8.3,8.8c1.1,1.2,2.5,2.3,1.9,4.2
		c-15.9-15.9-31.7-31.8-47.6-47.6c-0.2,0.1-0.5,0.2-0.7,0.3c0,1.4,0,2.8,0,4.1c-0.2,0.1-0.3,0.1-0.5,0.2c-3.6-3.6-7.3-7.3-10.8-11
		c-0.6-0.6-0.5-1.9-0.5-2.9c0.1-1.5-0.4-2.6-1.5-3.6c-17.1-16.9-34.2-33.9-51.3-51.1c-6-6-12-12.1-17.6-18.5
		c-8.3-9.3-16.3-18.8-21.6-30.2c-1.9-4.1-3.6-8.2-2.4-12.9c0.2-0.6,0-1.3,0-1.9c0-56.8,0-113.6,0-170.3
		C253.2,14.5,253.2,13.6,253.2,12.5z"/>
	<path class="st0" d="M186.5,488.9c5.1-7.3,10.2-14.5,15.2-21.8c-1.4-1.3-2.8-2.5-4.3-3.9c3-4.3,6-8.6,8.9-12.8
		c2.4-3.4,4.8-6.9,7.2-10.4c0.4-0.5,0.6-1.3,0.6-1.9c0-13.9,0-27.8,0-41.7c0-0.2-0.1-0.4-0.2-0.8c-0.3,0.3-0.6,0.4-0.9,0.6
		c-6.1,5.9-12.3,11.6-18.2,17.7c-1.1,1.2-1.2,3.6-1.3,5.5c-0.2,3.4-1.2,6.2-3.9,8.7c-8.4,8.2-16.5,16.7-24.8,25
		c-0.2,0.2-0.4,0.3-0.8,0.3c1.9-2.4,3.8-4.8,5.7-7.2c6.1-7.6,12.2-15.2,18.2-22.9c0.3-0.4,0.4-1,0.5-1.6c0.1-1.2,0-2.4,0-3.6
		c0-3.8,0-3.8-4.3-4c1.6-2.1,3.1-4,4.6-5.9c5.1-6.4,10.2-12.7,15.3-19.1c2.4-3,4.8-5.9,7.2-8.9c0.3-0.4,0.6-1,0.6-1.4
		c0-9.4,0-18.7,0-28.3c-2.9,0-5.7,0-9.1,0c9.8-11.3,19.3-22.2,29-33.4c0.1,0.8,0.3,1.2,0.3,1.6c0,41,0,82.1,0,123.1
		c0,0.9-0.5,2-1.2,2.6c-7.4,7.5-14.9,15-22.3,22.4c-6.8,6.8-13.5,13.8-20.3,20.6c-0.5,0.5-1,1.2-1.4,1.8
		C186.8,489.3,186.7,489.1,186.5,488.9z"/>
	<path class="st0" d="M315.3,414.1c-4.2,0.2-3.8,0.3-4.2,4.2c-0.5,4.1,1.9,6.5,4,9.3c5.2,6.5,10.4,13.1,15.6,19.7
		c1.6,2,3.2,4,4.5,6.3c-1.2-1.3-2.4-2.7-3.7-4c-7.3-7.3-14.5-14.8-22-21.9c-2.3-2.2-3.1-4.7-3.4-7.6c-0.1-0.8-0.5-1.7-0.3-2.4
		c0.5-2.6-1.3-4-2.9-5.5c-5.7-5.4-11.2-10.9-17.1-16.5c-0.1,0.8-0.2,1.2-0.2,1.7c0,13.5,0,27,0,40.5c0,1,0.5,2.2,1,3
		c5.1,7.5,10.4,14.9,15.6,22.5c-1.3,1.2-2.6,2.5-4.2,3.9c5,7.2,10.1,14.5,15.2,21.8c0,0.1-0.1,0.2-0.2,0.2c-0.4-0.3-0.8-0.5-1.1-0.9
		c-14.5-14.6-29-29.3-43.5-44c-0.5-0.5-0.9-1.4-0.9-2.1c0-41.3,0-82.6,0-124c0-0.2,0.1-0.4,0.2-1.1c9.7,11.2,19.1,22.1,28.9,33.3
		c-3.1,0-5.8,0-8.9,0c0,1,0,1.7,0,2.4c0,7.3,0.3,14.7-0.1,22c-0.2,3.8,1.2,6.4,3.5,9.1c5.8,7,11.4,14.1,17.1,21.1
		c2.1,2.5,4.1,5,6.2,7.6C314.6,413,314.8,413.5,315.3,414.1z"/>
	<path class="st0" d="M218.8,260.1c-29.5,29.8-58.8,59.5-88.2,89.3c-1.3-2.8,1-3.9,2.2-5.2c4-4.7,8.3-9.2,12.4-13.8
		c6.3-7,12.5-14.2,18.8-21.2c3.8-4.3,7.8-8.6,11.6-12.9c5.2-5.9,10.4-11.8,15.6-17.7c4.1-4.6,8.3-9.2,12.5-13.8
		c5.3-6,10.6-12,15.9-18c2.7-3,5.4-6,8.1-9c1.4-1.6,2.8-3.1,4.4-4.9c0.1,1,0.1,1.6,0.1,2.1c0,20.3,0,40.6,0,60.8
		c0,1.8-0.5,3.2-1.7,4.4c-0.8,0.8-1.6,1.6-2.3,2.4c-15.7,16-31.4,32-47.1,48.1c-6.9,7-13.7,14.2-20.6,21.2
		c-9.7,9.9-19.4,19.7-29.1,29.6c-13.5,13.8-27,27.6-40.5,41.3c-3.9,4-7.7,8.1-11.5,12.1c-0.2-0.2-0.5-0.3-0.7-0.5
		c0.6-1,1.1-2.1,1.8-2.9c4.5-4.9,9.1-9.6,13.6-14.5c7-7.5,13.9-15,20.9-22.6c6.5-7,12.9-14.1,19.4-21.1c7.2-7.8,14.4-15.5,21.6-23.3
		c6.5-7,13-14.1,19.5-21.2c6.9-7.5,13.7-15.1,20.8-22.4c2.9-3,3.7-6.5,4.3-10.2c0.5-3.1,0.8-6.3,1.8-9.3c0.6-1.7,2.4-3,3.8-4.3
		c3.8-3.5,7.7-6.8,11.5-10.3c0.6-0.6,0.8-1.9,0.8-2.9c0.1-8.1,0.1-16.2,0.1-24.3C218.8,263.6,218.8,262,218.8,260.1z"/>
	<path class="st0" d="M267.4,232.8c2.2,2.3,4,4.3,5.8,6.3c2.9,3.2,5.7,6.5,8.5,9.7c5.4,6.1,10.8,12.2,16.2,18.2
		c4.2,4.7,8.5,9.4,12.7,14.1c5.3,5.9,10.5,11.9,15.8,17.8c3.8,4.3,7.6,8.5,11.4,12.8c5.3,6,10.6,12,15.9,18c2.6,2.9,5.2,5.8,7.8,8.7
		c2.4,2.7,4.9,5.3,7.2,8.1c0.5,0.6,0.5,1.7,0.7,2.6c-0.2,0.1-0.4,0.2-0.5,0.3c-29.2-29.7-58.5-59.4-88-89.2c0,1.5,0,2.8,0,4
		c0,7.7,0.3,15.4-0.1,23.1c-0.2,3.9,1.5,6.2,4.2,8.4c3.9,3.4,7.8,6.8,11.5,10.3c0.7,0.7,1,1.9,1.1,3c0.8,4.1,1.2,8.3,2.3,12.3
		c0.6,2.1,2.2,3.9,3.7,5.6c6.1,6.7,12.4,13.3,18.5,19.9c6.6,7.2,13.2,14.3,19.8,21.5c5.3,5.8,10.7,11.5,16.1,17.3
		c6.9,7.4,13.7,14.8,20.6,22.3c4.9,5.3,9.8,10.7,14.7,16c5.1,5.5,10.2,11.1,15.3,16.6c3.4,3.7,6.9,7.4,10.3,11.2
		c0.8,0.8,1.2,1.9,2.1,3.3c-4-3.8-7.5-7.1-11-10.4c-0.6-0.6-1.1-1.3-1.7-1.9c-9-9.1-18-18.2-26.9-27.3
		c-14.3-14.6-28.6-29.1-42.9-43.7c-11.5-11.8-23.1-23.6-34.6-35.4c-11.4-11.7-22.7-23.3-34.1-34.9c-1.8-1.8-2.7-3.7-2.7-6.4
		c0.1-19.9,0-39.9,0-59.8C267.4,234.4,267.4,233.8,267.4,232.8z"/>
	<path class="st0" d="M128.3,372c0.5-1.1,0.9-2.4,1.7-3.4c3-3.6,6.1-7,9.1-10.5c4.4-5,8.7-10.1,13-15.1c3-3.4,6-6.9,9-10.3
		c2.5-2.8,4.9-5.7,7.3-8.6c0.5-0.6,0.9-1.2,1.7-2.2c0.7,3.4,0.1,5.5-1.9,7.6c-7.3,7.6-14.4,15.4-21.6,23.2
		c-4.2,4.5-8.2,9.1-12.3,13.6c-1.8,2-3.6,4-5.3,6C128.8,372.2,128.6,372.1,128.3,372z"/>
	<path class="st0" d="M329.4,322.1c13.9,16.2,27.6,32.2,41.2,48.2c0.4,0.4,0.3,1.2,0.1,2c-2.8-3-5.5-6-8.3-9c-1.8-2-3.5-4.1-5.4-6.1
		c-5.5-6-11.1-12-16.6-17.9c-3.3-3.6-6.6-7.2-9.9-10.7C329,326.9,328.8,326.1,329.4,322.1z"/>
	<path class="st0" d="M78.8,471.1c0.8-1.2,1.6-2.5,2.6-3.6c4.4-4.7,8.8-9.4,13.1-14.1c6.6-7.1,13.1-14.2,19.7-21.4
		c0.8-0.9,1.7-1.8,2.9-3.1c0.3,2.3,0.5,4-1.3,5.7C104.1,446.5,92.6,458.2,81,470c-0.5,0.5-1.1,1-1.6,1.6
		C79.2,471.4,79,471.3,78.8,471.1z"/>
	<path class="st0" d="M382.7,429.3c12.8,14.1,25.9,27.6,38.4,41.6c-0.2,0.2-0.5,0.4-0.7,0.6c-0.3-0.3-0.7-0.5-1-0.8
		c-7.8-7.8-15.6-15.6-23.4-23.5c-3.9-4-7.8-8-11.7-12C382.1,433,382.1,433,382.7,429.3z"/>
	<path class="st0" d="M175.2,413.5c0.1-2,10.8-17.2,13.7-20c0.6,2.6,0,4.7-1.9,6.8c-3.4,3.6-6.4,7.4-9.6,11.2
		C176.7,412.1,176,412.7,175.2,413.5z"/>
	<path class="st0" d="M324.3,413.4c-2.4-2.7-4.8-5.3-7.1-8.1c-1.5-1.7-2.7-3.5-4.3-5c-2-1.9-2.6-4.1-1.9-7.2
		c4.6,6.9,9.9,12.9,14,19.8C324.7,413,324.5,413.2,324.3,413.4z"/>
</g>
</svg>
