<?xml version="1.0" encoding="utf-8"?>
<!-- Generator: Adobe Illustrator 21.0.0, SVG Export Plug-In . SVG Version: 6.00 Build 0)  -->
<!DOCTYPE svg PUBLIC "-//W3C//DTD SVG 1.1//EN" "http://www.w3.org/Graphics/SVG/1.1/DTD/svg11.dtd">
<svg version="1.1" id="Layer_1" xmlns="http://www.w3.org/2000/svg" xmlns:xlink="http://www.w3.org/1999/xlink" x="0px" y="0px"
	 viewBox="0 0 500 500" style="enable-background:new 0 0 500 500;" xml:space="preserve">
<style type="text/css">
	.st0{fill:#FFFFFF;}
</style>
<g>
	<path class="st0" d="M292.5,153c-21.8,18.5-43,36.4-66,56c-0.1,2.4-0.7,7.2-0.5,12c0.5,11.5,1.4,22.9-0.8,34.4
		c-0.7,3.3-1.2,6.8-1.2,10.2c-0.1,38.2-0.1,76.4,0,114.7c0,3.5,0.5,7-3.3,8.9c-8.6-0.6-18.1,4.4-25.2-4.5c0-94.7,0-189.4,0-284.3
		c9.6-7.7,19.4-15.5,29-23.3c10.8-8.8,21.5-17.7,32.4-26.4c7.9-6.2,15.9-12.3,24.1-18.1c2.4-1.7,5.5-2.4,9.2-4
		c0.7,6,1.6,10.5,1.7,15c0.6,30.8,1.1,61.5,1.5,92.3C293.6,141.7,292.9,147.5,292.5,153z"/>
	<path class="st0" d="M372.4,274.4c-44.5,37.1-88.7,74-132.9,111c-1.4-0.7-2.5-1.2-4.2-2c0-2.3,0-4.7,0-7.1c0-22.7,0.1-45.3-0.1-68
		c-0.1-9.6-0.9-19.1-1.4-28.7c-0.1-2.4,0-4.9,0-8.3c44.7-37.1,89.7-74.3,134.8-111.7c4.9,3.8,3.8,8.6,3.9,12.7
		c0.1,18.9-1.2,37.9-0.2,56.8C373.1,244,370.6,258.6,372.4,274.4z"/>
	<path class="st0" d="M185.5,227.6c0,22.3,0.2,44.2-0.1,66.1c-0.2,15.2-1.2,30.4-1.3,45.7c-0.2,31-0.1,62.1-0.1,93.3
		c-15.8,14.3-32.1,27.8-50.5,38.6c-0.9,0.5-2.4-0.1-3.8-0.2c-0.3-1.2-0.9-2.4-0.9-3.5c-0.5-14.2-1.6-28.5-1.4-42.7
		c0.4-19.8,2.2-39.6,2.6-59.4c0.3-14.5-0.7-29-1.1-43.4c0-1.7-0.2-3.4-0.2-5.2c0-27.8,0-55.7,0-83.5c0-2.2,0.3-4.3,0.4-6.2
		C136.2,224.3,179.5,224.6,185.5,227.6z"/>
</g>
</svg>
