<?xml version="1.0" encoding="utf-8"?>
<!-- Generator: Adobe Illustrator 21.0.0, SVG Export Plug-In . SVG Version: 6.00 Build 0)  -->
<!DOCTYPE svg PUBLIC "-//W3C//DTD SVG 1.1//EN" "http://www.w3.org/Graphics/SVG/1.1/DTD/svg11.dtd">
<svg version="1.1" id="Layer_1" xmlns="http://www.w3.org/2000/svg" xmlns:xlink="http://www.w3.org/1999/xlink" x="0px" y="0px"
	 viewBox="0 0 500 500" style="enable-background:new 0 0 500 500;" xml:space="preserve">
<style type="text/css">
	.st0{fill:#FFFFFF;}
</style>
<g>
	<path class="st0" d="M435.9,334.3c-3.8,2.2-7.4,4.2-11,6.2c-1.3,0.7-2.5,1.5-3.7,2.3c-5.7,4.1-11.4,8.3-17.1,12.4
		c-1.8,1.3-3.9,2.2-5.8,3.4c-3.5,2.1-7,4.2-10.6,6.4c-2.5,1.5-5,2.9-7.5,4.5c-2.2,1.4-4.3,3.1-6.6,4.5c-8.2,4.9-15.8,10.8-23.6,16.2
		c-4.8,3.3-9.6,6.6-14.3,10.1c-2.3,1.7-4.4,3.8-6.8,5.5c-3.1,2.3-6.3,4.3-9.4,6.6c-1.5,1.1-2.7,2.6-4.2,3.6c-3.6,2.4-7.4,4.6-11,6.9
		c-1.6-0.8-1.3-2.1-1.3-3.3c0-13.5-0.6-27,0.2-40.4c1.4-21.3,0-42.7,0.6-64c0.1-1.8,0-3.4,0-5c1.8-3.7,5.4-5.3,8.4-7.4
		c4.4-3.2,9-6,13.6-9c0.2-0.2,0.5-0.1,1.2-0.2c0.7,12.1-0.1,24.2-0.6,36.3c0.9,0.6,1.8,1.3,2.9,2c2.4-1,4.6-1,7-0.4
		c3.4,0.7,6.8,0.8,10.2,1c7.9,0.6,15.8,1.9,23.7,3.9c3.1-1.7,6.2-3.6,9.1-6c4.3-3.5,9-6.6,13.7-9.6c5.5-3.7,11.1-7.2,16.9-10.6
		c2.2-1.4,3-3,3-5.5c-0.2-10.2-0.6-20.5-0.6-30.7c-0.1-8.6,0.1-17.1,0.1-25.6c0-1.8-0.2-3.7-0.2-5.4c-1-1.5-2.3-1.8-3.8-1.8
		c-4.1-0.1-7.1-1.9-10.1-4.7c-5.8-5.5-11.8-10.6-17.8-15.9c-4.6-4.1-9.1-8.1-13.8-12.1c-5.3-4.6-10.5-9.3-15.9-13.8
		c-2.9-2.4-6-4.4-9-6.6c-3.2-2.3-6.3-4.7-9.1-6.8c0-6.9,0-13.3,0-19.5c1.4-2.1,2.9-3.7,4.9-4.9c1.4-0.9,2.6-2.2,4.1-3.1
		c3.4-2.4,7-4.7,10.5-7c0.8-0.5,1.8-0.9,2.3-1.5c3.1-3.8,7.5-5.9,11.4-8.6c5-3.4,10-6.8,15.1-10.1c6.3-4.2,12.6-8.2,19.1-12.2
		c0.9-0.6,2-0.9,3-0.9c3-0.1,5.8,0,8.8,0.2c3.3,0.2,6.6,0.4,9.8,0.6c4.3,0.3,8.7,0.7,13.5,1.1c0.2,1.2,0.7,2.6,0.7,4
		c0.2,2.8,0,5.6,0.1,8.4c0.2,7.5,0.4,15.1,0.6,22.7c0,1.4-0.4,2.8-0.3,4.2c0.1,5.1,0.5,10.3,0.5,15.5c0,14.8-0.2,29.6-0.3,44.4
		c-0.2,17.9-0.2,35.9-0.5,53.9c-0.2,19.9,0.2,40,0.1,59.9C435.9,330,435.9,331.9,435.9,334.3z"/>
	<path class="st0" d="M196.5,309.9c0,0.4,0.2,1,0.2,1.4c-0.1,15.5-0.2,30.9-0.2,46.4c0,6.2,0.6,12.5,0.8,18.7
		c0.1,1.2,0.2,2.4,0.2,3.6c0,13,0.1,25.9,0,38.8c0,1.3,0.5,2.7-1,3.9c-0.5-0.2-1.1-0.4-1.6-0.7c-4.6-3.3-9.7-5.8-13.9-9.8
		c-2.8-2.6-6.5-4.2-9.4-6.6c-7.6-6.5-16.3-11.4-24-17.7c-4.2-3.4-8.7-6.6-13.2-9.6c-3.3-2.2-6.8-4.1-10.2-6.2
		c-6.6-4.2-13-8.8-19.9-12.4c-7.6-4-14.2-9.4-21.2-14.2c-3.4-2.3-6.6-4.8-10.4-6.6c-2.7-1.3-5.2-3.2-7.9-5c0-1.4,0-2.6,0-4
		c0-13.8,0-27.5,0.1-41.2c0-4.8,0.4-9.5,0.4-14.3c0-6.5-0.3-13-0.4-19.5c-0.2-8.4-0.3-16.8-0.4-25.2c-0.2-10.3-0.3-20.7-0.4-31.1
		c-0.1-10.2-0.1-20.6,0-30.8c0-2.8,0.3-5.6,0.6-8.3c0-0.6,0.2-1,0.2-1.6c-0.7-4.6,0-9.1,0-13.7c0.1-8,0.1-15.9,0.1-23.9
		c0-1.7-0.2-3.5,1.1-5.1c4.9-0.4,10-0.7,15.2-1c4.1-0.2,8.2-0.4,12.2-0.9c4.2-0.5,7.8,1,11.2,3.2c7,4.6,14.3,9.1,21.1,14.3
		c4.2,3.3,9.1,5.8,13.6,8.8c2.3,1.5,4.3,3.4,6.5,5.2c0.7,0.6,1.4,1.2,2.2,1.7c4.2,2.3,8.2,4.8,11.7,8.2c1,1,2.3,1.8,3.6,2.5
		c2,1.1,3.6,2.7,4.8,4.9c0,6.1,0,12.3,0,19.3c-2.3,1.8-5.1,3.9-7.9,6c-3.3,2.5-6.8,4.7-9.9,7.3c-4.2,3.4-8.2,7.1-12.2,10.6
		c-2.3,2-4.6,3.9-7,5.9c-6.2,5.4-12.4,10.8-18.6,16.3c-4.2,3.7-8.2,7.5-12.3,11.3c-1.4,1.3-3.1,1.8-5,2.1c-2.1,0.4-4.6-0.2-6.6,2.2
		c0,2.2,0,4.7,0,7.2c0,9,0,17.9-0.1,26.8c-0.2,9.2-0.5,18.3-0.6,27.5c0,1.5,0.4,3,0.6,4.2c6.9,4.3,13.4,8.2,19.7,12.5
		c5.3,3.5,10.3,7.5,15.5,11.2c2.2,1.5,4.6,2.8,6.7,4.1c8.3-2,16.5-3.4,24.8-4c3.7-0.2,7.4-1,11-1.4c1.7-0.2,3.4,0.2,5.7,0.4
		c0.5-0.3,1.4-1,2.2-1.4c0.2-0.3,0.3-0.5,0.3-0.6c-1.4-2.3,0.3-4.7-0.1-7c-1.5-9.4-0.7-18.7-0.7-28.2c0-0.2,0.2-0.5,0.3-0.7
		C178.2,295.3,193.9,306.3,196.5,309.9z"/>
	<path class="st0" d="M218.5,195.8c0.4-1,0.8-1.8,0.8-2.6c0-3.4-0.1-6.8-0.2-10.2c0-0.6,0.2-1.3,0.2-1.9c0.1-2,0.1-3.9,0.1-5.9
		c0-1.2,0-2.3,0.1-3.5c0-0.8,0.3-1.7,0.1-2.4c-1.1-2.7-0.5-5.2,0.6-8.2c2.2-1.4,5-3.2,7.8-5c18.6-1.8,8.9-3.2,43.9-0.2
		c2.7,1.8,5.4,3.4,8,5.1c1.1,2.8,1.8,5.4,0.8,8.2c-0.4,1.3,0.2,2.9,0.3,4.2c-1.3,7.4,1,14.6-0.1,22.2c6.9,0.7,13,1.4,19.5,2.1
		c4.7,2.9,9.5,6.2,14.1,10.2c5,4.4,10.9,8,16.4,12c2.8,8.4,1.2,17,1.7,25.1c-3.4,3.4-7.2,5.5-11,7.6c-3.9,2.2-7.4,5.1-11.1,7.7
		c-4.1,2.9-8.5,5.4-12.6,8.1c-4.4,2.9-8.7,5.8-12.8,9.2c-3.8,3-7.6,6.2-12.1,8.1c-0.6,0.2-1.2,0.6-1.7,1
		c-5.8,5.5-12.2,10.1-19.1,14.2c-0.6,0.4-1.2,1-2,1.6c-2.6-1.8-5.5-3.4-8.1-5.4c-4.3-3.4-9.4-6.1-13-10.3c-0.3-0.4-0.8-0.6-1.3-0.9
		c-5.2-2.6-9.8-6.1-14.2-9.8c-3.5-3-7.6-5.3-11.4-7.8c-2-1.3-4.1-2.5-6.8-4.2c-2.2-1.4-5-3.4-7.8-5.3c-2-1.4-3.9-2.7-5.8-4.1
		c-1.4-1-2.7-2.2-4.3-2.8c-3.6-1.5-6.6-4-9.6-6.7c0-6.3-0.1-12.9,0.1-19.4c0.1-1.8,0.9-3.6,1.4-5.8c5.1-3.8,10.5-7.6,15.8-11.5
		c1.2-0.9,2.2-2,3.3-2.9c3.8-2.8,7.7-5.6,10.9-7.9C206.3,197.1,212.4,196.5,218.5,195.8z M250.2,286.8c2.2-1.7,4.2-3.3,6.2-4.6
		c8.7-6,17.5-12,25.5-19.1c0.4-0.3,0.8-0.7,1.3-0.9c4.6-1.8,8.3-5.2,12.4-7.8c6.6-4.3,13.1-8.6,20-13.1c1.4-2.5,1.8-10.2,0.8-16.6
		c-1.2-1-2.7-2.2-4.2-3.5c-3.5-3-7-6-10.7-9c-1.8-1.4-3.6-2.8-5.6-3.7c-1.6-0.7-3.6-0.7-5.4-0.9c-5.2-0.6-10.5-1.4-15.7-1.9
		c-1.4-0.2-2.9,0.1-4-1.2c0-3-0.1-6,0-9c0.1-6,0.3-12,0.3-18c0-2.9-0.5-5.8-0.7-8.7c0-0.2-0.2-0.5-0.2-1c-0.4-0.4-1-1-1.4-1.5
		c-12.3-2.5-24.6-2.5-36.8,0c-0.6,0.6-1.1,1.4-1.2,1.5c-2.2,12.7-0.4,24.8-0.6,37.1c-1.2,0.3-2.2,0.7-3.1,0.8
		c-4.5,0.4-9,0.7-13.4,1.1c-2.2,0.2-4.5,0.5-6.6,0.8c-0.8,0.1-1.6,0.4-2.2,0.8c-1.9,1.2-3.8,2.4-5.6,3.8c-3.1,2.5-6.2,5-9.2,7.5
		c-2,1.7-4,3.4-6,5.3c0,4,0.1,7.8,0,11.8c-0.1,2,0.3,3.7,1.5,4.9c11.7,6.5,21.6,15.1,33.1,21.2C228,271.9,239.5,278.7,250.2,286.8z"
		/>
	<path class="st0" d="M51.2,173.9c-1-0.7-2.1-1.3-2.8-2.1c-3.6-4-7-8.2-10.8-12.1c-5.3-5.4-10.8-10.6-16.2-15.9
		c-2.6-2.6-5-5.1-7.4-7.8c-3-3.4-5.9-6.7-8.8-10.1c0-3.3-0.5-6.4,0.4-9.7c0.9-0.2,1.6-0.6,2.3-0.5c14.7,0,29.5,0.1,44.2,0.2
		C53.2,122.9,52.5,168.1,51.2,173.9z"/>
	<path class="st0" d="M448.7,173.4c-0.2-3.5-0.8-7.1-0.8-10.6c-0.1-14.7-0.1-29.3-0.1-44c0-0.9,0.2-1.8,0.2-3c15.1,0,29.9,0,44.8,0
		c0.6,0,1.2,0.3,2.1,0.6c0,3.1,0,6.1,0,9.9c-4.5,5-9.3,10.6-14.4,15.9c-5.1,5.4-10.6,10.4-15.9,15.7c-5.2,5.2-9.8,11-15.1,16
		C449.3,173.7,449,173.6,448.7,173.4z"/>
</g>
</svg>
