<?xml version="1.0" encoding="utf-8"?>
<!-- Generator: Adobe Illustrator 21.0.0, SVG Export Plug-In . SVG Version: 6.00 Build 0)  -->
<!DOCTYPE svg PUBLIC "-//W3C//DTD SVG 1.1//EN" "http://www.w3.org/Graphics/SVG/1.1/DTD/svg11.dtd">
<svg version="1.1" id="Layer_1" xmlns="http://www.w3.org/2000/svg" xmlns:xlink="http://www.w3.org/1999/xlink" x="0px" y="0px"
	 viewBox="0 0 500 500" style="enable-background:new 0 0 500 500;" xml:space="preserve">
<style type="text/css">
	.st0{fill:#FFFFFF;}
</style>
<g>
	<path class="st0" d="M333.6,291.6c1.9,2.5,3.4,4.7,5,6.8c4.1,5.2,4.2,10.3,0.1,15.5c-1.7,2.3-3.7,4.4-5.5,6.7
		c-3,3.9-7.2,5.4-11.8,6c-4,0.5-7.1,1.9-8.7,6c-1.2,3.2-3.4,5.7-6.7,6.8c-4.8,1.7-7.3,5.3-8.9,9.9c-2.3,6.6-4.5,13-6.8,19.6
		c-2.1,6.1-6.4,10.6-11.1,14.8c-4.9,4.5-8.9,9.8-13.3,14.8c-1.9,2.2-3.6,4.5-5.4,6.8c-6.3,7.8-19,4.8-23-1.3
		c-6.5-10.1-15.8-17.7-23.3-26.9c-2.4-2.9-4.3-6.4-5.7-9.9c-2.6-6.3-4.7-12.8-7-19.3c-1-3-2.7-5.3-5.5-6.8
		c-4.3-2.3-8.1-5.1-10.4-9.7c-1.6-3.1-4.6-4.3-8.1-5c-9.5-1.9-15.1-8.5-18.5-16.9c-1.3-3.3-1-7,1.3-10.2c0.5-0.7,0.9-1.5,1.3-2.3
		c2.6-4.9,2.1-7.4-2.3-10.6c-6.7-4.9-13.8-8.2-22.4-8.9c-8.4-0.8-16.7-3.4-24.9-5.6c-26.9-6.9-53.6-13.9-80.5-20.9
		c-2.5-0.6-5-1.4-7.4-2.4c-4.2-1.6-5.7-4.3-4.5-8.8c0.6-2.5,1.6-5,2.9-7.2c11.7-19.4,24.2-38.3,37.8-56.5
		c19.5-26.1,44.8-44.8,73.8-59.2c19-9.5,39.1-15.3,59.6-20.1c8.2-1.9,16.5-3.4,24.9-4.8c4.9-0.8,9.9-0.9,14.9-1.3
		c5.7-0.4,11.5-1.2,17.2-1.1c6.2,0.2,12.4,1.2,18.6,1.9c0.9,0.1,1.7,0.2,2.6,0.3c5.8,0.6,11.7,0.8,17.5,1.8c11.5,2,23.1,3.8,34.3,7
		c18.4,5.2,36.1,12.6,52.7,22.3c9.7,5.7,19.2,11.5,27.8,18.6c2.7,2.2,5.2,4.6,7.7,7c22.4,20.3,41,43.8,56.1,70c3,5.1,6.3,9.9,9.3,15
		c1.1,1.9,1.9,4,2.5,6.1c1.3,4.8,0.1,7.4-4.7,8.8c-9.7,2.9-19.6,5.5-29.4,8c-20.5,5.4-41,10.7-61.5,15.9c-6.6,1.7-13.2,3.2-19.9,4.7
		c-2,0.5-4.2,0.1-6.3,0.4C348.6,279.7,341.1,285.2,333.6,291.6z M249.6,295.3c-10.8,0-20.2,9.2-20.2,19.7c0,11,9.7,20.8,20.3,20.8
		c10.8-0.1,20.6-9.5,20.2-20.1C269.5,304.8,262.1,296.1,249.6,295.3z"/>
</g>
</svg>
