<?xml version="1.0" encoding="utf-8"?>
<!-- Generator: Adobe Illustrator 21.0.0, SVG Export Plug-In . SVG Version: 6.00 Build 0)  -->
<!DOCTYPE svg PUBLIC "-//W3C//DTD SVG 1.1//EN" "http://www.w3.org/Graphics/SVG/1.1/DTD/svg11.dtd">
<svg version="1.1" id="Layer_1" xmlns="http://www.w3.org/2000/svg" xmlns:xlink="http://www.w3.org/1999/xlink" x="0px" y="0px"
	 viewBox="0 0 500 500" style="enable-background:new 0 0 500 500;" xml:space="preserve">
<style type="text/css">
	.st0{fill:#FFFFFF;}
</style>
<g>
	<path class="st0" d="M353.2,183.5c0.3,3.8-1.4,6.2-3.9,8.1c-1.2,1-2.8,1.4-3.9,2.5c-0.9,0.9-1.2,2.2-1.8,3.4c1,0.5,2,1.1,3,1.4
		c1,0.3,2,0.2,4,0.5c-2.1,3.2-3.4,6-5.5,8.3c-9.1,10.2-17.3,21.1-24.1,33.1c-2.6,4.7-6.1,9-9.1,13.6c-5.9,9.1-10.4,18.9-14.4,29
		c-3.8,9.7-8.5,19-13,28.5c-3.1,6.6-7.2,12.8-9.5,19.5c-3.6,10.5-8.6,20.5-10.3,31.6c-0.6,3.7-1.8,7.2-2.6,10.9
		c-1.6,7.4-2.5,14.9-4.5,22.1c-2.9,9.8-1.5,19.8-2.1,29.7c-0.2,4.1-1.1,8.1-1.5,12.2c-0.3,3.4-0.6,6.8-0.7,10.3
		c-0.1,5.6-0.2,11.2-1.6,16.8c-0.9,3.5-0.5,7.4-0.6,11.2c-0.1,3.3,0,6.5-0.3,9.8c-0.1,1.2-1,2.4-1.6,3.5c-0.6-1.1-1.7-2.2-1.7-3.4
		c-0.3-5.8,0.1-11.7-0.5-17.5c-0.9-10.5-2.4-20.8-3.4-31.3c-0.5-5.5-0.4-11.1-0.9-16.6c-0.3-4.1-1-8.1-1.6-12.2
		c-0.2-1-0.6-2.1-0.5-3.1c0.3-7.2-2.2-13.9-3.9-20.8c-1.2-5-2-10.1-3.2-15.1c-2.1-8.2-3.8-16.4-6.8-24.3c-5.1-13.5-11-26.7-16.6-40
		c-0.2-0.3-0.3-0.7-0.4-1.1c-8.3-17.4-16.5-34.7-24.8-52.1c-1.3-2.7-3.4-5.1-4.9-7.7c-5.1-8.6-10-17.2-15.1-25.8
		c-1.1-1.8-2.6-3.3-3.6-5.1c-2.1-3.5-4-7.1-5.9-10.7c-1.3-2.4-2.5-4.9-3.9-7.3c-0.7-1.3-1.7-2.6-2.4-4c-1.4-3-0.5-4.7,2.4-6
		c1.4-0.6,2.9-1.9,3.4-3.3c0.8-2-1-3.1-2.5-4.3c-4.5-3.7-8.9-7.6-13.2-11.5c-0.8-0.7-1-2.1-1.4-3.2c1.3-0.2,2.9-0.8,3.9-0.4
		c4.1,1.7,8,3.6,12,5.6c2.5,1.3,4.9,2,7.7,1.1c1.1-0.3,2.5-0.2,3.7,0.2c2.7,0.9,3.6-0.2,4.1-2.7c1.3-6.2,2.6-12.4,4.1-18.5
		c2.9-11.4,7.2-22.4,12.3-33c2.8-5.7,4.6-11.6,6-17.5c1.7-7-0.1-13.2-5.5-18.3c-2.8-2.6-5.4-5.5-8.1-8.1c-1.8-1.7-1.3-2.9,0.7-3.9
		c0.6-0.3,1.2-0.5,1.8-0.7c4.2-1.6,4.9-1.2,6.4,3c0.6,1.7,0.9,3.9,3.4,4c2,0.1,3.2-0.3,2.8-2.6c-0.1-0.8,0.4-1.7,0.6-2.6
		c0.8,0.2,1.6,0.4,2.4,0.8c4,2.2,6.5,1.6,8.8-2.4c0.9-1.6,1.9-3.2,2.3-4.9c1.1-4.5,3.7-7.9,7-10.9c5.9-5.2,10.3-11.5,13.5-18.7
		c0.9-1.9,2.2-3.6,3.6-5.1c4.9-5,9.8-9.9,14.8-14.8c2.1-2.1,4.3-2.3,6.3-0.1c5.2,5.6,10.5,11.2,15.1,17.2c3.9,5.1,6.6,11,10.2,16.3
		c2.4,3.4,5.5,6.3,8,9.7c1.7,2.2,3.2,4.7,4.7,7.1c1.1,1.8,2.1,3.6,3.2,5.3c1.6,2.3,3.7,3.2,6.6,3.1c1.8,0,3.7,1.6,5.6,2.5
		c0.3,0.5,0.5,1,0.8,1.6c1.1-1.7,2-3.7,3.5-4.9c2.3-1.8,4.9-3.2,7.6-4.4c0.7-0.3,1.9,0.4,2.9,0.6c-0.2,0.9-0.2,2.1-0.8,2.8
		c-3.6,3.7-7.6,7.1-10.8,11.1c-3.7,4.6-6,9.8-3.9,16.1c1.4,4.3,2.1,8.9,3.3,13.3c0.5,1.8,1.3,3.5,2.2,5.2c2.1,4.1,4.8,7.9,6.3,12.2
		c4.4,12.4,8.3,25,12.3,37.6c0.7,2.2,1.7,3,3.9,3.5c7,1.6,12.9-1.2,19-4c2.2-1,4.6-1.8,6.9-2.4c0.5-0.2,1.8,0.5,1.8,0.8
		c0.1,0.7-0.2,1.8-0.7,2.2c-5,4-10.1,7.9-15.1,12c-2.6,2.2-4.8,4.7-7.1,7.2c-1.3,1.4-2.4,2.9-3.5,4.5c-0.5,0.6-0.5,1.5-0.7,2.2
		c0.9,0.1,2,0.5,2.6,0.2c1.2-0.7,2.3-1.7,3.2-2.8C343.4,184.1,348.3,184.3,353.2,183.5z M283.9,218.3c0.3,0.1,0.7,0.1,1.1,0.2
		c0.7-0.8,1.5-1.6,2.2-2.5c4.8-6.6,9.1-13.5,14.5-19.5c3.7-4.1,3.8-8.2,2.5-12.6c-2.6-8.5-5.6-16.9-8.5-25.3
		c-2.4-6.8-4.8-13.5-7.4-20.2c-0.5-1.1-1.4-2.1-2.5-3.6c-0.9,1.7-1.6,2.7-2,3.9c-3.9,9-7.6,17.9-11.4,27c-1.1,2.8-2.1,5.5-3,8.3
		c-0.9,2.9-0.7,5.5,1,8.2c2.5,4.1,5,8.5,6.9,12.9c1.7,4,2.7,8.3,3.9,12.5C282.1,211.2,283,214.8,283.9,218.3z M212.5,134.6
		c-1,1.8-1.7,2.8-2.1,3.9c-1.8,5-3.7,10-5.3,15.1c-3.6,11.1-7.1,22.2-10.5,33.4c-0.8,2.6-0.7,5.2,1,7.6c4.7,6.7,9.1,13.5,13.7,20.1
		c0.7,1,1.7,1.7,2.5,2.6c0.9-0.9,2.1-1.7,2.6-2.8c1.7-4.5,2.8-9.1,4.5-13.5c2.9-7.2,6.3-14.1,9.1-21.4c0.8-2.1,1-4.9,0.3-6.9
		c-4.3-11.6-9-23-13.6-34.4C214.1,137.3,213.4,136.2,212.5,134.6z M248.1,46.3c-0.7,0.8-1.3,1.1-1.5,1.6
		c-5.3,10.9-12,21.2-15.2,33.1c-0.6,2.2-0.3,5,0.5,7.2c2.6,7.4,5.6,14.7,8.6,21.9c1.5,3.6,3.2,7.2,5.1,10.6c1.3,2.4,2.7,2.5,3.6,0.5
		c3-6.5,6-13,9-19.5c2.2-5,4.1-10.1,6.4-15c1.1-2.4,1.6-4.7,0.4-7.1c-4.6-9.8-9.2-19.5-13.9-29.3C250.4,48.9,249.2,47.8,248.1,46.3z
		 M249.2,225.4c-0.8,1-1.7,1.9-2.2,2.9c-4.4,8.7-8.7,17.5-13,26.3c-0.5,1-0.6,2.5-0.2,3.4c4.3,9.5,8.6,19,13.1,28.4
		c0.6,1.2,1.5,2.3,2.5,3.8c1-1.1,1.7-1.8,2.1-2.6c4.5-9.9,9.1-19.8,13.6-29.8c0.3-0.7,0.3-2.1-0.1-2.6c-4.6-5.9-6.2-13.1-8.6-19.9
		C254.9,231.6,252.8,228.1,249.2,225.4z"/>
	<path class="st0" d="M373.2,177.9c-1.4,0.7-2.8,1.5-4.3,1.9c-0.3,0.1-1.5-1.5-1.6-2.4c-0.1-2.3,1.8-2.1,3.3-1.9
		c0.9,0.1,1.7,0.7,2.6,1.1C373.2,177.1,373.2,177.5,373.2,177.9z"/>
	<path class="st0" d="M362.9,190.4c-0.2-0.3-1.6-1.4-1.4-1.8c0.7-1.4,2-2.5,3-3.7c0.5,1,1.4,1.9,1.6,2.9
		C366.3,189.4,365.7,190.6,362.9,190.4z"/>
	<path class="st0" d="M126.8,152.7c2.5,1.3,4.5,2.5,7.1,3.9C130.1,158.1,126.9,156.3,126.8,152.7z"/>
	<path class="st0" d="M371.3,156.8c-0.9-1.3-1.7-2-1.7-2.6c0-0.6,0.9-1.1,1.4-1.7c0.6,0.5,1.7,1,1.8,1.7
		C372.9,154.6,372.1,155.4,371.3,156.8z"/>
	<path class="st0" d="M360,177.3c-1.3,0.9-2,1.8-2.6,1.7c-0.6-0.1-1.4-1.1-1.6-1.8c-0.1-0.5,1-1.5,1.5-1.5
		C358.1,175.6,358.7,176.4,360,177.3z"/>
</g>
</svg>
