<?xml version="1.0" encoding="utf-8"?>
<!-- Generator: Adobe Illustrator 21.0.0, SVG Export Plug-In . SVG Version: 6.00 Build 0)  -->
<!DOCTYPE svg PUBLIC "-//W3C//DTD SVG 1.1//EN" "http://www.w3.org/Graphics/SVG/1.1/DTD/svg11.dtd">
<svg version="1.1" id="Layer_1" xmlns="http://www.w3.org/2000/svg" xmlns:xlink="http://www.w3.org/1999/xlink" x="0px" y="0px"
	 viewBox="0 0 500 500" style="enable-background:new 0 0 500 500;" xml:space="preserve">
<style type="text/css">
	.st0{fill:#FFFFFF;}
</style>
<g>
	<path class="st0" d="M307.3,34.4c0.3,13.6,0.1,25.8-0.9,38.1c-1,12.4-1,24.8-1.4,36.4c-5.3,4.7-9.6,8.7-14.1,12.6
		c-7.3,6.3-14.7,12.5-22.3,18.6c-4,3.3-7.2,6.7-6.9,11.8c0.1,1.3-0.8,2.6-0.8,3.9c2.7,34.9,2.4,69.9,2.5,105.6
		c17.9,0.1,35.3,0.2,53.5,0.3c0.2,3.2,0.5,5.6,0.5,8.1c0,13.4-0.4,26.8-0.2,40.2c0.3,17.5,0.4,35.1,1.8,52.6
		c0.5,6.6-0.7,13.1,0.2,19.7c0.9,6.4,0.1,12.9,0.5,19.3c0.2,3.1-1.3,5.1-3.6,7.2c-7.6,6.9-14.8,14.2-22.7,21
		c-11,9.4-20.2,20.5-33.2,28.2c-3.9,2.3-6.3,6.2-10.3,8.8c-6.3,4-11.2,4.2-16.7-0.5c-1.1-1-2-2.1-3-3.2
		c-11.4-11.7-22.8-23.6-34.4-35.2c-6.6-6.6-13.6-12.8-20.3-19.2c-1.9-1.8-3.5-4-5.5-6.2c0.6-8.9,1.5-17.8,1.6-26.7
		c0.1-6.6-0.7-13.3-1.2-21.1c0.3-2.8,1.2-6.9,1.2-10.9c0.2-23.6,0-47.1,0.2-70.7c0-3.4,1-6.7,1.6-10.9c16.7-0.1,33,0,48.9-0.1
		c3.8-2.3,3.1-5.5,2.9-8.4c-1-15.3,0.6-30.7,0.3-46c-0.4-15.5-0.1-30.9-0.1-46.4c0-4.8,0-9.6,0-14.9c-5.3-5-9.8-10.7-16.2-15.2
		c-6.7-4.8-12.4-10.6-18.3-16.2c-1.8-1.8-3.3-4.4-3.6-6.7c-0.9-7.3-1.7-14.7-1.5-22.1c0.2-9.9,1.6-19.7,2.1-29.6
		c0.3-5.5-0.3-11-0.4-16.5c0-1.6,0.2-3.2,0.4-5.5c4.4-0.1,8.5-0.3,12.6-0.3c6.3,0,12.7,0.5,19,0.2c10.8-0.5,21.2,2.8,32.1,1.8
		c6.7-0.6,13.6-0.2,20.4-0.1c2.8,0,5.7,0.4,8.4,0.3C289,35.8,297.4,35.2,307.3,34.4z"/>
	<path class="st0" d="M444.5,214c1,3.4,1.9,5.4,2,7.4c0.7,15.4,1.2,30.8,1.7,46.2c0.1,2.3-0.2,4.6,0,6.9c1.2,10.2-3,18.2-11.7,24.9
		c-6.7,5.3-14,10.5-19.4,16.6c-5.7,6.6-12.8,12-18.5,18.4c-3.2,3.6-7.2,6.6-11.4,9.3c-7.1,4.5-12.9,10-18.2,16.1
		c-2.3,2.7-4.9,5.3-8.1,8.7c-1.2-2.3-2.4-3.6-2.5-4.9c-0.9-23.5-1.6-46.9-2.4-70.2c2.8-2.7,5-4.9,7.4-7
		c12.4-10.9,24.8-21.9,37.2-32.8c5.8-5.1,11.8-10.2,17.9-15.5C426.7,230.6,435,222.9,444.5,214z"/>
	<path class="st0" d="M347.1,247.7c0.6,41,1.1,81.9,1.7,123c-5,3.1-10.1,0.8-15.9,0.5c-0.4-2.2-1.2-4.4-1.2-6.6
		c-0.6-15.2-1.2-30.4-1.4-45.6c-0.4-28.6-0.3-57.2-0.7-85.8c-0.2-14.5-0.8-29-1.2-43.5c-0.1-2.3,0-4.6,0-7.4
		c18.8-16.3,38.2-32.4,59.4-48.8c-0.3,9.4,2.3,17.2,0.7,25.4c-0.6,3.2,0.6,6.6,0.7,9.9c0.3,12.2,0.5,24.4,0.6,36.6
		c0,4.4-2.2,8.1-5.8,11c-3.7,3-7.7,5.6-11.2,8.6C364.3,232.3,356.1,239.7,347.1,247.7z"/>
	<path class="st0" d="M160.6,285.7c-0.7,3.1-1.6,5.4-1.6,7.8c-0.1,19.8,0,39.6-0.1,59.4c0,2.5-0.7,5-1.3,7.4c-0.2,3,3.5,6-0.5,9.1
		c-4.1,0-8.4,0-13.2,0c-0.2-2.6-0.5-4.6-0.5-6.6c0-29.8,0-59.5,0.1-89.3c0-6.2,0.8-12.3,1.4-18.5c0.4-4.2-1.1-7.6-4.7-10.5
		c-3.8-3.1-7.1-6.5-10.8-9.6c-8.4-8.1-16.8-16.3-25-24.2c0.9-24.7,1.8-49,2.7-74.7c5,3.8,9.2,6.6,12.9,9.9
		c12.8,11.3,25.4,22.7,38.1,34c3.1,2.7,3.9,5.9,3.9,9.4c-0.6,25-1.1,50.1-1.8,75.1c-0.2,5.5-0.9,10.9-1.2,16.4
		C158.8,282.8,158.6,285,160.6,285.7z"/>
	<path class="st0" d="M55.9,217.1c27,25.3,53.2,50,78.8,74c-0.5,25.4-0.9,49.4-1.4,74.5c-2.1-1.3-3.6-2-4.7-3
		c-9.4-9-18.9-17.9-28.2-27c-4.3-4.2-8-8.8-11.9-13.3c-1-1.1-2.1-2.1-3.1-3.1c-9.8-8.9-19.6-17.8-29.4-26.8c-1.8-1.6-3-3.7-4.5-5.7
		c0.7-21.7,1.3-43.3,2.1-64.9C53.6,220.5,54.8,219.3,55.9,217.1z"/>
	<path class="st0" d="M99.3,113.8c-0.1,0.2-0.2,0.3-0.3,0.5c-0.2-0.1-0.5-0.2-0.6-0.3c-0.1-0.1,0.2-0.4,0.2-0.5
		C98.8,113.6,99,113.7,99.3,113.8z"/>
	<polygon class="st0" points="167.7,352.6 167.6,352.1 168,352.1 	"/>
	<path class="st0" d="M328.9,442.6c0-0.4-0.1-0.8-0.1-1.1c0.1,0,0.2,0,0.3,0c0,0.4,0,0.8,0,1.1C329,442.6,329,442.6,328.9,442.6z"/>
	<path class="st0" d="M149.6,382.5c-0.1,0.1-0.1,0.1-0.2,0.2L149.6,382.5z"/>
	<path class="st0" d="M149.4,382.7c0.4,0.1,0.8,0.2,0.4,0.1c0.2,0.3,0,0-0.2-0.3L149.4,382.7z"/>
</g>
</svg>
