<?xml version="1.0" encoding="utf-8"?>
<!-- Generator: Adobe Illustrator 21.0.0, SVG Export Plug-In . SVG Version: 6.00 Build 0)  -->
<!DOCTYPE svg PUBLIC "-//W3C//DTD SVG 1.1//EN" "http://www.w3.org/Graphics/SVG/1.1/DTD/svg11.dtd">
<svg version="1.1" id="Layer_1" xmlns="http://www.w3.org/2000/svg" xmlns:xlink="http://www.w3.org/1999/xlink" x="0px" y="0px"
	 viewBox="0 0 565.4 443.8" style="enable-background:new 0 0 565.4 443.8;" xml:space="preserve">
<style type="text/css">
	.st0{fill:#FFFFFF;}
</style>
<g>
	<path class="st0" d="M563.1,329.5c-2.8,0-4.7,0-6.6,0c-33,0-66-0.1-99,0.1c-4.6,0-7.7-1.4-10.8-4.6c-12.2-12.8-24.5-25.4-36.9-38
		c-10.6-10.8-21.6-21.3-32.1-32.2c-9.7-10.1-18.7-20.8-28.4-30.8c-12.4-12.9-25.2-25.4-37.8-38c-8.3-8.3-16.7-16.4-25-24.8
		c-0.9-0.9-1.3-2.7-1.3-4c0.1-34,0.3-67.9,0.4-101.9c0.1-17.5-0.1-35-0.1-52.5c0-0.6,0.2-1.3,0.5-2.9c1.7,1.1,3.3,1.7,4.5,2.8
		C301.3,13.4,312,24.1,322.6,35c1.2,1.2,2,3.4,2,5.2c0.2,10.3,0.4,20.7,0,31c-0.3,7.6,2.7,13.3,7.7,18.3
		c17.1,17.2,35.4,33.5,51.3,51.8c27.8,32.1,59.9,60,88.2,91.4c26.9,29.9,56.1,57.6,84,86.5c2.2,2.3,4.1,4.8,6.1,7.2
		C562.4,326.8,562.4,327.5,563.1,329.5z"/>
	<path class="st0" d="M0.3,329.1c0.6-1.3,0.7-2.1,1.2-2.7c9.1-10,18.1-20.2,27.5-30c13.9-14.4,28.1-28.4,42-42.7
		c6-6.1,11.6-12.6,17.5-18.8c7.7-8.1,15.5-16.3,23.4-24.2c24-24.1,48.1-48,72-72.2c6.6-6.7,12.4-14.1,18.6-21.1
		c0.7-0.8,1.3-1.5,2-2.2c8.9-9,18-17.8,26.7-27c1.7-1.8,2.9-4.8,3-7.3c0.2-12.8-0.1-25.6-0.1-38.4c0-1.4,1.1-3,2.1-4.1
		c11.4-11.7,22.9-23.2,34.5-34.7c0.9-0.9,3.5-1.7,4.2-1.1c1.1,0.9,1.8,3,1.8,4.5c0.1,36,0.1,72,0.1,108c0,13.8,0.1,27.7-0.1,41.5
		c0,2-1.1,4.5-2.5,5.9c-20.3,20.5-41.2,40.4-60.8,61.4c-6.2,6.7-12.5,13.3-18.8,20c-14.2,15.1-28.8,29.7-43.4,44.4
		c-12.7,12.9-25.6,25.8-38.5,38.5c-1.4,1.3-3.6,2.6-5.4,2.6c-34.8,0.2-69.6,0.1-104.5,0.1C2.3,329.5,1.7,329.3,0.3,329.1z"/>
	<path class="st0" d="M173.5,338.4c3.8,0,6,0,8.1,0c66.8,0,133.6,0,200.5,0.1c1.9,0,3.8,1.1,5.6,1.7c-1.2,1.7-2.1,3.6-3.5,5.1
		c-3.7,4.2-7.3,8.5-11.4,12.3c-11.4,10.7-23.2,20.9-34.4,31.8c-17.5,17-34.7,34.4-52,51.7c-3.6,3.6-6.1,3.6-9.7,0.1
		c-18.6-18.2-37.1-36.5-55.7-54.8c-14.4-14.2-28.8-28.4-43.1-42.6C176.6,342.5,175.6,340.9,173.5,338.4z"/>
	<path class="st0" d="M273.4,181.4c2.5,0.4,3.5,3.7,3.5,8.1c-0.2,32.8-0.1,65.6-0.4,98.4c0,2.7-2,6-4,8.1
		c-10.4,10.8-21.1,21.3-31.7,31.8c-1,1-2.8,1.8-4.3,1.8c-20,0.1-40-0.1-60,0c-4,0-5.1-1-5-5c0.3-12.2,0.2-24.3,0.1-36.5
		c0-3.1,0.8-4.9,3.5-7c3.2-2.5,5.2-6.6,8.1-9.6c16.1-16.4,32.6-32.4,48.6-48.9c8.4-8.7,15.8-18.3,24.3-27
		C261.3,190.3,267.6,186.1,273.4,181.4z"/>
	<path class="st0" d="M285.5,235.7c0-17.5-0.1-34.9,0.1-52.4c0-1.4,1.5-2.8,2.3-4.2c1.3,1.1,2.7,2.2,3.9,3.4c0.9,0.8,1.5,2,2.4,2.8
		c2.5,2.1,5.4,3.8,7.6,6.1c9.5,10.2,18.6,20.8,28.3,30.8c13.7,14.1,27.8,27.8,41.6,41.8c6,6.1,11.8,12.3,17.4,18.7
		c1.2,1.3,1.6,3.7,1.6,5.6c0.1,12.3,0,24.6,0.1,37c0,3.1-0.9,4.5-4.2,4.4c-20.3-0.1-40.6,0.1-60.9-0.2c-2.5,0-5.4-2.6-7.5-4.6
		c-9.2-9-18.1-18.3-27.2-27.4c-3.6-3.6-5.4-7.3-5.3-12.7c0.4-16.3,0.1-32.6,0.1-48.9C285.6,235.7,285.5,235.7,285.5,235.7z"/>
	<path class="st0" d="M565.4,281.5c-9.2,0-17.2,0.1-25.2-0.1c-1.2,0-2.6-1.3-3.6-2.3c-24.3-24.3-48.5-48.6-72.8-72.8
		c-30.9-30.9-61.8-61.8-92.7-92.7c-4.3-4.3-9.2-8.3-12.8-13.2c-1.5-2.1-4.9-5.6-1.2-9.2c0.6-0.6,0.6-1.9,0.5-2.9
		c-0.9-5.2-2-10.3-2.8-15.5c-0.2-1.2,0.3-3.5,1-3.8c1.3-0.4,3.4-0.2,4.4,0.6c2.5,1.9,4.5,4.4,6.8,6.7c9.9,9.9,19.8,19.7,29.7,29.6
		c7,7,14.1,14,21,21.2c2.4,2.5,4.1,5.5,6.1,8.3c0.5,0.7,0.8,1.6,1.4,2c12.1,7.4,19.6,19.5,29.5,29.1c28.8,27.7,56.3,56.7,84.3,85.2
		c4.6,4.6,9.3,9.1,13.9,13.7c3.6,3.6,7.2,7.1,10.6,10.8C564.5,277.2,564.6,279,565.4,281.5z"/>
	<path class="st0" d="M204.8,71.8c0,8.8,0.2,17.6-0.2,26.4c-0.1,1.9-2.1,3.9-3.7,5.5c-31,31.1-62.2,62.2-93.2,93.4
		c-5.4,5.4-10.1,11.4-15.3,16.9c-6.7,7.1-13.7,13.9-20.5,20.9c-11.5,11.7-23.3,23.2-34.3,35.4c-7.4,8.2-15.7,12.5-26.7,11.2
		c-1.8-0.2-3.7,0.1-5.5-0.1c-1.7-0.2-3.3-0.8-4.9-1.3c0.7-1.7,0.9-3.8,2.1-5c8.2-8.7,16.6-17.3,25-25.8c15.5-15.6,31-31.1,46.5-46.8
		c41.3-41.9,82.6-83.8,123.9-125.7c1.8-1.9,3.6-3.8,5.4-5.7C203.8,71.3,204.3,71.6,204.8,71.8z"/>
	<path class="st0" d="M444.1,351.1c1.5-0.3,3-0.8,4.5-0.8c9,0,18,0.4,27-0.1c5-0.3,9,1.1,13,3.7c5,3.2,5.5,10.2,2.2,15.6
		c-2.6,4.2-5.4,7.7-10.1,9.6c-1.5,0.6-3,1.5-4.5,1.6c-9.3,0.2-18.6,0.2-28,0.1c-1.3,0-2.6-0.6-4-1c0-0.5,0-1,0-1.5
		c1.4-0.3,2.8-0.8,4.2-0.9c7-0.1,14-0.5,21,0c8.5,0.6,13.1-4.6,17-10.6c3.1-4.9-3.7-13.3-10.6-13.4c-8.8-0.1-17.6,0-26.5,0
		c-1.7,0-3.4-0.3-5-0.5C444.1,352.3,444.1,351.7,444.1,351.1z"/>
	<path class="st0" d="M115.1,379.5c-1.5,0.5-3,1.4-4.5,1.4c-6.7,0.1-13.3-0.5-20-0.2c-8.6,0.4-14.7-3.4-19.5-10.2
		c-3.8-5.6-1.4-13.7,4.4-17.4c3.8-2.4,7.5-2.8,11.7-2.8c9,0,18-0.3,27-0.3c1.2,0,2.5,1.1,3.7,1.7c-0.2,0.6-0.4,1.1-0.6,1.7
		c-9.7,0-19.5,0-29.2,0c-5.1,0-11.6,3.7-12.4,7.1c-1.6,6.8,0.6,10,6.9,14.2c3.7,2.4,7.2,2.7,11.2,2.6c6.8-0.1,13.6,0,20.4,0
		C114.6,378.1,114.8,378.8,115.1,379.5z"/>
	<path class="st0" d="M497.9,377.6c3.2-0.2,6.4-0.4,9.7-0.6c2.9-0.2,6,0.1,8.8-0.7c9.5-3,9.8-6.5,9.8-14.7c0-3.4-0.3-6.9-0.5-10.5
		c4.1-1.2,6.5-1.1,6.2,3.8c-0.2,4.1,0,8.3-0.1,12.5c-0.1,7.2-5.9,13.1-13,13.2c-5.5,0.1-11,0.2-16.4,0.2c-1.5,0-3.1-0.7-4.6-1
		C497.7,379,497.8,378.3,497.9,377.6z"/>
	<path class="st0" d="M30.7,350.3c2.1,0.2,3.8,0.3,5.7,0.5c-3.8,6.7-2,13,0.3,18.4c2.8,6.4,8.9,8.9,16.1,8.3
		c2.8-0.2,5.7-0.3,8.5-0.1c0.8,0,1.6,1.1,2.4,1.6c-0.6,0.7-1.4,2-1.8,1.9c-8.6-1.6-17.9,2.7-26-3.3c-3.4-2.5-5.4-5.5-5.2-10
		C30.9,362,30.7,356.4,30.7,350.3z"/>
	<path class="st0" d="M559.8,376.4c-2.9-0.4-5.8-0.7-9.9-1.2c-0.1-1.1-0.2-3.2-0.4-5.9c3.7,0.8,6.9,3.8,9.2-0.5
		c1.1,0.7,2.9,1.4,3,2.2c0.3,2.1-0.2,4.4-0.4,6.6C560.9,377.1,560.4,376.8,559.8,376.4z"/>
	<path class="st0" d="M122.7,353.2c2.7-5,6.7-2.4,9.6-3.2c1-0.3,2.5,1.2,3.8,1.8c-0.2,0.4-0.4,0.9-0.5,1.3
		C131.6,353.2,127.8,353.2,122.7,353.2z"/>
	<path class="st0" d="M438.5,353.1c-4.3,0-8,0-11.8,0C428.9,349.1,435.6,348.9,438.5,353.1z"/>
	<path class="st0" d="M11.3,377.8c-1.8-1.5-3.5-2.9-5.3-4.4c0-0.5,0.1-1,0.1-1.6c1.6-0.2,3.8-1.1,4.6-0.4c1.3,1.2,1.7,3.4,2.5,5.2
		C12.6,377,12,377.4,11.3,377.8z"/>
	<path class="st0" d="M140.6,352.9c4.1-4.3,7.1-4.3,10.4,0C147.5,352.9,144.5,352.9,140.6,352.9z"/>
	<path class="st0" d="M410.7,352.9c3.8-4.3,7.8-4.2,10.1,0C417.5,352.9,414.4,352.9,410.7,352.9z"/>
	<path class="st0" d="M5.9,373.4c-1.5,1.7-2.5,2.9-3.5,4c-0.8-1-2.5-2.1-2.4-3c0.2-1.4,1.5-2.6,2.3-3.9
		C3.4,371.4,4.4,372.2,5.9,373.4z"/>
</g>
</svg>
