<?xml version="1.0" encoding="utf-8"?>
<!-- Generator: Adobe Illustrator 21.0.0, SVG Export Plug-In . SVG Version: 6.00 Build 0)  -->
<!DOCTYPE svg PUBLIC "-//W3C//DTD SVG 1.1//EN" "http://www.w3.org/Graphics/SVG/1.1/DTD/svg11.dtd">
<svg version="1.1" id="Layer_1" xmlns="http://www.w3.org/2000/svg" xmlns:xlink="http://www.w3.org/1999/xlink" x="0px" y="0px"
	 viewBox="0 0 500 500" style="enable-background:new 0 0 500 500;" xml:space="preserve">
<style type="text/css">
	.st0{fill:#FFFFFF;}
</style>
<g>
	<path class="st0" d="M220.3,484.2c-2.6-1.1-5.2-2.2-7.7-3.4c-14.1-6.6-27.2-14.7-38-26c-7-7.4-12.4-15.7-14.4-25.9
		c-0.6-3.3-0.9-6.8-0.9-10.3c0-113.9,0-227.8,0-341.7c0-10.3,0-20.7,0-31c0-0.8,0-1.6,0-2.7c-0.9,0-1.6-0.1-2.3-0.1
		c-13.9,0-27.8,0-41.6,0c-1.6,0-2.4,0.6-3.3,1.8c-10.1,13.7-20.2,27.4-30.4,41c-0.1,0.1-0.2,0.1-0.8,0.4c0.6-3,1.1-5.7,1.7-8.3
		c3.3-15.4,6.5-30.8,9.8-46.2c0.8-3.6,1.4-7.1,2.3-10.7c0.1-0.5,0.9-1,1.6-1.3c0.4-0.2,1,0,1.6,0c101.5,0,203,0,304.6,0
		c2.2,0,3.1,0.5,3.5,2.7c3.7,18.2,7.5,36.3,11.3,54.5c0.6,3.1,1.3,6.1,1.5,9.3c-2.8-3.7-5.6-7.4-8.4-11.2
		c-7.5-10.1-15-20.3-22.5-30.4c-0.6-0.8-1.8-1.5-2.7-1.5c-14.2-0.1-28.3,0-42.5,0c-0.5,0-1,0.1-1.8,0.1c0,1.1,0,2.2,0,3.1
		c0,123.6,0,247.3,0.2,370.9c0,14.5-5.1,26.5-14.8,36.8c-12.7,13.6-28.6,22.6-45.6,29.7c-0.3,0.1-0.6,0-0.9,0.1
		c3.7-4.1,7.5-8.1,11-12.2c9.9-11.7,18.8-24,23.1-38.9c0.8-2.7,1.3-5.7,1.3-8.5c0.1-99.4,0.1-198.8,0.1-298.3c0-0.7,0-1.5,0-2.1
		c-12,33.2-35.2,51.6-70.9,48.9c-30.3-2.2-49.5-20.4-59.2-49.5c0,1.1,0,1.8,0,2.5c0,99.6,0,199.2,0,298.7c0,7,2.7,13.2,5.6,19.3
		c4.9,10.3,11.6,19.5,19.1,28.1c3.5,4,7.1,7.9,10.7,11.8C220.4,484,220.4,484.1,220.3,484.2z M207.6,106.6
		c-0.3,22.7,18,42.6,42.6,42.6c24.7,0,42.6-20.1,42.6-42.7c0-22.9-18.9-43.1-43.6-42.6C226.1,64.4,207.3,83.6,207.6,106.6z
		 M228.1,43.3c-14.7,0-28.7,0-42.9,0c0,15.4,0,30.7,0,46.7C192,67.3,206,52,228.1,43.3z M315.1,43.4c-14.3,0-28.3,0-42.8,0
		c22,8.7,36.1,23.9,42.8,46.7C315.1,74.1,315.1,58.8,315.1,43.4z"/>
</g>
</svg>
