<?xml version="1.0" encoding="utf-8"?>
<!-- Generator: Adobe Illustrator 21.0.0, SVG Export Plug-In . SVG Version: 6.00 Build 0)  -->
<!DOCTYPE svg PUBLIC "-//W3C//DTD SVG 1.1//EN" "http://www.w3.org/Graphics/SVG/1.1/DTD/svg11.dtd">
<svg version="1.1" id="Layer_1" xmlns="http://www.w3.org/2000/svg" xmlns:xlink="http://www.w3.org/1999/xlink" x="0px" y="0px"
	 viewBox="0 0 500 500" style="enable-background:new 0 0 500 500;" xml:space="preserve">
<style type="text/css">
	.st0{fill:#FFFFFF;}
</style>
<g>
	<path class="st0" d="M480.1,338.5c-2.5-0.2-5.1,0-7.5-0.7c-8.8-2.5-17.4-5.6-26.2-7.9c-3.5-0.9-7.4-0.2-11.1-0.2
		c-2.4,0-4.9,0.1-7.4,0.1c-4.3-0.1-8.7-0.1-13-0.6c-6-0.7-11.5,1.4-16.8,3.5c-11.2,4.5-21.8,10.2-29.6,19.8
		c-5.1,6.3-9.8,13-14.5,19.6c-0.8,1.2-0.8,2.9-1.1,4.4c-0.3,1.6-0.1,3.4-0.8,4.8c-1.5,3.1-1,6,0,9.3c1.5,4.6,1.7,9.6,3,14.3
		c2.6,10.3,7,19.7,13,28.5c5.4,7.9,10.8,15.8,16.1,23.8c0.6,1,1,2.2,1.5,3.3c-0.3,0.2-0.5,0.5-0.8,0.6c-0.8-0.8-1.7-1.4-2.3-2.3
		c-8.4-11.7-17.2-23.2-27.9-33c-4.7-4.3-9.2-8.6-13.7-13c-0.9-0.9-1.5-2.3-1.9-3.5c-1.7-4.3-3.1-8.7-5-12.9
		c-5.5-11.8-15.2-18.7-27-23.1c-13.2-4.8-25.8-2.6-38,3.4c-6.3,3.1-10.6,8.7-15.1,13.8c-0.3,0.3-0.5,0.9-0.9,1.2
		c-1,0.9-2.2,1.7-3.2,2.5c-0.5-1.3-1.2-2.7-1.6-4.1c-1.2-4.3-2.2-8.5-3.3-12.8c-0.1-0.4-0.6-0.8-1.5-1.8c-0.9,1.8-1.7,3.1-2.1,4.5
		c-1,3.9-1.7,7.9-2.7,11.8c-0.2,0.9-1.2,2.3-1.9,2.3c-0.8,0.1-1.9-1-2.5-1.8c-5.2-7.3-11.3-13.7-19.3-17.7
		c-4.3-2.2-9.5-2.9-14.4-3.5c-4.5-0.6-9.2-0.8-13.6,0.1c-4.7,0.9-9.3,2.6-13.5,4.8c-8.3,4.5-15.4,10.4-19.9,18.9
		c-1,2-2.3,4.1-2.7,6.3c-1.4,7.4-5.9,12.8-11,17.9c-7.1,7.2-14.1,14.4-20.8,22c-4.3,4.8-7.8,10.4-11.8,15.5
		c-1.3,1.6-2.8,3.1-4.2,4.6c-0.4-0.3-0.9-0.6-1.3-0.8c0.6-1.5,1-3.1,1.9-4.4c4.7-7.2,9.6-14.3,14.4-21.5
		c7.4-11.2,12.3-23.5,15.6-36.4c1.3-4.9,2.4-10.3,1.9-15.3c-0.7-6.5-2.8-12.8-7-18.3c-5.1-6.8-10.4-13.3-17.1-18.6
		c-6.9-5.4-14.3-10.2-22.7-13.2c-2-0.7-4.3-1-6.4-1.3c-5.3-0.7-10.7-1.3-16-2c-1.5-0.2-3.1-0.2-4.6-0.3c-4.1-0.2-8.3,0.1-12.3-0.8
		c-4.1-0.8-7.6,0.6-11.2,1.5c-3.7,0.9-7.4,2.2-11.1,3.2c-0.5,0.1-1,0.2-1.5,0.1c-1.3-0.4-2.7-1-4-1.5c1-0.9,1.8-2.2,3-2.7
		c5.8-2.3,11.9-3.8,17.5-6.6c12.3-6.1,24.7-11.9,34.9-21.5c2.1-2,5.4-3.4,8.3-3.7c6-0.5,12.3-1.1,18.1,0.1c10,2.1,19.4,2.2,28.9-1.7
		c2.2-0.9,4.3-1.7,6.5-2.3c1.3-0.3,2.7-0.2,4.1-0.3c0.2,0.3,0.3,0.8,0.5,1.1c-1.5,1.2-3,2.4-4.6,3.4c-6,3.5-12.2,6.8-18.1,10.4
		c-2.8,1.7-5.2,4-7.7,6.1c-1.5,1.3-1.4,2.3,0.6,3c4.4,1.6,8.9,3.1,13.7,2.9c6.3-0.3,12.5,0,18.6,1.9c0.9,0.3,1.9,0.3,2.9,0.3
		c5.6,0.2,11.2,0.6,16.8,0.5c7.2-0.1,14.5-0.5,21.7-1.2c2.3-0.2,4.5-1.9,6.7-3.1c1.8-1,3.4-2.5,5.2-3.7c1.9-1.3,2.5-4,1-5.8
		c-4-4.8-8-9.4-14.1-11.8c-2.8-1.1-5.4-2.5-8-4c-0.9-0.6-2.3-2.2-2-2.7c0.4-1,1.7-2.1,2.9-2.3c2.9-0.6,5.9-0.5,8.8-1.3
		c8.9-2.4,15.8-7.3,21.4-14.8c3.6-4.9,4.6-9.4,1.9-14.8c-0.8-1.6-1.3-3.4-1.5-5.2c-0.2-1.3,0.3-2.6,0.5-4c1.1,0.6,2.4,1.1,3.2,2
		c2.4,2.5,4.5,5.3,6.9,7.9c6.1,6.7,14.1,9.8,22.5,12.5c0.5,0.2,1.1,0.1,1.6,0c9.3-2.5,17.4-7.3,25.1-12.9c2.1-1.5,3.4-4.2,4.9-6.3
		c0.9-1.3,1.9-2.6,3.2-4.4c1.5,3.8,1,6.8-0.1,9.6c-0.9,2.2-2.2,4.1-2.8,6.3c-0.5,1.8-0.7,4.1,0.1,5.6c3.7,8,10.8,12.5,18.2,16.4
		c4.2,2.2,8.7,3.4,13.6,3c2.3-0.2,4.8,0.3,6.6,3.4c-2.2,1-4.1,2.3-6.2,2.9c-8.5,2.6-14.8,8.2-20.1,15.1c-1,1.3-1.3,3.6-1.3,5.4
		c0,0.9,1.1,2.4,2,2.7c5.5,1.8,10.9,3.7,16.5,4.9c5.2,1.2,10.7,2.3,16,2c8.4-0.5,16.7-2.4,25-3.5c3.1-0.4,6.3-0.4,9.5-0.3
		c5.9,0.1,11.8,0,17.4-2.4c0.9-0.4,2.2-1,2.4-1.6c0.1-0.7-0.7-1.9-1.5-2.5c-8.9-6.3-17.9-12.6-27.9-16.9c-1.3-0.6-2.3-1.9-3.5-2.8
		c1.5-0.6,3-1.6,4.5-1.6c2.4,0,4.9,0.7,7.3,1c4,0.6,8.1,0.8,11.9,1.8c8,2.2,16.1,1.3,24.2,1.7c5.4,0.3,10.7,1,16,2.2
		c2.3,0.5,4.4,2.2,6.2,3.8c7.1,6.5,15.3,11,24.2,14.6c7.8,3.1,15.4,6.6,23.1,10c6,2.6,12.1,5.1,18.1,7.8c1.2,0.5,2.3,1.3,3.4,2
		C480.3,337.5,480.2,338,480.1,338.5z M295.6,344.9c-2,0.7-4.3,0.9-5.1,2c-0.6,0.9,0.1,3.6,1,4.6c4.7,5,9.1,10.4,14.6,14.5
		c7.2,5.5,15.3,9.9,22.9,14.7c0.6,0.3,1.8,0.5,2.2,0.2c0.6-0.5,1-1.6,1.1-2.4c0.1-0.7-0.4-1.5-0.6-2.2
		c-4.4-12.5-13.1-21.3-24.5-27.5C303.8,346.9,299.6,346.2,295.6,344.9z M196.7,347.4c-0.8-0.6-1.7-1.9-2.6-1.9
		c-2.6,0-5.2,0.1-7.7,0.9c-15.1,4.9-25.2,15.1-30.6,30c-0.9,2.3-0.1,3.6,2.4,3.4c1-0.1,2.1-0.5,2.9-1c9-5.9,18.2-11.6,26.8-18.2
		c3.4-2.6,5.4-6.9,8-10.5C196.3,349.6,196.3,348.8,196.7,347.4z"/>
	<path class="st0" d="M467.4,188.1c-1.5,1.1-2.7,2.6-4.4,3.3c-5.6,2.6-11.4,4.8-16.9,7.3c-12.5,5.7-23.9,13.1-33.1,23.5
		c-2.3,2.6-4.4,5.4-6.6,8.1c-3.1,3.9-7,6.2-12.3,5.7c-2.2-0.2-4.4,0.7-6.6,0.8c-2.1,0.1-4.3,0.1-6.3-0.3c-3.3-0.7-4-2.9-1.6-5.4
		c3.1-3.4,6.5-6.7,9.7-10.1c0.6-0.7,0.9-1.7,1.4-2.6c-0.9-0.4-1.9-1.1-2.8-1.1c-6.1,0.2-12.1-0.3-18-2.2c-2-0.6-4.4-0.1-6.6-0.2
		c-6.4-0.6-12.8-1.3-19.2-2c-0.9-0.1-1.7-0.3-2.6-0.3c-5.7,0.3-11.2-0.9-16.9-1.7c-8.3-1.2-16.5-1.2-25,0.8c-7,1.7-12.6,4.9-17.4,10
		c-0.3,0.3-0.8,0.6-1.1,0.9c-4.6,3.6-6.1,3.1-7.7-2.5c-2.6-8.9-5.3-17.6-8-26.4c-0.2-0.5-0.4-1.1-0.3-1.6c0.1-0.9,0.2-2.2,0.8-2.5
		c0.6-0.3,1.9,0.1,2.6,0.6c3.1,2,5.9,4.7,9.2,6.1c6.8,2.9,13.7,5.2,21.6,3.1c9.2-2.4,16.9-6.8,23.1-14c3.3-3.8,5-8.4,6.9-13
		c-0.2-0.2-0.5-0.4-0.7-0.6c-0.7,0.5-1.3,1-2,1.6c-4,3.2-7.9,6.5-12.1,9.5c-1.3,0.9-3.1,1.2-4.7,1.7c-1.4-4.8,0.6-8.5,1.7-12.3
		c3.7-12.5,7.5-24.8,11.2-37.2c1.6-5.4,4.9-9.1,10.4-11.2c15.5-5.8,29.3-14.4,40.6-26.6c1.7-1.9,3.6-3.7,6.9-2.4
		c-1,1.7-1.7,3.7-3,5.2c-7.9,9.7-12.6,20.8-15.8,32.8c-1.6,5.9-4.2,11.4-9,15.6c-1.9,1.7-1.9,3.6-0.9,6c3,7.2,7.9,13.1,12.9,18.8
		c6.1,7,13.8,11.6,23.2,13.9c8.6,2.2,17.2,2.2,25.9,2.2c2,0,4-0.7,5.9-1c3.1-0.5,6.2-1,9.4-1.2c0.9-0.1,2.6,0.5,2.7,1
		c0.2,0.9-0.2,2.5-0.9,3.1c-2,1.6-4.4,2.8-6.5,4.3c-0.8,0.6-1.5,1.5-2.2,2.2c1.1,0.1,2.3,0.6,3.3,0.3c7-2,14-4.2,20.9-6.3
		c4-1.2,7.8-2.8,11.8-3.8c2.7-0.7,5.6-0.8,8.4-1.1C467,187.3,467.2,187.7,467.4,188.1z"/>
	<path class="st0" d="M106.4,235.9c-5.5,0-10.9,0.1-16.4-0.1c-1.3-0.1-2.8-0.9-3.8-1.9c-5.5-5.4-11-10.7-16.2-16.3
		c-5-5.3-10.9-9.4-17.3-12.6c-7.9-4-16.1-7.3-24.2-11c-3.1-1.5-6-3.3-9-5c0.1-0.4,0.2-0.8,0.2-1.2c0.9-0.2,1.7-0.6,2.6-0.7
		c5.4-0.7,10.2,1.7,15.1,3.3c8,2.6,16,5.5,24,8.1c0.9,0.3,2.2-0.4,3.3-0.6c0-0.3,0.1-0.6,0.1-1c-1.9-1-3.8-1.9-5.7-2.9
		c-1.8-1-2.8-4.2-1.9-6c0.2-0.3,0.7-0.8,1-0.8c1.3-0.1,2.9-0.3,4,0.2c4.4,2.3,9.1,2.2,13.9,2c5.7-0.2,11.5,0.3,17.1-0.7
		c10.4-2,19.7-6.2,27.8-13.7c7-6.5,10.8-14.8,15.8-22.4c0.5-0.7,0.1-2.7-0.6-3.3c-7.9-6.5-10.3-16-13.8-25
		c-2.9-7.4-7-14.3-10.7-21.4c-1.4-2.7-2.9-5.2-4.4-7.9c0.2-0.2,0.5-0.5,0.8-0.7c0.9,0.4,1.9,0.6,2.7,1.2c1.4,1,2.7,2.2,3.9,3.4
		c10.6,11.5,23.6,19.6,37.7,25.9c0.7,0.3,1.4,0.8,2.2,0.9c5.4,0.6,7.7,4.4,9,8.9c2.8,9.2,5.4,18.4,8.2,27.6
		c1.9,6.3,3.7,12.7,5.5,19.1c0.2,0.9,0,2-0.1,3c-1-0.2-2.4-0.1-3.1-0.6c-2.2-1.7-4.3-3.7-6.3-5.6c-3.3-3.1-6.4-6.2-9.6-9.3
		c-0.5-0.4-1.1-0.6-1.7-0.9c-0.3,0.6-0.8,1.3-0.9,2c-0.1,0.5-0.1,1.2,0.1,1.7c4.4,10.8,10.8,20.2,21.8,25.3c6.9,3.1,14.2,6,22,3.6
		c5-1.6,9.8-4,14.7-6c1.3-0.6,2.6-1.5,3.9-1.9c1-0.3,2.7-0.6,3.1-0.2c0.6,0.8,0.8,2.3,0.5,3.4c-1,3.6-2.3,7.1-3.5,10.7
		c-1.6,5-3.1,10.1-4.9,15c-1,2.9-2.9,3.2-5.4,1.3s-5-3.7-7.3-5.8c-4.3-3.9-10-4.3-15-6.4c-0.8-0.3-1.7-0.2-2.6-0.2
		c-9.8,0-19.6,0-29.4,0c-0.8,0-1.7-0.2-2.3,0.1c-6.2,3.1-12.9,1.9-19.4,2.3c-3.4,0.2-6.8,1.1-10.2,1.5c-3,0.3-5.9,0.4-8.9,0.8
		c-2.7,0.3-5.3,0.8-7.9,1.2c-3.1,0.6-6.2,1.2-9.8,2c0.8,1.1,1.3,1.9,1.9,2.7c2.6,3,5.4,5.8,7.9,8.9c1,1.3,1.5,3.2,2.2,4.8
		C106.9,235.1,106.6,235.5,106.4,235.9z"/>
	<path class="st0" d="M234.9,147.3c-3.3-3-5.4-6.5-5.3-10.7c0-5.2-0.8-10.1-1.9-15.1c-1.5-6.6-2-13.5-2.8-20.2
		c-0.2-1.6,0.3-3.4,0.8-5.1c3-10.2,6.2-20.4,9-30.6c1.3-4.8,1.7-9.8,2.4-14.7c0.7-5.5,1-11.1,1.9-16.6c0.7-4.2,2-8.3,3.3-12.5
		c0.2-0.6,1.7-1.2,2.5-1.1c0.9,0.1,2.2,0.9,2.6,1.7c0.6,1.2,0.7,2.8,0.9,4.2c0.6,5.2,1.3,10.5,1.8,15.7c0.2,2.2,0.3,4.4,0.5,6.6
		c0.5,4.8,1,9.7,1.7,14.6c0.8,4.9,1.6,9.8,3,14.6c1.4,4.8,3.3,9.4,5.2,14c2.3,5.5,2.1,11.1,0.8,16.7c-0.4,1.7-1.3,3.6-1.3,5.3
		c0.2,8.6-3.9,16.7-2.6,25.4c0.2,1.6-0.3,3.6-1,5c-0.5,1-2.1,2.2-3.2,2.2c-1.1,0.1-3-1-3.3-2c-1.7-5.2-3.2-10.6-4.5-16
		c-0.3-1.5,0.2-3.6-1.8-3.7c-2.3-0.2-1.9,2.3-2.3,3.7c-1.9,5.8-3.6,11.7-5.4,17.6C235.7,146.6,235.4,146.7,234.9,147.3z"/>
	<path class="st0" d="M250.3,453.6c2.4,8.7-3.1,15.9-5.6,23.9c-0.2,0.7-1.1,1.2-1.7,1.7c-0.6-0.7-1.5-1.3-1.7-2
		c-1.6-5.2-4-10.4-4.4-15.7c-0.6-7.8-1.7-15.8,1.6-23.5c1-2.2,1.7-4.5,2.7-6.7c0.4-0.8,1.4-1.8,2.2-1.9c0.8,0,1.9,0.9,2.3,1.7
		C249.3,438,251.5,445.3,250.3,453.6z"/>
	<path class="st0" d="M341.2,105.3c0.8-11.9,4.5-22.3,11.8-31.3c1.5-1.8,2.7-3.8,4.4-5.4c0.9-0.8,2.5-0.8,3.8-1
		c0.1,1.4,0.9,3.3,0.3,4.2c-7.2,10.2-10.2,22.1-14.1,33.7c-0.6,2-1,4.1-1.6,6.1c-0.2,0.7-1.2,1.6-1.8,1.6s-1.7-0.9-1.9-1.6
		C341.5,109.4,341.4,107.1,341.2,105.3z"/>
	<path class="st0" d="M145.6,105.5c0,1.3,0.3,2.6-0.1,3.7c-0.3,1-1.5,1.9-2.3,2.7c-0.8-0.9-1.9-1.8-2.2-2.9
		c-0.8-2.6-0.9-5.4-1.9-7.7c-3.4-8.3-7.1-16.6-10.7-24.9c-0.7-1.6-1.5-3.1-2-4.8c-0.2-0.8,0.1-2.1,0.7-2.6c0.4-0.3,1.8,0.1,2.4,0.5
		c1,0.7,1.9,1.7,2.6,2.7c3.3,5.1,7,10.1,9.4,15.6c2.3,5.5,3.1,11.6,4.5,17.4C146.1,105.4,145.9,105.5,145.6,105.5z"/>
</g>
</svg>
